	.include "sound/MPlayDef.s"

	.section .rodata

	@********************** Track  1 **********************@

	.align 2
	.global song025_1
song025_1:	@ 0x087AD5EC
	.byte	KEYSH	, 0
song025_1_4:
	.byte	TEMPO	, 50
	.byte	VOICE	, 126
	.byte	VOL	, v077
	.byte	PAN	, c_v
	.byte	BENDR	, 3
	.byte	W96
	.byte	W96
	.byte	W96
	.byte	W96
	.byte	W96
	.byte	W96
	.byte	W96
	.byte	W96
song025_1_1:
	.byte		N05	, Gs2, v127
	.byte	W06
	.byte			An2
	.byte	W06
	.byte			As2
	.byte	W06
	.byte			Bn2
	.byte	W06
	.byte			Cn3
	.byte	W06
	.byte			Cs3
	.byte	W06
	.byte			As2
	.byte	W06
	.byte			Bn2
	.byte	W06
	.byte			As2
	.byte	W06
	.byte			Bn2
	.byte	W06
	.byte			Gs2
	.byte	W06
	.byte			An2
	.byte	W06
	.byte			Cn3
	.byte	W06
	.byte			Cs3
	.byte	W06
	.byte			As2
	.byte	W06
	.byte			Bn2
	.byte	W06
	.byte	PEND
	.byte	PATT	
		.int	song025_1_1
	.byte	PATT	
		.int	song025_1_1
song025_1_2:
	.byte		N05	, Gs2, v127
	.byte	W06
	.byte			An2
	.byte	W06
	.byte			As2
	.byte	W06
	.byte			Bn2
	.byte	W06
	.byte			Cn3
	.byte	W06
	.byte			Cs3
	.byte	W06
	.byte			As2
	.byte	W06
	.byte			Bn2
	.byte	W06
	.byte			As2
	.byte	W06
	.byte			Bn2
	.byte	W06
	.byte			Gs2
	.byte	W06
	.byte			An2
	.byte	W06
	.byte			Cn3
	.byte	W06
	.byte			Cs3
	.byte	W06
	.byte			Cn3
	.byte	W06
	.byte		N05	
	.byte	W06
	.byte	PEND
	.byte	PATT	
		.int	song025_1_1
	.byte	PATT	
		.int	song025_1_1
	.byte	PATT	
		.int	song025_1_1
song025_1_3:
	.byte		N05	, Gs2, v127
	.byte	W06
	.byte			An2
	.byte	W06
	.byte			As2
	.byte	W06
	.byte			Bn2
	.byte	W06
	.byte			Cn3
	.byte	W06
	.byte			Cs3
	.byte	W06
	.byte			As2
	.byte	W06
	.byte			Bn2
	.byte	W06
	.byte			As2
	.byte	W06
	.byte			Bn2
	.byte	W06
	.byte			Gs2
	.byte	W06
	.byte			An2
	.byte	W06
	.byte			Cn3
	.byte	W06
	.byte		N05	
	.byte	W06
	.byte		N05	
	.byte	W06
	.byte		N05	
	.byte	W06
	.byte	PEND
	.byte	PATT	
		.int	song025_1_1
	.byte	PATT	
		.int	song025_1_1
	.byte	PATT	
		.int	song025_1_1
	.byte	PATT	
		.int	song025_1_2
	.byte	PATT	
		.int	song025_1_1
	.byte	PATT	
		.int	song025_1_1
	.byte	PATT	
		.int	song025_1_1
	.byte	PATT	
		.int	song025_1_3
	.byte	PATT	
		.int	song025_1_1
	.byte	PATT	
		.int	song025_1_1
	.byte	PATT	
		.int	song025_1_1
	.byte		N05	, Gs2, v127
	.byte	W06
	.byte			An2
	.byte	W06
	.byte			As2
	.byte	W06
	.byte			Bn2
	.byte	W06
	.byte			Cn3
	.byte	W06
	.byte			Cs3
	.byte	W06
	.byte			As2
	.byte	W06
	.byte			Bn2
	.byte	W30
	.byte		N02	, Gn0
	.byte	W03
	.byte		N02	
	.byte	W03
	.byte		N02	
	.byte	W03
	.byte		N02	
	.byte	W03
	.byte			Cs3
	.byte	W03
	.byte		N02	
	.byte	W03
	.byte		N02	
	.byte	W03
	.byte		N02	
	.byte	W03
	.byte	GOTO	
		.int	song025_1_4
	.byte	FINE

	@********************** Track  2 **********************@

	.global song025_2
song025_2:	@ 0x087AD6E2
	.byte	KEYSH	, 0
song025_2_9:
	.byte	VOICE	, 86
	.byte	VOL	, v110
	.byte	PAN	, c_v
	.byte	BENDR	, 3
	.byte	W96
	.byte	W96
	.byte	W96
	.byte	W96
	.byte	W96
	.byte	W96
	.byte	W96
	.byte	W96
song025_2_1:
	.byte		N05	, Gs2, v127
	.byte	W06
	.byte			As2
	.byte	W06
	.byte		N11	, Bn2
	.byte	W12
	.byte			Gs2
	.byte	W12
	.byte		N05	, As2
	.byte	W06
	.byte		N11	, Bn2
	.byte	W12
	.byte		N05	, Gs2
	.byte	W06
	.byte			As2
	.byte	W06
	.byte			Bn2
	.byte	W06
	.byte		N11	, Gs2
	.byte	W12
	.byte		N05	, As2
	.byte	W06
	.byte			Bn2
	.byte	W06
	.byte	PEND
song025_2_2:
	.byte		N11	, Gs2, v127
	.byte	W12
	.byte			As2
	.byte	W12
	.byte			Bn2
	.byte	W12
	.byte		N05	, Gs2
	.byte	W06
	.byte		N11	, As2
	.byte	W12
	.byte		N05	, Bn2
	.byte	W06
	.byte			Gs2
	.byte	W06
	.byte			As2
	.byte	W06
	.byte		N11	, Bn2
	.byte	W12
	.byte		N05	, Gs2
	.byte	W06
	.byte			As2
	.byte	W06
	.byte	PEND
song025_2_3:
	.byte		N05	, Gn2, v127
	.byte	W06
	.byte			An2
	.byte	W06
	.byte		N11	, As2
	.byte	W12
	.byte			Gn2
	.byte	W12
	.byte		N05	, An2
	.byte	W06
	.byte		N11	, As2
	.byte	W12
	.byte		N05	, Gn2
	.byte	W06
	.byte			An2
	.byte	W06
	.byte			As2
	.byte	W06
	.byte		N11	, Gn2
	.byte	W12
	.byte		N05	, An2
	.byte	W06
	.byte			As2
	.byte	W06
	.byte	PEND
song025_2_4:
	.byte		N11	, Gn2, v127
	.byte	W12
	.byte			An2
	.byte	W12
	.byte			As2
	.byte	W12
	.byte		N05	, Gn2
	.byte	W06
	.byte		N11	, An2
	.byte	W12
	.byte		N05	, As2
	.byte	W06
	.byte			Gn2
	.byte	W06
	.byte			An2
	.byte	W06
	.byte		N11	, As2
	.byte	W12
	.byte		N05	, Gn2
	.byte	W06
	.byte			An2
	.byte	W06
	.byte	PEND
	.byte	PATT	
		.int	song025_2_1
	.byte	PATT	
		.int	song025_2_2
	.byte	PATT	
		.int	song025_2_3
	.byte	PATT	
		.int	song025_2_4
song025_2_5:
	.byte		N05	, Fs2, v127
	.byte	W06
	.byte			Gs2
	.byte	W06
	.byte		N11	, An2
	.byte	W12
	.byte			Fs2
	.byte	W12
	.byte		N05	, Gs2
	.byte	W06
	.byte		N11	, An2
	.byte	W12
	.byte		N05	, Fs2
	.byte	W06
	.byte			Gs2
	.byte	W06
	.byte			An2
	.byte	W06
	.byte		N11	, Fs2
	.byte	W12
	.byte		N05	, Gs2
	.byte	W06
	.byte			An2
	.byte	W06
	.byte	PEND
song025_2_6:
	.byte		N11	, Fs2, v127
	.byte	W12
	.byte			Gs2
	.byte	W12
	.byte			An2
	.byte	W12
	.byte		N05	, Fs2
	.byte	W06
	.byte		N11	, Gs2
	.byte	W12
	.byte		N05	, An2
	.byte	W06
	.byte			Fs2
	.byte	W06
	.byte			Gs2
	.byte	W06
	.byte		N11	, An2
	.byte	W12
	.byte		N05	, Fs2
	.byte	W06
	.byte			Gs2
	.byte	W06
	.byte	PEND
song025_2_7:
	.byte		N05	, Fn2, v127
	.byte	W06
	.byte			Gn2
	.byte	W06
	.byte		N11	, Gs2
	.byte	W12
	.byte			Fn2
	.byte	W12
	.byte		N05	, Gn2
	.byte	W06
	.byte		N11	, Gs2
	.byte	W12
	.byte		N05	, Fn2
	.byte	W06
	.byte			Gn2
	.byte	W06
	.byte			Gs2
	.byte	W06
	.byte		N11	, Fn2
	.byte	W12
	.byte		N05	, Gn2
	.byte	W06
	.byte			Gs2
	.byte	W06
	.byte	PEND
song025_2_8:
	.byte		N11	, Fn2, v127
	.byte	W12
	.byte			Gn2
	.byte	W12
	.byte			Gs2
	.byte	W12
	.byte		N05	, Fn2
	.byte	W06
	.byte		N11	, Gn2
	.byte	W12
	.byte		N05	, Gs2
	.byte	W06
	.byte			Fn2
	.byte	W06
	.byte			Gn2
	.byte	W06
	.byte		N11	, Gs2
	.byte	W12
	.byte		N05	, Fn2
	.byte	W06
	.byte			Gn2
	.byte	W06
	.byte	PEND
	.byte	PATT	
		.int	song025_2_5
	.byte	PATT	
		.int	song025_2_6
	.byte	PATT	
		.int	song025_2_7
	.byte	PATT	
		.int	song025_2_8
	.byte	W96
	.byte	W96
	.byte	W96
	.byte	W96
	.byte	GOTO	
		.int	song025_2_9
	.byte	FINE

	@********************** Track  3 **********************@

	.global song025_3
song025_3:	@ 0x087AD822
	.byte	KEYSH	, 0
song025_3_1:
	.byte	VOICE	, 119
	.byte	VOL	, v077
	.byte	PAN	, c_v
	.byte	BENDR	, 3
	.byte	LFOS	, 27
	.byte	LFODL	, 0
	.byte	MOD	, 27
	.byte	MODT	, 2
	.byte		TIE	, Cn3, v127
	.byte	W96
	.byte	W96
	.byte		EOT	
	.byte		TIE	, Bn2
	.byte	W96
	.byte	W96
	.byte		EOT	
	.byte		TIE	, Cn3
	.byte	W96
	.byte	W96
	.byte		EOT	
	.byte		TIE	, Bn2
	.byte	W96
	.byte	W96
	.byte		EOT	
	.byte		TIE	, Cn3
	.byte	W96
	.byte	W96
	.byte		EOT	
	.byte		TIE	, Bn2
	.byte	W96
	.byte	W96
	.byte		EOT	
	.byte		TIE	, Cn3
	.byte	W96
	.byte	W96
	.byte		EOT	
	.byte		TIE	, Bn2
	.byte	W96
	.byte	W96
	.byte		EOT	
	.byte		TIE	, As2
	.byte	W96
	.byte	W96
	.byte		EOT	
	.byte		TIE	, An2
	.byte	W96
	.byte	W96
	.byte		EOT	
	.byte		TIE	, As2
	.byte	W96
	.byte	W96
	.byte		EOT	
	.byte		TIE	, An2
	.byte	W96
	.byte	W96
	.byte		EOT	
	.byte	W96
	.byte	W96
	.byte	W96
	.byte	W96
	.byte	GOTO	
		.int	song025_3_1
	.byte	FINE

	@********************** Track  4 **********************@

	.global song025_4
song025_4:	@ 0x087AD87B
	.byte	KEYSH	, 0
song025_4_1:
	.byte	VOICE	, 127
	.byte	VOL	, v110
	.byte	PAN	, c_v
	.byte	BENDR	, 3
	.byte	LFOS	, 31
	.byte	LFODL	, 22
	.byte	MOD	, 4
	.byte	MODT	, 0
	.byte		N96	, Cn2, v127
	.byte	W96
	.byte	W96
	.byte	W96
	.byte	W96
	.byte	W96
	.byte	W96
	.byte	W96
	.byte	W96
	.byte	W96
	.byte	W96
	.byte	W96
	.byte	W96
	.byte	W96
	.byte	W96
	.byte	W96
	.byte	W96
	.byte	W96
	.byte	W96
	.byte	W96
	.byte	W96
	.byte	W96
	.byte	W96
	.byte	W96
	.byte	W96
	.byte	W96
	.byte	W96
	.byte	W96
	.byte	W96
	.byte	GOTO	
		.int	song025_4_1
	.byte	FINE

	@********************** Track  5 **********************@

	.global song025_5
song025_5:	@ 0x087AD8B2
	.byte	KEYSH	, 0
song025_5_9:
	.byte	VOICE	, 42
	.byte	VOL	, v077
	.byte	PAN	, c_v
	.byte	BENDR	, 3
	.byte	LFOS	, 23
	.byte	LFODL	, 0
	.byte	MOD	, 56
	.byte	MODT	, 2
	.byte		N03	, Cn4, v108
	.byte	W03
	.byte			Cn5, v112
	.byte	W03
	.byte			Cn4, v100
	.byte	W03
	.byte			Fn4
	.byte	W03
	.byte			Gn4, v116
	.byte	W03
	.byte			Dn4
	.byte	W03
	.byte			Ds4, v108
	.byte	W03
	.byte			As3, v112
	.byte	W03
	.byte			Cn4, v100
	.byte	W03
	.byte			Gn4, v108
	.byte	W03
	.byte			Dn4
	.byte	W03
	.byte			Ds4, v104
	.byte	W03
	.byte			As4, v120
	.byte	W03
	.byte			Gn4, v108
	.byte	W03
	.byte			Cn5, v120
	.byte	W03
	.byte			As4, v124
	.byte	W03
	.byte			Dn4
	.byte	W03
	.byte			Ds4, v112
	.byte	W03
	.byte			Gn4, v108
	.byte	W03
	.byte			Cn4, v104
	.byte	W03
	.byte			Gn4, v116
	.byte	W03
	.byte			Fn4, v108
	.byte	W03
	.byte			As4, v116
	.byte	W03
	.byte			As3
	.byte	W03
	.byte			Cn4, v108
	.byte	W03
	.byte			Ds4, v116
	.byte	W03
	.byte			Cn4, v104
	.byte	W03
	.byte			Gn4, v124
	.byte	W03
	.byte			Fn4, v100
	.byte	W03
	.byte			As4, v120
	.byte	W03
	.byte			Dn4, v116
	.byte	W03
	.byte			As3, v112
	.byte	W03
song025_5_1:
	.byte		N03	, Cn4, v112
	.byte	W03
	.byte			Cn5, v100
	.byte	W03
	.byte			Ds4, v120
	.byte	W03
	.byte			Gn4, v116
	.byte	W03
	.byte			Dn4, v100
	.byte	W03
	.byte			Fn4, v104
	.byte	W03
	.byte			As4, v124
	.byte	W03
	.byte			Gn4, v108
	.byte	W03
	.byte			Cn5, v124
	.byte	W03
	.byte			Ds4, v112
	.byte	W03
	.byte			Gn4, v116
	.byte	W03
	.byte			Fn4
	.byte	W03
	.byte			As4, v108
	.byte	W03
	.byte			As3
	.byte	W03
	.byte			Dn4, v096
	.byte	W03
	.byte			Ds4
	.byte	W03
	.byte			Gn4, v116
	.byte	W03
	.byte			Dn4, v104
	.byte	W03
	.byte			Ds4, v108
	.byte	W03
	.byte			Fn4, v092
	.byte	W03
	.byte			As4, v108
	.byte	W03
	.byte			Fn4, v096
	.byte	W03
	.byte			Dn4, v104
	.byte	W03
	.byte			Gn4, v100
	.byte	W03
	.byte			As3, v120
	.byte	W03
	.byte			Cn4, v104
	.byte	W03
	.byte			Ds4, v112
	.byte	W03
	.byte			Dn4, v120
	.byte	W03
	.byte			As4
	.byte	W03
	.byte			Gn4, v116
	.byte	W03
	.byte			Dn4, v088
	.byte	W03
	.byte			As3, v120
	.byte	W03
	.byte	PEND
song025_5_2:
	.byte		N03	, Bn3, v108
	.byte	W03
	.byte			Bn4, v112
	.byte	W03
	.byte			Bn3, v100
	.byte	W03
	.byte			En4
	.byte	W03
	.byte			Fs4, v116
	.byte	W03
	.byte			Cs4
	.byte	W03
	.byte			Dn4, v108
	.byte	W03
	.byte			An3, v112
	.byte	W03
	.byte			Bn3, v100
	.byte	W03
	.byte			Fs4, v108
	.byte	W03
	.byte			Cs4
	.byte	W03
	.byte			Dn4, v104
	.byte	W03
	.byte			An4, v120
	.byte	W03
	.byte			Fs4, v108
	.byte	W03
	.byte			Bn4, v120
	.byte	W03
	.byte			An4, v124
	.byte	W03
	.byte			Cs4
	.byte	W03
	.byte			Dn4, v112
	.byte	W03
	.byte			Fs4, v108
	.byte	W03
	.byte			Bn3, v104
	.byte	W03
	.byte			Fs4, v116
	.byte	W03
	.byte			En4, v108
	.byte	W03
	.byte			An4, v116
	.byte	W03
	.byte			An3
	.byte	W03
	.byte			Bn3, v108
	.byte	W03
	.byte			Dn4, v116
	.byte	W03
	.byte			Bn3, v104
	.byte	W03
	.byte			Fs4, v124
	.byte	W03
	.byte			En4, v100
	.byte	W03
	.byte			An4, v120
	.byte	W03
	.byte			Cs4, v116
	.byte	W03
	.byte			An3, v112
	.byte	W03
	.byte	PEND
song025_5_3:
	.byte		N03	, Bn3, v112
	.byte	W03
	.byte			Bn4, v100
	.byte	W03
	.byte			Dn4, v120
	.byte	W03
	.byte			Fs4, v116
	.byte	W03
	.byte			Cs4, v100
	.byte	W03
	.byte			En4, v104
	.byte	W03
	.byte			An4, v124
	.byte	W03
	.byte			Fs4, v108
	.byte	W03
	.byte			Bn4, v124
	.byte	W03
	.byte			Dn4, v112
	.byte	W03
	.byte			Fs4, v116
	.byte	W03
	.byte			En4
	.byte	W03
	.byte			An4, v108
	.byte	W03
	.byte			An3
	.byte	W03
	.byte			Cs4, v096
	.byte	W03
	.byte			Dn4
	.byte	W03
	.byte			Fs4, v116
	.byte	W03
	.byte			Cs4, v104
	.byte	W03
	.byte			Dn4, v108
	.byte	W03
	.byte			En4, v092
	.byte	W03
	.byte			An4, v108
	.byte	W03
	.byte			En4, v096
	.byte	W03
	.byte			Cs4, v104
	.byte	W03
	.byte			Fs4, v100
	.byte	W03
	.byte			An3, v120
	.byte	W03
	.byte			Bn3, v104
	.byte	W03
	.byte			Dn4, v112
	.byte	W03
	.byte			Cs4, v120
	.byte	W03
	.byte			An4
	.byte	W03
	.byte			Fs4, v116
	.byte	W03
	.byte			Cs4, v088
	.byte	W03
	.byte			An3, v120
	.byte	W03
	.byte	PEND
song025_5_4:
	.byte		N03	, Cn4, v108
	.byte	W03
	.byte			Cn5, v112
	.byte	W03
	.byte			Cn4, v100
	.byte	W03
	.byte			Fn4
	.byte	W03
	.byte			Gn4, v116
	.byte	W03
	.byte			Dn4
	.byte	W03
	.byte			Ds4, v108
	.byte	W03
	.byte			As3, v112
	.byte	W03
	.byte			Cn4, v100
	.byte	W03
	.byte			Gn4, v108
	.byte	W03
	.byte			Dn4
	.byte	W03
	.byte			Ds4, v104
	.byte	W03
	.byte			As4, v120
	.byte	W03
	.byte			Gn4, v108
	.byte	W03
	.byte			Cn5, v120
	.byte	W03
	.byte			As4, v124
	.byte	W03
	.byte			Dn4
	.byte	W03
	.byte			Ds4, v112
	.byte	W03
	.byte			Gn4, v108
	.byte	W03
	.byte			Cn4, v104
	.byte	W03
	.byte			Gn4, v116
	.byte	W03
	.byte			Fn4, v108
	.byte	W03
	.byte			As4, v116
	.byte	W03
	.byte			As3
	.byte	W03
	.byte			Cn4, v108
	.byte	W03
	.byte			Ds4, v116
	.byte	W03
	.byte			Cn4, v104
	.byte	W03
	.byte			Gn4, v124
	.byte	W03
	.byte			Fn4, v100
	.byte	W03
	.byte			As4, v120
	.byte	W03
	.byte			Dn4, v116
	.byte	W03
	.byte			As3, v112
	.byte	W03
	.byte	PEND
	.byte	PATT	
		.int	song025_5_1
	.byte	PATT	
		.int	song025_5_2
	.byte	PATT	
		.int	song025_5_3
	.byte	PATT	
		.int	song025_5_4
	.byte	PATT	
		.int	song025_5_1
	.byte	PATT	
		.int	song025_5_2
	.byte	PATT	
		.int	song025_5_3
	.byte	PATT	
		.int	song025_5_4
	.byte	PATT	
		.int	song025_5_1
	.byte	PATT	
		.int	song025_5_2
	.byte	PATT	
		.int	song025_5_3
song025_5_5:
	.byte		N03	, As3, v108
	.byte	W03
	.byte			As4, v112
	.byte	W03
	.byte			As3, v100
	.byte	W03
	.byte			Ds4
	.byte	W03
	.byte			Fn4, v116
	.byte	W03
	.byte			Cn4
	.byte	W03
	.byte			Cs4, v108
	.byte	W03
	.byte			Gs3, v112
	.byte	W03
	.byte			As3, v100
	.byte	W03
	.byte			Fn4, v108
	.byte	W03
	.byte			Cn4
	.byte	W03
	.byte			Cs4, v104
	.byte	W03
	.byte			Gs4, v120
	.byte	W03
	.byte			Fn4, v108
	.byte	W03
	.byte			As4, v120
	.byte	W03
	.byte			Gs4, v124
	.byte	W03
	.byte			Cn4
	.byte	W03
	.byte			Cs4, v112
	.byte	W03
	.byte			Fn4, v108
	.byte	W03
	.byte			As3, v104
	.byte	W03
	.byte			Fn4, v116
	.byte	W03
	.byte			Ds4, v108
	.byte	W03
	.byte			Gs4, v116
	.byte	W03
	.byte			Gs3
	.byte	W03
	.byte			As3, v108
	.byte	W03
	.byte			Cs4, v116
	.byte	W03
	.byte			As3, v104
	.byte	W03
	.byte			Fn4, v124
	.byte	W03
	.byte			Ds4, v100
	.byte	W03
	.byte			Gs4, v120
	.byte	W03
	.byte			Cn4, v116
	.byte	W03
	.byte			Gs3, v112
	.byte	W03
	.byte	PEND
song025_5_6:
	.byte		N03	, As3, v112
	.byte	W03
	.byte			As4, v100
	.byte	W03
	.byte			Cs4, v120
	.byte	W03
	.byte			Fn4, v116
	.byte	W03
	.byte			Cn4, v100
	.byte	W03
	.byte			Ds4, v104
	.byte	W03
	.byte			Gs4, v124
	.byte	W03
	.byte			Fn4, v108
	.byte	W03
	.byte			As4, v124
	.byte	W03
	.byte			Cs4, v112
	.byte	W03
	.byte			Fn4, v116
	.byte	W03
	.byte			Ds4
	.byte	W03
	.byte			Gs4, v108
	.byte	W03
	.byte			Gs3
	.byte	W03
	.byte			Cn4, v096
	.byte	W03
	.byte			Cs4
	.byte	W03
	.byte			Fn4, v116
	.byte	W03
	.byte			Cn4, v104
	.byte	W03
	.byte			Cs4, v108
	.byte	W03
	.byte			Ds4, v092
	.byte	W03
	.byte			Gs4, v108
	.byte	W03
	.byte			Ds4, v096
	.byte	W03
	.byte			Cn4, v104
	.byte	W03
	.byte			Fn4, v100
	.byte	W03
	.byte			Gs3, v120
	.byte	W03
	.byte			As3, v104
	.byte	W03
	.byte			Cs4, v112
	.byte	W03
	.byte			Cn4, v120
	.byte	W03
	.byte			Gs4
	.byte	W03
	.byte			Fn4, v116
	.byte	W03
	.byte			Cn4, v088
	.byte	W03
	.byte			Gs3, v120
	.byte	W03
	.byte	PEND
song025_5_7:
	.byte		N03	, An3, v108
	.byte	W03
	.byte			An4, v112
	.byte	W03
	.byte			An3, v100
	.byte	W03
	.byte			Dn4
	.byte	W03
	.byte			En4, v116
	.byte	W03
	.byte			Bn3
	.byte	W03
	.byte			Cn4, v108
	.byte	W03
	.byte			Gn3, v112
	.byte	W03
	.byte			An3, v100
	.byte	W03
	.byte			En4, v108
	.byte	W03
	.byte			Bn3
	.byte	W03
	.byte			Cn4, v104
	.byte	W03
	.byte			Gn4, v120
	.byte	W03
	.byte			En4, v108
	.byte	W03
	.byte			An4, v120
	.byte	W03
	.byte			Gn4, v124
	.byte	W03
	.byte			Bn3
	.byte	W03
	.byte			Cn4, v112
	.byte	W03
	.byte			En4, v108
	.byte	W03
	.byte			An3, v104
	.byte	W03
	.byte			En4, v116
	.byte	W03
	.byte			Dn4, v108
	.byte	W03
	.byte			Gn4, v116
	.byte	W03
	.byte			Gn3
	.byte	W03
	.byte			An3, v108
	.byte	W03
	.byte			Cn4, v116
	.byte	W03
	.byte			An3, v104
	.byte	W03
	.byte			En4, v124
	.byte	W03
	.byte			Dn4, v100
	.byte	W03
	.byte			Gn4, v120
	.byte	W03
	.byte			Bn3, v116
	.byte	W03
	.byte			Gn3, v112
	.byte	W03
	.byte	PEND
song025_5_8:
	.byte		N03	, An3, v112
	.byte	W03
	.byte			An4, v100
	.byte	W03
	.byte			Cn4, v120
	.byte	W03
	.byte			En4, v116
	.byte	W03
	.byte			Bn3, v100
	.byte	W03
	.byte			Dn4, v104
	.byte	W03
	.byte			Gn4, v124
	.byte	W03
	.byte			En4, v108
	.byte	W03
	.byte			An4, v124
	.byte	W03
	.byte			Cn4, v112
	.byte	W03
	.byte			En4, v116
	.byte	W03
	.byte			Dn4
	.byte	W03
	.byte			Gn4, v108
	.byte	W03
	.byte			Gn3
	.byte	W03
	.byte			Bn3, v096
	.byte	W03
	.byte			Cn4
	.byte	W03
	.byte			En4, v116
	.byte	W03
	.byte			Bn3, v104
	.byte	W03
	.byte			Cn4, v108
	.byte	W03
	.byte			Dn4, v092
	.byte	W03
	.byte			Gn4, v108
	.byte	W03
	.byte			Dn4, v096
	.byte	W03
	.byte			Bn3, v104
	.byte	W03
	.byte			En4, v100
	.byte	W03
	.byte			Gn3, v120
	.byte	W03
	.byte			An3, v104
	.byte	W03
	.byte			Cn4, v112
	.byte	W03
	.byte			Bn3, v120
	.byte	W03
	.byte			Gn4
	.byte	W03
	.byte			En4, v116
	.byte	W03
	.byte			Bn3, v088
	.byte	W03
	.byte			Gn3, v120
	.byte	W03
	.byte	PEND
	.byte	PATT	
		.int	song025_5_5
	.byte	PATT	
		.int	song025_5_6
	.byte	PATT	
		.int	song025_5_7
	.byte	PATT	
		.int	song025_5_8
	.byte	PATT	
		.int	song025_5_7
	.byte	PATT	
		.int	song025_5_8
	.byte	PATT	
		.int	song025_5_7
	.byte	W96
	.byte	GOTO	
		.int	song025_5_9
	.byte	FINE

	@********************** Track  6 **********************@

	.global song025_6
song025_6:	@ 0x087ADC6D
	.byte	KEYSH	, 0
song025_6_1:
	.byte	VOICE	, 50
	.byte	VOL	, v077
	.byte	PAN	, c_v
	.byte	BENDR	, 3
	.byte	LFOS	, 16
	.byte	LFODL	, 0
	.byte	MOD	, 0
	.byte	MODT	, 2
	.byte	W96
	.byte	W96
	.byte	W96
	.byte	W96
	.byte	W96
	.byte	W96
	.byte	W96
	.byte	W30
	.byte	W01
	.byte	VOL	, v000
	.byte	W01
	.byte		v001
	.byte	W01
	.byte		v003
	.byte	W01
	.byte		v005
	.byte	W01
	.byte		v006
	.byte	W01
	.byte		v008
	.byte	W01
	.byte		v009
	.byte	W01
	.byte		v011
	.byte	W01
	.byte		v012
	.byte	W01
	.byte		v014
	.byte	W01
	.byte		v016
	.byte	W01
	.byte		v018
	.byte	W01
	.byte		v019
	.byte	W01
	.byte		v020
	.byte	W01
	.byte		v022
	.byte	W01
	.byte		v024
	.byte	W01
	.byte		v025
	.byte	W01
	.byte		v026
	.byte		N48	, Cn5, v127
	.byte	W01
	.byte	VOL	, v028
	.byte	W01
	.byte		v030
	.byte	W01
	.byte		v032
	.byte	W01
	.byte		v033
	.byte	W01
	.byte		v035
	.byte	W01
	.byte		v036
	.byte	W01
	.byte		v038
	.byte	W01
	.byte		v039
	.byte	W01
	.byte		v041
	.byte	W01
	.byte		v042
	.byte	W01
	.byte		v044
	.byte	W01
	.byte		v045
	.byte	W01
	.byte		v047
	.byte	W01
	.byte		v049
	.byte	W01
	.byte		v051
	.byte	W01
	.byte		v052
	.byte	W01
	.byte		v054
	.byte	W01
	.byte		v055
	.byte	W01
	.byte		v057
	.byte	W01
	.byte		v058
	.byte	W01
	.byte		v059
	.byte	W01
	.byte		v061
	.byte	W01
	.byte		v063
	.byte	W01
	.byte		v064
	.byte	W01
	.byte		v066
	.byte	W01
	.byte		v068
	.byte	W01
	.byte		v070
	.byte	W01
	.byte		v071
	.byte	W01
	.byte		v073
	.byte	W01
	.byte		v074
	.byte	W01
	.byte		v075
	.byte	W01
	.byte		v077
	.byte	W01
	.byte		v078
	.byte	W01
	.byte		v080
	.byte	W01
	.byte		v082
	.byte	W01
	.byte		v084
	.byte	W01
	.byte		v085
	.byte	W01
	.byte		v087
	.byte	W01
	.byte		v089
	.byte	W01
	.byte		v090
	.byte	W01
	.byte		v091
	.byte	W01
	.byte		v092
	.byte	W01
	.byte		v094
	.byte	W01
	.byte		v096
	.byte	W01
	.byte		v097
	.byte	W01
	.byte		v099
	.byte	W01
	.byte		v101
	.byte	W01
	.byte		v103
	.byte	W01
	.byte		v104
	.byte	W01
	.byte		v106
	.byte	W01
	.byte		v108
	.byte	W01
	.byte		v109
	.byte	W01
	.byte		v110
	.byte	W90
	.byte	W01
	.byte	W96
	.byte	W96
	.byte	W96
	.byte	W96
	.byte	W96
	.byte	W96
	.byte	W96
	.byte	W96
	.byte	W96
	.byte	W96
	.byte	W96
	.byte	W96
	.byte	W96
	.byte	W96
	.byte	W96
	.byte	W96
	.byte	W96
	.byte	W96
	.byte	W96
	.byte	GOTO	
		.int	song025_6_1
	.byte	FINE

	@********************** Track  7 **********************@

	.global song025_7
song025_7:	@ 0x087ADD35
	.byte	KEYSH	, 0
song025_7_1:
	.byte	VOICE	, 96
	.byte	VOL	, v110
	.byte	PAN	, c_v
	.byte	BENDR	, 3
	.byte	LFOS	, 16
	.byte	LFODL	, 0
	.byte	MOD	, 56
	.byte	MODT	, 2
	.byte	W96
	.byte	W96
	.byte	W96
	.byte	W96
	.byte	W96
	.byte	W96
	.byte	W96
	.byte	W96
	.byte	W96
	.byte	W96
	.byte	W96
	.byte	W96
	.byte	W96
	.byte	W96
	.byte	W96
	.byte	W96
	.byte	W96
	.byte	W96
	.byte	W96
	.byte	W96
	.byte	W96
	.byte	W96
	.byte	W96
	.byte	W96
	.byte		N24	, An1, v120
	.byte		N24	, An2
	.byte	W96
	.byte	W96
	.byte	W96
	.byte	W96
	.byte	GOTO	
		.int	song025_7_1
	.byte	FINE

	.align 2
	.global song025
song025:	@ 0x087ADD70
	.byte	7		@ trackCount
	.byte	0		@ blockCount
	.byte	0		@ priority
	.byte	128		@ reverb

	.int	voicegroup000		@ voicegroup/tone

	.int	song025_1		@ track
	.int	song025_2		@ track
	.int	song025_3		@ track
	.int	song025_4		@ track
	.int	song025_5		@ track
	.int	song025_6		@ track
	.int	song025_7		@ track
