	.include "sound/MPlayDef.s"

	.section .rodata

	@********************** Track  1 **********************@

	.align 2
	.global song031_1
song031_1:	@ 0x087B1BC4
	.byte	KEYSH	, 0
	.byte	TEMPO	, 57
	.byte	VOICE	, 11
	.byte	VOL	, v063
	.byte	PAN	, c_v
	.byte	BENDR	, 3
	.byte		N06	, Fs1, v127
	.byte	W06
	.byte			An1
	.byte	W06
	.byte			Fs1
	.byte	W06
	.byte			Cn2
	.byte	W06
	.byte			Bn1
	.byte	W06
	.byte			An1
	.byte	W06
	.byte			Fs1
	.byte	W06
	.byte			An1
	.byte	W06
	.byte			Fs1
	.byte	W06
	.byte			En1
	.byte	W06
	.byte			Cs1
	.byte	W06
	.byte			Fn1
	.byte	W06
song031_1_1:
	.byte		N06	, Fs1, v127
	.byte	W06
	.byte			An1
	.byte	W06
	.byte			Fs1
	.byte	W06
	.byte			Cn2
	.byte	W06
	.byte			Bn1
	.byte	W06
	.byte			An1
	.byte	W06
	.byte			Fs1
	.byte	W06
	.byte			An1
	.byte	W06
	.byte			Fs1
	.byte	W06
	.byte			En1
	.byte	W06
	.byte			Cs1
	.byte	W06
	.byte			Fn1
	.byte	W06
	.byte	PEND
	.byte	PATT	
		.word	song031_1_1
	.byte	PATT	
		.word	song031_1_1
song031_1_8:
	.byte	PATT	
		.word	song031_1_1
	.byte	PATT	
		.word	song031_1_1
	.byte	PATT	
		.word	song031_1_1
	.byte	PATT	
		.word	song031_1_1
	.byte	PATT	
		.word	song031_1_1
	.byte	PATT	
		.word	song031_1_1
	.byte	PATT	
		.word	song031_1_1
	.byte	PATT	
		.word	song031_1_1
song031_1_2:
	.byte		N06	, Gs1, v127
	.byte	W06
	.byte			Bn1
	.byte	W06
	.byte			Gs1
	.byte	W06
	.byte			Dn2
	.byte	W06
	.byte			Cs2
	.byte	W06
	.byte			Bn1
	.byte	W06
	.byte			Gs1
	.byte	W06
	.byte			Bn1
	.byte	W06
	.byte			Gs1
	.byte	W06
	.byte			Fs1
	.byte	W06
	.byte			Ds1
	.byte	W06
	.byte			Gn1
	.byte	W06
	.byte	PEND
	.byte	PATT	
		.word	song031_1_2
	.byte	PATT	
		.word	song031_1_2
	.byte	PATT	
		.word	song031_1_2
	.byte	PATT	
		.word	song031_1_2
	.byte	PATT	
		.word	song031_1_2
	.byte	PATT	
		.word	song031_1_2
	.byte		N06	, Gs1, v127
	.byte	W06
	.byte			Bn1
	.byte	W06
	.byte			Gs1
	.byte	W06
	.byte			Dn2
	.byte	W06
	.byte			Cs2
	.byte	W06
	.byte			Bn1
	.byte	W06
	.byte			Gs1
	.byte	W06
	.byte			Bn1
	.byte	W06
	.byte			Gs1
	.byte	W06
	.byte			Fs1
	.byte	W06
	.byte			En1
	.byte	W06
	.byte			Ds1
	.byte	W06
song031_1_3:
	.byte		N06	, Dn1, v127
	.byte	W06
	.byte			An1
	.byte	W06
	.byte			Dn1
	.byte	W06
	.byte			An1
	.byte	W06
	.byte			Dn1
	.byte	W06
	.byte			An0
	.byte	W06
	.byte			Dn1
	.byte	W06
	.byte			An1
	.byte	W06
	.byte			Dn1
	.byte	W06
	.byte			An1
	.byte	W06
	.byte			Dn1
	.byte	W06
	.byte			An0
	.byte	W06
	.byte	PEND
	.byte	PATT	
		.word	song031_1_3
song031_1_4:
	.byte		N06	, Bn1, v127
	.byte	W06
	.byte			Fs2
	.byte	W06
	.byte			Bn1
	.byte	W06
	.byte			Fs2
	.byte	W06
	.byte			Bn1
	.byte	W06
	.byte			Fs1
	.byte	W06
	.byte			Bn1
	.byte	W06
	.byte			Fs2
	.byte	W06
	.byte			Bn1
	.byte	W06
	.byte			Fs2
	.byte	W06
	.byte			Bn1
	.byte	W06
	.byte			Fs1
	.byte	W06
	.byte	PEND
	.byte	PATT	
		.word	song031_1_4
song031_1_5:
	.byte		N06	, Gn1, v127
	.byte	W06
	.byte			Dn2
	.byte	W06
	.byte			Gn1
	.byte	W06
	.byte			Dn2
	.byte	W06
	.byte			Gn1
	.byte	W06
	.byte			Dn1
	.byte	W06
	.byte			Gn1
	.byte	W06
	.byte			Dn2
	.byte	W06
	.byte			Gn1
	.byte	W06
	.byte			Dn2
	.byte	W06
	.byte			Gn1
	.byte	W06
	.byte			Dn1
	.byte	W06
	.byte	PEND
	.byte	PATT	
		.word	song031_1_5
song031_1_6:
	.byte		N06	, En1, v127
	.byte	W06
	.byte			Bn1
	.byte	W06
	.byte			En1
	.byte	W06
	.byte			Bn1
	.byte	W06
	.byte			En1
	.byte	W06
	.byte			Bn1
	.byte	W06
	.byte			En1
	.byte	W06
	.byte			Bn1
	.byte	W06
	.byte			En1
	.byte	W06
	.byte			Bn1
	.byte	W06
	.byte			En1
	.byte	W06
	.byte			Bn1
	.byte	W06
	.byte	PEND
	.byte	PATT	
		.word	song031_1_6
song031_1_7:
	.byte	W06
	.byte		N06	, Cs1, v127
	.byte	W12
	.byte		N12	
	.byte	W12
	.byte			Dn1
	.byte	W12
	.byte		N06	, Bn0
	.byte	W30
	.byte	PEND
	.byte	W06
	.byte			Cs1
	.byte	W12
	.byte		N12	
	.byte	W12
	.byte			Bn0
	.byte	W12
	.byte		N06	, Cs1
	.byte	W30
	.byte	PATT	
		.word	song031_1_7
	.byte	W06
	.byte		N06	, Cs1, v127
	.byte	W12
	.byte		N12	
	.byte	W12
	.byte		N12	
	.byte	W24
	.byte		N18	
	.byte	W18
	.byte	PATT	
		.word	song031_1_1
	.byte	PATT	
		.word	song031_1_1
	.byte	PATT	
		.word	song031_1_1
	.byte	PATT	
		.word	song031_1_1
	.byte	GOTO	
		.word	song031_1_8
	.byte	FINE

	@********************** Track  2 **********************@

	.global song031_2
song031_2:	@ 0x087B1D4B
	.byte	KEYSH	, 0
	.byte	VOICE	, 127
	.byte	VOL	, v090
	.byte	PAN	, c_v
	.byte	BENDR	, 3
	.byte	W72
	.byte		N12	, Cn1, v127
	.byte		N72	, Cs2
	.byte	W18
	.byte		N06	, An1
	.byte	W06
	.byte		N03	
	.byte	W03
	.byte		N03	
	.byte	W03
	.byte		N06	
	.byte	W06
	.byte			Gs1
	.byte	W06
	.byte		N06	
	.byte	W06
	.byte			Gn1
	.byte	W06
	.byte		N06	
	.byte	W06
	.byte			Fs1
	.byte	W06
	.byte			Cs1
	.byte	W06
song031_2_1:
	.byte		N06	, Cn1, v127
	.byte		N72	, Cs2
	.byte	W06
	.byte		N06	, Dn1, v072
	.byte	W06
	.byte			Cn1, v127
	.byte		N06	, Dn1, v044
	.byte	W06
	.byte			Cs1, v127
	.byte	W06
	.byte			Dn1, v072
	.byte	W06
	.byte			Cn1, v127
	.byte		N06	, Dn1, v044
	.byte	W06
	.byte			Cn1, v127
	.byte		N06	, Dn1, v072
	.byte	W06
	.byte		N06	
	.byte	W06
	.byte			Cn1, v127
	.byte		N06	, Dn1, v044
	.byte	W06
	.byte			Cs1, v127
	.byte	W06
	.byte			Dn1, v072
	.byte	W06
	.byte			Cn1, v127
	.byte		N06	, Dn1, v044
	.byte	W06
	.byte	PEND
song031_2_3:
	.byte		N06	, Cn1, v127
	.byte		N06	, Ds1, v072
	.byte	W06
	.byte			Dn1
	.byte	W06
	.byte			Cn1, v127
	.byte		N06	, Dn1, v044
	.byte	W06
	.byte			Cs1, v127
	.byte	W06
	.byte			Dn1, v072
	.byte	W06
	.byte			Cn1, v127
	.byte		N06	, Dn1, v044
	.byte	W06
	.byte			Cn1, v127
	.byte		N06	, Dn1, v072
	.byte	W06
	.byte			Cs1, v127
	.byte		N06	, Dn1, v072
	.byte	W06
	.byte			Cn1, v127
	.byte		N06	, Dn1, v044
	.byte	W06
	.byte			Cs1, v127
	.byte	W06
	.byte		N06	
	.byte		N06	, Dn1, v072
	.byte	W06
	.byte			Cs1, v127
	.byte		N06	, Dn1, v044
	.byte	W06
	.byte	PEND
song031_2_5:
	.byte	PATT	
		.word	song031_2_1
song031_2_2:
	.byte		N06	, Cn1, v127
	.byte		N06	, Ds1, v072
	.byte	W06
	.byte			Dn1
	.byte	W06
	.byte			Cn1, v127
	.byte		N06	, Dn1, v044
	.byte	W06
	.byte			Cs1, v127
	.byte	W06
	.byte			Dn1, v072
	.byte	W06
	.byte			Cn1, v127
	.byte		N06	, Dn1, v044
	.byte	W06
	.byte			Cn1, v127
	.byte		N06	, Dn1, v072
	.byte	W06
	.byte		N06	
	.byte	W06
	.byte			Cn1, v127
	.byte		N06	, Dn1, v044
	.byte	W06
	.byte			Cs1, v127
	.byte	W06
	.byte			Dn1, v072
	.byte	W06
	.byte			Cn1, v127
	.byte		N06	, Dn1, v044
	.byte	W06
	.byte	PEND
	.byte	PATT	
		.word	song031_2_2
	.byte	PATT	
		.word	song031_2_2
	.byte	PATT	
		.word	song031_2_2
	.byte	PATT	
		.word	song031_2_2
	.byte	PATT	
		.word	song031_2_2
	.byte	PATT	
		.word	song031_2_3
	.byte	PATT	
		.word	song031_2_1
	.byte	PATT	
		.word	song031_2_2
	.byte	PATT	
		.word	song031_2_2
	.byte	PATT	
		.word	song031_2_2
	.byte	PATT	
		.word	song031_2_2
	.byte	PATT	
		.word	song031_2_2
	.byte	PATT	
		.word	song031_2_2
	.byte	PATT	
		.word	song031_2_3
	.byte	PATT	
		.word	song031_2_1
	.byte	PATT	
		.word	song031_2_2
	.byte	PATT	
		.word	song031_2_2
	.byte	PATT	
		.word	song031_2_2
	.byte	PATT	
		.word	song031_2_2
	.byte	PATT	
		.word	song031_2_2
	.byte	PATT	
		.word	song031_2_2
song031_2_4:
	.byte		N06	, Cn1, v127
	.byte		N06	, Ds1, v072
	.byte	W06
	.byte			Dn1
	.byte	W06
	.byte			Cn1, v127
	.byte		N06	, Dn1, v044
	.byte	W06
	.byte			An1, v127
	.byte	W06
	.byte		N03	
	.byte	W03
	.byte		N03	
	.byte	W03
	.byte		N06	
	.byte	W06
	.byte			Dn1, v044
	.byte		N06	, Gs1, v127
	.byte	W06
	.byte		N06	
	.byte	W06
	.byte			Gn1
	.byte	W06
	.byte			Dn1, v044
	.byte		N06	, Gn1, v127
	.byte	W06
	.byte			Fs1
	.byte	W06
	.byte			Cs1
	.byte	W06
	.byte	PEND
	.byte		N06	
	.byte		N06	, Dn1, v060
	.byte	W06
	.byte			Cn1, v127
	.byte		N06	, En1, v072
	.byte	W06
	.byte			Dn1
	.byte	W06
	.byte			Cn1, v127
	.byte		N06	, En1, v072
	.byte	W06
	.byte			Dn1
	.byte	W06
	.byte			Cn1, v127
	.byte		N06	, En1, v072
	.byte	W06
	.byte			Cs1, v127
	.byte	W06
	.byte		N06	
	.byte	W06
	.byte			Cn1
	.byte	W06
	.byte			Cs1
	.byte	W06
	.byte			Dn1, v052
	.byte	W06
	.byte			Cs1, v127
	.byte	W06
	.byte		N06	
	.byte		N06	, Dn1, v060
	.byte	W06
	.byte			Cn1, v127
	.byte		N06	, En1, v072
	.byte	W06
	.byte			Dn1
	.byte	W06
	.byte			Cn1, v127
	.byte		N06	, En1, v072
	.byte	W06
	.byte			Dn1
	.byte	W06
	.byte			Cn1, v127
	.byte		N06	, En1, v072
	.byte	W06
	.byte			Cs1, v127
	.byte		N06	, Dn1, v060
	.byte	W06
	.byte		N05	, An1, v127
	.byte	W06
	.byte			Cn1
	.byte	W06
	.byte		N06	, Dn1, v060
	.byte		N05	, Gs1, v127
	.byte	W06
	.byte			Gn1
	.byte	W06
	.byte			Cn1
	.byte	W06
	.byte		N06	, Cs1
	.byte		N06	, Dn1, v060
	.byte	W06
	.byte			Cn1, v127
	.byte		N06	, En1, v072
	.byte	W06
	.byte			Dn1
	.byte	W06
	.byte			Cn1, v127
	.byte		N06	, En1, v072
	.byte	W06
	.byte			Dn1
	.byte	W06
	.byte			Cn1, v127
	.byte		N06	, En1, v072
	.byte	W06
	.byte			Cn1, v127
	.byte	W06
	.byte		N03	, Cs1
	.byte	W03
	.byte		N03	
	.byte	W03
	.byte		N06	
	.byte	W06
	.byte		N06	
	.byte	W06
	.byte		N06	
	.byte	W06
	.byte			Gn1
	.byte	W06
	.byte			Cs1
	.byte		N06	, Dn1, v060
	.byte	W06
	.byte			Cn1, v127
	.byte		N06	, En1, v072
	.byte	W06
	.byte			Dn1
	.byte	W06
	.byte			Cn1, v127
	.byte		N06	, En1, v072
	.byte	W06
	.byte			Dn1
	.byte	W06
	.byte			Cn1, v127
	.byte		N06	, En1, v072
	.byte	W06
	.byte			Cs1, v127
	.byte	W06
	.byte		N06	
	.byte	W06
	.byte			Cn1
	.byte	W06
	.byte			Cs1
	.byte	W06
	.byte		N06	
	.byte	W06
	.byte		N06	
	.byte	W06
	.byte	PATT	
		.word	song031_2_1
	.byte	PATT	
		.word	song031_2_2
	.byte	PATT	
		.word	song031_2_2
	.byte	PATT	
		.word	song031_2_4
	.byte	GOTO	
		.word	song031_2_5
	.byte	FINE

	@********************** Track  3 **********************@

	.global song031_3
song031_3:	@ 0x087B1F7F
	.byte	KEYSH	, 0
	.byte	VOICE	, 74
	.byte	VOL	, v081
	.byte	PAN	, c_v
	.byte	BENDR	, 6
	.byte	LFOS	, 28
	.byte	LFODL	, 0
	.byte	MOD	, 22
	.byte	MODT	, 2
	.byte	W72
	.byte	W72
	.byte	W72
	.byte	W72
song031_3_1:
	.byte		N11	, Fs2, v104
	.byte	W12
	.byte		N05	, An2
	.byte	W12
	.byte			Cs3
	.byte	W06
	.byte			Fs3
	.byte	W06
	.byte		N56	, Fn3, v104, 3
	.byte	W36
	.byte	W24
	.byte		N05	, Fs3
	.byte	W06
	.byte			Gn3
	.byte	W06
	.byte		N32	, Gs3, v104, 3
	.byte	W36
	.byte		N68	, Dn3, v104, 3
	.byte	W72
	.byte		N66	, Cs3, v104, 1
	.byte	W72
	.byte		N05	, Cn3
	.byte	W06
	.byte			Cs3
	.byte	W06
	.byte			Cn3
	.byte	W06
	.byte		N76	, An2, v104, 1
	.byte	W54
	.byte	W36
	.byte		N32	, Gs2, v104, 3
	.byte	W36
	.byte			An2, v104, 3
	.byte	W36
	.byte			Bn2, v104, 3
	.byte	W36
	.byte			Cn3, v104, 3
	.byte	W36
	.byte			Cs3, v104, 1
	.byte	W36
	.byte		N11	, Gs2
	.byte	W12
	.byte		N05	, Bn2
	.byte	W12
	.byte			Ds3
	.byte	W06
	.byte			Gs3
	.byte	W06
	.byte		N56	, Gn3, v104, 3
	.byte	W36
	.byte	W24
	.byte		N05	, Gs3
	.byte	W06
	.byte			An3
	.byte	W06
	.byte		N32	, As3, v104, 3
	.byte	W36
	.byte		N68	, En3, v104, 3
	.byte	W72
	.byte		N66	, Ds3, v104, 1
	.byte	W72
	.byte		N05	, Dn3
	.byte	W06
	.byte			Ds3
	.byte	W06
	.byte			Dn3
	.byte	W06
	.byte		N76	, Bn2, v104, 1
	.byte	W54
	.byte	W36
	.byte		N32	, As2, v104, 3
	.byte	W36
	.byte			Bn2, v104, 3
	.byte	W36
	.byte			Cs3, v104, 3
	.byte	W36
	.byte		N52	, Ds3, v104, 1
	.byte	W72
	.byte		N68	, Fs2, v120, 3
	.byte		N32	, Cs3, v120, 3
	.byte	W36
	.byte			Dn3, v108, 3
	.byte	W36
	.byte		N68	, An2, v120, 3
	.byte		N32	, En3, v116, 3
	.byte	W36
	.byte			Fs3, v127, 3
	.byte	W36
	.byte		TIE	, Fs2, v108
	.byte		TIE	, Cs3
	.byte	W72
	.byte	W68
	.byte	W03
	.byte		EOT	, Fs2
	.byte			Cs3
	.byte	W01
	.byte	W36
	.byte		N68	, An2, v116, 3
	.byte		N32	, Cs3, v116, 3
	.byte	W36
	.byte			Dn3, v112, 3
	.byte	W36
	.byte			Bn2, v116, 3
	.byte		N32	, En3, v116, 3
	.byte	W36
	.byte		N68	, Dn3, v127, 3
	.byte		N32	, Fs3, v127, 3
	.byte	W36
	.byte			Gn3, v124, 3
	.byte	W36
	.byte		N68	, Fs3, v127, 3
	.byte		N32	, An3, v120, 3
	.byte	W36
	.byte			Bn3, v124, 2
	.byte	W36
	.byte	W08
	.byte		N06	, Gs3
	.byte		N06	, Cs4
	.byte	W12
	.byte		N11	, Gs3
	.byte		N11	, Cs4
	.byte	W12
	.byte		N08	, An3, v120
	.byte		N08	, Dn4
	.byte	W40
	.byte	W08
	.byte		N06	, Gs3
	.byte		N06	, Cs4
	.byte	W12
	.byte		N11	, Gs3, v124
	.byte		N11	, Cs4
	.byte	W12
	.byte		N09	, Gn3, v100
	.byte		N09	, Cn4
	.byte	W40
	.byte	W08
	.byte		N06	, Gs3, v127
	.byte		N06	, Cs4
	.byte	W12
	.byte		N11	, Gs3, v124
	.byte		N11	, Cs4
	.byte	W12
	.byte		N10	, An3, v116
	.byte		N10	, Dn4
	.byte	W40
	.byte	W08
	.byte		N06	, Gs3, v120
	.byte		N06	, Cs4
	.byte	W12
	.byte		N11	, Gs3, v124
	.byte		N11	, Cs4
	.byte	W12
	.byte		N09	, Cs4, v100
	.byte		N09	, Fn4
	.byte	W22
	.byte		N17	, Bn3
	.byte		N17	, Fn4
	.byte	W18
	.byte			Cs4
	.byte		N17	, Fs4
	.byte	W72
	.byte	W72
	.byte	W72
	.byte	W72
	.byte	GOTO	
		.word	song031_3_1
	.byte	FINE

	@********************** Track  4 **********************@

	.global song031_4
song031_4:	@ 0x087B20D0
	.byte	KEYSH	, 0
	.byte	VOICE	, 97
	.byte	VOL	, v115
	.byte	PAN	, c_v
	.byte	BENDR	, 3
	.byte	LFOS	, 31
	.byte	LFODL	, 22
	.byte	MOD	, 0
	.byte	MODT	, 0
	.byte	W72
	.byte	W72
	.byte	W72
	.byte	W72
song031_4_1:
	.byte		N11	, Cs2, v104
	.byte	W12
	.byte		N05	, Fs2
	.byte	W12
	.byte			An2
	.byte	W06
	.byte			Cs3
	.byte	W06
	.byte		N56	, Cs3, v104, 3
	.byte	W36
	.byte	W24
	.byte		N05	, Bn2
	.byte	W06
	.byte			Cn3
	.byte	W06
	.byte		N32	, Cs3, v104, 3
	.byte	W36
	.byte		N68	, Bn2, v104, 3
	.byte	W72
	.byte		N66	, An2, v104, 1
	.byte	W72
	.byte		N05	, Gs2
	.byte	W06
	.byte			An2
	.byte	W06
	.byte			Gs2
	.byte	W06
	.byte		N76	, Fs2, v104, 1
	.byte	W54
	.byte	W36
	.byte		N32	, Fn2, v104, 3
	.byte	W36
	.byte			Fs2, v104, 3
	.byte	W36
	.byte			Gs2, v104, 3
	.byte	W36
	.byte			An2, v104, 3
	.byte	W36
	.byte			An2, v104, 1
	.byte	W36
	.byte		N11	, Ds2
	.byte	W12
	.byte		N05	, Gs2
	.byte	W12
	.byte			Bn2
	.byte	W06
	.byte			Ds3
	.byte	W06
	.byte		N56	, Ds3, v104, 3
	.byte	W36
	.byte	W24
	.byte		N05	, Cs3
	.byte	W06
	.byte			Dn3
	.byte	W06
	.byte		N32	, Ds3, v104, 3
	.byte	W36
	.byte		N68	, Cs3, v104, 3
	.byte	W72
	.byte		N66	, Bn2, v104, 1
	.byte	W72
	.byte		N05	, As2
	.byte	W06
	.byte			Bn2
	.byte	W06
	.byte			As2
	.byte	W06
	.byte		N76	, Gs2, v104, 1
	.byte	W54
	.byte	W36
	.byte		N32	, Gn2, v104, 3
	.byte	W36
	.byte			Gs2, v104, 3
	.byte	W36
	.byte			As2, v104, 3
	.byte	W36
	.byte		N52	, Bn2, v104, 1
	.byte	W72
	.byte	W72
	.byte	W72
	.byte	W72
	.byte	W72
	.byte	W72
	.byte	W72
	.byte	W72
	.byte	W72
	.byte	W72
	.byte	W72
	.byte	W72
	.byte	W72
	.byte	W72
	.byte	W72
	.byte	W72
	.byte	W72
	.byte	GOTO	
		.word	song031_4_1
	.byte	FINE

	@********************** Track  5 **********************@

	.global song031_5
song031_5:	@ 0x087B2186
	.byte	KEYSH	, 0
	.byte	VOICE	, 46
	.byte	VOL	, v054
	.byte	PAN	, c_v
	.byte	BENDR	, 12
	.byte	LFOS	, 23
	.byte	LFODL	, 22
	.byte	MOD	, 4
	.byte	MODT	, 0
	.byte	W72
	.byte	W72
	.byte	W72
	.byte	W72
song031_5_2:
	.byte		N11	, An3, v104
	.byte	W12
	.byte		N05	, Cs4
	.byte	W12
	.byte			Fs4
	.byte	W06
	.byte			An4
	.byte	W06
	.byte		N56	, Gs4, v104, 3
	.byte	W36
	.byte	W24
	.byte		N05	, Ds4
	.byte	W06
	.byte			En4
	.byte	W06
	.byte		N32	, Fn4, v104, 3
	.byte	W36
	.byte		N68	, Fs4, v104, 3
	.byte	W72
	.byte		N66	, Fs4, v104, 1
	.byte	W72
	.byte		N05	, Ds4
	.byte	W06
	.byte			En4
	.byte	W06
	.byte			Ds4
	.byte	W06
	.byte		N76	, Cs4, v104, 1
	.byte	W54
	.byte	W36
	.byte		N32	, Cs4, v104, 3
	.byte	W36
	.byte			Cs4, v104, 3
	.byte	W36
	.byte			Fn4, v104, 3
	.byte	W36
	.byte			Fs4, v104, 3
	.byte	W36
	.byte			Fs4, v104, 1
	.byte	W36
	.byte		N11	, Bn3
	.byte	W12
	.byte		N05	, Ds4
	.byte	W12
	.byte			Gs4
	.byte	W06
	.byte			Bn4
	.byte	W06
	.byte		N56	, As4, v104, 3
	.byte	W36
	.byte	W24
	.byte		N05	, Fn4
	.byte	W06
	.byte			Fs4
	.byte	W06
	.byte		N32	, Gn4, v104, 3
	.byte	W36
	.byte		N68	, Gs4, v104, 3
	.byte	W72
	.byte		N66	, Gs4, v104, 1
	.byte	W72
	.byte		N05	, Fn4
	.byte	W06
	.byte			Fs4
	.byte	W06
	.byte			Fn4
	.byte	W06
	.byte		N76	, Ds4, v104, 1
	.byte	W54
	.byte	W36
	.byte		N32	, Ds4, v104, 3
	.byte	W36
	.byte			Ds4, v104, 3
	.byte	W36
	.byte			Gn4, v104, 3
	.byte	W36
	.byte		N11	, Gs4, v072
	.byte	W12
	.byte		N03	, Gs3, v116
	.byte	W03
	.byte			Bn3, v100
	.byte	W03
	.byte			Cs4, v104
	.byte	W03
	.byte			Ds4, v120
	.byte	W03
	.byte			Gs4, v112
	.byte	W03
	.byte			Bn4, v096
	.byte	W03
	.byte			Cs5, v112
	.byte	W03
	.byte			Ds5, v108
	.byte	W03
	.byte			Gs5
	.byte	W03
	.byte			Ds5, v104
	.byte	W03
	.byte			Cs5, v100
	.byte	W03
	.byte			Bn4, v096
	.byte	W03
	.byte			Gs4, v120
	.byte	W03
	.byte			Ds4, v100
	.byte	W03
	.byte			Cs4, v104
	.byte	W03
	.byte			Bn3, v100
	.byte	W03
	.byte			Gs3, v112
	.byte	W03
	.byte			Ds3, v104
	.byte	W03
	.byte			Cs3, v100
	.byte	W03
	.byte			Bn2, v108
	.byte	W03
	.byte		N68	, An3, v080, 3
	.byte	W72
	.byte		N32	, Cs4, v080, 3
	.byte	W36
	.byte			Dn4, v080, 3
	.byte	W36
	.byte		TIE	, An3, v076
	.byte	W72
	.byte	W68
	.byte	W03
	.byte		EOT	
	.byte	W01
	.byte	W36
	.byte		TIE	, Fs4
	.byte	W36
	.byte	W68
	.byte	W03
	.byte		EOT	
	.byte	W01
	.byte		N32	, Fs4, v080, 3
	.byte	W36
	.byte			Gn4, v080, 3
	.byte	W36
	.byte			An4, v080, 3
	.byte	W36
	.byte			Bn4, v080, 2
	.byte	W36
song031_5_1:
	.byte	W08
	.byte		N06	, Fs5, v080
	.byte	W12
	.byte		N11	
	.byte	W12
	.byte		N03	, Gn5
	.byte	W04
	.byte			Gn5, v076
	.byte	W03
	.byte			An5
	.byte	W03
	.byte			Dn6, v080
	.byte	W03
	.byte			An5, v076
	.byte	W03
	.byte			Gn5
	.byte	W03
	.byte			Dn5
	.byte	W03
	.byte			An4
	.byte	W03
	.byte			Gn4, v080
	.byte	W03
	.byte			Dn4
	.byte	W03
	.byte			An3, v076
	.byte	W03
	.byte			Gn3, v080
	.byte	W03
	.byte			Dn3
	.byte	W03
	.byte	PEND
	.byte	W08
	.byte		N06	, Fs5
	.byte	W12
	.byte		N11	
	.byte	W12
	.byte		N03	, Fn5, v072
	.byte	W04
	.byte			Gn3, v080
	.byte	W03
	.byte			Fn3
	.byte	W03
	.byte			Cn3
	.byte	W03
	.byte			Fn3
	.byte	W03
	.byte			Gn3
	.byte	W03
	.byte			Cn4
	.byte	W03
	.byte			Fn4, v076
	.byte	W03
	.byte			Gn4
	.byte	W03
	.byte			Cn5, v072
	.byte	W03
	.byte			Fn5, v076
	.byte	W03
	.byte			Gn5, v080
	.byte	W03
	.byte			Cn6
	.byte	W03
	.byte	PATT	
		.word	song031_5_1
	.byte	W08
	.byte		N06	, Fs5, v080
	.byte	W12
	.byte		N11	
	.byte	W12
	.byte		N09	, Fn5, v072
	.byte	W04
	.byte		N03	, Cs3, v076
	.byte	W03
	.byte			Ds3
	.byte	W03
	.byte			Fn3, v080
	.byte	W03
	.byte			Gs3
	.byte	W03
	.byte			Cs4, v076
	.byte	W03
	.byte			Ds4
	.byte	W03
	.byte			Fn4
	.byte	W03
	.byte			Gs4
	.byte	W03
	.byte			Cs5
	.byte	W03
	.byte			Ds5
	.byte	W03
	.byte			Fn5
	.byte	W03
	.byte			Gs5
	.byte	W03
	.byte		N17	, An5, v072
	.byte	W72
	.byte	W72
	.byte	W72
	.byte	W72
	.byte	GOTO	
		.word	song031_5_2
	.byte	FINE

	@********************** Track  6 **********************@

	.global song031_6
song031_6:	@ 0x087B2319
	.byte	KEYSH	, 0
	.byte	VOICE	, 95
	.byte	VOL	, v115
	.byte	PAN	, c_v
	.byte	BENDR	, 3
	.byte	LFOS	, 23
	.byte	LFODL	, 22
	.byte	MOD	, 0
	.byte	MODT	, 0
	.byte	W72
	.byte	W72
	.byte	W72
	.byte	W72
song031_6_1:
	.byte	W72
	.byte	W72
	.byte	W72
	.byte	W72
	.byte	W72
	.byte	W72
	.byte	W72
	.byte	W72
	.byte	W72
	.byte	W72
	.byte	W72
	.byte	W72
	.byte	W72
	.byte	W72
	.byte	W72
	.byte	W72
	.byte	W72
	.byte	W72
	.byte	W36
	.byte		N36	, Fs2, v120
	.byte	W36
	.byte			Bn2
	.byte	W36
	.byte		N24	, Fs3, v120, 3
	.byte	W28
	.byte		N03	, En3
	.byte	W04
	.byte			Ds3
	.byte	W04
	.byte		N72	, Dn3
	.byte	W72
	.byte	W72
	.byte		N68	, Bn2, v096, 3
	.byte	W72
	.byte			Dn3, v096, 3
	.byte	W72
	.byte	W08
	.byte		N06	, Cs3, v124
	.byte	W12
	.byte		N11	
	.byte	W12
	.byte		N08	, Dn3, v120
	.byte	W40
	.byte	W08
	.byte		N06	, Cs3
	.byte	W12
	.byte		N11	, Cs3, v124
	.byte	W12
	.byte		N09	, Cn3, v100
	.byte	W40
	.byte	W08
	.byte		N06	, Cs3, v127
	.byte	W12
	.byte		N11	, Cs3, v124
	.byte	W12
	.byte		N10	, Dn3, v116
	.byte	W40
	.byte	W08
	.byte		N06	, Cs3, v120
	.byte	W12
	.byte		N11	, Cs3, v124
	.byte	W12
	.byte		N09	, Bn2, v100
	.byte	W22
	.byte		N17	, Fn3
	.byte	W18
	.byte			Fs3
	.byte	W72
	.byte	W72
	.byte	W72
	.byte	W72
	.byte	GOTO	
		.word	song031_6_1
	.byte	FINE

	@********************** Track  7 **********************@

	.global song031_7
song031_7:	@ 0x087B239E
	.byte	KEYSH	, 0
	.byte	VOICE	, 80
	.byte	VOL	, v063
	.byte	PAN	, c_v
	.byte	BENDR	, 3
	.byte	LFOS	, 23
	.byte	LFODL	, 22
	.byte	MOD	, 28
	.byte	MODT	, 0
	.byte	W72
	.byte	W72
song031_7_1:
	.byte	W18
	.byte		N11	, En3, v112
	.byte	W12
	.byte		N04	, En3, v116
	.byte	W12
	.byte			En3, v108
	.byte	W12
	.byte		N11	, En3, v104
	.byte	W12
	.byte		N04	, En3, v108
	.byte	W06
	.byte	PEND
	.byte	PATT	
		.word	song031_7_1
song031_7_6:
	.byte	PATT	
		.word	song031_7_1
	.byte	PATT	
		.word	song031_7_1
	.byte	PATT	
		.word	song031_7_1
	.byte	PATT	
		.word	song031_7_1
	.byte	PATT	
		.word	song031_7_1
	.byte	PATT	
		.word	song031_7_1
	.byte	PATT	
		.word	song031_7_1
	.byte	PATT	
		.word	song031_7_1
song031_7_2:
	.byte	W18
	.byte		N11	, Fs3, v112
	.byte	W12
	.byte		N04	, Fs3, v116
	.byte	W12
	.byte			Fs3, v108
	.byte	W12
	.byte		N11	, Fs3, v104
	.byte	W12
	.byte		N04	, Fs3, v108
	.byte	W06
	.byte	PEND
	.byte	PATT	
		.word	song031_7_2
	.byte	PATT	
		.word	song031_7_2
	.byte	PATT	
		.word	song031_7_2
	.byte	PATT	
		.word	song031_7_2
	.byte	PATT	
		.word	song031_7_2
	.byte	PATT	
		.word	song031_7_2
	.byte	PATT	
		.word	song031_7_2
song031_7_3:
	.byte	W18
	.byte		N11	, An2, v112
	.byte	W12
	.byte		N04	, An2, v116
	.byte	W12
	.byte			An2, v108
	.byte	W12
	.byte		N11	, An2, v104
	.byte	W12
	.byte		N04	, An2, v108
	.byte	W06
	.byte	PEND
	.byte	PATT	
		.word	song031_7_3
	.byte	PATT	
		.word	song031_7_3
	.byte	PATT	
		.word	song031_7_3
	.byte	PATT	
		.word	song031_7_3
	.byte	PATT	
		.word	song031_7_3
song031_7_4:
	.byte	W18
	.byte		N11	, Dn3, v112
	.byte	W12
	.byte		N04	, Dn3, v116
	.byte	W12
	.byte			Dn3, v108
	.byte	W12
	.byte		N11	, Dn3, v104
	.byte	W12
	.byte		N04	, Dn3, v108
	.byte	W06
	.byte	PEND
	.byte	PATT	
		.word	song031_7_4
song031_7_5:
	.byte	W06
	.byte		N05	, Bn2, v112
	.byte	W12
	.byte		N11	, Bn2, v116
	.byte	W12
	.byte		N04	, Cn3, v108
	.byte	W12
	.byte			As2
	.byte	W30
	.byte	PEND
	.byte	W06
	.byte		N05	, Bn2, v112
	.byte	W12
	.byte		N11	, Bn2, v116
	.byte	W12
	.byte		N04	, As2, v108
	.byte	W12
	.byte			Bn2
	.byte	W30
	.byte	PATT	
		.word	song031_7_5
	.byte	W06
	.byte		N05	, Bn2, v112
	.byte	W12
	.byte		N11	, Bn2, v116
	.byte	W12
	.byte		N04	, As2, v108
	.byte	W12
	.byte			Gs2
	.byte	W12
	.byte		N17	
	.byte	W18
	.byte	PATT	
		.word	song031_7_1
	.byte	PATT	
		.word	song031_7_1
	.byte	PATT	
		.word	song031_7_1
	.byte	W28
	.byte	W01
	.byte		N03	, An2, v076
	.byte	W01
	.byte			Gn2, v096
	.byte	W02
	.byte			Fn2, v068
	.byte	W02
	.byte			Ds2, v096
	.byte	W01
	.byte			Dn2
	.byte	W01
	.byte			Cn2, v100
	.byte	W02
	.byte			As1, v084
	.byte	W01
	.byte			An1, v096
	.byte	W01
	.byte			Gn1, v104
	.byte	W01
	.byte		N02	, Fn1, v100
	.byte	W01
	.byte			Ds1, v104
	.byte	W01
	.byte		N01	, Dn1, v096
	.byte	W01
	.byte		N06	, Cn1
	.byte	W02
	.byte		N05	, As0, v084
	.byte	W01
	.byte		N06	, An0, v052
	.byte	W01
	.byte		N02	, Fn0, v088
	.byte		N04	, Gn0, v064
	.byte	W04
	.byte		N01	, As0, v060
	.byte	W01
	.byte			Cn1, v092
	.byte		N03	, Dn1, v108
	.byte	W01
	.byte		N01	, Ds1, v096
	.byte	W01
	.byte			Fn1, v104
	.byte	W01
	.byte		N02	, Gn1, v112
	.byte	W01
	.byte		N03	, An1
	.byte	W01
	.byte			As1, v104
	.byte	W01
	.byte			Cn2
	.byte	W01
	.byte			Dn2, v108
	.byte	W01
	.byte			Ds2
	.byte	W02
	.byte			Fn2, v112
	.byte	W01
	.byte			Gn2, v108
	.byte	W01
	.byte		N04	, An2
	.byte	W02
	.byte		N01	, As2, v096
	.byte	W02
	.byte			Cn3, v076
	.byte	W03
	.byte	GOTO	
		.word	song031_7_6
	.byte	FINE

	.align 2
	.global song031
song031:	@ 0x087B252C
	.byte	7		@ trackCount
	.byte	0		@ blockCount
	.byte	0		@ priority
	.byte	128		@ reverb

	.word	voicegroup000		@ voicegroup/tone

	.word	song031_1		@ track
	.word	song031_2		@ track
	.word	song031_3		@ track
	.word	song031_4		@ track
	.word	song031_5		@ track
	.word	song031_6		@ track
	.word	song031_7		@ track
