	.include "sound/MPlayDef.s"

	.section .rodata

	@********************** Track  1 **********************@

	.align 2
	.global song014_1
song014_1:	@ 0x087A25C4
	.byte	KEYSH	, 0
	.byte	TEMPO	, 62
	.byte	VOICE	, 126
	.byte	VOL	, v110
	.byte	PAN	, c_v
	.byte	MOD	, 0
	.byte	LFOS	, 43
	.byte	MODT	, 2
	.byte	LFODL	, 0
	.byte		N05	, As1, v127
	.byte	W06
	.byte		N05	
	.byte	W06
	.byte			Bn1
	.byte	W06
	.byte		N11	, En2
	.byte	W12
	.byte		N05	, As1
	.byte	W06
	.byte			Gs1
	.byte	W06
	.byte			As1
	.byte	W06
	.byte			Dn2
	.byte	W06
	.byte			Ds2
	.byte	W06
	.byte		N11	, En2
	.byte	W12
	.byte			En1
	.byte	W12
	.byte		N05	, Fn1
	.byte	W06
	.byte			Fs1
	.byte	W06
song014_1_1:
	.byte		N05	, Gn1, v056
	.byte	W06
	.byte			Gs1
	.byte	W06
	.byte		N11	, An1, v127
	.byte	W12
	.byte		N05	, As1
	.byte	W06
	.byte			Bn1
	.byte	W06
	.byte			Cn2
	.byte	W06
	.byte			Cs2
	.byte	W06
	.byte			Dn2
	.byte	W06
	.byte			Ds2
	.byte	W06
	.byte		N11	, En2
	.byte	W12
	.byte			En1
	.byte	W12
	.byte		N05	, Fn1
	.byte	W06
	.byte			Fs1
	.byte	W06
	.byte	PEND
song014_1_2:
	.byte		N05	, Gn1, v056
	.byte	W06
	.byte			Gs1
	.byte	W06
	.byte		N11	, An1, v127
	.byte	W12
	.byte		N05	, As1
	.byte	W06
	.byte			Bn1
	.byte	W06
	.byte			Cn2
	.byte	W06
	.byte		N06	, Cs2
	.byte	W06
	.byte		N05	, Dn2
	.byte	W06
	.byte			Ds2
	.byte	W06
	.byte		N11	, En2
	.byte	W12
	.byte			En1
	.byte	W12
	.byte		N05	, Fn1
	.byte	W06
	.byte			Fs1
	.byte	W06
	.byte	PEND
	.byte	PATT	
		.int	song014_1_1
song014_1_7:
	.byte		N05	, As1, v127
	.byte	W06
	.byte		N05	
	.byte	W06
	.byte		N11	, An1
	.byte	W12
	.byte		N05	, As1
	.byte	W06
	.byte			Bn1
	.byte	W06
	.byte			As1
	.byte	W06
	.byte		N05	
	.byte	W06
	.byte	PEND
song014_1_8:
	.byte		N05	, Dn2, v127
	.byte	W06
	.byte			Ds2
	.byte	W06
	.byte		N11	, En2
	.byte	W12
	.byte			En1
	.byte	W12
	.byte		N05	, Fn1
	.byte	W06
	.byte			Fs1
	.byte	W06
	.byte	PATT	
		.int	song014_1_1
	.byte	PATT	
		.int	song014_1_2
	.byte	PATT	
		.int	song014_1_1
song014_1_3:
	.byte		N05	, Gn1, v056
	.byte	W06
	.byte			Gs1
	.byte	W06
	.byte			An1, v127
	.byte	W06
	.byte			As1
	.byte	W06
	.byte			Cn2
	.byte	W06
	.byte			Bn1
	.byte	W06
	.byte			As1
	.byte	W06
	.byte		N06	, Cn2
	.byte	W06
	.byte		N05	, Dn2
	.byte	W06
	.byte			Ds2
	.byte	W06
	.byte		N11	, En2
	.byte	W12
	.byte			En1
	.byte	W12
	.byte		N05	, Fn1
	.byte	W06
	.byte			Fs1
	.byte	W06
	.byte	PEND
	.byte	PATT	
		.int	song014_1_1
	.byte	PATT	
		.int	song014_1_2
	.byte	PATT	
		.int	song014_1_1
song014_1_4:
	.byte		N05	, As1, v127
	.byte	W06
	.byte		N11	, En2
	.byte	W12
	.byte		N05	, Cs2
	.byte	W06
	.byte			As1
	.byte	W06
	.byte			En2
	.byte	W06
	.byte			Cn2
	.byte	W06
	.byte			Cs2
	.byte	W06
	.byte			Dn2
	.byte	W06
	.byte			Ds2
	.byte	W06
	.byte		N11	, En2
	.byte	W12
	.byte			En1
	.byte	W12
	.byte		N05	, Fn1
	.byte	W06
	.byte			Fs1
	.byte	W06
	.byte	PEND
	.byte	PATT	
		.int	song014_1_1
song014_1_5:
	.byte		N05	, Gn1, v056
	.byte	W06
	.byte			Gs1
	.byte	W06
	.byte			As1, v127
	.byte	W06
	.byte			Bn1
	.byte	W06
	.byte			As1
	.byte	W06
	.byte		N11	, An1
	.byte	W12
	.byte		N06	, Cs2
	.byte	W06
	.byte		N05	, Dn2
	.byte	W06
	.byte			Ds2
	.byte	W06
	.byte		N11	, En2
	.byte	W12
	.byte			En1
	.byte	W12
	.byte		N05	, Fn1
	.byte	W06
	.byte			Fs1
	.byte	W06
	.byte	PEND
	.byte	PATT	
		.int	song014_1_1
song014_1_6:
	.byte		N05	, As1, v127
	.byte	W06
	.byte			Bn1
	.byte	W06
	.byte			Gn1, v056
	.byte	W06
	.byte			Gs1
	.byte	W06
	.byte			As1, v127
	.byte	W06
	.byte		N11	, An1
	.byte	W12
	.byte		N06	, Cs2
	.byte	W06
	.byte		N05	, Dn2
	.byte	W06
	.byte			Ds2
	.byte	W06
	.byte		N11	, En2
	.byte	W12
	.byte			En1
	.byte	W12
	.byte		N05	, Fn1
	.byte	W06
	.byte			Fs1
	.byte	W06
	.byte	PEND
	.byte			Gn1, v056
	.byte	W06
	.byte			Gs1
	.byte	W06
	.byte		N11	, An1, v127
	.byte	W12
	.byte		N05	, As1
	.byte	W06
	.byte			Bn1
	.byte	W06
	.byte			Cn2
	.byte	W06
	.byte			Cs2
	.byte	W06
	.byte		N11	, En2
	.byte	W12
	.byte		N05	, Dn2
	.byte	W06
	.byte			Ds2
	.byte	W06
	.byte		N11	, An1
	.byte	W12
	.byte		N05	, Cs2
	.byte	W06
	.byte			Fn1
	.byte	W06
	.byte			As1
	.byte	W06
	.byte			Bn1
	.byte	W06
	.byte		N11	, An1
	.byte	W12
	.byte		N05	, As1
	.byte	W06
	.byte			An1
	.byte	W06
	.byte		N06	, As1
	.byte	W06
	.byte		N06	
	.byte	W06
	.byte		N05	, Dn2
	.byte	W06
	.byte			Ds2
	.byte	W06
	.byte		N11	, En2
	.byte	W12
	.byte			En1
	.byte	W12
	.byte		N05	, Fn1
	.byte	W06
	.byte			Fs1
	.byte	W06
	.byte	PATT	
		.int	song014_1_1
	.byte	PATT	
		.int	song014_1_2
	.byte	PATT	
		.int	song014_1_1
	.byte		N05	, As1, v127
	.byte	W06
	.byte		N05	
	.byte	W06
	.byte		N11	, An1
	.byte	W12
	.byte		N05	, As1
	.byte	W06
	.byte			Bn1
	.byte	W06
	.byte			As1
	.byte	W06
	.byte		N05	
	.byte	W06
	.byte			Dn2
	.byte	W06
	.byte			Ds2
	.byte	W06
	.byte		N11	, En2
	.byte	W12
	.byte			En1
	.byte	W12
	.byte		N05	, Fn1
	.byte	W06
	.byte			Fs1
	.byte	W06
	.byte	PATT	
		.int	song014_1_1
	.byte	PATT	
		.int	song014_1_2
	.byte	PATT	
		.int	song014_1_1
	.byte	PATT	
		.int	song014_1_3
	.byte	PATT	
		.int	song014_1_1
	.byte	PATT	
		.int	song014_1_2
	.byte	PATT	
		.int	song014_1_1
	.byte	PATT	
		.int	song014_1_4
	.byte	PATT	
		.int	song014_1_1
	.byte	PATT	
		.int	song014_1_5
	.byte	PATT	
		.int	song014_1_1
	.byte	PATT	
		.int	song014_1_6
	.byte		N05	, Gn1, v056
	.byte	W06
	.byte			Gs1
	.byte	W06
	.byte		N11	, An1, v127
	.byte	W12
	.byte		N05	, As1
	.byte	W06
	.byte			Bn1
	.byte	W06
	.byte			Cn2
	.byte	W06
	.byte			Cs2
	.byte	W06
	.byte		N11	, En2
	.byte	W12
	.byte		N05	, Dn2
	.byte	W06
	.byte			Ds2
	.byte	W06
	.byte		N11	, An1
	.byte	W12
	.byte		N05	, Fn1
	.byte	W06
	.byte			Fs1
	.byte	W06
	.byte			As1
	.byte	W06
	.byte			Bn1
	.byte	W06
	.byte		N11	, An1
	.byte	W12
	.byte		N05	, As1
	.byte	W06
	.byte			An1
	.byte	W06
	.byte		N06	, As1
	.byte	W06
	.byte		N05	, Bn1
	.byte	W54
	.byte	W96
	.byte	W96
	.byte	W96
	.byte	W96
	.byte	W96
	.byte	W96
	.byte	W48
	.byte		N11	, As1
	.byte	W12
	.byte		N11	
	.byte	W12
	.byte		N02	, En1
	.byte	W03
	.byte		N02	
	.byte	W03
	.byte		N02	
	.byte	W03
	.byte		N02	
	.byte	W03
	.byte			Bn1
	.byte	W03
	.byte		N02	
	.byte	W03
	.byte		N02	
	.byte	W03
	.byte		N02	
	.byte	W03
	.byte		N05	, Dn2
	.byte	W06
	.byte		N02	, Cs2
	.byte	W03
	.byte			As1
	.byte	W03
	.byte		N05	, An1
	.byte	W06
	.byte			Gn1
	.byte	W06
	.byte			As1
	.byte	W06
	.byte			Bn1
	.byte	W06
	.byte			Cn2
	.byte	W06
	.byte		N06	, Cs2
	.byte	W06
	.byte		N05	, Dn2
	.byte	W06
	.byte			Ds2
	.byte	W06
	.byte		N11	, En2
	.byte	W12
	.byte			En1
	.byte	W12
	.byte		N05	, Fn1
	.byte	W06
	.byte			Fs1
	.byte	W06
	.byte	PATT	
		.int	song014_1_1
	.byte	PATT	
		.int	song014_1_2
	.byte	PATT	
		.int	song014_1_1
	.byte	PATT	
		.int	song014_1_7
	.byte	GOTO	
		.int	song014_1_8
	.byte	FINE

	@********************** Track  2 **********************@

	.global song014_2
song014_2:	@ 0x087A2856
	.byte	KEYSH	, 0
	.byte	VOICE	, 85
	.byte	VOL	, v095
	.byte	PAN	, c_v
	.byte	MOD	, 0
	.byte	LFOS	, 31
	.byte	MODT	, 0
	.byte	LFODL	, 0
	.byte	PRIO	, 30
	.byte	W96
	.byte	W96
	.byte	W96
	.byte	W96
	.byte	W48
song014_2_4:
	.byte		N18	, As4, v088
	.byte	W18
	.byte			Cs5, v096
	.byte	W18
	.byte			Fn5, v112
	.byte	W12
song014_2_1:
	.byte	W06
	.byte		TIE	, En5, v104
	.byte	W60
	.byte	W01
	.byte	MOD	, 2
	.byte	W01
	.byte		4
	.byte	W01
	.byte		6
	.byte	W24
	.byte	W03
	.byte	PEND
	.byte	W12
	.byte		EOT	
	.byte	W01
	.byte	MOD	, 0
	.byte	W11
	.byte		N06	, Ds5, v096
	.byte	W06
	.byte			Cs5, v088
	.byte	W06
	.byte			As4, v104
	.byte	W12
	.byte			Cs5
	.byte	W06
	.byte			Ds5, v116
	.byte	W12
	.byte		N12	, Cs5
	.byte	W30
	.byte	W96
song014_2_2:
	.byte	W48
	.byte		N17	, As4, v127
	.byte	W18
	.byte			Cs5, v112
	.byte	W18
	.byte		N11	, Gs5, v120
	.byte	W12
	.byte	PEND
song014_2_3:
	.byte		TIE	, Gn5, v116
	.byte	W60
	.byte	W01
	.byte	MOD	, 4
	.byte	W05
	.byte		5
	.byte	W04
	.byte		6
	.byte	W11
	.byte		0
	.byte	W15
	.byte	PEND
	.byte	W11
	.byte		EOT	
	.byte	W13
	.byte		N05	, Fn5
	.byte	W06
	.byte			Ds5, v092
	.byte	W06
	.byte			Cs5, v120
	.byte	W12
	.byte		N11	, Cs5, v096
	.byte	W12
	.byte		N05	, Ds5, v112
	.byte	W36
	.byte	W96
	.byte	W96
	.byte	W96
	.byte	W96
	.byte	W96
	.byte	W96
	.byte	W96
	.byte	W96
	.byte	W96
	.byte	W96
	.byte	W96
	.byte	W48
	.byte		N18	, As4, v088
	.byte	W18
	.byte			Cs5, v096
	.byte	W18
	.byte			Fn5, v112
	.byte	W12
	.byte	PATT	
		.int	song014_2_1
	.byte	W12
	.byte		EOT	, En5
	.byte	W01
	.byte	MOD	, 0
	.byte	W11
	.byte		N06	, Ds5, v096
	.byte	W06
	.byte			Cs5, v088
	.byte	W06
	.byte			As4, v104
	.byte	W12
	.byte			Cs5
	.byte	W06
	.byte			Ds5, v116
	.byte	W12
	.byte		N12	, Cs5
	.byte	W30
	.byte	W96
	.byte	PATT	
		.int	song014_2_2
	.byte	PATT	
		.int	song014_2_3
	.byte	W11
	.byte		EOT	, Gn5
	.byte	W13
	.byte		N05	, Fn5, v116
	.byte	W06
	.byte			Ds5, v092
	.byte	W06
	.byte			Cs5, v120
	.byte	W12
	.byte		N11	, Cs5, v096
	.byte	W12
	.byte		N05	, Ds5, v112
	.byte	W36
	.byte	W96
	.byte	W96
	.byte	W96
	.byte	W96
	.byte	W96
	.byte	W96
	.byte	W96
	.byte	W96
	.byte	W96
	.byte	W96
	.byte	W96
	.byte	W96
	.byte	W96
	.byte	W96
	.byte	W96
	.byte	W96
	.byte	W96
	.byte	W96
	.byte	W96
	.byte	W48
	.byte	GOTO	
		.int	song014_2_4
	.byte	FINE

	@********************** Track  3 **********************@

	.global song014_3
song014_3:	@ 0x087A293E
	.byte	KEYSH	, 0
	.byte	VOICE	, 84
	.byte	VOL	, v082
	.byte	PAN	, c_v
	.byte	MOD	, 31
	.byte	LFOS	, 43
	.byte	MODT	, 2
	.byte	LFODL	, 0
	.byte	W48
	.byte		N13	, As1, v124
	.byte	W18
	.byte		N02	, Gs2, v080
	.byte	W06
	.byte		N03	, Cs3, v088
	.byte		N09	, Fn3, v092
	.byte	W06
	.byte		N04	, As2, v100
	.byte	W06
	.byte		N02	, Gs2, v080
	.byte	W06
	.byte		N17	, As2, v116
	.byte		N17	, Ds3, v112
	.byte		N17	, Gn3, v100
	.byte	W06
song014_3_3:
	.byte	W12
	.byte		N05	, Cs3, v088
	.byte		N05	, Fn3, v084
	.byte	W12
	.byte		N03	, Gs2, v072
	.byte	W12
	.byte		N02	, Fn2, v040
	.byte		N05	, Cs3, v092
	.byte		N06	, Fn3, v056
	.byte	W06
	.byte		N02	, As2, v080
	.byte	W06
	.byte		N09	, As1, v108
	.byte	W06
	.byte		N02	, As2, v112
	.byte		N02	, Ds3, v096
	.byte		N02	, Gn3, v072
	.byte	W18
	.byte		N11	, As2, v124
	.byte		N16	, Ds3, v116
	.byte		N15	, Gn3, v112
	.byte	W12
	.byte		N02	, Gs2, v092
	.byte	W06
	.byte			As2, v048
	.byte		N05	, Cs3, v100
	.byte		N04	, Fn3, v088
	.byte	W06
	.byte	PEND
song014_3_4:
	.byte	W12
	.byte		N02	, As2, v100
	.byte		N02	, Cs3, v080
	.byte		N04	, Fn3, v096
	.byte	W24
	.byte		N02	, As2, v064
	.byte		N03	, Cs3, v044
	.byte		N02	, Fn3, v032
	.byte	W12
	.byte		N21	, As1, v076
	.byte		N24	, Gs2, v080
	.byte	W24
	.byte		N06	, As2, v127
	.byte		N06	, As3
	.byte	W06
	.byte		N03	, Fn2, v092
	.byte		N03	, Fn3
	.byte	W12
	.byte		N02	, Gs2, v048
	.byte		N05	, As2, v127
	.byte		N05	, As3
	.byte	W06
	.byte	PEND
song014_3_5:
	.byte	W06
	.byte		N24	, Gs2, v072
	.byte		N05	, As2, v124
	.byte		N05	, As3
	.byte	W06
	.byte			As1, v060
	.byte	W06
	.byte		N06	, Fn2, v100
	.byte		N06	, Fn3
	.byte	W18
	.byte		N04	, Gs2, v064
	.byte		N02	, Fn3, v072
	.byte	W12
	.byte		N13	, Fn2, v036
	.byte	W24
	.byte		N07	, As2, v127
	.byte		N07	, As3
	.byte	W06
	.byte		N05	, Gs2, v108
	.byte		N05	, Gs3
	.byte	W06
	.byte		N04	, Fn2, v096
	.byte		N04	, Fn3
	.byte	W06
	.byte		N12	, Ds2, v127
	.byte		N12	, Ds3
	.byte	W06
	.byte	PEND
song014_3_6:
	.byte	W06
	.byte		N04	, Cs2, v096
	.byte		N04	, Cs3
	.byte	W06
	.byte		N05	, As1, v104
	.byte		N05	, As2
	.byte	W06
	.byte			Gs1
	.byte		N05	, Gs2
	.byte	W06
	.byte		N04	, Fn1, v096
	.byte		N04	, Fn2
	.byte	W06
	.byte		N06	, Ds1, v112
	.byte		N06	, Ds2
	.byte	W06
	.byte		N05	, Cs1, v104
	.byte		N05	, Cs2
	.byte	W06
	.byte			As0, v127
	.byte		N05	, As1
	.byte	W06
	.byte	PEND
song014_3_7:
	.byte	W48
	.byte	W96
	.byte	W96
	.byte	W12
	.byte		N02	, Gs2, v092
	.byte		N04	, Cs3, v104
	.byte		N03	, Fn3, v100
	.byte	W18
	.byte		N17	, As2, v116
	.byte		N17	, Ds3
	.byte		N17	, Gn3
	.byte	W18
	.byte			Gs2, v104
	.byte		N17	, Cs3, v112
	.byte		N17	, Fn3, v108
	.byte	W18
	.byte		N02	, Gs2, v116
	.byte		N04	, Cs3
	.byte		N02	, Fn3
	.byte	W18
	.byte			Gs1, v092
	.byte	W06
	.byte			An1
	.byte	W06
	.byte			As1
	.byte	W06
	.byte		N02	
	.byte	W06
	.byte			Gs2
	.byte		N04	, Cs3, v104
	.byte		N03	, Fn3, v100
	.byte	W06
	.byte		N02	, Cs2, v092
	.byte	W06
	.byte			As1
	.byte	W06
	.byte		N17	, Gs2, v116
	.byte		N17	, Cs3
	.byte		N17	, Fn3
	.byte	W66
	.byte	W96
	.byte	W96
	.byte		N10	, En2, v096
	.byte		N12	, As2, v116
	.byte		N11	, Ds3, v120
	.byte	W12
	.byte		N07	, Gs3, v112
	.byte		N09	, Cs4, v116
	.byte	W06
	.byte		N04	, As3, v112
	.byte	W12
	.byte			As3, v127
	.byte		N03	, Cs4, v124
	.byte	W18
	.byte		N15	, As3, v127
	.byte		N19	, Cs4
	.byte	W18
	.byte		N02	, Gs3, v080
	.byte	W18
	.byte		N20	, En2, v084
	.byte		N20	, As2, v100
	.byte		N21	, Ds3, v108
	.byte	W12
	.byte	W12
	.byte		N02	, Fs3, v116
	.byte		N04	, As3, v124
	.byte	W06
	.byte			Fs3, v116
	.byte		N04	, As3, v112
	.byte	W06
	.byte			En2, v060
	.byte		N04	, As2, v080
	.byte		N05	, Ds3, v088
	.byte	W06
	.byte		N17	, Fs3, v124
	.byte		N17	, As3
	.byte	W66
	.byte	W96
	.byte	W96
	.byte	W96
	.byte	W96
	.byte	W96
	.byte	W48
	.byte		N11	, As1, v127
	.byte	W18
	.byte		N02	, Gs2, v092
	.byte	W06
	.byte		N03	, Cs3, v096
	.byte		N05	, Fn3, v100
	.byte	W06
	.byte		N02	, As2, v084
	.byte	W06
	.byte			Gs2, v060
	.byte	W06
	.byte		N18	, Ds3, v104
	.byte		N16	, Gn3, v100
	.byte	W06
	.byte	W12
	.byte		N02	, Cs3, v096
	.byte		N02	, Fn3, v092
	.byte	W12
	.byte		N03	, Gs2, v100
	.byte	W12
	.byte			Cs3, v080
	.byte		N04	, Fn3, v096
	.byte	W06
	.byte		N02	, As2
	.byte	W06
	.byte		N08	, As1, v116
	.byte	W24
	.byte		N03	, Cs3, v108
	.byte		N04	, Fn3, v104
	.byte	W06
	.byte		N02	, As2, v084
	.byte	W06
	.byte			Gs2, v068
	.byte	W06
	.byte		N04	, Ds3, v108
	.byte		N02	, Gn3, v080
	.byte	W06
	.byte	W06
	.byte		N03	, Ds3, v112
	.byte		N02	, Gn3, v104
	.byte	W12
	.byte		N17	, Ds3, v124
	.byte		N17	, Gn3, v120
	.byte	W18
	.byte		N10	, Cs3, v104
	.byte		N09	, Fn3, v100
	.byte	W12
	.byte		N13	, As1
	.byte	W12
	.byte		N04	, As2, v048
	.byte	W12
	.byte		N05	, Gs2, v116
	.byte	W06
	.byte		N04	, Cs3, v112
	.byte		N02	, Fn3, v096
	.byte	W12
	.byte		N23	, Cs3, v120
	.byte		N30	, Fn3
	.byte	W06
	.byte	W18
	.byte		N03	, Gs2, v084
	.byte	W18
	.byte		N02	, Fn2, v068
	.byte		N05	, As2, v080
	.byte	W12
	.byte		N11	, As1, v120
	.byte	W12
	.byte		N02	, Cn3, v076
	.byte	W12
	.byte		N04	, Cn3, v108
	.byte		N08	, Fn3, v112
	.byte	W06
	.byte		N02	, Cs3, v088
	.byte	W06
	.byte			Gs2, v072
	.byte	W06
	.byte		N03	, Cs3, v104
	.byte		N04	, Fn3
	.byte	W06
	.byte	W06
	.byte			Cs3, v108
	.byte		N06	, Fn3
	.byte	W12
	.byte		N02	, Fn2, v052
	.byte		N06	, Ds3, v088
	.byte	W06
	.byte		N05	, Cs3, v092
	.byte	W06
	.byte		N04	, As2, v104
	.byte	W06
	.byte		N05	, Gs2, v108
	.byte	W06
	.byte		N02	, Fn2, v100
	.byte	W54
	.byte	W96
	.byte	W96
	.byte	W12
	.byte		N04	, Cs3, v104
	.byte		N03	, Fn3, v100
	.byte	W18
	.byte		N17	, Ds3, v116
	.byte		N17	, Gn3
	.byte	W18
	.byte			Cs3, v112
	.byte		N17	, Fn3, v108
	.byte	W18
	.byte		N04	, Cs3, v116
	.byte		N02	, Fn3
	.byte	W18
	.byte			Gs1, v092
	.byte	W06
	.byte			An1
	.byte	W06
	.byte			As1
	.byte	W06
	.byte		N02	
	.byte	W06
	.byte		N04	, Cs3, v104
	.byte		N03	, Fn3, v100
	.byte	W06
	.byte		N02	, Cs2, v092
	.byte	W06
	.byte			As1
	.byte	W06
	.byte		N17	, Cs3, v116
	.byte		N17	, Fn3
	.byte	W66
	.byte	W96
	.byte	W96
	.byte		N12	, As2
	.byte		N11	, Ds3, v120
	.byte	W12
	.byte		N05	, Gs3, v112
	.byte		N09	, Cs4, v116
	.byte	W06
	.byte		N04	, As3, v112
	.byte	W12
	.byte			As3, v127
	.byte		N03	, Cs4, v124
	.byte	W18
	.byte		N15	, As3, v127
	.byte		N19	, Cs4
	.byte	W18
	.byte		N02	, Gs3, v080
	.byte	W18
	.byte		N20	, As2, v100
	.byte		N21	, Ds3, v108
	.byte	W12
	.byte	W12
	.byte		N02	, Fs3, v116
	.byte		N04	, As3, v124
	.byte	W06
	.byte			Fs3, v116
	.byte		N04	, As3, v112
	.byte	W06
	.byte			As2, v080
	.byte		N05	, Ds3, v088
	.byte	W06
	.byte		N17	, Fs3, v124
	.byte		N17	, As3
	.byte	W66
	.byte	W96
	.byte	W96
	.byte	W96
	.byte	W96
	.byte	W96
	.byte	W42
	.byte		N19	, As1, v127
	.byte	W24
	.byte		N04	, As1, v108
	.byte	W06
	.byte		N05	, Cs3, v096
	.byte		N06	, Fn3, v100
	.byte	W06
	.byte		N04	, As2, v104
	.byte	W06
	.byte		N02	, As1, v092
	.byte	W06
	.byte		N18	, Ds3, v120
	.byte		N14	, Gn3, v100
	.byte	W06
song014_3_1:
	.byte	W12
	.byte		N05	, Cs3, v112
	.byte		N06	, Fn3, v104
	.byte	W06
	.byte		N02	, As1, v092
	.byte	W18
	.byte		N05	, Gs1, v112
	.byte	W06
	.byte			An1, v104
	.byte	W06
	.byte		N13	, As1, v127
	.byte	W18
	.byte		N05	, As1, v100
	.byte	W06
	.byte		N17	, Ds3, v108
	.byte		N14	, Gn3, v100
	.byte	W18
	.byte		N05	, Cs3, v108
	.byte		N06	, Fn3, v104
	.byte	W06
	.byte	PEND
song014_3_2:
	.byte	W12
	.byte		N04	, As1, v116
	.byte	W18
	.byte		N05	, As1, v124
	.byte	W06
	.byte			Gs1, v116
	.byte	W06
	.byte			An1, v104
	.byte	W06
	.byte		N13	, As1, v127
	.byte	W18
	.byte		N04	, As1, v108
	.byte	W06
	.byte		N05	, Cs3, v096
	.byte		N06	, Fn3, v100
	.byte	W06
	.byte		N04	, As2, v104
	.byte	W06
	.byte		N02	, As1, v092
	.byte	W06
	.byte		N18	, Ds3, v120
	.byte		N14	, Gn3, v100
	.byte	W06
	.byte	PEND
	.byte	PATT	
		.int	song014_3_1
	.byte	PATT	
		.int	song014_3_2
	.byte	PATT	
		.int	song014_3_1
	.byte	W12
	.byte		N04	, As1, v116
	.byte	W18
	.byte		N05	, As1, v124
	.byte	W06
	.byte			Gs1, v116
	.byte	W06
	.byte			An1, v104
	.byte	W06
	.byte		N13	, As1, v127
	.byte	W18
	.byte		N04	, As1, v108
	.byte	W06
	.byte		N05	, Cs3, v096
	.byte		N05	, Fn3, v100
	.byte	W06
	.byte		N04	, As2, v104
	.byte	W06
	.byte		N02	, As1, v092
	.byte	W06
	.byte		N17	, Ds3, v120
	.byte		N17	, Gn3, v100
	.byte	W06
	.byte	W12
	.byte		N05	, Cs3, v112
	.byte		N05	, Fn3, v104
	.byte	W06
	.byte		N02	, As1, v092
	.byte	W18
	.byte		N05	, Gs1, v112
	.byte	W06
	.byte			An1, v104
	.byte	W06
	.byte		N13	, As1, v127
	.byte	W18
	.byte		N05	, As1, v100
	.byte	W06
	.byte		N17	, Gn3
	.byte	W18
	.byte		N06	, Fn3, v104
	.byte	W06
	.byte	W12
	.byte		N04	, As1, v116
	.byte	W18
	.byte		N05	, As1, v124
	.byte	W06
	.byte			Gs1, v116
	.byte	W06
	.byte			An1, v104
	.byte	W06
	.byte		N13	, As1, v124
	.byte	W18
	.byte		N02	, Gs2, v080
	.byte	W06
	.byte		N03	, Cs3, v088
	.byte		N09	, Fn3, v092
	.byte	W06
	.byte		N04	, As2, v100
	.byte	W06
	.byte		N02	, Gs2, v080
	.byte	W06
	.byte		N17	, As2, v116
	.byte		N17	, Ds3, v112
	.byte		N17	, Gn3, v100
	.byte	W06
	.byte	PATT	
		.int	song014_3_3
	.byte	PATT	
		.int	song014_3_4
	.byte	PATT	
		.int	song014_3_5
	.byte	PATT	
		.int	song014_3_6
	.byte	GOTO	
		.int	song014_3_7
	.byte	FINE

	@********************** Track  4 **********************@

	.global song014_4
song014_4:	@ 0x087A2D3A
	.byte	KEYSH	, 0
	.byte	VOICE	, 68
	.byte	VOL	, v110
	.byte	PAN	, c_v
	.byte	MOD	, 0
	.byte	LFOS	, 43
	.byte	MODT	, 2
	.byte	LFODL	, 0
	.byte		N06	, As2, v116
	.byte	W06
	.byte			Gs2, v120
	.byte	W06
	.byte			Fs2, v108
	.byte	W06
	.byte		N12	, Fn2, v100
	.byte	W12
	.byte		N06	, Ds2, v124
	.byte	W06
	.byte			Cs2, v112
	.byte	W06
	.byte			As1, v127
	.byte	W24
	.byte		N05	, As2, v112
	.byte	W18
	.byte		N04	, Gs2, v116
	.byte	W12
song014_4_1:
	.byte	W06
	.byte		N17	, Fn2, v116
	.byte	W18
	.byte		N05	, En2, v108
	.byte	W06
	.byte			Ds2, v100
	.byte	W06
	.byte		N11	, Cs2, v108
	.byte	W12
	.byte		N17	, As1, v100
	.byte	W18
	.byte		N04	, As2, v108
	.byte	W18
	.byte		N05	, Gs2, v116
	.byte	W12
	.byte	PEND
song014_4_2:
	.byte	W48
	.byte		N17	, As1, v108
	.byte	W18
	.byte		N06	, As2, v116
	.byte	W18
	.byte		N04	, Gs2, v112
	.byte	W12
	.byte	PEND
song014_4_3:
	.byte	W06
	.byte		N17	, Fn2, v112
	.byte	W18
	.byte		N05	, En2, v100
	.byte	W06
	.byte			Ds2, v096
	.byte	W06
	.byte		N11	, Cs2, v108
	.byte	W12
	.byte		N17	, As1, v112
	.byte	W18
	.byte		N06	, Gs2, v120
	.byte	W18
	.byte		N05	, As2, v116
	.byte	W12
	.byte	PEND
song014_4_14:
	.byte	W24
	.byte		N05	, Ds2, v104
	.byte	W06
	.byte			En2
	.byte	W06
	.byte		N11	, Fn2
	.byte	W12
	.byte	PEND
song014_4_15:
	.byte		N17	, As1, v124
	.byte	W18
	.byte		N05	, As2, v112
	.byte	W18
	.byte		N04	, Gs2, v116
	.byte	W12
	.byte	PATT	
		.int	song014_4_1
	.byte	PATT	
		.int	song014_4_2
	.byte	PATT	
		.int	song014_4_3
song014_4_4:
	.byte	W24
	.byte		N05	, Ds2, v104
	.byte	W06
	.byte			En2
	.byte	W06
	.byte		N11	, Fn2
	.byte	W12
	.byte		N17	, As1
	.byte	W18
	.byte		N05	, As2, v116
	.byte	W18
	.byte			Gs2, v120
	.byte	W12
	.byte	PEND
song014_4_5:
	.byte	W06
	.byte		N16	, Fn2, v116
	.byte	W18
	.byte		N05	, En2, v104
	.byte	W06
	.byte			Ds2, v092
	.byte	W06
	.byte		N11	, Cs2, v120
	.byte	W12
	.byte		N17	, As1, v104
	.byte	W18
	.byte		N05	, As2, v108
	.byte	W18
	.byte			Gs2, v112
	.byte	W12
	.byte	PEND
song014_4_6:
	.byte	W24
	.byte		N05	, As2, v112
	.byte	W06
	.byte			Gs2
	.byte	W06
	.byte			Gn2
	.byte	W12
	.byte		N17	, Fs2
	.byte	W18
	.byte		N04	, Fs2, v116
	.byte	W18
	.byte			Fs2, v112
	.byte	W12
	.byte	PEND
song014_4_7:
	.byte	W12
	.byte		N17	, Fs2, v120
	.byte	W18
	.byte		N05	, Cs2, v108
	.byte	W06
	.byte			En2, v096
	.byte	W06
	.byte			Fn2, v124
	.byte	W06
	.byte		N17	, Fs2, v112
	.byte	W18
	.byte		N04	, Fs2, v116
	.byte	W18
	.byte			Fs2, v112
	.byte	W12
	.byte	PEND
song014_4_8:
	.byte	W12
	.byte		N11	, Fs2, v120
	.byte	W12
	.byte		N05	, Fs2, v108
	.byte	W06
	.byte		N17	, Fs2, v124
	.byte	W18
	.byte			Fn2, v112
	.byte	W18
	.byte		N04	, Fn2, v116
	.byte	W18
	.byte			Fn2, v112
	.byte	W12
	.byte	PEND
song014_4_9:
	.byte	W12
	.byte		N17	, Fn2, v120
	.byte	W18
	.byte		N05	, Cn2, v108
	.byte	W06
	.byte			Ds2, v096
	.byte	W06
	.byte			En2, v124
	.byte	W06
	.byte		N17	, Fn2, v112
	.byte	W18
	.byte		N04	, Fn2, v116
	.byte	W18
	.byte			Fn2, v112
	.byte	W12
	.byte	PEND
song014_4_10:
	.byte	W12
	.byte		N05	, Fn2, v108
	.byte	W06
	.byte			Cn2
	.byte	W06
	.byte			Fn2
	.byte	W06
	.byte		N17	, En2
	.byte	W18
	.byte			Ds2, v112
	.byte	W18
	.byte		N04	, Ds2, v116
	.byte	W18
	.byte			Ds2, v112
	.byte	W12
	.byte	PEND
song014_4_11:
	.byte	W12
	.byte		N17	, Ds2, v120
	.byte	W18
	.byte		N05	, As1, v108
	.byte	W06
	.byte			Cs2, v096
	.byte	W06
	.byte			Dn2, v124
	.byte	W06
	.byte		N17	, Ds2, v112
	.byte	W18
	.byte		N04	, Ds2, v116
	.byte	W18
	.byte			Ds2, v112
	.byte	W12
	.byte	PEND
song014_4_12:
	.byte	W12
	.byte		N05	, Ds2, v108
	.byte	W12
	.byte		N05	
	.byte	W06
	.byte		N17	, En2
	.byte	W18
	.byte			Fn2, v112
	.byte	W18
	.byte		N04	, Fn2, v116
	.byte	W18
	.byte			Fn2, v112
	.byte	W12
	.byte	PEND
song014_4_13:
	.byte	W12
	.byte		N17	, Fn2, v120
	.byte	W18
	.byte		N05	, Cn2, v108
	.byte	W06
	.byte			Ds2, v096
	.byte	W06
	.byte			En2, v124
	.byte	W06
	.byte		N23	, Fn2
	.byte	W24
	.byte			En2
	.byte	W24
	.byte	PEND
	.byte			Ds2
	.byte	W24
	.byte		N17	, Cs2
	.byte	W18
	.byte		N05	, As1
	.byte	W24
	.byte			As2, v112
	.byte	W18
	.byte		N04	, Gs2, v116
	.byte	W12
	.byte	PATT	
		.int	song014_4_1
	.byte	PATT	
		.int	song014_4_2
	.byte	PATT	
		.int	song014_4_3
	.byte	W24
	.byte		N05	, Ds2, v104
	.byte	W06
	.byte			En2
	.byte	W06
	.byte		N11	, Fn2
	.byte	W12
	.byte		N17	, As1, v124
	.byte	W18
	.byte		N05	, As2, v112
	.byte	W18
	.byte		N04	, Gs2, v116
	.byte	W12
	.byte	PATT	
		.int	song014_4_1
	.byte	PATT	
		.int	song014_4_2
	.byte	PATT	
		.int	song014_4_3
	.byte	PATT	
		.int	song014_4_4
	.byte	PATT	
		.int	song014_4_5
	.byte	PATT	
		.int	song014_4_6
	.byte	PATT	
		.int	song014_4_7
	.byte	PATT	
		.int	song014_4_8
	.byte	PATT	
		.int	song014_4_9
	.byte	PATT	
		.int	song014_4_10
	.byte	PATT	
		.int	song014_4_11
	.byte	PATT	
		.int	song014_4_12
	.byte	PATT	
		.int	song014_4_13
	.byte		N23	, Ds2, v124
	.byte	W24
	.byte		N17	, Cs2
	.byte	W18
	.byte		N05	, As1
	.byte	W54
	.byte	W96
	.byte	W96
	.byte	W96
	.byte	W96
	.byte	W96
	.byte	W96
	.byte	W96
	.byte	W66
	.byte			As2, v112
	.byte	W18
	.byte		N04	, Gs2, v116
	.byte	W12
	.byte	PATT	
		.int	song014_4_1
	.byte	PATT	
		.int	song014_4_2
	.byte	PATT	
		.int	song014_4_3
	.byte	PATT	
		.int	song014_4_14
	.byte	GOTO	
		.int	song014_4_15
	.byte	FINE

	@********************** Track  5 **********************@

	.global song014_5
song014_5:	@ 0x087A2F6F
	.byte	KEYSH	, 0
	.byte	VOICE	, 87
	.byte	VOL	, v077
	.byte	PAN	, c_v
	.byte	MOD	, 26
	.byte	LFOS	, 43
	.byte	MODT	, 2
	.byte	LFODL	, 0
	.byte	W96
	.byte	W96
	.byte	W96
	.byte	W96
	.byte	W48
song014_5_1:
	.byte	W48
	.byte	W96
	.byte	W96
	.byte	W96
	.byte	W96
	.byte	W96
	.byte	W96
	.byte	W96
	.byte	W90
	.byte		N03	, Gn3, v032
	.byte	W05
	.byte			Gs3, v068
	.byte	W01
	.byte	W02
	.byte		N10	, An3, v092
	.byte	W11
	.byte		N05	, As3, v100
	.byte	W10
	.byte		N12	, An3, v108
	.byte	W13
	.byte		N04	, Fn3, v072
	.byte	W06
	.byte			Cn3, v032
	.byte	W05
	.byte		N09	, Ds3, v100
	.byte	W12
	.byte		N06	, Gn3, v084
	.byte	W07
	.byte		N07	, Fn3, v072
	.byte	W13
	.byte		N04	, Ds3, v108
	.byte	W10
	.byte		N04	
	.byte	W07
	.byte		N11	, Cn3, v092
	.byte	W11
	.byte		N05	, Ds3, v080
	.byte	W07
	.byte		N04	, Cn3
	.byte	W05
	.byte		N06	, Ds3
	.byte	W09
	.byte		N05	, Fn3, v084
	.byte	W48
	.byte	W02
	.byte		N03	, As2, v068
	.byte	W04
	.byte			An2, v032
	.byte	W03
	.byte		N05	, Gs2, v048
	.byte	W06
	.byte		N06	, Gn2, v064
	.byte	W01
	.byte	W05
	.byte		N05	, As2, v108
	.byte	W06
	.byte		N06	, Gn2, v056
	.byte	W07
	.byte		N05	, Gs2, v108
	.byte	W05
	.byte		N04	, As2
	.byte	W07
	.byte		N06	, Cn3, v092
	.byte	W06
	.byte		N05	, Cs3, v100
	.byte	W06
	.byte		N03	, Ds3, v124
	.byte	W06
	.byte		N05	, Fn3, v108
	.byte	W06
	.byte			Gs3, v092
	.byte	W05
	.byte		N06	, An3, v068
	.byte	W07
	.byte		N05	, Cn4, v108
	.byte	W06
	.byte			As3, v116
	.byte	W06
	.byte			Fn3, v080
	.byte	W06
	.byte		N04	, Cs3, v108
	.byte	W12
	.byte		N05	, Gs3, v116
	.byte	W05
	.byte		N01	, Fs3, v072
	.byte	W02
	.byte		N04	, Gn3, v092
	.byte	W05
	.byte			Fs3, v048
	.byte	W05
	.byte		N05	, Gs3, v084
	.byte	W06
	.byte			Fn3
	.byte	W06
	.byte		N07	, En3
	.byte	W07
	.byte		N06	, Ds3, v116
	.byte	W07
	.byte		N04	, Cs3, v028
	.byte	W05
	.byte		N06	, Cn3, v064
	.byte	W07
	.byte		N05	, As2, v124
	.byte	W06
	.byte			An2, v060
	.byte	W06
	.byte		N04	, Gs2, v080
	.byte	W06
	.byte		N06	, Cn3
	.byte	W06
	.byte		N05	, Gs2, v092
	.byte	W06
	.byte			Gn2
	.byte	W11
	.byte	W12
	.byte		N04	, Cn3, v048
	.byte	W04
	.byte			An2, v052
	.byte	W04
	.byte			Cn3, v080
	.byte	W04
	.byte		N03	, Ds3, v116
	.byte	W04
	.byte			Cn3, v060
	.byte	W04
	.byte		N04	, Ds3, v108
	.byte	W04
	.byte		N03	, Fn3, v080
	.byte	W04
	.byte		N04	, Ds3, v092
	.byte	W04
	.byte		N02	, Fn3, v064
	.byte		N04	, Gn3, v060
	.byte	W04
	.byte		N03	, An3, v072
	.byte	W04
	.byte		N04	, Fn3, v052
	.byte	W04
	.byte		N02	, An3, v064
	.byte	W04
	.byte		N03	, Cn4, v068
	.byte	W04
	.byte		N04	, An3, v084
	.byte	W04
	.byte		N03	, Cn4, v080
	.byte	W04
	.byte		N04	, Ds4, v124
	.byte	W04
	.byte		N03	, Cn4, v092
	.byte	W04
	.byte			Ds4, v080
	.byte	W04
	.byte		N05	, Fn4
	.byte	W05
	.byte		N04	, Ds4, v008
	.byte	W04
	.byte			En4, v068
	.byte	W01
	.byte		N23	, Fn4, v072
	.byte	W02
	.byte	W22
	.byte		N05	, Ds4, v084
	.byte	W01
	.byte		N04	, En4, v048
	.byte	W04
	.byte		N19	, Fn4, v084
	.byte	W20
	.byte		N01	, Ds4, v032
	.byte	W01
	.byte		N05	, En4, v028
	.byte	W05
	.byte		N16	, Fn4, v072
	.byte	W17
	.byte		N01	, Ds4
	.byte	W02
	.byte		N05	, En4, v016
	.byte	W05
	.byte		N20	, Fn4, v060
	.byte	W19
	.byte		N04	, Ds4, v108
	.byte	W06
	.byte		N05	, Fn4, v072
	.byte	W06
	.byte		N06	, Ds4, v092
	.byte	W06
	.byte			Cs4, v116
	.byte	W12
	.byte			Cs4, v124
	.byte	W12
	.byte		N04	, As3, v080
	.byte	W06
	.byte		N10	, Cs4, v124
	.byte	W12
	.byte		N05	, Ds4, v108
	.byte	W12
	.byte		N10	, Cs4, v124
	.byte	W12
	.byte		N06	, Ds4, v092
	.byte	W06
	.byte		N13	, Cs4, v116
	.byte	W06
	.byte	W12
	.byte		N04	, As3, v108
	.byte	W06
	.byte		N06	, Fn3, v080
	.byte	W06
	.byte			Gs3, v100
	.byte	W06
	.byte		N01	, As3, v080
	.byte	W42
	.byte		N02	, Cn4, v096
	.byte	W06
	.byte		N06	, Cs4
	.byte	W12
	.byte		N05	, Cs4, v100
	.byte	W06
	.byte	W06
	.byte			Cn4, v088
	.byte	W12
	.byte			As3, v112
	.byte	W06
	.byte		N10	, Fn3, v088
	.byte	W12
	.byte		N06	, As3, v124
	.byte	W06
	.byte		N02	, Fn3, v048
	.byte	W06
	.byte		N05	, Gs3, v096
	.byte	W04
	.byte			As3
	.byte	W04
	.byte			Gs3, v100
	.byte	W04
	.byte		N04	, Fn3, v084
	.byte	W06
	.byte		N05	, Ds3, v100
	.byte	W06
	.byte		N03	, Cs3, v080
	.byte	W06
	.byte			As2
	.byte	W06
	.byte		N05	, Ds3, v108
	.byte	W06
	.byte			Cs3, v088
	.byte	W06
	.byte		N04	, As2
	.byte	W06
	.byte			Gs2, v080
	.byte	W06
	.byte		N02	, Fn2, v060
	.byte	W06
	.byte		N06	, As2, v120
	.byte	W06
	.byte		N04	, Gs2, v096
	.byte	W06
	.byte			Fn2, v068
	.byte	W06
	.byte		N06	, Ds2, v076
	.byte	W06
	.byte		N05	, Cs2, v068
	.byte	W54
	.byte	W96
	.byte	W96
	.byte		N09	, Cs4, v112
	.byte	W06
	.byte		N06	, Ds4
	.byte	W12
	.byte		N04	, Cs4, v116
	.byte	W12
	.byte		N06	, As3, v120
	.byte	W12
	.byte		N04	, Fn3, v092
	.byte	W06
	.byte			Gs3, v100
	.byte	W04
	.byte			As3, v108
	.byte	W04
	.byte			Gs3
	.byte	W04
	.byte		N03	, Fn3, v096
	.byte	W06
	.byte		N06	, Ds3, v092
	.byte	W06
	.byte		N04	, Cs3, v084
	.byte	W06
	.byte		N02	, As2, v088
	.byte	W06
	.byte		N05	, Ds3, v120
	.byte	W06
	.byte			Cs3, v092
	.byte	W06
	.byte		N04	, As2, v096
	.byte	W06
	.byte			Gs2
	.byte	W06
	.byte		N02	, Fn2, v064
	.byte	W06
	.byte		N09	, As2, v088
	.byte	W06
	.byte		N04	, Gs2, v104
	.byte	W06
	.byte		N02	, Fn2, v076
	.byte	W06
	.byte		N05	, Ds2, v100
	.byte	W06
	.byte		N04	, Cs2
	.byte	W54
	.byte	W96
	.byte	W84
	.byte		N03	, An2, v080
	.byte	W04
	.byte			As2, v088
	.byte	W07
	.byte		N06	, An3, v104
	.byte	W01
	.byte	W05
	.byte		N05	, Gn3, v108
	.byte	W06
	.byte			Cn3, v084
	.byte	W06
	.byte		N02	, Cs3, v096
	.byte	W07
	.byte		N04	, Cn4
	.byte	W05
	.byte		N05	, As3, v112
	.byte	W06
	.byte			Ds3, v108
	.byte	W06
	.byte		N02	, En3, v076
	.byte	W07
	.byte		N05	, Ds4, v124
	.byte	W06
	.byte		N02	, Cs4, v104
	.byte	W06
	.byte		N15	, Fs4, v127
	.byte	W18
	.byte		N07	, En4, v120
	.byte	W06
	.byte			Ds4, v112
	.byte	W06
	.byte		N05	, Cs4
	.byte	W06
	.byte		N13	, Cn4
	.byte	W13
	.byte		N05	, Cs4, v084
	.byte	W03
	.byte			Dn4, v104
	.byte	W03
	.byte		N11	, Ds4, v108
	.byte	W07
	.byte		N06	, Dn4, v096
	.byte	W04
	.byte		N05	, Cs4, v112
	.byte	W05
	.byte		N04	, Cn4, v104
	.byte	W05
	.byte		N06	, As3, v116
	.byte	W06
	.byte			An3, v108
	.byte	W07
	.byte		N02	, Gn3, v084
	.byte	W03
	.byte		N11	, Fn3, v032
	.byte	W11
	.byte		N05	, An3, v108
	.byte	W06
	.byte		N12	, Fn3, v084
	.byte	W13
	.byte		N03	, Cn3, v092
	.byte	W06
	.byte		N05	, Cn3, v104
	.byte	W04
	.byte	W02
	.byte		N11	, Fn3, v120
	.byte	W16
	.byte		N03	, Fn3, v036
	.byte	W04
	.byte		N12	, Cn3, v068
	.byte	W12
	.byte		N06	, As2, v076
	.byte	W07
	.byte		N05	, Gs2, v100
	.byte	W05
	.byte		N11	, An2, v104
	.byte	W14
	.byte		N06	, Cn3, v112
	.byte	W07
	.byte		N07	, Fn2, v116
	.byte	W28
	.byte	W01
	.byte	W32
	.byte	W02
	.byte		N05	, As2, v104
	.byte	W03
	.byte			An2, v060
	.byte	W04
	.byte		N06	, Gs2, v104
	.byte	W05
	.byte			Gn2, v092
	.byte	W06
	.byte		N07	, As2, v112
	.byte	W07
	.byte		N03	, Gn2, v096
	.byte	W05
	.byte		N06	, Gs2, v104
	.byte	W06
	.byte		N04	, As2, v108
	.byte	W07
	.byte			Cn3, v068
	.byte	W01
	.byte		N02	, Dn3, v052
	.byte	W05
	.byte		N05	, Cs3, v108
	.byte	W05
	.byte		N04	, Ds3
	.byte	W07
	.byte		N07	, Fn3, v096
	.byte	W01
	.byte	W05
	.byte			Gs3, v100
	.byte	W05
	.byte		N05	, An3, v096
	.byte	W07
	.byte		N08	, Cn4, v112
	.byte	W06
	.byte		N07	, As3, v124
	.byte	W07
	.byte		N05	, Fn3, v096
	.byte	W05
	.byte		N04	, Ds3, v108
	.byte	W05
	.byte		N08	, Gs3, v127
	.byte	W36
	.byte	W03
	.byte		N06	, En4, v108
	.byte	W05
	.byte		N03	, Cn4, v076
	.byte	W04
	.byte		N04	, As3, v108
	.byte	W05
	.byte		N07	, Ds4, v112
	.byte	W03
	.byte	W03
	.byte			Cs4, v096
	.byte	W06
	.byte		N02	, An3, v080
	.byte	W03
	.byte		N04	, Gn3, v108
	.byte	W05
	.byte		N05	, Cn4, v096
	.byte	W03
	.byte		N06	, As3, v108
	.byte	W04
	.byte		N05	, Fs3, v100
	.byte	W04
	.byte		N02	, En3, v080
	.byte	W03
	.byte		N06	, An3, v088
	.byte	W03
	.byte			Gn3, v096
	.byte	W05
	.byte			Ds3, v104
	.byte	W01
	.byte		N03	, Fs3, v036
	.byte	W03
	.byte		N13	, Cs3, v120
	.byte	W42
	.byte	W01
	.byte		N04	, Gs2, v104
	.byte	W06
	.byte			An2, v092
	.byte	W04
	.byte	W01
	.byte		N07	, Fn3, v116
	.byte	W05
	.byte		N06	, Ds3, v124
	.byte	W12
	.byte		N05	, Cn3, v100
	.byte	W12
	.byte		N04	, Cs3, v116
	.byte	W13
	.byte			Ds3, v127
	.byte	W07
	.byte		N14	, Cn3, v108
	.byte	W13
	.byte		N06	, Cs3
	.byte	W05
	.byte		N04	, Ds3, v116
	.byte	W06
	.byte		N05	, Fn3, v096
	.byte	W03
	.byte		N07	, Gn3, v104
	.byte	W05
	.byte		N06	, Gs3, v108
	.byte	W07
	.byte		N04	, Fn3, v096
	.byte	W04
	.byte		N07	, Gn3, v088
	.byte	W03
	.byte	W01
	.byte		N05	, Gs3, v100
	.byte	W04
	.byte		N04	, As3, v112
	.byte	W06
	.byte			Cs4
	.byte	W08
	.byte		N05	, Cn4, v096
	.byte	W04
	.byte			Cs4, v108
	.byte	W04
	.byte		N04	, Ds4
	.byte	W05
	.byte		N03	, Fn4, v096
	.byte	W04
	.byte		N02	, Gn4, v088
	.byte	W03
	.byte		N03	, Gs4, v116
	.byte	W03
	.byte		N14	, As4, v124
	.byte	W15
	.byte		N04	, An4, v060
	.byte	W04
	.byte		N02	, Gn4
	.byte	W03
	.byte		N01	, Fn4, v084
	.byte	W02
	.byte		N02	, En4, v080
	.byte	W02
	.byte			Dn4, v084
	.byte	W02
	.byte			Cn4, v072
	.byte	W02
	.byte			Bn3, v060
	.byte	W02
	.byte			An3, v052
	.byte	W01
	.byte			Gn3, v048
	.byte	W02
	.byte			Fn3, v032
	.byte	W02
	.byte		N03	, En3, v028
	.byte	W01
	.byte		N02	, Dn3, v040
	.byte	W01
	.byte			Cn3
	.byte	W02
	.byte			Bn2, v044
	.byte	W01
	.byte			An2, v036
	.byte	W02
	.byte			Gn2
	.byte	W01
	.byte			Fn2, v044
	.byte	W01
	.byte			En2, v052
	.byte	W02
	.byte			Dn2, v048
	.byte	W01
	.byte			Cn2, v040
	.byte	W05
	.byte	W96
	.byte	W96
	.byte	W96
	.byte	W36
	.byte	W03
	.byte			Fn2, v072
	.byte	W02
	.byte			Gn2, v084
	.byte	W03
	.byte		N01	, An2, v092
	.byte	W02
	.byte		TIE	, As2, v120
	.byte	W48
	.byte	W02
	.byte	W48
	.byte		N84	, Fn3, v096
	.byte	W48
	.byte	W42
	.byte	W01
	.byte		N02	, Fn3, v072
	.byte	W02
	.byte			Gn3, v084
	.byte	W03
	.byte		N01	, An3, v092
	.byte	W01
	.byte		EOT	, As2
	.byte		N92	, As2, v104
	.byte	W01
	.byte			As3, v116
	.byte	W44
	.byte	W02
	.byte	W48
	.byte		N03	, Cn4, v120
	.byte	W04
	.byte		N19	, Cs4, v108
	.byte		N19	, Fn4, v120
	.byte	W20
	.byte		N03	, Cn4, v076
	.byte	W04
	.byte		N19	, Cs4, v100
	.byte		N19	, Fn4, v116
	.byte	W20
	.byte		N03	, Cn4, v080
	.byte		N11	, Fn4, v100
	.byte	W04
	.byte		N03	, Cs4, v092
	.byte	W04
	.byte			Cn4, v108
	.byte	W04
	.byte		N05	, As3, v116
	.byte	W06
	.byte			Gs3, v108
	.byte	W06
	.byte			Fn3, v088
	.byte	W06
	.byte			Ds3, v096
	.byte	W06
	.byte			Cs3, v080
	.byte	W06
	.byte		N04	, As2, v112
	.byte	W54
	.byte	W96
	.byte	W96
	.byte	W96
	.byte	W48
	.byte	GOTO	
		.int	song014_5_1
	.byte	FINE

	@********************** Track  6 **********************@

	.global song014_6
song014_6:	@ 0x087A33DE
	.byte	KEYSH	, 0
	.byte	VOICE	, 74
	.byte	VOL	, v110
	.byte	PAN	, c_v
	.byte	MOD	, 19
	.byte	LFOS	, 43
	.byte	MODT	, 2
	.byte	LFODL	, 0
	.byte	PRIO	, 30
	.byte		N06	, As2, v116
	.byte	W06
	.byte			Cs3, v120
	.byte	W06
	.byte			Ds3, v108
	.byte	W06
	.byte		N12	, Fn3, v100
	.byte	W12
	.byte		N06	, Gs3, v124
	.byte	W06
	.byte			An3, v112
	.byte	W06
	.byte			As3, v127
	.byte	W54
	.byte	W96
	.byte	W96
	.byte	W96
	.byte	W48
song014_6_12:
	.byte		N18	, Fn2, v088
	.byte	W18
	.byte			An2
	.byte	W18
	.byte			As2, v112
	.byte	W12
song014_6_2:
	.byte	W06
	.byte	VOL	, v108
	.byte		TIE	, Cs3, v104
	.byte	W01
	.byte	VOL	, v104
	.byte	W01
	.byte		v101
	.byte	W01
	.byte		v097
	.byte	W01
	.byte		v094
	.byte	W01
	.byte		v090
	.byte	W01
	.byte		v087
	.byte	W01
	.byte		v084
	.byte	W01
	.byte		v080
	.byte	W01
	.byte		v077
	.byte	W01
	.byte		v073
	.byte	W01
	.byte		v070
	.byte	W01
	.byte		v066
	.byte	W01
	.byte		v063
	.byte	W01
	.byte		v059
	.byte	W01
	.byte		v056
	.byte	W01
	.byte		v052
	.byte	W01
	.byte		v049
	.byte	W01
	.byte		v047
	.byte	W02
	.byte		v045
	.byte	W01
	.byte		v046
	.byte	W01
	.byte		v048
	.byte	W01
	.byte		v049
	.byte	W01
	.byte		v050
	.byte	W01
	.byte		v051
	.byte	W01
	.byte		v052
	.byte	W01
	.byte		v052
	.byte	W01
	.byte		v054
	.byte	W01
	.byte		v055
	.byte	W01
	.byte		v057
	.byte	W01
	.byte		v058
	.byte	W01
	.byte		v058
	.byte	W01
	.byte		v060
	.byte	W01
	.byte		v060
	.byte	W01
	.byte		v062
	.byte	W01
	.byte		v063
	.byte	W01
	.byte		v064
	.byte	W01
	.byte		v065
	.byte	W01
	.byte		v066
	.byte	W01
	.byte		v067
	.byte	W01
	.byte		v068
	.byte	W01
	.byte		v070
	.byte	W01
	.byte		v071
	.byte	W01
	.byte		v071
	.byte	W01
	.byte		v073
	.byte	W01
	.byte		v074
	.byte	W01
	.byte		v075
	.byte	W01
	.byte		v076
	.byte	W01
	.byte		v077
	.byte	W01
	.byte		v078
	.byte	W01
	.byte		v079
	.byte	W01
	.byte		v081
	.byte	W01
	.byte		v082
	.byte	W01
	.byte		v083
	.byte	W01
	.byte		v084
	.byte	W01
	.byte		v085
	.byte	W01
	.byte		v086
	.byte	W01
	.byte		v087
	.byte	W01
	.byte		v088
	.byte	W01
	.byte		v090
	.byte	W01
	.byte		v090
	.byte	W01
	.byte		v091
	.byte	W01
	.byte		v093
	.byte	W01
	.byte		v094
	.byte	W01
	.byte		v095
	.byte	W01
	.byte		v096
	.byte	W01
	.byte		v097
	.byte	W01
	.byte		v098
	.byte	W01
	.byte		v099
	.byte	W01
	.byte		v100
	.byte	W01
	.byte		v102
	.byte	W01
	.byte		v103
	.byte	W01
	.byte		v103
	.byte	W01
	.byte		v104
	.byte	W01
	.byte		v106
	.byte	W01
	.byte		v107
	.byte	W01
	.byte		v108
	.byte	W01
	.byte		v109
	.byte	W12
	.byte	PEND
	.byte	W12
	.byte		EOT	
	.byte	W12
	.byte		N06	, Ds2, v096
	.byte	W06
	.byte			Cs2, v088
	.byte	W06
	.byte			As1, v104
	.byte	W12
	.byte			Cs2
	.byte	W06
	.byte			Ds2, v116
	.byte	W12
	.byte		N12	, Cs2
	.byte	W30
	.byte	W96
song014_6_3:
	.byte	W48
	.byte		N18	, Fn2, v088
	.byte	W18
	.byte			An2
	.byte	W18
	.byte		N11	, Cs3, v112
	.byte	W12
	.byte	PEND
song014_6_4:
	.byte		N02	, As2, v124
	.byte	W02
	.byte			Bn2, v120
	.byte	W02
	.byte			Cn3, v127
	.byte	W02
	.byte	VOL	, v108
	.byte		TIE	, Cs3, v104
	.byte	W01
	.byte	VOL	, v104
	.byte	W01
	.byte		v101
	.byte	W01
	.byte		v097
	.byte	W01
	.byte		v094
	.byte	W01
	.byte		v090
	.byte	W01
	.byte		v087
	.byte	W01
	.byte		v084
	.byte	W01
	.byte		v080
	.byte	W01
	.byte		v077
	.byte	W01
	.byte		v073
	.byte	W01
	.byte		v070
	.byte	W01
	.byte		v066
	.byte	W01
	.byte		v063
	.byte	W01
	.byte		v059
	.byte	W01
	.byte		v056
	.byte	W01
	.byte		v052
	.byte	W01
	.byte		v049
	.byte	W01
	.byte		v047
	.byte	W02
	.byte		v045
	.byte	W01
	.byte		v046
	.byte	W01
	.byte		v048
	.byte	W01
	.byte		v049
	.byte	W01
	.byte		v050
	.byte	W01
	.byte		v051
	.byte	W01
	.byte		v052
	.byte	W01
	.byte		v052
	.byte	W01
	.byte		v054
	.byte	W01
	.byte		v055
	.byte	W01
	.byte		v057
	.byte	W01
	.byte		v058
	.byte	W01
	.byte		v058
	.byte	W01
	.byte		v060
	.byte	W01
	.byte		v060
	.byte	W01
	.byte		v062
	.byte	W01
	.byte		v063
	.byte	W01
	.byte		v064
	.byte	W01
	.byte		v065
	.byte	W01
	.byte		v066
	.byte	W01
	.byte		v067
	.byte	W01
	.byte		v068
	.byte	W01
	.byte		v070
	.byte	W01
	.byte		v071
	.byte	W01
	.byte		v071
	.byte	W01
	.byte		v073
	.byte	W01
	.byte		v074
	.byte	W01
	.byte		v075
	.byte	W01
	.byte		v076
	.byte	W01
	.byte		v077
	.byte	W01
	.byte		v078
	.byte	W01
	.byte		v079
	.byte	W01
	.byte		v081
	.byte	W01
	.byte		v082
	.byte	W01
	.byte		v083
	.byte	W01
	.byte		v084
	.byte	W01
	.byte		v085
	.byte	W01
	.byte		v086
	.byte	W01
	.byte		v087
	.byte	W01
	.byte		v088
	.byte	W01
	.byte		v090
	.byte	W01
	.byte		v090
	.byte	W01
	.byte		v091
	.byte	W01
	.byte		v093
	.byte	W01
	.byte		v094
	.byte	W01
	.byte		v095
	.byte	W01
	.byte		v096
	.byte	W01
	.byte		v097
	.byte	W01
	.byte		v098
	.byte	W01
	.byte		v099
	.byte	W01
	.byte		v100
	.byte	W01
	.byte		v102
	.byte	W01
	.byte		v103
	.byte	W01
	.byte		v103
	.byte	W01
	.byte		v104
	.byte	W01
	.byte		v106
	.byte	W01
	.byte		v107
	.byte	W01
	.byte		v108
	.byte	W01
	.byte		v109
	.byte	W12
	.byte	PEND
	.byte	W11
	.byte		EOT	
	.byte	W13
	.byte		N05	, Cs3, v116
	.byte	W06
	.byte			Bn2, v092
	.byte	W06
	.byte			As2, v120
	.byte	W12
	.byte		N11	, As2, v096
	.byte	W12
	.byte		N05	, As2, v112
	.byte	W36
	.byte	W96
song014_6_5:
	.byte	W48
	.byte		N92	, Fn2, v108
	.byte	W12
	.byte	VOL	, v108
	.byte	W01
	.byte		v103
	.byte	W01
	.byte		v100
	.byte	W01
	.byte		v096
	.byte	W01
	.byte		v091
	.byte	W01
	.byte		v088
	.byte	W01
	.byte		v084
	.byte	W01
	.byte		v079
	.byte	W01
	.byte		v076
	.byte	W01
	.byte		v071
	.byte	W01
	.byte		v067
	.byte	W01
	.byte		v064
	.byte	W01
	.byte		v059
	.byte	W01
	.byte		v055
	.byte	W01
	.byte		v051
	.byte	W01
	.byte		v047
	.byte	W01
	.byte		v043
	.byte	W01
	.byte		v039
	.byte	W01
	.byte		v037
	.byte	W01
	.byte		v038
	.byte	W02
	.byte		v038
	.byte	W01
	.byte		v039
	.byte	W02
	.byte		v040
	.byte	W01
	.byte		v041
	.byte	W01
	.byte		v042
	.byte	W02
	.byte		v043
	.byte	W01
	.byte		v044
	.byte	W02
	.byte		v045
	.byte	W01
	.byte		v045
	.byte	W02
	.byte		v046
	.byte	W01
	.byte		v047
	.byte	W01
	.byte	PEND
song014_6_6:
	.byte	VOL	, v048
	.byte	W02
	.byte		v049
	.byte	W01
	.byte		v050
	.byte	W02
	.byte		v051
	.byte	W01
	.byte		v051
	.byte	W01
	.byte		v052
	.byte	W02
	.byte		v053
	.byte	W01
	.byte		v054
	.byte	W02
	.byte		v055
	.byte	W01
	.byte		v056
	.byte	W01
	.byte		v057
	.byte	W02
	.byte		v058
	.byte	W01
	.byte		v058
	.byte	W02
	.byte		v059
	.byte	W01
	.byte		v060
	.byte	W01
	.byte		v061
	.byte	W02
	.byte		v062
	.byte	W01
	.byte		v063
	.byte	W02
	.byte		v064
	.byte	W01
	.byte		v064
	.byte	W02
	.byte		v065
	.byte	W01
	.byte		v066
	.byte	W01
	.byte		v067
	.byte	W02
	.byte		v068
	.byte	W01
	.byte		v069
	.byte	W02
	.byte		v070
	.byte	W01
	.byte		v071
	.byte	W01
	.byte		v071
	.byte	W02
	.byte		v072
	.byte	W01
	.byte		v073
	.byte	W02
	.byte		v074
	.byte	W01
	.byte		v075
	.byte	W01
	.byte		v076
	.byte	W02
	.byte		v077
	.byte	W01
	.byte		v077
	.byte		N92	, Cn3, v104
	.byte	W02
	.byte	VOL	, v078
	.byte	W01
	.byte		v079
	.byte	W02
	.byte		v080
	.byte	W01
	.byte		v081
	.byte	W01
	.byte		v082
	.byte	W02
	.byte		v083
	.byte	W01
	.byte		v084
	.byte	W02
	.byte		v084
	.byte	W01
	.byte		v085
	.byte	W01
	.byte		v086
	.byte	W02
	.byte		v087
	.byte	W01
	.byte		v088
	.byte	W02
	.byte		v089
	.byte	W01
	.byte		v090
	.byte	W01
	.byte		v090
	.byte	W02
	.byte		v091
	.byte	W01
	.byte		v092
	.byte	W02
	.byte		v093
	.byte	W01
	.byte		v094
	.byte	W02
	.byte		v095
	.byte	W01
	.byte		v096
	.byte	W01
	.byte		v097
	.byte	W02
	.byte		v097
	.byte	W01
	.byte		v098
	.byte	W02
	.byte		v099
	.byte	W01
	.byte		v100
	.byte	W01
	.byte		v101
	.byte	W02
	.byte		v102
	.byte	W01
	.byte		v103
	.byte	W02
	.byte		v103
	.byte	W01
	.byte		v104
	.byte	W01
	.byte		v105
	.byte	W02
	.byte		v106
	.byte	W01
	.byte	PEND
song014_6_7:
	.byte	VOL	, v107
	.byte	W02
	.byte		v108
	.byte	W01
	.byte		v109
	.byte	W44
	.byte	W01
	.byte		N92	, Ds2, v112
	.byte	W12
	.byte	VOL	, v108
	.byte	W01
	.byte		v103
	.byte	W01
	.byte		v100
	.byte	W01
	.byte		v096
	.byte	W01
	.byte		v091
	.byte	W01
	.byte		v088
	.byte	W01
	.byte		v084
	.byte	W01
	.byte		v079
	.byte	W01
	.byte		v076
	.byte	W01
	.byte		v071
	.byte	W01
	.byte		v067
	.byte	W01
	.byte		v064
	.byte	W01
	.byte		v059
	.byte	W01
	.byte		v055
	.byte	W01
	.byte		v051
	.byte	W01
	.byte		v047
	.byte	W01
	.byte		v043
	.byte	W01
	.byte		v039
	.byte	W01
	.byte		v037
	.byte	W01
	.byte		v038
	.byte	W02
	.byte		v038
	.byte	W01
	.byte		v039
	.byte	W02
	.byte		v040
	.byte	W01
	.byte		v041
	.byte	W01
	.byte		v042
	.byte	W02
	.byte		v043
	.byte	W01
	.byte		v044
	.byte	W02
	.byte		v045
	.byte	W01
	.byte		v045
	.byte	W02
	.byte		v046
	.byte	W01
	.byte		v047
	.byte	W01
	.byte	PEND
song014_6_8:
	.byte	VOL	, v048
	.byte	W02
	.byte		v049
	.byte	W01
	.byte		v050
	.byte	W02
	.byte		v051
	.byte	W01
	.byte		v051
	.byte	W01
	.byte		v052
	.byte	W02
	.byte		v053
	.byte	W01
	.byte		v054
	.byte	W02
	.byte		v055
	.byte	W01
	.byte		v056
	.byte	W01
	.byte		v057
	.byte	W02
	.byte		v058
	.byte	W01
	.byte		v058
	.byte	W02
	.byte		v059
	.byte	W01
	.byte		v060
	.byte	W01
	.byte		v061
	.byte	W02
	.byte		v062
	.byte	W01
	.byte		v063
	.byte	W02
	.byte		v064
	.byte	W01
	.byte		v064
	.byte	W02
	.byte		v065
	.byte	W01
	.byte		v066
	.byte	W01
	.byte		v067
	.byte	W02
	.byte		v068
	.byte	W01
	.byte		v069
	.byte	W02
	.byte		v070
	.byte	W01
	.byte		v071
	.byte	W01
	.byte		v071
	.byte	W02
	.byte		v072
	.byte	W01
	.byte		v073
	.byte	W02
	.byte		v074
	.byte	W01
	.byte		v075
	.byte	W01
	.byte		v076
	.byte	W02
	.byte		v077
	.byte	W01
	.byte		v077
	.byte		N92	, As2, v112
	.byte	W02
	.byte	VOL	, v078
	.byte	W01
	.byte		v079
	.byte	W02
	.byte		v080
	.byte	W01
	.byte		v081
	.byte	W01
	.byte		v082
	.byte	W02
	.byte		v083
	.byte	W01
	.byte		v084
	.byte	W02
	.byte		v084
	.byte	W01
	.byte		v085
	.byte	W01
	.byte		v086
	.byte	W02
	.byte		v087
	.byte	W01
	.byte		v088
	.byte	W02
	.byte		v089
	.byte	W01
	.byte		v090
	.byte	W01
	.byte		v090
	.byte	W02
	.byte		v091
	.byte	W01
	.byte		v092
	.byte	W02
	.byte		v093
	.byte	W01
	.byte		v094
	.byte	W02
	.byte		v095
	.byte	W01
	.byte		v096
	.byte	W01
	.byte		v097
	.byte	W02
	.byte		v097
	.byte	W01
	.byte		v098
	.byte	W02
	.byte		v099
	.byte	W01
	.byte		v100
	.byte	W01
	.byte		v101
	.byte	W02
	.byte		v102
	.byte	W01
	.byte		v103
	.byte	W02
	.byte		v103
	.byte	W01
	.byte		v104
	.byte	W01
	.byte		v105
	.byte	W02
	.byte		v106
	.byte	W01
	.byte	PEND
song014_6_9:
	.byte	VOL	, v107
	.byte	W02
	.byte		v108
	.byte	W01
	.byte		v109
	.byte	W44
	.byte	W01
	.byte		N92	, Fn2, v096
	.byte	W12
	.byte	VOL	, v108
	.byte	W01
	.byte		v103
	.byte	W01
	.byte		v100
	.byte	W01
	.byte		v096
	.byte	W01
	.byte		v091
	.byte	W01
	.byte		v088
	.byte	W01
	.byte		v084
	.byte	W01
	.byte		v079
	.byte	W01
	.byte		v076
	.byte	W01
	.byte		v071
	.byte	W01
	.byte		v067
	.byte	W01
	.byte		v064
	.byte	W01
	.byte		v059
	.byte	W01
	.byte		v055
	.byte	W01
	.byte		v051
	.byte	W01
	.byte		v047
	.byte	W01
	.byte		v043
	.byte	W01
	.byte		v039
	.byte	W01
	.byte		v037
	.byte	W01
	.byte		v038
	.byte	W02
	.byte		v038
	.byte	W01
	.byte		v039
	.byte	W02
	.byte		v040
	.byte	W01
	.byte		v041
	.byte	W01
	.byte		v042
	.byte	W02
	.byte		v043
	.byte	W01
	.byte		v044
	.byte	W02
	.byte		v045
	.byte	W01
	.byte		v045
	.byte	W02
	.byte		v046
	.byte	W01
	.byte		v047
	.byte	W01
	.byte	PEND
song014_6_10:
	.byte	VOL	, v048
	.byte	W02
	.byte		v049
	.byte	W01
	.byte		v050
	.byte	W02
	.byte		v051
	.byte	W01
	.byte		v051
	.byte	W01
	.byte		v052
	.byte	W02
	.byte		v053
	.byte	W01
	.byte		v054
	.byte	W02
	.byte		v055
	.byte	W01
	.byte		v056
	.byte	W01
	.byte		v057
	.byte	W02
	.byte		v058
	.byte	W01
	.byte		v058
	.byte	W02
	.byte		v059
	.byte	W01
	.byte		v060
	.byte	W01
	.byte		v061
	.byte	W02
	.byte		v062
	.byte	W01
	.byte		v063
	.byte	W02
	.byte		v064
	.byte	W01
	.byte		v064
	.byte	W02
	.byte		v065
	.byte	W01
	.byte		v066
	.byte	W01
	.byte		v067
	.byte	W02
	.byte		v068
	.byte	W01
	.byte		v069
	.byte	W02
	.byte		v070
	.byte	W01
	.byte		v071
	.byte	W01
	.byte		v071
	.byte	W02
	.byte		v072
	.byte	W01
	.byte		v073
	.byte	W02
	.byte		v074
	.byte	W01
	.byte		v075
	.byte	W01
	.byte		v076
	.byte	W02
	.byte		v077
	.byte	W01
	.byte		v077
	.byte		N44	, Cn3, v104
	.byte	W02
	.byte	VOL	, v078
	.byte	W01
	.byte		v079
	.byte	W02
	.byte		v080
	.byte	W01
	.byte		v081
	.byte	W01
	.byte		v082
	.byte	W02
	.byte		v083
	.byte	W01
	.byte		v084
	.byte	W02
	.byte		v084
	.byte	W01
	.byte		v085
	.byte	W01
	.byte		v086
	.byte	W02
	.byte		v087
	.byte	W01
	.byte		v088
	.byte	W02
	.byte		v089
	.byte	W01
	.byte		v090
	.byte	W01
	.byte		v090
	.byte	W02
	.byte		v091
	.byte	W01
	.byte		v092
	.byte	W02
	.byte		v093
	.byte	W01
	.byte		v094
	.byte	W02
	.byte		v095
	.byte	W01
	.byte		v096
	.byte	W01
	.byte		v097
	.byte	W02
	.byte		v097
	.byte	W01
	.byte		v098
	.byte	W02
	.byte		v099
	.byte	W01
	.byte		v100
	.byte	W01
	.byte		v101
	.byte	W02
	.byte		v102
	.byte	W01
	.byte		v103
	.byte	W02
	.byte		v103
	.byte	W01
	.byte		v104
	.byte	W01
	.byte		v105
	.byte	W02
	.byte		v106
	.byte	W01
	.byte	PEND
	.byte		v107
	.byte		N06	, As2, v116
	.byte	W02
	.byte	VOL	, v108
	.byte	W01
	.byte		v109
	.byte	W03
	.byte		N06	, Cs3, v120
	.byte	W06
	.byte			Ds3, v108
	.byte	W06
	.byte		N12	, Fn3, v100
	.byte	W12
	.byte		N06	, Gs3, v124
	.byte	W06
	.byte			An3, v112
	.byte	W06
	.byte			As3, v127
	.byte	W18
	.byte	VOL	, v108
	.byte	W01
	.byte		v103
	.byte	W01
	.byte		v100
	.byte	W01
	.byte		v096
	.byte	W01
	.byte		v091
	.byte	W01
	.byte		v088
	.byte	W01
	.byte		v084
	.byte	W01
	.byte		v079
	.byte	W01
	.byte		v076
	.byte	W01
	.byte		v071
	.byte	W01
	.byte		v067
	.byte	W01
	.byte		v064
	.byte	W01
	.byte		v059
	.byte	W01
	.byte		v055
	.byte	W01
	.byte		v051
	.byte	W01
	.byte		v047
	.byte	W01
	.byte		v043
	.byte	W01
	.byte		v039
	.byte	W01
	.byte		v037
	.byte	W01
	.byte		v038
	.byte	W02
	.byte		v038
	.byte	W01
	.byte		v039
	.byte	W02
	.byte		v040
	.byte	W01
	.byte		v041
	.byte	W01
	.byte		v042
	.byte	W02
	.byte		v043
	.byte	W01
	.byte		v044
	.byte	W02
	.byte		v045
	.byte	W01
	.byte		v045
	.byte	W02
	.byte		v046
	.byte	W01
	.byte		v047
	.byte	W01
song014_6_1:
	.byte	VOL	, v048
	.byte	W02
	.byte		v049
	.byte	W01
	.byte		v050
	.byte	W02
	.byte		v051
	.byte	W01
	.byte		v051
	.byte	W01
	.byte		v052
	.byte	W02
	.byte		v053
	.byte	W01
	.byte		v054
	.byte	W02
	.byte		v055
	.byte	W01
	.byte		v056
	.byte	W01
	.byte		v057
	.byte	W02
	.byte		v058
	.byte	W01
	.byte		v058
	.byte	W02
	.byte		v059
	.byte	W01
	.byte		v060
	.byte	W01
	.byte		v061
	.byte	W02
	.byte		v062
	.byte	W01
	.byte		v063
	.byte	W02
	.byte		v064
	.byte	W01
	.byte		v064
	.byte	W02
	.byte		v065
	.byte	W01
	.byte		v066
	.byte	W01
	.byte		v067
	.byte	W02
	.byte		v068
	.byte	W01
	.byte		v069
	.byte	W02
	.byte		v070
	.byte	W01
	.byte		v071
	.byte	W01
	.byte		v071
	.byte	W02
	.byte		v072
	.byte	W01
	.byte		v073
	.byte	W02
	.byte		v074
	.byte	W01
	.byte		v075
	.byte	W01
	.byte		v076
	.byte	W02
	.byte		v077
	.byte	W01
	.byte		v077
	.byte	W02
	.byte		v078
	.byte	W01
	.byte		v079
	.byte	W02
	.byte		v080
	.byte	W01
	.byte		v081
	.byte	W01
	.byte		v082
	.byte	W02
	.byte		v083
	.byte	W01
	.byte		v084
	.byte	W02
	.byte		v084
	.byte	W01
	.byte		v085
	.byte	W01
	.byte		v086
	.byte	W02
	.byte		v087
	.byte	W01
	.byte		v088
	.byte	W02
	.byte		v089
	.byte	W01
	.byte		v090
	.byte	W01
	.byte		v090
	.byte	W02
	.byte		v091
	.byte	W01
	.byte		v092
	.byte	W02
	.byte		v093
	.byte	W01
	.byte		v094
	.byte	W02
	.byte		v095
	.byte	W01
	.byte		v096
	.byte	W01
	.byte		v097
	.byte	W02
	.byte		v097
	.byte	W01
	.byte		v098
	.byte	W02
	.byte		v099
	.byte	W01
	.byte		v100
	.byte	W01
	.byte		v101
	.byte	W02
	.byte		v102
	.byte	W01
	.byte		v103
	.byte	W02
	.byte		v103
	.byte	W01
	.byte		v104
	.byte	W01
	.byte		v105
	.byte	W02
	.byte		v106
	.byte	W01
	.byte	PEND
song014_6_11:
	.byte	VOL	, v107
	.byte	W02
	.byte		v108
	.byte	W01
	.byte		v109
	.byte	W56
	.byte	W01
	.byte		v108
	.byte	W01
	.byte		v103
	.byte	W01
	.byte		v100
	.byte	W01
	.byte		v096
	.byte	W01
	.byte		v091
	.byte	W01
	.byte		v088
	.byte	W01
	.byte		v084
	.byte	W01
	.byte		v079
	.byte	W01
	.byte		v076
	.byte	W01
	.byte		v071
	.byte	W01
	.byte		v067
	.byte	W01
	.byte		v064
	.byte	W01
	.byte		v059
	.byte	W01
	.byte		v055
	.byte	W01
	.byte		v051
	.byte	W01
	.byte		v047
	.byte	W01
	.byte		v043
	.byte	W01
	.byte		v039
	.byte	W01
	.byte		v037
	.byte	W01
	.byte		v038
	.byte	W02
	.byte		v038
	.byte	W01
	.byte		v039
	.byte	W02
	.byte		v040
	.byte	W01
	.byte		v041
	.byte	W01
	.byte		v042
	.byte	W02
	.byte		v043
	.byte	W01
	.byte		v044
	.byte	W02
	.byte		v045
	.byte	W01
	.byte		v045
	.byte	W02
	.byte		v046
	.byte	W01
	.byte		v047
	.byte	W01
	.byte	PEND
	.byte	PATT	
		.int	song014_6_1
	.byte	VOL	, v107
	.byte	W02
	.byte		v108
	.byte	W01
	.byte		v109
	.byte	W44
	.byte	W01
	.byte		N18	, Fn2, v088
	.byte	W18
	.byte			An2
	.byte	W18
	.byte			As2, v112
	.byte	W12
	.byte	PATT	
		.int	song014_6_2
	.byte	W12
	.byte		EOT	, Cs3
	.byte	W12
	.byte		N06	, Ds2, v096
	.byte	W06
	.byte			Cs2, v088
	.byte	W06
	.byte			As1, v104
	.byte	W12
	.byte			Cs2
	.byte	W06
	.byte			Ds2, v116
	.byte	W12
	.byte		N12	, Cs2
	.byte	W30
	.byte	W96
	.byte	PATT	
		.int	song014_6_3
	.byte	PATT	
		.int	song014_6_4
	.byte	W11
	.byte		EOT	, Cs3
	.byte	W13
	.byte		N05	, Cs3, v116
	.byte	W06
	.byte			Bn2, v092
	.byte	W06
	.byte			As2, v120
	.byte	W12
	.byte		N11	, As2, v096
	.byte	W12
	.byte		N05	, As2, v112
	.byte	W36
	.byte	W96
	.byte	PATT	
		.int	song014_6_5
	.byte	PATT	
		.int	song014_6_6
	.byte	PATT	
		.int	song014_6_7
	.byte	PATT	
		.int	song014_6_8
	.byte	PATT	
		.int	song014_6_9
	.byte	PATT	
		.int	song014_6_10
	.byte	VOL	, v107
	.byte		N06	, As2, v116
	.byte	W02
	.byte	VOL	, v108
	.byte	W01
	.byte		v109
	.byte	W03
	.byte		N06	, Cs3, v120
	.byte	W06
	.byte			Ds3, v108
	.byte	W06
	.byte		N12	, Fn3, v100
	.byte	W12
	.byte		N06	, Gs3, v124
	.byte	W06
	.byte			An3, v112
	.byte	W24
	.byte	VOL	, v108
	.byte	W01
	.byte		v103
	.byte	W01
	.byte		v100
	.byte	W01
	.byte		v096
	.byte	W01
	.byte		v091
	.byte	W01
	.byte		v088
	.byte	W01
	.byte		v084
	.byte	W01
	.byte		v079
	.byte	W01
	.byte		v076
	.byte	W01
	.byte		v071
	.byte	W01
	.byte		v067
	.byte	W01
	.byte		v064
	.byte	W01
	.byte		v059
	.byte	W01
	.byte		v055
	.byte	W01
	.byte		v051
	.byte	W01
	.byte		v047
	.byte	W01
	.byte		v043
	.byte	W01
	.byte		v039
	.byte	W01
	.byte		v037
	.byte	W01
	.byte		v038
	.byte	W02
	.byte		v038
	.byte	W01
	.byte		v039
	.byte	W02
	.byte		v040
	.byte	W01
	.byte		v041
	.byte	W01
	.byte		v042
	.byte	W02
	.byte		v043
	.byte	W01
	.byte		v044
	.byte	W02
	.byte		v045
	.byte	W01
	.byte		v045
	.byte	W02
	.byte		v046
	.byte	W01
	.byte		v047
	.byte	W01
	.byte	PATT	
		.int	song014_6_1
	.byte	PATT	
		.int	song014_6_11
	.byte	PATT	
		.int	song014_6_1
	.byte	VOL	, v107
	.byte	W02
	.byte		v108
	.byte	W01
	.byte		v109
	.byte	W44
	.byte	W01
	.byte		v110
	.byte	W12
	.byte		v108
	.byte	W01
	.byte		v103
	.byte	W01
	.byte		v100
	.byte	W01
	.byte		v096
	.byte	W01
	.byte		v091
	.byte	W01
	.byte		v088
	.byte	W01
	.byte		v084
	.byte	W01
	.byte		v079
	.byte	W01
	.byte		v076
	.byte	W01
	.byte		v071
	.byte	W01
	.byte		v067
	.byte	W01
	.byte		v064
	.byte	W01
	.byte		v059
	.byte	W01
	.byte		v055
	.byte	W01
	.byte		v051
	.byte	W01
	.byte		v047
	.byte	W01
	.byte		v043
	.byte	W01
	.byte		v039
	.byte	W01
	.byte		v037
	.byte	W01
	.byte		v038
	.byte	W02
	.byte		v038
	.byte	W01
	.byte		v039
	.byte	W02
	.byte		v040
	.byte	W01
	.byte		v041
	.byte	W01
	.byte		v042
	.byte	W02
	.byte		v043
	.byte	W01
	.byte		v044
	.byte	W02
	.byte		v045
	.byte	W01
	.byte		v045
	.byte	W02
	.byte		v046
	.byte	W01
	.byte		v047
	.byte	W01
	.byte	PATT	
		.int	song014_6_1
	.byte	PATT	
		.int	song014_6_11
	.byte	PATT	
		.int	song014_6_1
	.byte	VOL	, v107
	.byte	W02
	.byte		v108
	.byte	W01
	.byte		v109
	.byte	W24
	.byte		N03	, As2, v080
	.byte	W03
	.byte			Cn3, v088
	.byte	W03
	.byte			Cs3, v092
	.byte	W03
	.byte			Ds3, v100
	.byte	W03
	.byte			Fn3, v108
	.byte	W03
	.byte			Gn3, v116
	.byte	W03
	.byte			Gs3, v120
	.byte	W03
	.byte		N12	, As3, v127
	.byte	W12
	.byte	VOL	, v108
	.byte	W01
	.byte		v103
	.byte	W01
	.byte		v100
	.byte	W01
	.byte		v096
	.byte	W01
	.byte		v091
	.byte	W01
	.byte		v088
	.byte	W01
	.byte		v084
	.byte	W01
	.byte		v079
	.byte	W01
	.byte		v076
	.byte	W01
	.byte		v071
	.byte	W01
	.byte		v067
	.byte	W01
	.byte		v064
	.byte	W01
	.byte		v059
	.byte	W01
	.byte		v055
	.byte	W01
	.byte		v051
	.byte	W01
	.byte		v047
	.byte	W01
	.byte		v043
	.byte	W01
	.byte		v039
	.byte	W01
	.byte		v037
	.byte	W01
	.byte		v038
	.byte	W02
	.byte		v038
	.byte	W01
	.byte		v039
	.byte	W02
	.byte		v040
	.byte	W01
	.byte		v041
	.byte	W01
	.byte		v042
	.byte	W02
	.byte		v043
	.byte	W01
	.byte		v044
	.byte	W02
	.byte		v045
	.byte	W01
	.byte		v045
	.byte	W02
	.byte		v046
	.byte	W01
	.byte		v047
	.byte	W01
	.byte	PATT	
		.int	song014_6_1
	.byte	PATT	
		.int	song014_6_11
	.byte	PATT	
		.int	song014_6_1
	.byte	VOL	, v107
	.byte	W02
	.byte		v108
	.byte	W01
	.byte		v109
	.byte	W44
	.byte	W01
	.byte	GOTO	
		.int	song014_6_12
	.byte	FINE

	@********************** Track  7 **********************@

	.global song014_7
song014_7:	@ 0x087A3B02
	.byte	KEYSH	, 0
	.byte	VOICE	, 127
	.byte	VOL	, v110
	.byte	PAN	, c_v
	.byte	MOD	, 0
	.byte	LFOS	, 43
	.byte	MODT	, 2
	.byte	LFODL	, 0
	.byte	W48
	.byte		N96	, Cs2, v124
	.byte	W48
	.byte	W96
	.byte	W96
	.byte	W96
	.byte	W48
song014_7_2:
	.byte		N96	, Cs2, v124
	.byte	W48
	.byte	W96
	.byte	W96
	.byte	W96
	.byte	W96
	.byte	W96
	.byte	W96
	.byte	W96
	.byte	W48
	.byte		N96	
	.byte	W48
	.byte	W96
	.byte	W96
	.byte	W96
	.byte	W96
	.byte	W96
	.byte	W48
	.byte		N96	
	.byte	W48
	.byte	W96
	.byte	W96
	.byte	W96
	.byte	W48
	.byte		N96	
	.byte	W48
	.byte	W96
	.byte	W96
	.byte	W96
	.byte	W96
	.byte	W96
	.byte	W96
	.byte	W96
	.byte	W48
	.byte		N96	
	.byte	W48
	.byte	W96
	.byte	W96
	.byte	W96
	.byte	W48
	.byte		N96	
	.byte	W48
	.byte	W96
	.byte	W42
	.byte			Cs2, v127
	.byte	W18
	.byte		N06	, Ds1, v024
	.byte	W06
	.byte			Ds1, v036
	.byte	W06
	.byte			Dn1, v048
	.byte	W06
	.byte			Ds1, v036
	.byte	W06
	.byte			Ds1, v024
	.byte	W06
	.byte			Ds1, v036
	.byte	W06
song014_7_1:
	.byte		N06	, Dn1, v048
	.byte	W06
	.byte			Ds1, v036
	.byte	W06
	.byte			Ds1, v024
	.byte	W06
	.byte			Ds1, v036
	.byte	W06
	.byte			Dn1, v048
	.byte	W06
	.byte			Ds1, v036
	.byte	W06
	.byte			Ds1, v024
	.byte	W06
	.byte			Ds1, v036
	.byte	W06
	.byte			Ds1, v052
	.byte	W06
	.byte			Ds1, v036
	.byte	W06
	.byte			Ds1, v024
	.byte	W06
	.byte			Ds1, v036
	.byte	W06
	.byte			Dn1, v048
	.byte	W06
	.byte			Ds1, v036
	.byte	W06
	.byte			Ds1, v024
	.byte	W06
	.byte			Ds1, v036
	.byte	W06
	.byte	PEND
	.byte	PATT	
		.int	song014_7_1
	.byte	PATT	
		.int	song014_7_1
	.byte	PATT	
		.int	song014_7_1
	.byte	PATT	
		.int	song014_7_1
	.byte	PATT	
		.int	song014_7_1
	.byte		N06	, Dn1, v048
	.byte	W06
	.byte			Ds1, v036
	.byte	W06
	.byte			Ds1, v024
	.byte	W06
	.byte			Ds1, v036
	.byte	W06
	.byte			Dn1, v048
	.byte	W06
	.byte			Ds1, v036
	.byte	W06
	.byte			Ds1, v024
	.byte	W06
	.byte			Ds1, v036
	.byte	W54
	.byte	W48
	.byte		N96	, Cs2, v124
	.byte	W48
	.byte	W96
	.byte	W96
	.byte	W96
	.byte	W48
	.byte	GOTO	
		.int	song014_7_2
	.byte	FINE

	@********************** Track  8 **********************@

	.global song014_8
song014_8:	@ 0x087A3BD2
	.byte	KEYSH	, 0
	.byte	VOICE	, 10
	.byte	VOL	, v110
	.byte	PAN	, c_v
	.byte	MOD	, 0
	.byte	LFOS	, 43
	.byte	MODT	, 2
	.byte	LFODL	, 0
	.byte		N06	, As2, v064
	.byte	W06
	.byte			Cs3, v068
	.byte	W06
	.byte			Ds3, v056
	.byte	W06
	.byte		N12	, Fn3, v052
	.byte	W12
	.byte		N06	, Gs3, v076
	.byte	W06
	.byte			An3, v064
	.byte	W06
	.byte			As3, v080
	.byte	W54
	.byte	W96
	.byte	W96
	.byte	W96
	.byte	W48
song014_8_13:
	.byte		N18	, Cs3, v040
	.byte	W18
	.byte			Fn3
	.byte	W18
	.byte			Cs3, v064
	.byte	W12
song014_8_2:
	.byte	W06
	.byte	VOL	, v108
	.byte		TIE	, Gn3, v052
	.byte	W01
	.byte	VOL	, v104
	.byte	W01
	.byte		v101
	.byte	W01
	.byte		v097
	.byte	W01
	.byte		v094
	.byte	W01
	.byte		v090
	.byte	W01
	.byte		v087
	.byte	W01
	.byte		v084
	.byte	W01
	.byte		v080
	.byte	W01
	.byte		v077
	.byte	W01
	.byte		v073
	.byte	W01
	.byte		v070
	.byte	W01
	.byte		v066
	.byte	W01
	.byte		v063
	.byte	W01
	.byte		v059
	.byte	W01
	.byte		v056
	.byte	W01
	.byte		v052
	.byte	W01
	.byte		v049
	.byte	W01
	.byte		v047
	.byte	W02
	.byte		v045
	.byte	W01
	.byte		v046
	.byte	W01
	.byte		v048
	.byte	W01
	.byte		v049
	.byte	W01
	.byte		v050
	.byte	W01
	.byte		v051
	.byte	W01
	.byte		v052
	.byte	W01
	.byte		v052
	.byte	W01
	.byte		v054
	.byte	W01
	.byte		v055
	.byte	W01
	.byte		v057
	.byte	W01
	.byte		v058
	.byte	W01
	.byte		v058
	.byte	W01
	.byte		v060
	.byte	W01
	.byte		v060
	.byte	W01
	.byte		v062
	.byte	W01
	.byte		v063
	.byte	W01
	.byte		v064
	.byte	W01
	.byte		v065
	.byte	W01
	.byte		v066
	.byte	W01
	.byte		v067
	.byte	W01
	.byte		v068
	.byte	W01
	.byte		v070
	.byte	W01
	.byte		v071
	.byte	W01
	.byte		v071
	.byte	W01
	.byte		v073
	.byte	W01
	.byte		v074
	.byte	W01
	.byte		v075
	.byte	W01
	.byte		v076
	.byte	W01
	.byte		v077
	.byte	W01
	.byte		v078
	.byte	W01
	.byte		v079
	.byte	W01
	.byte		v081
	.byte	W01
	.byte		v082
	.byte	W01
	.byte		v083
	.byte	W01
	.byte		v084
	.byte	W01
	.byte		v085
	.byte	W01
	.byte		v086
	.byte	W01
	.byte		v087
	.byte	W01
	.byte		v088
	.byte	W01
	.byte		v090
	.byte	W01
	.byte		v090
	.byte	W01
	.byte		v091
	.byte	W01
	.byte		v093
	.byte	W01
	.byte		v094
	.byte	W01
	.byte		v095
	.byte	W01
	.byte		v096
	.byte	W01
	.byte		v097
	.byte	W01
	.byte		v098
	.byte	W01
	.byte		v099
	.byte	W01
	.byte		v100
	.byte	W01
	.byte		v102
	.byte	W01
	.byte		v103
	.byte	W01
	.byte		v103
	.byte	W01
	.byte		v104
	.byte	W01
	.byte		v106
	.byte	W01
	.byte		v107
	.byte	W01
	.byte		v108
	.byte	W01
	.byte		v109
	.byte	W12
	.byte	PEND
	.byte	W12
	.byte		EOT	
	.byte	W12
	.byte		N06	, Ds3, v048
	.byte	W06
	.byte			Cs3, v040
	.byte	W06
	.byte			As2, v056
	.byte	W12
	.byte			Cs3
	.byte	W06
	.byte			Ds3, v068
	.byte	W12
	.byte		N12	, Cs3
	.byte	W30
	.byte	W96
song014_8_3:
	.byte	W48
	.byte		N18	, Cs3, v040
	.byte	W18
	.byte			Fn3
	.byte	W18
	.byte		N11	, Fn3, v064
	.byte	W12
	.byte	PEND
song014_8_4:
	.byte		N02	, Fs3, v076
	.byte	W02
	.byte			Gn3, v072
	.byte	W02
	.byte			Gs3, v080
	.byte	W02
	.byte	VOL	, v108
	.byte		TIE	, An3, v052
	.byte	W01
	.byte	VOL	, v104
	.byte	W01
	.byte		v101
	.byte	W01
	.byte		v097
	.byte	W01
	.byte		v094
	.byte	W01
	.byte		v090
	.byte	W01
	.byte		v087
	.byte	W01
	.byte		v084
	.byte	W01
	.byte		v080
	.byte	W01
	.byte		v077
	.byte	W01
	.byte		v073
	.byte	W01
	.byte		v070
	.byte	W01
	.byte		v066
	.byte	W01
	.byte		v063
	.byte	W01
	.byte		v059
	.byte	W01
	.byte		v056
	.byte	W01
	.byte		v052
	.byte	W01
	.byte		v049
	.byte	W01
	.byte		v047
	.byte	W02
	.byte		v045
	.byte	W01
	.byte		v046
	.byte	W01
	.byte		v048
	.byte	W01
	.byte		v049
	.byte	W01
	.byte		v050
	.byte	W01
	.byte		v051
	.byte	W01
	.byte		v052
	.byte	W01
	.byte		v052
	.byte	W01
	.byte		v054
	.byte	W01
	.byte		v055
	.byte	W01
	.byte		v057
	.byte	W01
	.byte		v058
	.byte	W01
	.byte		v058
	.byte	W01
	.byte		v060
	.byte	W01
	.byte		v060
	.byte	W01
	.byte		v062
	.byte	W01
	.byte		v063
	.byte	W01
	.byte		v064
	.byte	W01
	.byte		v065
	.byte	W01
	.byte		v066
	.byte	W01
	.byte		v067
	.byte	W01
	.byte		v068
	.byte	W01
	.byte		v070
	.byte	W01
	.byte		v071
	.byte	W01
	.byte		v071
	.byte	W01
	.byte		v073
	.byte	W01
	.byte		v074
	.byte	W01
	.byte		v075
	.byte	W01
	.byte		v076
	.byte	W01
	.byte		v077
	.byte	W01
	.byte		v078
	.byte	W01
	.byte		v079
	.byte	W01
	.byte		v081
	.byte	W01
	.byte		v082
	.byte	W01
	.byte		v083
	.byte	W01
	.byte		v084
	.byte	W01
	.byte		v085
	.byte	W01
	.byte		v086
	.byte	W01
	.byte		v087
	.byte	W01
	.byte		v088
	.byte	W01
	.byte		v090
	.byte	W01
	.byte		v090
	.byte	W01
	.byte		v091
	.byte	W01
	.byte		v093
	.byte	W01
	.byte		v094
	.byte	W01
	.byte		v095
	.byte	W01
	.byte		v096
	.byte	W01
	.byte		v097
	.byte	W01
	.byte		v098
	.byte	W01
	.byte		v099
	.byte	W01
	.byte		v100
	.byte	W01
	.byte		v102
	.byte	W01
	.byte		v103
	.byte	W01
	.byte		v103
	.byte	W01
	.byte		v104
	.byte	W01
	.byte		v106
	.byte	W01
	.byte		v107
	.byte	W01
	.byte		v108
	.byte	W01
	.byte		v109
	.byte	W12
	.byte	PEND
	.byte	W12
	.byte		EOT	
	.byte	W12
	.byte		N05	, Fn3, v064
	.byte	W06
	.byte			Ds3, v040
	.byte	W06
	.byte			Fn3, v068
	.byte	W12
	.byte		N11	, En3, v048
	.byte	W12
	.byte		N05	, En3, v060
	.byte	W36
	.byte	W96
song014_8_5:
	.byte	W60
	.byte	VOL	, v108
	.byte	W01
	.byte		v103
	.byte	W01
	.byte		v100
	.byte	W01
	.byte		v096
	.byte	W01
	.byte		v091
	.byte	W01
	.byte		v088
	.byte	W01
	.byte		v084
	.byte	W01
	.byte		v079
	.byte	W01
	.byte		v076
	.byte	W01
	.byte		v071
	.byte	W01
	.byte		v067
	.byte	W01
	.byte		v064
	.byte	W01
	.byte		v059
	.byte	W01
	.byte		v055
	.byte	W01
	.byte		v051
	.byte	W01
	.byte		v047
	.byte	W01
	.byte		v043
	.byte	W01
	.byte		v039
	.byte	W01
	.byte		v037
	.byte	W01
	.byte		v038
	.byte	W02
	.byte		v038
	.byte	W01
	.byte		v039
	.byte	W02
	.byte		v040
	.byte	W01
	.byte		v041
	.byte	W01
	.byte		v042
	.byte	W02
	.byte		v043
	.byte	W01
	.byte		v044
	.byte	W02
	.byte		v045
	.byte	W01
	.byte		v045
	.byte	W02
	.byte		v046
	.byte	W01
	.byte		v047
	.byte	W01
	.byte	PEND
song014_8_6:
	.byte	VOL	, v048
	.byte		N92	, An3, v064
	.byte	W02
	.byte	VOL	, v049
	.byte	W01
	.byte		v050
	.byte	W02
	.byte		v051
	.byte	W01
	.byte		v051
	.byte	W01
	.byte		v052
	.byte	W02
	.byte		v053
	.byte	W01
	.byte		v054
	.byte	W02
	.byte		v055
	.byte	W01
	.byte		v056
	.byte	W01
	.byte		v057
	.byte	W02
	.byte		v058
	.byte	W01
	.byte		v058
	.byte	W02
	.byte		v059
	.byte	W01
	.byte		v060
	.byte	W01
	.byte		v061
	.byte	W02
	.byte		v062
	.byte	W01
	.byte		v063
	.byte	W02
	.byte		v064
	.byte	W01
	.byte		v064
	.byte	W02
	.byte		v065
	.byte	W01
	.byte		v066
	.byte	W01
	.byte		v067
	.byte	W02
	.byte		v068
	.byte	W01
	.byte		v069
	.byte	W02
	.byte		v070
	.byte	W01
	.byte		v071
	.byte	W01
	.byte		v071
	.byte	W02
	.byte		v072
	.byte	W01
	.byte		v073
	.byte	W02
	.byte		v074
	.byte	W01
	.byte		v075
	.byte	W01
	.byte		v076
	.byte	W02
	.byte		v077
	.byte	W01
	.byte		v077
	.byte	W02
	.byte		v078
	.byte	W01
	.byte		v079
	.byte	W02
	.byte		v080
	.byte	W01
	.byte		v081
	.byte	W01
	.byte		v082
	.byte	W02
	.byte		v083
	.byte	W01
	.byte		v084
	.byte	W02
	.byte		v084
	.byte	W01
	.byte		v085
	.byte	W01
	.byte		v086
	.byte	W02
	.byte		v087
	.byte	W01
	.byte		v088
	.byte	W02
	.byte		v089
	.byte	W01
	.byte		v090
	.byte	W01
	.byte		v090
	.byte	W02
	.byte		v091
	.byte	W01
	.byte		v092
	.byte	W02
	.byte		v093
	.byte	W01
	.byte		v094
	.byte	W02
	.byte		v095
	.byte	W01
	.byte		v096
	.byte	W01
	.byte		v097
	.byte	W02
	.byte		v097
	.byte	W01
	.byte		v098
	.byte	W02
	.byte		v099
	.byte	W01
	.byte		v100
	.byte	W01
	.byte		v101
	.byte	W02
	.byte		v102
	.byte	W01
	.byte		v103
	.byte	W02
	.byte		v103
	.byte	W01
	.byte		v104
	.byte	W01
	.byte		v105
	.byte	W02
	.byte		v106
	.byte	W01
	.byte	PEND
song014_8_7:
	.byte	VOL	, v107
	.byte		N44	, Fn4, v060
	.byte	W02
	.byte	VOL	, v108
	.byte	W01
	.byte		v109
	.byte	W56
	.byte	W01
	.byte		v108
	.byte	W01
	.byte		v103
	.byte	W01
	.byte		v100
	.byte	W01
	.byte		v096
	.byte	W01
	.byte		v091
	.byte	W01
	.byte		v088
	.byte	W01
	.byte		v084
	.byte	W01
	.byte		v079
	.byte	W01
	.byte		v076
	.byte	W01
	.byte		v071
	.byte	W01
	.byte		v067
	.byte	W01
	.byte		v064
	.byte	W01
	.byte		v059
	.byte	W01
	.byte		v055
	.byte	W01
	.byte		v051
	.byte	W01
	.byte		v047
	.byte	W01
	.byte		v043
	.byte	W01
	.byte		v039
	.byte	W01
	.byte		v037
	.byte	W01
	.byte		v038
	.byte	W02
	.byte		v038
	.byte	W01
	.byte		v039
	.byte	W02
	.byte		v040
	.byte	W01
	.byte		v041
	.byte	W01
	.byte		v042
	.byte	W02
	.byte		v043
	.byte	W01
	.byte		v044
	.byte	W02
	.byte		v045
	.byte	W01
	.byte		v045
	.byte	W02
	.byte		v046
	.byte	W01
	.byte		v047
	.byte	W01
	.byte	PEND
song014_8_8:
	.byte	VOL	, v048
	.byte		N92	, Gn3, v060
	.byte	W02
	.byte	VOL	, v049
	.byte	W01
	.byte		v050
	.byte	W02
	.byte		v051
	.byte	W01
	.byte		v051
	.byte	W01
	.byte		v052
	.byte	W02
	.byte		v053
	.byte	W01
	.byte		v054
	.byte	W02
	.byte		v055
	.byte	W01
	.byte		v056
	.byte	W01
	.byte		v057
	.byte	W02
	.byte		v058
	.byte	W01
	.byte		v058
	.byte	W02
	.byte		v059
	.byte	W01
	.byte		v060
	.byte	W01
	.byte		v061
	.byte	W02
	.byte		v062
	.byte	W01
	.byte		v063
	.byte	W02
	.byte		v064
	.byte	W01
	.byte		v064
	.byte	W02
	.byte		v065
	.byte	W01
	.byte		v066
	.byte	W01
	.byte		v067
	.byte	W02
	.byte		v068
	.byte	W01
	.byte		v069
	.byte	W02
	.byte		v070
	.byte	W01
	.byte		v071
	.byte	W01
	.byte		v071
	.byte	W02
	.byte		v072
	.byte	W01
	.byte		v073
	.byte	W02
	.byte		v074
	.byte	W01
	.byte		v075
	.byte	W01
	.byte		v076
	.byte	W02
	.byte		v077
	.byte	W01
	.byte		v077
	.byte	W02
	.byte		v078
	.byte	W01
	.byte		v079
	.byte	W02
	.byte		v080
	.byte	W01
	.byte		v081
	.byte	W01
	.byte		v082
	.byte	W02
	.byte		v083
	.byte	W01
	.byte		v084
	.byte	W02
	.byte		v084
	.byte	W01
	.byte		v085
	.byte	W01
	.byte		v086
	.byte	W02
	.byte		v087
	.byte	W01
	.byte		v088
	.byte	W02
	.byte		v089
	.byte	W01
	.byte		v090
	.byte	W01
	.byte		v090
	.byte	W02
	.byte		v091
	.byte	W01
	.byte		v092
	.byte	W02
	.byte		v093
	.byte	W01
	.byte		v094
	.byte	W02
	.byte		v095
	.byte	W01
	.byte		v096
	.byte	W01
	.byte		v097
	.byte	W02
	.byte		v097
	.byte	W01
	.byte		v098
	.byte	W02
	.byte		v099
	.byte	W01
	.byte		v100
	.byte	W01
	.byte		v101
	.byte	W02
	.byte		v102
	.byte	W01
	.byte		v103
	.byte	W02
	.byte		v103
	.byte	W01
	.byte		v104
	.byte	W01
	.byte		v105
	.byte	W02
	.byte		v106
	.byte	W01
	.byte	PEND
song014_8_9:
	.byte	VOL	, v107
	.byte		N44	, Ds4, v044
	.byte	W02
	.byte	VOL	, v108
	.byte	W01
	.byte		v109
	.byte	W56
	.byte	W01
	.byte		v108
	.byte	W01
	.byte		v103
	.byte	W01
	.byte		v100
	.byte	W01
	.byte		v096
	.byte	W01
	.byte		v091
	.byte	W01
	.byte		v088
	.byte	W01
	.byte		v084
	.byte	W01
	.byte		v079
	.byte	W01
	.byte		v076
	.byte	W01
	.byte		v071
	.byte	W01
	.byte		v067
	.byte	W01
	.byte		v064
	.byte	W01
	.byte		v059
	.byte	W01
	.byte		v055
	.byte	W01
	.byte		v051
	.byte	W01
	.byte		v047
	.byte	W01
	.byte		v043
	.byte	W01
	.byte		v039
	.byte	W01
	.byte		v037
	.byte	W01
	.byte		v038
	.byte	W02
	.byte		v038
	.byte	W01
	.byte		v039
	.byte	W02
	.byte		v040
	.byte	W01
	.byte		v041
	.byte	W01
	.byte		v042
	.byte	W02
	.byte		v043
	.byte	W01
	.byte		v044
	.byte	W02
	.byte		v045
	.byte	W01
	.byte		v045
	.byte	W02
	.byte		v046
	.byte	W01
	.byte		v047
	.byte	W01
	.byte	PEND
song014_8_10:
	.byte	VOL	, v048
	.byte		N92	, An3, v056
	.byte	W02
	.byte	VOL	, v049
	.byte	W01
	.byte		v050
	.byte	W02
	.byte		v051
	.byte	W01
	.byte		v051
	.byte	W01
	.byte		v052
	.byte	W02
	.byte		v053
	.byte	W01
	.byte		v054
	.byte	W02
	.byte		v055
	.byte	W01
	.byte		v056
	.byte	W01
	.byte		v057
	.byte	W02
	.byte		v058
	.byte	W01
	.byte		v058
	.byte	W02
	.byte		v059
	.byte	W01
	.byte		v060
	.byte	W01
	.byte		v061
	.byte	W02
	.byte		v062
	.byte	W01
	.byte		v063
	.byte	W02
	.byte		v064
	.byte	W01
	.byte		v064
	.byte	W02
	.byte		v065
	.byte	W01
	.byte		v066
	.byte	W01
	.byte		v067
	.byte	W02
	.byte		v068
	.byte	W01
	.byte		v069
	.byte	W02
	.byte		v070
	.byte	W01
	.byte		v071
	.byte	W01
	.byte		v071
	.byte	W02
	.byte		v072
	.byte	W01
	.byte		v073
	.byte	W02
	.byte		v074
	.byte	W01
	.byte		v075
	.byte	W01
	.byte		v076
	.byte	W02
	.byte		v077
	.byte	W01
	.byte		v077
	.byte	W02
	.byte		v078
	.byte	W01
	.byte		v079
	.byte	W02
	.byte		v080
	.byte	W01
	.byte		v081
	.byte	W01
	.byte		v082
	.byte	W02
	.byte		v083
	.byte	W01
	.byte		v084
	.byte	W02
	.byte		v084
	.byte	W01
	.byte		v085
	.byte	W01
	.byte		v086
	.byte	W02
	.byte		v087
	.byte	W01
	.byte		v088
	.byte	W02
	.byte		v089
	.byte	W01
	.byte		v090
	.byte	W01
	.byte		v090
	.byte	W02
	.byte		v091
	.byte	W01
	.byte		v092
	.byte	W02
	.byte		v093
	.byte	W01
	.byte		v094
	.byte	W02
	.byte		v095
	.byte	W01
	.byte		v096
	.byte	W01
	.byte		v097
	.byte	W02
	.byte		v097
	.byte	W01
	.byte		v098
	.byte	W02
	.byte		v099
	.byte	W01
	.byte		v100
	.byte	W01
	.byte		v101
	.byte	W02
	.byte		v102
	.byte	W01
	.byte		v103
	.byte	W02
	.byte		v103
	.byte	W01
	.byte		v104
	.byte	W01
	.byte		v105
	.byte	W02
	.byte		v106
	.byte	W01
	.byte	PEND
song014_8_11:
	.byte	VOL	, v107
	.byte		N06	, As2, v064
	.byte	W02
	.byte	VOL	, v108
	.byte	W01
	.byte		v109
	.byte	W03
	.byte		N06	, Cs3, v068
	.byte	W06
	.byte			Ds3, v056
	.byte	W06
	.byte		N12	, Fn3, v052
	.byte	W12
	.byte		N06	, Gs3, v076
	.byte	W06
	.byte			An3, v064
	.byte	W06
	.byte			As3, v080
	.byte	W18
	.byte	VOL	, v108
	.byte	W01
	.byte		v103
	.byte	W01
	.byte		v100
	.byte	W01
	.byte		v096
	.byte	W01
	.byte		v091
	.byte	W01
	.byte		v088
	.byte	W01
	.byte		v084
	.byte	W01
	.byte		v079
	.byte	W01
	.byte		v076
	.byte	W01
	.byte		v071
	.byte	W01
	.byte		v067
	.byte	W01
	.byte		v064
	.byte	W01
	.byte		v059
	.byte	W01
	.byte		v055
	.byte	W01
	.byte		v051
	.byte	W01
	.byte		v047
	.byte	W01
	.byte		v043
	.byte	W01
	.byte		v039
	.byte	W01
	.byte		v037
	.byte	W01
	.byte		v038
	.byte	W02
	.byte		v038
	.byte	W01
	.byte		v039
	.byte	W02
	.byte		v040
	.byte	W01
	.byte		v041
	.byte	W01
	.byte		v042
	.byte	W02
	.byte		v043
	.byte	W01
	.byte		v044
	.byte	W02
	.byte		v045
	.byte	W01
	.byte		v045
	.byte	W02
	.byte		v046
	.byte	W01
	.byte		v047
	.byte	W01
	.byte	PEND
song014_8_1:
	.byte	VOL	, v048
	.byte	W02
	.byte		v049
	.byte	W01
	.byte		v050
	.byte	W02
	.byte		v051
	.byte	W01
	.byte		v051
	.byte	W01
	.byte		v052
	.byte	W02
	.byte		v053
	.byte	W01
	.byte		v054
	.byte	W02
	.byte		v055
	.byte	W01
	.byte		v056
	.byte	W01
	.byte		v057
	.byte	W02
	.byte		v058
	.byte	W01
	.byte		v058
	.byte	W02
	.byte		v059
	.byte	W01
	.byte		v060
	.byte	W01
	.byte		v061
	.byte	W02
	.byte		v062
	.byte	W01
	.byte		v063
	.byte	W02
	.byte		v064
	.byte	W01
	.byte		v064
	.byte	W02
	.byte		v065
	.byte	W01
	.byte		v066
	.byte	W01
	.byte		v067
	.byte	W02
	.byte		v068
	.byte	W01
	.byte		v069
	.byte	W02
	.byte		v070
	.byte	W01
	.byte		v071
	.byte	W01
	.byte		v071
	.byte	W02
	.byte		v072
	.byte	W01
	.byte		v073
	.byte	W02
	.byte		v074
	.byte	W01
	.byte		v075
	.byte	W01
	.byte		v076
	.byte	W02
	.byte		v077
	.byte	W01
	.byte		v077
	.byte	W02
	.byte		v078
	.byte	W01
	.byte		v079
	.byte	W02
	.byte		v080
	.byte	W01
	.byte		v081
	.byte	W01
	.byte		v082
	.byte	W02
	.byte		v083
	.byte	W01
	.byte		v084
	.byte	W02
	.byte		v084
	.byte	W01
	.byte		v085
	.byte	W01
	.byte		v086
	.byte	W02
	.byte		v087
	.byte	W01
	.byte		v088
	.byte	W02
	.byte		v089
	.byte	W01
	.byte		v090
	.byte	W01
	.byte		v090
	.byte	W02
	.byte		v091
	.byte	W01
	.byte		v092
	.byte	W02
	.byte		v093
	.byte	W01
	.byte		v094
	.byte	W02
	.byte		v095
	.byte	W01
	.byte		v096
	.byte	W01
	.byte		v097
	.byte	W02
	.byte		v097
	.byte	W01
	.byte		v098
	.byte	W02
	.byte		v099
	.byte	W01
	.byte		v100
	.byte	W01
	.byte		v101
	.byte	W02
	.byte		v102
	.byte	W01
	.byte		v103
	.byte	W02
	.byte		v103
	.byte	W01
	.byte		v104
	.byte	W01
	.byte		v105
	.byte	W02
	.byte		v106
	.byte	W01
	.byte	PEND
song014_8_12:
	.byte	VOL	, v107
	.byte	W02
	.byte		v108
	.byte	W01
	.byte		v109
	.byte	W56
	.byte	W01
	.byte		v108
	.byte	W01
	.byte		v103
	.byte	W01
	.byte		v100
	.byte	W01
	.byte		v096
	.byte	W01
	.byte		v091
	.byte	W01
	.byte		v088
	.byte	W01
	.byte		v084
	.byte	W01
	.byte		v079
	.byte	W01
	.byte		v076
	.byte	W01
	.byte		v071
	.byte	W01
	.byte		v067
	.byte	W01
	.byte		v064
	.byte	W01
	.byte		v059
	.byte	W01
	.byte		v055
	.byte	W01
	.byte		v051
	.byte	W01
	.byte		v047
	.byte	W01
	.byte		v043
	.byte	W01
	.byte		v039
	.byte	W01
	.byte		v037
	.byte	W01
	.byte		v038
	.byte	W02
	.byte		v038
	.byte	W01
	.byte		v039
	.byte	W02
	.byte		v040
	.byte	W01
	.byte		v041
	.byte	W01
	.byte		v042
	.byte	W02
	.byte		v043
	.byte	W01
	.byte		v044
	.byte	W02
	.byte		v045
	.byte	W01
	.byte		v045
	.byte	W02
	.byte		v046
	.byte	W01
	.byte		v047
	.byte	W01
	.byte	PEND
	.byte	PATT	
		.int	song014_8_1
	.byte	VOL	, v107
	.byte	W02
	.byte		v108
	.byte	W01
	.byte		v109
	.byte	W44
	.byte	W01
	.byte		N18	, Cs3, v040
	.byte	W18
	.byte			Fn3
	.byte	W18
	.byte			Cs3, v064
	.byte	W12
	.byte	PATT	
		.int	song014_8_2
	.byte	W12
	.byte		EOT	, Gn3
	.byte	W12
	.byte		N06	, Ds3, v048
	.byte	W06
	.byte			Cs3, v040
	.byte	W06
	.byte			As2, v056
	.byte	W12
	.byte			Cs3
	.byte	W06
	.byte			Ds3, v068
	.byte	W12
	.byte		N12	, Cs3
	.byte	W30
	.byte	W96
	.byte	PATT	
		.int	song014_8_3
	.byte	PATT	
		.int	song014_8_4
	.byte	W12
	.byte		EOT	, An3
	.byte	W12
	.byte		N05	, Fn3, v064
	.byte	W06
	.byte			Ds3, v040
	.byte	W06
	.byte			Fn3, v068
	.byte	W12
	.byte		N11	, En3, v048
	.byte	W12
	.byte		N05	, En3, v060
	.byte	W36
	.byte	W96
	.byte	PATT	
		.int	song014_8_5
	.byte	PATT	
		.int	song014_8_6
	.byte	PATT	
		.int	song014_8_7
	.byte	PATT	
		.int	song014_8_8
	.byte	PATT	
		.int	song014_8_9
	.byte	PATT	
		.int	song014_8_10
	.byte	PATT	
		.int	song014_8_11
	.byte	PATT	
		.int	song014_8_1
	.byte	PATT	
		.int	song014_8_12
	.byte	PATT	
		.int	song014_8_1
	.byte	PATT	
		.int	song014_8_12
	.byte	PATT	
		.int	song014_8_1
	.byte	PATT	
		.int	song014_8_12
	.byte	PATT	
		.int	song014_8_1
	.byte	VOL	, v107
	.byte	W02
	.byte		v108
	.byte	W01
	.byte		v109
	.byte	W24
	.byte		N03	, As2, v028
	.byte	W03
	.byte			Cn3, v036
	.byte	W03
	.byte			Cs3, v044
	.byte	W03
	.byte			Ds3, v052
	.byte	W03
	.byte			Fn3, v056
	.byte	W03
	.byte			Gn3, v064
	.byte	W03
	.byte			Gs3, v072
	.byte	W03
	.byte		N12	, As3, v080
	.byte	W12
	.byte	VOL	, v108
	.byte	W01
	.byte		v103
	.byte	W01
	.byte		v100
	.byte	W01
	.byte		v096
	.byte	W01
	.byte		v091
	.byte	W01
	.byte		v088
	.byte	W01
	.byte		v084
	.byte	W01
	.byte		v079
	.byte	W01
	.byte		v076
	.byte	W01
	.byte		v071
	.byte	W01
	.byte		v067
	.byte	W01
	.byte		v064
	.byte	W01
	.byte		v059
	.byte	W01
	.byte		v055
	.byte	W01
	.byte		v051
	.byte	W01
	.byte		v047
	.byte	W01
	.byte		v043
	.byte	W01
	.byte		v039
	.byte	W01
	.byte		v037
	.byte	W01
	.byte		v038
	.byte	W02
	.byte		v038
	.byte	W01
	.byte		v039
	.byte	W02
	.byte		v040
	.byte	W01
	.byte		v041
	.byte	W01
	.byte		v042
	.byte	W02
	.byte		v043
	.byte	W01
	.byte		v044
	.byte	W02
	.byte		v045
	.byte	W01
	.byte		v045
	.byte	W02
	.byte		v046
	.byte	W01
	.byte		v047
	.byte	W01
	.byte	PATT	
		.int	song014_8_1
	.byte	PATT	
		.int	song014_8_12
	.byte	PATT	
		.int	song014_8_1
	.byte	VOL	, v107
	.byte	W02
	.byte		v108
	.byte	W01
	.byte		v109
	.byte	W44
	.byte	W01
	.byte	GOTO	
		.int	song014_8_13
	.byte	FINE

	.align 2
	.global song014
song014:	@ 0x087A4258
	.byte	8		@ trackCount
	.byte	0		@ blockCount
	.byte	0		@ priority
	.byte	128		@ reverb

	.int	voicegroup000		@ voicegroup/tone

	.int	song014_1		@ track
	.int	song014_2		@ track
	.int	song014_3		@ track
	.int	song014_4		@ track
	.int	song014_5		@ track
	.int	song014_6		@ track
	.int	song014_7		@ track
	.int	song014_8		@ track
