	.include "sound/MPlayDef.s"

	.section .rodata

	@********************** Track  1 **********************@

	.align 2
	.global song029_1
song029_1:	@ 0x087AEB9C
	.byte	KEYSH	, 0
	.byte	TEMPO	, 70
	.byte	VOICE	, 95
	.byte	VOL	, v099
	.byte	PAN	, c_v
	.byte	BENDR	, 3
	.byte	PRIO	, 30
	.byte	W48
	.byte		N04	, Cs3, v104
	.byte		N04	, Fn3
	.byte		N04	, Gs3
	.byte	W08
	.byte			Cs3, v096
	.byte		N04	, Fn3
	.byte		N04	, Gs3
	.byte	W08
	.byte			Cs3, v104
	.byte		N04	, Fn3
	.byte		N04	, Gs3
	.byte	W08
	.byte		N23	, Cn3, v100
	.byte		N23	, En3
	.byte		N23	, Gn3
	.byte	W24
	.byte			Cs3, v112
	.byte		N23	, Fs3
	.byte		N23	, As3
	.byte	W24
	.byte		N96	, Ds3, v104
	.byte		N96	, Gn3
	.byte		N96	, Bn3
	.byte	W01
	.byte	VOL	, v099
	.byte	W01
	.byte		v097
	.byte	W01
	.byte		v095
	.byte	W01
	.byte		v093
	.byte	W01
	.byte		v090
	.byte	W01
	.byte		v088
	.byte	W01
	.byte		v086
	.byte	W01
	.byte		v083
	.byte	W01
	.byte		v081
	.byte	W01
	.byte		v078
	.byte	W01
	.byte		v076
	.byte	W01
	.byte		v074
	.byte	W01
	.byte		v071
	.byte	W01
	.byte		v068
	.byte	W01
	.byte		v067
	.byte	W01
	.byte		v064
	.byte	W01
	.byte		v061
	.byte	W01
	.byte		v059
	.byte	W01
	.byte		v057
	.byte	W01
	.byte		v054
	.byte	W01
	.byte		v052
	.byte	W01
	.byte		v049
	.byte	W01
	.byte		v047
	.byte	W01
	.byte		v045
	.byte	W01
	.byte		v043
	.byte	W01
	.byte		v041
	.byte	W01
	.byte		v042
	.byte	W01
	.byte		v044
	.byte	W01
	.byte		v045
	.byte	W01
	.byte		v046
	.byte	W01
	.byte		v047
	.byte	W01
	.byte		v047
	.byte	W01
	.byte		v048
	.byte	W01
	.byte		v049
	.byte	W01
	.byte		v050
	.byte	W01
	.byte		v051
	.byte	W01
	.byte		v053
	.byte	W01
	.byte		v054
	.byte	W01
	.byte		v055
	.byte	W01
	.byte		v056
	.byte	W01
	.byte		v057
	.byte	W01
	.byte		v057
	.byte	W01
	.byte		v058
	.byte	W01
	.byte		v059
	.byte	W01
	.byte		v060
	.byte	W01
	.byte		v062
	.byte	W01
	.byte		v063
	.byte	W01
	.byte		v064
	.byte	W01
	.byte		v065
	.byte	W01
	.byte		v066
	.byte	W01
	.byte		v067
	.byte	W01
	.byte		v067
	.byte	W01
	.byte		v068
	.byte	W01
	.byte		v069
	.byte	W01
	.byte		v071
	.byte	W01
	.byte		v072
	.byte	W01
	.byte		v073
	.byte	W01
	.byte		v074
	.byte	W01
	.byte		v075
	.byte	W01
	.byte		v076
	.byte	W01
	.byte		v076
	.byte	W01
	.byte		v077
	.byte	W01
	.byte		v078
	.byte	W01
	.byte		v080
	.byte	W01
	.byte		v081
	.byte	W01
	.byte		v082
	.byte	W01
	.byte		v083
	.byte	W01
	.byte		v084
	.byte	W01
	.byte		v085
	.byte	W01
	.byte		v086
	.byte	W01
	.byte		v086
	.byte	W01
	.byte		v087
	.byte	W01
	.byte		v089
	.byte	W01
	.byte		v090
	.byte	W01
	.byte		v091
	.byte	W01
	.byte		v092
	.byte	W01
	.byte		v093
	.byte	W01
	.byte		v094
	.byte	W01
	.byte		v095
	.byte	W01
	.byte		v095
	.byte	W01
	.byte		v096
	.byte	W01
	.byte		v098
	.byte	W01
	.byte		v099
	.byte	W13
song029_1_5:
	.byte	W72
	.byte	W96
	.byte	W24
	.byte		N48	, Gn3, v084
	.byte	W02
	.byte	VOL	, v067
	.byte	W02
	.byte		v069
	.byte	W01
	.byte		v070
	.byte	W01
	.byte		v071
	.byte	W01
	.byte		v073
	.byte	W01
	.byte		v074
	.byte	W01
	.byte		v075
	.byte	W01
	.byte		v076
	.byte	W01
	.byte		v077
	.byte	W01
	.byte		v078
	.byte	W01
	.byte		v080
	.byte	W01
	.byte		v081
	.byte	W01
	.byte		v082
	.byte	W01
	.byte		v084
	.byte	W01
	.byte		v085
	.byte	W01
	.byte		v086
	.byte	W01
	.byte		v087
	.byte	W01
	.byte		v088
	.byte	W01
	.byte		v089
	.byte	W01
	.byte		v091
	.byte	W01
	.byte		v092
	.byte	W01
	.byte		v093
	.byte	W01
	.byte		v095
	.byte	W01
	.byte		v095
	.byte	W01
	.byte		v096
	.byte	W01
	.byte		v098
	.byte	W01
	.byte		v099
	.byte	W01
	.byte		v100
	.byte	W01
	.byte		v102
	.byte	W01
	.byte		v103
	.byte	W01
	.byte		v104
	.byte	W01
	.byte		v105
	.byte	W01
	.byte		v106
	.byte	W01
	.byte		v107
	.byte	W01
	.byte		v109
	.byte	W01
	.byte		v110
	.byte	W01
	.byte		v111
	.byte	W01
	.byte		v113
	.byte	W01
	.byte		v114
	.byte	W01
	.byte		v107
	.byte	W01
	.byte		v086
	.byte	W01
	.byte		v067
	.byte	W02
	.byte		v068
	.byte	W01
	.byte		v070
	.byte	W01
	.byte		v071
	.byte		TIE	, Fs3
	.byte	W01
	.byte	VOL	, v072
	.byte	W01
	.byte		v073
	.byte	W01
	.byte		v074
	.byte	W01
	.byte		v076
	.byte	W01
	.byte		v076
	.byte	W01
	.byte		v077
	.byte	W01
	.byte		v078
	.byte	W01
	.byte		v079
	.byte	W01
	.byte		v081
	.byte	W01
	.byte		v082
	.byte	W01
	.byte		v083
	.byte	W01
	.byte		v084
	.byte	W01
	.byte		v086
	.byte	W01
	.byte		v086
	.byte	W01
	.byte		v087
	.byte	W01
	.byte		v088
	.byte	W01
	.byte		v089
	.byte	W01
	.byte		v091
	.byte	W01
	.byte		v092
	.byte	W01
	.byte		v093
	.byte	W01
	.byte		v094
	.byte	W01
	.byte		v095
	.byte	W01
	.byte		v096
	.byte	W01
song029_1_1:
	.byte	VOL	, v097
	.byte	W01
	.byte		v098
	.byte	W01
	.byte		v099
	.byte	W01
	.byte		v100
	.byte	W01
	.byte		v102
	.byte	W01
	.byte		v103
	.byte	W01
	.byte		v104
	.byte	W01
	.byte		v105
	.byte	W01
	.byte		v106
	.byte	W01
	.byte		v107
	.byte	W01
	.byte		v108
	.byte	W01
	.byte		v109
	.byte	W01
	.byte		v110
	.byte	W01
	.byte		v112
	.byte	W01
	.byte		v113
	.byte	W01
	.byte		v115
	.byte	W02
	.byte		v114
	.byte	W01
	.byte		v113
	.byte	W01
	.byte		v112
	.byte	W01
	.byte		v111
	.byte	W01
	.byte		v110
	.byte	W01
	.byte		v109
	.byte	W01
	.byte		v108
	.byte	W01
	.byte		v107
	.byte	W01
	.byte		v106
	.byte	W01
	.byte		v105
	.byte	W01
	.byte		v105
	.byte	W01
	.byte		v104
	.byte	W01
	.byte		v103
	.byte	W01
	.byte		v102
	.byte	W01
	.byte		v101
	.byte	W01
	.byte		v100
	.byte	W01
	.byte		v099
	.byte	W01
	.byte		v098
	.byte	W01
	.byte		v097
	.byte	W01
	.byte		v096
	.byte	W01
	.byte		v095
	.byte	W01
	.byte		v095
	.byte	W01
	.byte		v094
	.byte	W01
	.byte		v093
	.byte	W01
	.byte		v092
	.byte	W01
	.byte		v091
	.byte	W01
	.byte		v090
	.byte	W01
	.byte		v089
	.byte	W01
	.byte		v088
	.byte	W01
	.byte		v087
	.byte	W01
	.byte		v086
	.byte	W01
	.byte		v086
	.byte	W01
	.byte		v084
	.byte	W01
	.byte		v083
	.byte	W01
	.byte		v082
	.byte	W01
	.byte		v081
	.byte	W01
	.byte		v080
	.byte	W01
	.byte		v079
	.byte	W01
	.byte		v078
	.byte	W01
	.byte		v077
	.byte	W01
	.byte		v076
	.byte	W01
	.byte		v076
	.byte	W01
	.byte		v075
	.byte	W01
	.byte		v074
	.byte	W01
	.byte		v073
	.byte	W02
	.byte		v072
	.byte	W01
	.byte		v071
	.byte	W01
	.byte		v070
	.byte	W01
	.byte		v069
	.byte	W01
	.byte		v068
	.byte	W01
	.byte		v067
	.byte	W01
	.byte		v067
	.byte	W01
	.byte		v066
	.byte	W01
	.byte		v065
	.byte	W01
	.byte		v064
	.byte	W01
	.byte		v063
	.byte	W01
	.byte		v062
	.byte	W01
	.byte		v061
	.byte	W01
	.byte		v060
	.byte	W01
	.byte		v059
	.byte	W01
	.byte		v058
	.byte	W01
	.byte		v057
	.byte	W01
	.byte		v057
	.byte	W01
	.byte		v056
	.byte	W01
	.byte		v055
	.byte	W01
	.byte		v054
	.byte	W01
	.byte	PEND
	.byte		EOT	, Fs3
	.byte	VOL	, v053
	.byte	W01
	.byte		v052
	.byte	W01
	.byte		v051
	.byte	W01
	.byte		v050
	.byte	W01
	.byte		v048
	.byte	W01
	.byte		v047
	.byte	W01
	.byte		v047
	.byte	W01
	.byte		v046
	.byte	W01
	.byte		v045
	.byte	W01
	.byte		v044
	.byte	W01
	.byte		v043
	.byte	W01
	.byte		v042
	.byte	W01
	.byte		v041
	.byte	W01
	.byte		v040
	.byte	W01
	.byte		v039
	.byte	W01
	.byte		v038
	.byte	W01
	.byte		v038
	.byte	W01
	.byte		v037
	.byte	W01
	.byte		v036
	.byte	W01
	.byte		v035
	.byte	W01
	.byte		v034
	.byte	W01
	.byte		v033
	.byte	W01
	.byte		v032
	.byte	W01
	.byte		v031
	.byte	W02
	.byte		v030
	.byte	W01
	.byte		v029
	.byte	W01
	.byte		v028
	.byte	W01
	.byte		v028
	.byte	W01
	.byte		v027
	.byte	W01
	.byte		v026
	.byte	W01
	.byte		v026
	.byte	W01
	.byte		v033
	.byte	W01
	.byte		v038
	.byte	W01
	.byte		v044
	.byte	W01
	.byte		v051
	.byte	W01
	.byte		v056
	.byte		N48	, En3, v084
	.byte	W01
	.byte	VOL	, v062
	.byte	W01
	.byte		v067
	.byte	W02
	.byte		v069
	.byte	W01
	.byte		v070
	.byte	W01
	.byte		v071
	.byte	W01
	.byte		v073
	.byte	W01
	.byte		v074
	.byte	W01
	.byte		v075
	.byte	W01
	.byte		v076
	.byte	W01
	.byte		v077
	.byte	W01
	.byte		v078
	.byte	W01
	.byte		v080
	.byte	W01
	.byte		v081
	.byte	W01
	.byte		v082
	.byte	W01
	.byte		v084
	.byte	W01
	.byte		v085
	.byte	W01
	.byte		v086
	.byte	W01
	.byte		v087
	.byte	W01
	.byte		v088
	.byte	W01
	.byte		v089
	.byte	W01
	.byte		v091
	.byte	W01
	.byte		v092
	.byte	W01
	.byte		v093
	.byte	W01
	.byte		v095
	.byte	W01
	.byte		v095
	.byte	W01
	.byte		v096
	.byte	W01
	.byte		v098
	.byte	W01
	.byte		v099
	.byte	W01
	.byte		v100
	.byte	W01
	.byte		v102
	.byte	W01
	.byte		v103
	.byte	W01
	.byte		v104
	.byte	W01
	.byte		v105
	.byte	W01
	.byte		v106
	.byte	W01
	.byte		v107
	.byte	W01
	.byte		v109
	.byte	W01
	.byte		v110
	.byte	W01
	.byte		v111
	.byte	W01
	.byte		v113
	.byte	W01
	.byte		v114
	.byte	W01
	.byte		v107
	.byte	W01
	.byte		v086
	.byte	W01
	.byte		v067
	.byte	W02
	.byte		v068
	.byte	W01
	.byte		v070
	.byte	W01
	.byte		v071
	.byte		TIE	, Ds3
	.byte	W01
	.byte	VOL	, v072
	.byte	W01
	.byte		v073
	.byte	W01
	.byte		v074
	.byte	W01
	.byte		v076
	.byte	W01
	.byte		v076
	.byte	W01
	.byte		v077
	.byte	W01
	.byte		v078
	.byte	W01
	.byte		v079
	.byte	W01
	.byte		v081
	.byte	W01
	.byte		v082
	.byte	W01
	.byte		v083
	.byte	W01
	.byte		v084
	.byte	W01
	.byte		v086
	.byte	W01
	.byte		v086
	.byte	W01
	.byte		v087
	.byte	W01
	.byte		v088
	.byte	W01
	.byte		v089
	.byte	W01
	.byte		v091
	.byte	W01
	.byte		v092
	.byte	W01
	.byte		v093
	.byte	W01
	.byte		v094
	.byte	W01
	.byte		v095
	.byte	W01
	.byte		v096
	.byte	W01
	.byte	PATT	
		.word	song029_1_1
	.byte		EOT	, Ds3
	.byte	VOL	, v053
	.byte	W01
	.byte		v052
	.byte	W01
	.byte		v051
	.byte	W01
	.byte		v050
	.byte	W01
	.byte		v048
	.byte	W01
	.byte		v047
	.byte	W01
	.byte		v047
	.byte	W01
	.byte		v046
	.byte	W01
	.byte		v045
	.byte	W01
	.byte		v044
	.byte	W01
	.byte		v043
	.byte	W01
	.byte		v042
	.byte	W01
	.byte		v041
	.byte	W01
	.byte		v040
	.byte	W01
	.byte		v039
	.byte	W01
	.byte		v038
	.byte	W01
	.byte		v038
	.byte	W01
	.byte		v037
	.byte	W01
	.byte		v036
	.byte	W01
	.byte		v035
	.byte	W01
	.byte		v034
	.byte	W01
	.byte		v033
	.byte	W01
	.byte		v032
	.byte	W01
	.byte		v031
	.byte	W02
	.byte		v030
	.byte	W01
	.byte		v029
	.byte	W01
	.byte		v028
	.byte	W01
	.byte		v028
	.byte	W01
	.byte		v027
	.byte	W01
	.byte		v026
	.byte	W01
	.byte		v026
	.byte	W01
	.byte		v033
	.byte	W01
	.byte		v038
	.byte	W01
	.byte		v044
	.byte	W01
	.byte		v051
	.byte	W01
	.byte		v056
	.byte		N48	, Gn3, v084
	.byte	W01
	.byte	VOL	, v062
	.byte	W01
	.byte		v067
	.byte	W02
	.byte		v069
	.byte	W01
	.byte		v070
	.byte	W01
	.byte		v071
	.byte	W01
	.byte		v073
	.byte	W01
	.byte		v074
	.byte	W01
	.byte		v075
	.byte	W01
	.byte		v076
	.byte	W01
	.byte		v077
	.byte	W01
	.byte		v078
	.byte	W01
	.byte		v080
	.byte	W01
	.byte		v081
	.byte	W01
	.byte		v082
	.byte	W01
	.byte		v084
	.byte	W01
	.byte		v085
	.byte	W01
	.byte		v086
	.byte	W01
	.byte		v087
	.byte	W01
	.byte		v088
	.byte	W01
	.byte		v089
	.byte	W01
	.byte		v091
	.byte	W01
	.byte		v092
	.byte	W01
	.byte		v093
	.byte	W01
	.byte		v095
	.byte	W01
	.byte		v095
	.byte	W01
	.byte		v096
	.byte	W01
	.byte		v098
	.byte	W01
	.byte		v099
	.byte	W01
	.byte		v100
	.byte	W01
	.byte		v102
	.byte	W01
	.byte		v103
	.byte	W01
	.byte		v104
	.byte	W01
	.byte		v105
	.byte	W01
	.byte		v106
	.byte	W01
	.byte		v107
	.byte	W01
	.byte		v109
	.byte	W01
	.byte		v110
	.byte	W01
	.byte		v111
	.byte	W01
	.byte		v113
	.byte	W01
	.byte		v114
	.byte	W01
	.byte		v107
	.byte	W01
	.byte		v086
	.byte	W01
	.byte		v067
	.byte	W02
	.byte		v068
	.byte	W01
	.byte		v070
	.byte	W01
	.byte		v071
	.byte		TIE	, Fs3
	.byte	W01
	.byte	VOL	, v072
	.byte	W01
	.byte		v073
	.byte	W01
	.byte		v074
	.byte	W01
	.byte		v076
	.byte	W01
	.byte		v076
	.byte	W01
	.byte		v077
	.byte	W01
	.byte		v078
	.byte	W01
	.byte		v079
	.byte	W01
	.byte		v081
	.byte	W01
	.byte		v082
	.byte	W01
	.byte		v083
	.byte	W01
	.byte		v084
	.byte	W01
	.byte		v086
	.byte	W01
	.byte		v086
	.byte	W01
	.byte		v087
	.byte	W01
	.byte		v088
	.byte	W01
	.byte		v089
	.byte	W01
	.byte		v091
	.byte	W01
	.byte		v092
	.byte	W01
	.byte		v093
	.byte	W01
	.byte		v094
	.byte	W01
	.byte		v095
	.byte	W01
	.byte		v096
	.byte	W01
	.byte	PATT	
		.word	song029_1_1
	.byte		EOT	, Fs3
	.byte	VOL	, v053
	.byte	W01
	.byte		v052
	.byte	W01
	.byte		v051
	.byte	W01
	.byte		v050
	.byte	W01
	.byte		v048
	.byte	W01
	.byte		v047
	.byte	W01
	.byte		v047
	.byte	W01
	.byte		v046
	.byte	W01
	.byte		v045
	.byte	W01
	.byte		v044
	.byte	W01
	.byte		v043
	.byte	W01
	.byte		v042
	.byte	W01
	.byte		v041
	.byte	W01
	.byte		v040
	.byte	W01
	.byte		v039
	.byte	W01
	.byte		v038
	.byte	W01
	.byte		v038
	.byte	W01
	.byte		v037
	.byte	W01
	.byte		v036
	.byte	W01
	.byte		v035
	.byte	W01
	.byte		v034
	.byte	W01
	.byte		v033
	.byte	W01
	.byte		v032
	.byte	W01
	.byte		v031
	.byte	W02
	.byte		v030
	.byte	W01
	.byte		v029
	.byte	W01
	.byte		v028
	.byte	W01
	.byte		v028
	.byte	W01
	.byte		v027
	.byte	W01
	.byte		v026
	.byte	W01
	.byte		v026
	.byte	W01
	.byte		v033
	.byte	W01
	.byte		v038
	.byte	W01
	.byte		v044
	.byte	W01
	.byte		v051
	.byte	W01
	.byte		v056
	.byte		N48	, Gn3, v084
	.byte	W01
	.byte	VOL	, v062
	.byte	W01
	.byte		v067
	.byte	W02
	.byte		v069
	.byte	W01
	.byte		v070
	.byte	W01
	.byte		v071
	.byte	W01
	.byte		v073
	.byte	W01
	.byte		v074
	.byte	W01
	.byte		v075
	.byte	W01
	.byte		v076
	.byte	W01
	.byte		v077
	.byte	W01
	.byte		v078
	.byte	W01
	.byte		v080
	.byte	W01
	.byte		v081
	.byte	W01
	.byte		v082
	.byte	W01
	.byte		v084
	.byte	W01
	.byte		v085
	.byte	W01
	.byte		v086
	.byte	W01
	.byte		v087
	.byte	W01
	.byte		v088
	.byte	W01
	.byte		v089
	.byte	W01
	.byte		v091
	.byte	W01
	.byte		v092
	.byte	W01
	.byte		v093
	.byte	W01
	.byte		v095
	.byte	W01
	.byte		v095
	.byte	W01
	.byte		v096
	.byte	W01
	.byte		v098
	.byte	W01
	.byte		v099
	.byte	W01
	.byte		v100
	.byte	W01
	.byte		v102
	.byte	W01
	.byte		v103
	.byte	W01
	.byte		v104
	.byte	W01
	.byte		v105
	.byte	W01
	.byte		v106
	.byte	W01
	.byte		v107
	.byte	W01
	.byte		v109
	.byte	W01
	.byte		v110
	.byte	W01
	.byte		v111
	.byte	W01
	.byte		v113
	.byte	W01
	.byte		v114
	.byte	W01
	.byte		v107
	.byte	W01
	.byte		v086
	.byte	W01
	.byte		v067
	.byte	W02
	.byte		v068
	.byte	W01
	.byte		v070
	.byte	W01
	.byte		v071
	.byte		TIE	, Gs3
	.byte	W01
	.byte	VOL	, v072
	.byte	W01
	.byte		v073
	.byte	W01
	.byte		v074
	.byte	W01
	.byte		v076
	.byte	W01
	.byte		v076
	.byte	W01
	.byte		v077
	.byte	W01
	.byte		v078
	.byte	W01
	.byte		v079
	.byte	W01
	.byte		v081
	.byte	W01
	.byte		v082
	.byte	W01
	.byte		v083
	.byte	W01
	.byte		v084
	.byte	W01
	.byte		v086
	.byte	W01
	.byte		v086
	.byte	W01
	.byte		v087
	.byte	W01
	.byte		v088
	.byte	W01
	.byte		v089
	.byte	W01
	.byte		v091
	.byte	W01
	.byte		v092
	.byte	W01
	.byte		v093
	.byte	W01
	.byte		v094
	.byte	W01
	.byte		v095
	.byte	W01
	.byte		v096
	.byte	W01
song029_1_2:
	.byte	VOL	, v097
	.byte	W01
	.byte		v098
	.byte	W01
	.byte		v099
	.byte	W01
	.byte		v100
	.byte	W01
	.byte		v102
	.byte	W01
	.byte		v103
	.byte	W01
	.byte		v104
	.byte	W01
	.byte		v105
	.byte	W01
	.byte		v106
	.byte	W01
	.byte		v107
	.byte	W01
	.byte		v108
	.byte	W01
	.byte		v109
	.byte	W01
	.byte		v110
	.byte	W01
	.byte		v112
	.byte	W01
	.byte		v113
	.byte	W01
	.byte		v115
	.byte	W02
	.byte		v114
	.byte	W01
	.byte		v113
	.byte	W01
	.byte		v112
	.byte	W01
	.byte		v111
	.byte	W01
	.byte		v110
	.byte	W01
	.byte		v109
	.byte	W01
	.byte		v107
	.byte	W01
	.byte		v106
	.byte	W01
	.byte		v105
	.byte	W01
	.byte		v105
	.byte	W01
	.byte		v104
	.byte	W01
	.byte		v103
	.byte	W01
	.byte		v102
	.byte	W01
	.byte		v101
	.byte	W01
	.byte		v100
	.byte	W01
	.byte		v098
	.byte	W01
	.byte		v097
	.byte	W01
	.byte		v096
	.byte	W01
	.byte		v095
	.byte	W01
	.byte		v095
	.byte	W01
	.byte		v094
	.byte	W01
	.byte		v093
	.byte	W01
	.byte		v092
	.byte	W01
	.byte		v091
	.byte	W01
	.byte		v089
	.byte	W01
	.byte		v088
	.byte	W01
	.byte		v087
	.byte	W01
	.byte		v086
	.byte	W01
	.byte		v086
	.byte	W01
	.byte		v085
	.byte	W01
	.byte		v084
	.byte	W01
	.byte		v083
	.byte	W01
	.byte		v082
	.byte	W01
	.byte		v080
	.byte	W01
	.byte		v079
	.byte	W01
	.byte		v078
	.byte	W01
	.byte		v077
	.byte	W01
	.byte		v076
	.byte	W01
	.byte		v076
	.byte	W01
	.byte		v075
	.byte	W01
	.byte		v074
	.byte	W01
	.byte		v072
	.byte	W03
	.byte		v073
	.byte	W01
	.byte		v074
	.byte	W01
	.byte		v075
	.byte	W01
	.byte		v076
	.byte	W01
	.byte		v076
	.byte	W02
	.byte		v077
	.byte	W01
	.byte		v078
	.byte	W01
	.byte		v079
	.byte	W01
	.byte		v080
	.byte	W01
	.byte		v081
	.byte	W02
	.byte		v082
	.byte	W01
	.byte		v083
	.byte	W01
	.byte		v084
	.byte	W01
	.byte		v085
	.byte	W01
	.byte		v086
	.byte	W02
	.byte		v086
	.byte	W01
	.byte		v087
	.byte	W01
	.byte		v088
	.byte	W01
	.byte		v089
	.byte	W01
	.byte		v090
	.byte	W02
	.byte		v091
	.byte	W01
	.byte		v092
	.byte	W01
	.byte		v093
	.byte	W01
	.byte		v094
	.byte	W01
	.byte		v095
	.byte	W02
	.byte		v095
	.byte	W01
	.byte		v096
	.byte	W01
	.byte		v097
	.byte	W01
	.byte		v098
	.byte	W01
	.byte		v099
	.byte	W01
	.byte	PEND
song029_1_3:
	.byte	W01
	.byte	VOL	, v100
	.byte	W01
	.byte		v101
	.byte	W01
	.byte		v102
	.byte	W01
	.byte		v103
	.byte	W01
	.byte		v104
	.byte	W02
	.byte		v105
	.byte	W01
	.byte		v105
	.byte	W01
	.byte		v106
	.byte	W01
	.byte		v107
	.byte	W01
	.byte		v108
	.byte	W02
	.byte		v109
	.byte	W01
	.byte		v110
	.byte	W01
	.byte		v111
	.byte	W01
	.byte		v112
	.byte	W01
	.byte		v113
	.byte	W02
	.byte		v115
	.byte	W05
	.byte	PEND
	.byte		EOT	, Gs3
	.byte		N48	, Bn3, v084
	.byte	W02
	.byte	VOL	, v067
	.byte	W02
	.byte		v069
	.byte	W01
	.byte		v070
	.byte	W01
	.byte		v071
	.byte	W01
	.byte		v073
	.byte	W01
	.byte		v074
	.byte	W01
	.byte		v075
	.byte	W01
	.byte		v076
	.byte	W01
	.byte		v077
	.byte	W01
	.byte		v078
	.byte	W01
	.byte		v080
	.byte	W01
	.byte		v081
	.byte	W01
	.byte		v082
	.byte	W01
	.byte		v084
	.byte	W01
	.byte		v085
	.byte	W01
	.byte		v086
	.byte	W01
	.byte		v087
	.byte	W01
	.byte		v088
	.byte	W01
	.byte		v089
	.byte	W01
	.byte		v091
	.byte	W01
	.byte		v092
	.byte	W01
	.byte		v093
	.byte	W01
	.byte		v095
	.byte	W01
	.byte		v095
	.byte	W01
	.byte		v096
	.byte	W01
	.byte		v098
	.byte	W01
	.byte		v099
	.byte	W01
	.byte		v100
	.byte	W01
	.byte		v102
	.byte	W01
	.byte		v103
	.byte	W01
	.byte		v104
	.byte	W01
	.byte		v105
	.byte	W01
	.byte		v106
	.byte	W01
	.byte		v107
	.byte	W01
	.byte		v109
	.byte	W01
	.byte		v110
	.byte	W01
	.byte		v111
	.byte	W01
	.byte		v113
	.byte	W01
	.byte		v114
	.byte	W01
	.byte		v107
	.byte	W01
	.byte		v086
	.byte	W01
	.byte		v067
	.byte	W02
	.byte		v068
	.byte	W01
	.byte		v070
	.byte	W01
	.byte		v071
	.byte		TIE	, As3
	.byte	W01
	.byte	VOL	, v072
	.byte	W01
	.byte		v073
	.byte	W01
	.byte		v074
	.byte	W01
	.byte		v076
	.byte	W01
	.byte		v076
	.byte	W01
	.byte		v077
	.byte	W01
	.byte		v078
	.byte	W01
	.byte		v079
	.byte	W01
	.byte		v081
	.byte	W01
	.byte		v082
	.byte	W01
	.byte		v083
	.byte	W01
	.byte		v084
	.byte	W01
	.byte		v086
	.byte	W01
	.byte		v086
	.byte	W01
	.byte		v087
	.byte	W01
	.byte		v088
	.byte	W01
	.byte		v089
	.byte	W01
	.byte		v091
	.byte	W01
	.byte		v092
	.byte	W01
	.byte		v093
	.byte	W01
	.byte		v094
	.byte	W01
	.byte		v095
	.byte	W01
	.byte		v096
	.byte	W01
	.byte	PATT	
		.word	song029_1_1
	.byte		EOT	, As3
	.byte	VOL	, v053
	.byte	W01
	.byte		v052
	.byte	W01
	.byte		v051
	.byte	W01
	.byte		v050
	.byte	W01
	.byte		v048
	.byte	W01
	.byte		v047
	.byte	W01
	.byte		v047
	.byte	W01
	.byte		v046
	.byte	W01
	.byte		v045
	.byte	W01
	.byte		v044
	.byte	W01
	.byte		v043
	.byte	W01
	.byte		v042
	.byte	W01
	.byte		v041
	.byte	W01
	.byte		v040
	.byte	W01
	.byte		v039
	.byte	W01
	.byte		v038
	.byte	W01
	.byte		v038
	.byte	W01
	.byte		v037
	.byte	W01
	.byte		v036
	.byte	W01
	.byte		v035
	.byte	W01
	.byte		v034
	.byte	W01
	.byte		v033
	.byte	W01
	.byte		v032
	.byte	W01
	.byte		v031
	.byte	W02
	.byte		v030
	.byte	W01
	.byte		v029
	.byte	W01
	.byte		v028
	.byte	W01
	.byte		v028
	.byte	W01
	.byte		v027
	.byte	W01
	.byte		v026
	.byte	W01
	.byte		v026
	.byte	W01
	.byte		v033
	.byte	W01
	.byte		v038
	.byte	W01
	.byte		v044
	.byte	W01
	.byte		v051
	.byte	W01
	.byte		v056
	.byte		N48	, Gs3, v084
	.byte	W01
	.byte	VOL	, v062
	.byte	W01
	.byte		v067
	.byte	W02
	.byte		v069
	.byte	W01
	.byte		v070
	.byte	W01
	.byte		v071
	.byte	W01
	.byte		v073
	.byte	W01
	.byte		v074
	.byte	W01
	.byte		v075
	.byte	W01
	.byte		v076
	.byte	W01
	.byte		v077
	.byte	W01
	.byte		v078
	.byte	W01
	.byte		v080
	.byte	W01
	.byte		v081
	.byte	W01
	.byte		v082
	.byte	W01
	.byte		v084
	.byte	W01
	.byte		v085
	.byte	W01
	.byte		v086
	.byte	W01
	.byte		v087
	.byte	W01
	.byte		v088
	.byte	W01
	.byte		v089
	.byte	W01
	.byte		v091
	.byte	W01
	.byte		v092
	.byte	W01
	.byte		v093
	.byte	W01
	.byte		v095
	.byte	W01
	.byte		v095
	.byte	W01
	.byte		v096
	.byte	W01
	.byte		v098
	.byte	W01
	.byte		v099
	.byte	W01
	.byte		v100
	.byte	W01
	.byte		v102
	.byte	W01
	.byte		v103
	.byte	W01
	.byte		v104
	.byte	W01
	.byte		v105
	.byte	W01
	.byte		v106
	.byte	W01
	.byte		v107
	.byte	W01
	.byte		v109
	.byte	W01
	.byte		v110
	.byte	W01
	.byte		v111
	.byte	W01
	.byte		v113
	.byte	W01
	.byte		v114
	.byte	W01
	.byte		v107
	.byte	W01
	.byte		v086
	.byte	W01
	.byte		v067
	.byte	W02
	.byte		v068
	.byte	W01
	.byte		v070
	.byte	W01
	.byte		v071
	.byte		TIE	, Gn3
	.byte	W01
	.byte	VOL	, v072
	.byte	W01
	.byte		v073
	.byte	W01
	.byte		v074
	.byte	W01
	.byte		v076
	.byte	W01
	.byte		v076
	.byte	W01
	.byte		v077
	.byte	W01
	.byte		v078
	.byte	W01
	.byte		v079
	.byte	W01
	.byte		v081
	.byte	W01
	.byte		v082
	.byte	W01
	.byte		v083
	.byte	W01
	.byte		v084
	.byte	W01
	.byte		v086
	.byte	W01
	.byte		v086
	.byte	W01
	.byte		v087
	.byte	W01
	.byte		v088
	.byte	W01
	.byte		v089
	.byte	W01
	.byte		v091
	.byte	W01
	.byte		v092
	.byte	W01
	.byte		v093
	.byte	W01
	.byte		v094
	.byte	W01
	.byte		v095
	.byte	W01
	.byte		v096
	.byte	W01
	.byte	PATT	
		.word	song029_1_1
	.byte		EOT	, Gn3
	.byte	VOL	, v053
	.byte	W01
	.byte		v052
	.byte	W01
	.byte		v051
	.byte	W01
	.byte		v050
	.byte	W01
	.byte		v048
	.byte	W01
	.byte		v047
	.byte	W01
	.byte		v047
	.byte	W01
	.byte		v046
	.byte	W01
	.byte		v045
	.byte	W01
	.byte		v044
	.byte	W01
	.byte		v043
	.byte	W01
	.byte		v042
	.byte	W01
	.byte		v041
	.byte	W01
	.byte		v040
	.byte	W01
	.byte		v039
	.byte	W01
	.byte		v038
	.byte	W01
	.byte		v038
	.byte	W01
	.byte		v037
	.byte	W01
	.byte		v036
	.byte	W01
	.byte		v035
	.byte	W01
	.byte		v034
	.byte	W01
	.byte		v033
	.byte	W01
	.byte		v032
	.byte	W01
	.byte		v031
	.byte	W02
	.byte		v030
	.byte	W01
	.byte		v029
	.byte	W01
	.byte		v028
	.byte	W01
	.byte		v028
	.byte	W01
	.byte		v027
	.byte	W01
	.byte		v026
	.byte	W01
	.byte		v026
	.byte	W01
	.byte		v033
	.byte	W01
	.byte		v038
	.byte	W01
	.byte		v044
	.byte	W01
	.byte		v051
	.byte	W01
	.byte		v056
	.byte		N48	, Bn3, v084
	.byte	W01
	.byte	VOL	, v062
	.byte	W01
	.byte		v067
	.byte	W02
	.byte		v069
	.byte	W01
	.byte		v070
	.byte	W01
	.byte		v071
	.byte	W01
	.byte		v073
	.byte	W01
	.byte		v074
	.byte	W01
	.byte		v075
	.byte	W01
	.byte		v076
	.byte	W01
	.byte		v077
	.byte	W01
	.byte		v078
	.byte	W01
	.byte		v080
	.byte	W01
	.byte		v081
	.byte	W01
	.byte		v082
	.byte	W01
	.byte		v084
	.byte	W01
	.byte		v085
	.byte	W01
	.byte		v086
	.byte	W01
	.byte		v087
	.byte	W01
	.byte		v088
	.byte	W01
	.byte		v089
	.byte	W01
	.byte		v091
	.byte	W01
	.byte		v092
	.byte	W01
	.byte		v093
	.byte	W01
	.byte		v095
	.byte	W01
	.byte		v095
	.byte	W01
	.byte		v096
	.byte	W01
	.byte		v098
	.byte	W01
	.byte		v099
	.byte	W01
	.byte		v100
	.byte	W01
	.byte		v102
	.byte	W01
	.byte		v103
	.byte	W01
	.byte		v104
	.byte	W01
	.byte		v105
	.byte	W01
	.byte		v106
	.byte	W01
	.byte		v107
	.byte	W01
	.byte		v109
	.byte	W01
	.byte		v110
	.byte	W01
	.byte		v111
	.byte	W01
	.byte		v113
	.byte	W01
	.byte		v114
	.byte	W01
	.byte		v107
	.byte	W01
	.byte		v086
	.byte	W01
	.byte		v067
	.byte	W02
	.byte		v068
	.byte	W01
	.byte		v070
	.byte	W01
	.byte		v071
	.byte		TIE	, As3
	.byte	W01
	.byte	VOL	, v072
	.byte	W01
	.byte		v073
	.byte	W01
	.byte		v074
	.byte	W01
	.byte		v076
	.byte	W01
	.byte		v076
	.byte	W01
	.byte		v077
	.byte	W01
	.byte		v078
	.byte	W01
	.byte		v079
	.byte	W01
	.byte		v081
	.byte	W01
	.byte		v082
	.byte	W01
	.byte		v083
	.byte	W01
	.byte		v084
	.byte	W01
	.byte		v086
	.byte	W01
	.byte		v086
	.byte	W01
	.byte		v087
	.byte	W01
	.byte		v088
	.byte	W01
	.byte		v089
	.byte	W01
	.byte		v091
	.byte	W01
	.byte		v092
	.byte	W01
	.byte		v093
	.byte	W01
	.byte		v094
	.byte	W01
	.byte		v095
	.byte	W01
	.byte		v096
	.byte	W01
	.byte	PATT	
		.word	song029_1_1
	.byte		EOT	, As3
	.byte	VOL	, v053
	.byte	W01
	.byte		v052
	.byte	W01
	.byte		v051
	.byte	W01
	.byte		v050
	.byte	W01
	.byte		v048
	.byte	W01
	.byte		v047
	.byte	W01
	.byte		v047
	.byte	W01
	.byte		v046
	.byte	W01
	.byte		v045
	.byte	W01
	.byte		v044
	.byte	W01
	.byte		v043
	.byte	W01
	.byte		v042
	.byte	W01
	.byte		v041
	.byte	W01
	.byte		v040
	.byte	W01
	.byte		v039
	.byte	W01
	.byte		v038
	.byte	W01
	.byte		v038
	.byte	W01
	.byte		v037
	.byte	W01
	.byte		v036
	.byte	W01
	.byte		v035
	.byte	W01
	.byte		v034
	.byte	W01
	.byte		v033
	.byte	W01
	.byte		v032
	.byte	W01
	.byte		v031
	.byte	W02
	.byte		v030
	.byte	W01
	.byte		v029
	.byte	W01
	.byte		v028
	.byte	W01
	.byte		v028
	.byte	W01
	.byte		v027
	.byte	W01
	.byte		v026
	.byte	W01
	.byte		v026
	.byte	W01
	.byte		v033
	.byte	W01
	.byte		v038
	.byte	W01
	.byte		v044
	.byte	W01
	.byte		v051
	.byte	W01
	.byte		v056
	.byte		N48	, Bn3, v084
	.byte	W01
	.byte	VOL	, v062
	.byte	W01
	.byte		v067
	.byte	W02
	.byte		v069
	.byte	W01
	.byte		v070
	.byte	W01
	.byte		v071
	.byte	W01
	.byte		v073
	.byte	W01
	.byte		v074
	.byte	W01
	.byte		v075
	.byte	W01
	.byte		v076
	.byte	W01
	.byte		v077
	.byte	W01
	.byte		v078
	.byte	W01
	.byte		v080
	.byte	W01
	.byte		v081
	.byte	W01
	.byte		v082
	.byte	W01
	.byte		v084
	.byte	W01
	.byte		v085
	.byte	W01
	.byte		v086
	.byte	W01
	.byte		v087
	.byte	W01
	.byte		v088
	.byte	W01
	.byte		v089
	.byte	W01
	.byte		v091
	.byte	W01
	.byte		v092
	.byte	W01
	.byte		v093
	.byte	W01
	.byte		v095
	.byte	W01
	.byte		v095
	.byte	W01
	.byte		v096
	.byte	W01
	.byte		v098
	.byte	W01
	.byte		v099
	.byte	W01
	.byte		v100
	.byte	W01
	.byte		v102
	.byte	W01
	.byte		v103
	.byte	W01
	.byte		v104
	.byte	W01
	.byte		v105
	.byte	W01
	.byte		v106
	.byte	W01
	.byte		v107
	.byte	W01
	.byte		v109
	.byte	W01
	.byte		v110
	.byte	W01
	.byte		v111
	.byte	W01
	.byte		v113
	.byte	W01
	.byte		v114
	.byte	W01
	.byte		v107
	.byte	W01
	.byte		v086
	.byte	W01
	.byte		v067
	.byte	W02
	.byte		v068
	.byte	W01
	.byte		v070
	.byte	W01
	.byte		v071
	.byte		TIE	, Cn4
	.byte	W01
	.byte	VOL	, v072
	.byte	W01
	.byte		v073
	.byte	W01
	.byte		v074
	.byte	W01
	.byte		v076
	.byte	W01
	.byte		v076
	.byte	W01
	.byte		v077
	.byte	W01
	.byte		v078
	.byte	W01
	.byte		v079
	.byte	W01
	.byte		v081
	.byte	W01
	.byte		v082
	.byte	W01
	.byte		v083
	.byte	W01
	.byte		v084
	.byte	W01
	.byte		v086
	.byte	W01
	.byte		v086
	.byte	W01
	.byte		v087
	.byte	W01
	.byte		v088
	.byte	W01
	.byte		v089
	.byte	W01
	.byte		v091
	.byte	W01
	.byte		v092
	.byte	W01
	.byte		v093
	.byte	W01
	.byte		v094
	.byte	W01
	.byte		v095
	.byte	W01
	.byte		v096
	.byte	W01
	.byte	PATT	
		.word	song029_1_2
	.byte	PATT	
		.word	song029_1_3
	.byte		EOT	, Cn4
	.byte	VOL	, v073
	.byte	W24
	.byte		N05	, An3, v100
	.byte		N05	, Cn4
	.byte		N05	, Fn4
	.byte	W08
	.byte			An3, v108
	.byte		N05	, Cn4
	.byte		N05	, Fn4
	.byte	W08
	.byte		N06	, An3
	.byte		N06	, Cn4
	.byte		N06	, Fn4
	.byte	W08
	.byte		N21	, Gs3, v112
	.byte		N21	, Bn3
	.byte		N21	, En4
	.byte	W24
	.byte		N19	, En3, v108
	.byte		N19	, Gn3
	.byte		N19	, Cn4
	.byte	W24
	.byte		N07	, Fn3, v112
	.byte		N07	, Gs3
	.byte		N07	, Cs4
	.byte	W16
	.byte			En3, v100
	.byte		N07	, Gn3
	.byte		N07	, Cn4
	.byte	W08
	.byte		TIE	, Cs3, v088
	.byte		TIE	, En3
	.byte		TIE	, An3
	.byte	W10
	.byte	VOL	, v073
	.byte	W01
	.byte		v070
	.byte	W01
	.byte		v067
	.byte	W01
	.byte		v066
	.byte	W01
	.byte		v063
	.byte	W01
	.byte		v060
	.byte	W01
	.byte		v058
	.byte	W01
	.byte		v056
	.byte	W01
	.byte		v052
	.byte	W01
	.byte		v050
	.byte	W01
	.byte		v047
	.byte	W01
	.byte		v045
	.byte	W01
	.byte		v043
	.byte	W01
	.byte		v040
	.byte	W01
	.byte		v038
	.byte	W01
	.byte		v035
	.byte	W01
	.byte		v032
	.byte	W01
	.byte		v029
	.byte	W01
	.byte		v028
	.byte	W01
	.byte		v025
	.byte	W01
	.byte		v022
	.byte	W07
	.byte		v023
	.byte	W04
	.byte		v024
	.byte	W03
	.byte		v025
	.byte	W04
song029_1_4:
	.byte	VOL	, v026
	.byte	W03
	.byte		v027
	.byte	W04
	.byte		v028
	.byte	W03
	.byte		v028
	.byte	W04
	.byte		v029
	.byte	W03
	.byte		v030
	.byte	W04
	.byte		v031
	.byte	W03
	.byte		v032
	.byte	W04
	.byte		v033
	.byte	W03
	.byte		v034
	.byte	W04
	.byte		v035
	.byte	W03
	.byte		v036
	.byte	W04
	.byte		v037
	.byte	W03
	.byte		v038
	.byte	W04
	.byte		v038
	.byte	W03
	.byte		v039
	.byte	W04
	.byte		v040
	.byte	W03
	.byte		v041
	.byte	W04
	.byte		v042
	.byte	W03
	.byte		v043
	.byte	W04
	.byte		v044
	.byte	W03
	.byte		v045
	.byte	W04
	.byte		v046
	.byte	W03
	.byte		v047
	.byte	W04
	.byte		v047
	.byte	W03
	.byte		v048
	.byte	W04
	.byte		v049
	.byte	W03
	.byte		v050
	.byte	W02
	.byte	PEND
	.byte	W02
	.byte		v051
	.byte	W03
	.byte		v052
	.byte	W04
	.byte		v053
	.byte	W03
	.byte		v054
	.byte	W04
	.byte		v055
	.byte	W03
	.byte		v056
	.byte	W04
	.byte		v057
	.byte	W03
	.byte		v057
	.byte	W04
	.byte		v058
	.byte	W03
	.byte		v059
	.byte	W04
	.byte		v060
	.byte	W03
	.byte		v061
	.byte	W04
	.byte		v062
	.byte	W03
	.byte		v063
	.byte	W04
	.byte		v064
	.byte	W03
	.byte		v065
	.byte	W04
	.byte		v066
	.byte	W03
	.byte		v067
	.byte	W04
	.byte		v067
	.byte	W03
	.byte		v068
	.byte	W04
	.byte		v069
	.byte	W03
	.byte		v070
	.byte	W04
	.byte		v071
	.byte	W03
	.byte		v072
	.byte	W04
	.byte		v073
	.byte	W03
	.byte		v074
	.byte	W04
	.byte		v075
	.byte	W03
	.byte		v076
	.byte	W04
	.byte		v076
	.byte	W03
	.byte		v077
	.byte	W04
	.byte		v078
	.byte	W03
	.byte		v079
	.byte	W04
	.byte		v080
	.byte	W01
	.byte		v081
	.byte	W04
	.byte		EOT	, Cs3
	.byte			En3
	.byte			An3
	.byte	W01
	.byte	VOL	, v073
	.byte	W24
	.byte		N05	, As3, v100
	.byte		N05	, Cs4
	.byte		N05	, Fs4
	.byte	W08
	.byte			As3, v108
	.byte		N05	, Cs4
	.byte		N05	, Fs4
	.byte	W08
	.byte		N06	, As3
	.byte		N06	, Cs4
	.byte		N06	, Fs4
	.byte	W08
	.byte		N21	, An3, v112
	.byte		N21	, Cn4
	.byte		N21	, Fn4
	.byte	W24
	.byte		N19	, Fn3, v108
	.byte		N19	, Gs3
	.byte		N19	, Cs4
	.byte	W24
	.byte		N07	, Fs3, v112
	.byte		N07	, An3
	.byte		N07	, Dn4
	.byte	W16
	.byte			Fn3, v100
	.byte		N07	, Gs3
	.byte		N07	, Cs4
	.byte	W08
	.byte		TIE	, Dn3, v088
	.byte		TIE	, Fn3
	.byte		TIE	, As3
	.byte	W10
	.byte	VOL	, v073
	.byte	W01
	.byte		v070
	.byte	W01
	.byte		v067
	.byte	W01
	.byte		v066
	.byte	W01
	.byte		v063
	.byte	W01
	.byte		v060
	.byte	W01
	.byte		v058
	.byte	W01
	.byte		v056
	.byte	W01
	.byte		v052
	.byte	W01
	.byte		v050
	.byte	W01
	.byte		v047
	.byte	W01
	.byte		v045
	.byte	W01
	.byte		v043
	.byte	W01
	.byte		v040
	.byte	W01
	.byte		v038
	.byte	W01
	.byte		v035
	.byte	W01
	.byte		v032
	.byte	W01
	.byte		v029
	.byte	W01
	.byte		v028
	.byte	W01
	.byte		v025
	.byte	W01
	.byte		v022
	.byte	W07
	.byte		v023
	.byte	W04
	.byte		v024
	.byte	W03
	.byte		v025
	.byte	W04
	.byte	PATT	
		.word	song029_1_4
	.byte	W02
	.byte	VOL	, v051
	.byte	W03
	.byte		v052
	.byte	W04
	.byte		v053
	.byte	W03
	.byte		v054
	.byte	W04
	.byte		v055
	.byte	W03
	.byte		v056
	.byte	W04
	.byte		v057
	.byte	W01
	.byte		EOT	, Dn3
	.byte			Fn3
	.byte			As3
	.byte		N44	, Bn2, v100
	.byte		N44	, Dn3
	.byte		N44	, Gn3
	.byte	W02
	.byte	VOL	, v057
	.byte	W04
	.byte		v058
	.byte	W03
	.byte		v059
	.byte	W04
	.byte		v060
	.byte	W03
	.byte		v061
	.byte	W04
	.byte		v062
	.byte	W03
	.byte		v063
	.byte	W04
	.byte		v064
	.byte	W03
	.byte		v065
	.byte	W04
	.byte		v066
	.byte	W03
	.byte		v067
	.byte	W04
	.byte		v067
	.byte	W03
	.byte		v068
	.byte	W04
	.byte		v069
	.byte		N44	
	.byte		N44	, Bn3
	.byte		N44	, Dn4
	.byte	W03
	.byte	VOL	, v070
	.byte	W04
	.byte		v071
	.byte	W03
	.byte		v072
	.byte	W04
	.byte		v073
	.byte	W03
	.byte		v074
	.byte	W04
	.byte		v075
	.byte	W03
	.byte		v076
	.byte	W04
	.byte		v076
	.byte	W03
	.byte		v077
	.byte	W04
	.byte		v078
	.byte	W03
	.byte		v079
	.byte	W04
	.byte		v080
	.byte	W01
	.byte		v081
	.byte	W05
	.byte	GOTO	
		.word	song029_1_5
	.byte	FINE

	@********************** Track  2 **********************@

	.global song029_2
song029_2:	@ 0x087AF636
	.byte	KEYSH	, 0
	.byte	VOICE	, 42
	.byte	VOL	, v054
	.byte	PAN	, c_v
	.byte	BENDR	, 3
	.byte	LFOS	, 22
	.byte	LFODL	, 27
	.byte	MOD	, 4
	.byte	MODT	, 0
	.byte	W24
	.byte		N96	, Gn2, v124
	.byte	W72
	.byte	W24
	.byte			Gn1
	.byte	W72
	.byte	W24
song029_2_1:
	.byte	W72
	.byte	W96
	.byte	W24
	.byte	VOL	, v054
	.byte		N48	, Ds4, v104
	.byte	W48
	.byte		TIE	, Dn4
	.byte	W24
	.byte	W84
	.byte		EOT	
	.byte	W12
	.byte	W24
	.byte		N48	, Cn4
	.byte	W48
	.byte		TIE	, Bn3
	.byte	W24
	.byte	W84
	.byte		EOT	
	.byte	W12
	.byte	W24
	.byte		N48	, En4
	.byte	W48
	.byte		TIE	, Ds4
	.byte	W24
	.byte	W84
	.byte		EOT	
	.byte	W12
	.byte	W24
	.byte		N48	, En4
	.byte	W48
	.byte		TIE	, Fn4
	.byte	W24
	.byte	W96
	.byte	W24
	.byte		EOT	
	.byte		N48	, Gs4
	.byte	W48
	.byte		TIE	, Gn4
	.byte	W24
	.byte	W84
	.byte		EOT	
	.byte	W12
	.byte	W24
	.byte		N48	, Fn4
	.byte	W48
	.byte		TIE	, En4
	.byte	W24
	.byte	W84
	.byte		EOT	
	.byte	W12
	.byte	W24
	.byte		N48	, Gs4
	.byte	W48
	.byte		TIE	, Gn4
	.byte	W24
	.byte	W84
	.byte		EOT	
	.byte	W12
	.byte	W24
	.byte		N48	, Gs4
	.byte	W48
	.byte		TIE	, An4
	.byte	W24
	.byte	W96
	.byte	W24
	.byte		EOT	
	.byte	VOL	, v090
	.byte		TIE	, Gs2, v127
	.byte	W72
	.byte	W92
	.byte	W03
	.byte		EOT	
	.byte	W01
	.byte		N03	, Cn2, v124
	.byte	W03
	.byte			Cs2, v127
	.byte	W03
	.byte			Dn2, v124
	.byte	W03
	.byte			Ds2
	.byte	W03
	.byte			En2
	.byte	W03
	.byte			Fn2, v127
	.byte	W03
	.byte			Fs2, v124
	.byte	W03
	.byte			Gn2
	.byte	W03
	.byte		TIE	, Gs2, v127
	.byte	W72
	.byte	W92
	.byte	W03
	.byte		EOT	
	.byte	W01
	.byte		N03	, Cs2, v124
	.byte	W03
	.byte			Dn2, v127
	.byte	W03
	.byte			Ds2, v124
	.byte	W03
	.byte			En2
	.byte	W03
	.byte			Fn2
	.byte	W03
	.byte			Fs2, v127
	.byte	W03
	.byte			Gn2, v124
	.byte	W03
	.byte			Gs2
	.byte	W03
	.byte		TIE	, An2, v127
	.byte	W72
	.byte	W92
	.byte	W03
	.byte		EOT	
	.byte	W01
	.byte		N03	, Dn2, v124
	.byte	W03
	.byte			Ds2, v127
	.byte	W03
	.byte			En2, v124
	.byte	W03
	.byte			Fn2
	.byte	W03
	.byte			Fs2
	.byte	W03
	.byte			Gn2, v127
	.byte	W03
	.byte			Gs2, v124
	.byte	W03
	.byte			An2
	.byte	W03
	.byte		N84	, As2, v127
	.byte	W72
	.byte	W12
	.byte		N06	, An2, v116
	.byte	W06
	.byte			As2, v120
	.byte	W06
	.byte		N44	, Bn2, v127
	.byte	W48
	.byte			Gn2
	.byte	W24
	.byte	W24
	.byte	GOTO	
		.word	song029_2_1
	.byte	FINE

	@********************** Track  3 **********************@

	.global song029_3
song029_3:	@ 0x087AF71A
	.byte	KEYSH	, 0
	.byte	VOICE	, 90
	.byte	VOL	, v115
	.byte	PAN	, c_v
	.byte	BENDR	, 3
	.byte	LFOS	, 56
	.byte	LFODL	, 0
	.byte	MOD	, 0
	.byte	MODT	, 2
	.byte		N03	, Cn2, v064
	.byte	W03
	.byte			Cn2, v072
	.byte	W03
	.byte			Cn2, v080
	.byte	W03
	.byte			Cn2, v088
	.byte	W03
	.byte			Cn2, v096
	.byte	W03
	.byte			Cn2, v104
	.byte	W03
	.byte			Cn2, v112
	.byte	W03
	.byte			Cn2, v120
	.byte	W03
	.byte		N36	, Fn2, v127
	.byte	W72
	.byte	W96
	.byte		N03	, Fn2, v064
	.byte	W03
	.byte			Fn2, v072
	.byte	W03
	.byte			Fn2, v080
	.byte	W03
	.byte			Fn2, v088
	.byte	W03
	.byte			Fn2, v096
	.byte	W03
	.byte			Fn2, v104
	.byte	W03
	.byte			Fn2, v112
	.byte	W03
	.byte			Fn2, v120
	.byte	W03
song029_3_5:
	.byte		N23	, As2, v127
	.byte	W24
	.byte			As2, v060
	.byte	W24
	.byte		N23	
	.byte	W24
song029_3_1:
	.byte		N23	, As2, v060
	.byte	W24
	.byte			As2, v127
	.byte	W24
	.byte			As2, v060
	.byte	W24
	.byte		N23	
	.byte	W24
	.byte	PEND
song029_3_2:
	.byte		N11	, As2, v060
	.byte	W12
	.byte		N05	, Fn2, v127
	.byte	W06
	.byte		N06	
	.byte	W06
	.byte		N23	, As2
	.byte	W24
	.byte			As2, v060
	.byte	W24
	.byte		N23	
	.byte	W24
	.byte	PEND
	.byte	PATT	
		.word	song029_3_1
	.byte	PATT	
		.word	song029_3_2
	.byte	PATT	
		.word	song029_3_1
	.byte	PATT	
		.word	song029_3_2
	.byte	PATT	
		.word	song029_3_1
	.byte	PATT	
		.word	song029_3_2
	.byte	PATT	
		.word	song029_3_1
	.byte		N03	, An2, v064
	.byte	W03
	.byte			An2, v072
	.byte	W03
	.byte			An2, v080
	.byte	W03
	.byte			An2, v088
	.byte	W03
	.byte			An2, v096
	.byte	W03
	.byte			An2, v104
	.byte	W03
	.byte			An2, v112
	.byte	W03
	.byte			An2, v120
	.byte	W03
	.byte		N23	, Dn3, v127
	.byte	W24
	.byte			Dn3, v060
	.byte	W24
	.byte		N23	
	.byte	W24
song029_3_3:
	.byte		N23	, Dn3, v060
	.byte	W24
	.byte			Dn3, v127
	.byte	W24
	.byte			Dn3, v060
	.byte	W24
	.byte		N23	
	.byte	W24
	.byte	PEND
song029_3_4:
	.byte		N11	, Dn3, v060
	.byte	W12
	.byte		N05	, An2, v127
	.byte	W06
	.byte		N06	
	.byte	W06
	.byte		N23	, Dn3
	.byte	W24
	.byte			Dn3, v060
	.byte	W24
	.byte		N23	
	.byte	W24
	.byte	PEND
	.byte	PATT	
		.word	song029_3_3
	.byte	PATT	
		.word	song029_3_4
	.byte	PATT	
		.word	song029_3_3
	.byte	PATT	
		.word	song029_3_4
	.byte		N23	, Dn3, v060
	.byte	W24
	.byte			Dn3, v127
	.byte	W24
	.byte			Dn3, v060
	.byte	W48
	.byte		N03	, Cs2, v064
	.byte	W03
	.byte			Cs2, v072
	.byte	W03
	.byte			Cs2, v080
	.byte	W03
	.byte			Cs2, v088
	.byte	W03
	.byte			Cs2, v096
	.byte	W03
	.byte			Cs2, v104
	.byte	W03
	.byte			Cs2, v112
	.byte	W03
	.byte			Cs2, v120
	.byte	W03
	.byte		N23	, Fs2, v127
	.byte	W72
	.byte	W24
	.byte		N23	
	.byte	W60
	.byte		N12	, Cs2, v124
	.byte	W12
	.byte			Fs2, v127
	.byte	W12
	.byte			Cs2, v124
	.byte	W12
	.byte		N23	, Fs2, v127
	.byte	W72
	.byte	W24
	.byte		N23	
	.byte	W48
	.byte		N03	, Cs2, v040
	.byte	W03
	.byte			Cs2, v044
	.byte	W03
	.byte			Cs2, v048
	.byte	W03
	.byte			Cs2, v052
	.byte	W03
	.byte			Cs2, v060
	.byte	W03
	.byte			Cs2, v064
	.byte	W03
	.byte			Cs2, v068
	.byte	W03
	.byte			Cs2, v072
	.byte	W03
	.byte			Cs2, v080
	.byte	W03
	.byte			Cs2, v084
	.byte	W03
	.byte			Cs2, v088
	.byte	W03
	.byte			Cs2, v092
	.byte	W03
	.byte			Cs2, v100
	.byte	W03
	.byte			Cs2, v104
	.byte	W03
	.byte			Cs2, v108
	.byte	W03
	.byte			Cs2, v112
	.byte	W03
	.byte		N23	, Gn2, v120
	.byte	W72
	.byte	W24
	.byte			Gn2, v127
	.byte	W60
	.byte		N12	, Dn2, v124
	.byte	W12
	.byte			Gn2, v127
	.byte	W12
	.byte			Dn2, v124
	.byte	W12
	.byte		N23	, Gn2, v127
	.byte	W72
	.byte	W12
	.byte		N06	, Dn2
	.byte	W06
	.byte		N05	
	.byte	W06
	.byte		N23	, Gs2
	.byte	W48
	.byte		N03	, Fn2, v040
	.byte	W03
	.byte			Fn2, v044
	.byte	W03
	.byte			Fn2, v048
	.byte	W03
	.byte			Fn2, v052
	.byte	W03
	.byte			Fn2, v060
	.byte	W03
	.byte			Fn2, v064
	.byte	W03
	.byte			Fn2, v068
	.byte	W03
	.byte			Fn2, v072
	.byte	W03
	.byte			Fn2, v080
	.byte	W03
	.byte			Fn2, v084
	.byte	W03
	.byte			Fn2, v088
	.byte	W03
	.byte			Fn2, v092
	.byte	W03
	.byte			Fn2, v100
	.byte	W03
	.byte			Fn2, v104
	.byte	W03
	.byte			Fn2, v108
	.byte	W03
	.byte			Fn2, v112
	.byte	W03
	.byte	GOTO	
		.word	song029_3_5
	.byte	FINE

	@********************** Track  4 **********************@

	.global song029_4
song029_4:	@ 0x087AF8C7
	.byte	KEYSH	, 0
	.byte	VOICE	, 12
	.byte	VOL	, v054
	.byte	PAN	, c_v
	.byte	BENDR	, 3
	.byte	LFOS	, 31
	.byte	LFODL	, 22
	.byte	MOD	, 4
	.byte	MODT	, 0
	.byte	W24
	.byte		N04	, As4, v080
	.byte	W04
	.byte			Fs4
	.byte	W04
	.byte			An4, v076
	.byte	W04
	.byte			Fn4
	.byte	W04
	.byte			Gs4
	.byte	W04
	.byte			En4, v072
	.byte	W04
	.byte			Gn4
	.byte	W04
	.byte			Ds4, v068
	.byte	W04
	.byte			Fs4
	.byte	W04
	.byte			Dn4
	.byte	W04
	.byte			Fn4, v064
	.byte	W04
	.byte			Cs4
	.byte	W04
	.byte			En4, v060
	.byte	W04
	.byte			Cn4
	.byte	W04
	.byte			Ds4
	.byte	W04
	.byte			Bn3, v056
	.byte	W04
	.byte			Dn4
	.byte	W04
	.byte			As3, v052
	.byte	W04
	.byte			Cs4
	.byte	W04
	.byte			An3
	.byte	W04
	.byte			Cn4, v048
	.byte	W04
	.byte			Gs3
	.byte	W04
	.byte			Bn3, v044
	.byte	W04
	.byte			Gn3
	.byte	W04
	.byte			As3
	.byte	W04
	.byte			Fs3, v040
	.byte	W04
	.byte			An3
	.byte	W04
	.byte			Fn3, v036
	.byte	W04
	.byte			Gs3
	.byte	W04
	.byte			En3
	.byte	W04
	.byte			Gn3, v020
	.byte	W04
	.byte			Ds3, v024
	.byte	W04
	.byte			Fs3, v028
	.byte	W04
	.byte			Dn3, v032
	.byte	W04
	.byte			Fn3, v036
	.byte	W04
	.byte			Cs3, v040
	.byte	W04
	.byte			Bn2, v044
	.byte	W04
	.byte			Cs3, v048
	.byte	W04
	.byte			Ds3, v052
	.byte	W04
	.byte			Fn3, v056
	.byte	W04
	.byte			Gn3, v060
	.byte	W04
	.byte			Gs3, v064
	.byte	W04
	.byte		N03	, Bn3, v068
	.byte	W03
	.byte			Cs4, v072
	.byte	W03
	.byte			Ds4, v076
	.byte	W03
	.byte			Fn4, v080
	.byte	W03
	.byte			Gn4, v084
	.byte	W03
	.byte			Gs4
	.byte	W03
	.byte			As4, v088
	.byte	W03
	.byte			Bn4, v092
	.byte	W03
song029_4_5:
	.byte		N03	, Cn5, v092
	.byte	W03
	.byte			As4, v088
	.byte	W03
	.byte			Gs4
	.byte	W03
	.byte			Gn4, v084
	.byte	W03
	.byte			Fn4
	.byte	W03
	.byte			Ds4, v080
	.byte	W03
	.byte			Cs4, v076
	.byte	W03
	.byte			Cn4
	.byte	W03
	.byte			As3, v072
	.byte	W03
	.byte			Gs3, v068
	.byte	W03
	.byte			Gn3
	.byte	W03
	.byte			Fn3, v064
	.byte	W03
	.byte			Ds3
	.byte	W03
	.byte			Cs3, v060
	.byte	W03
	.byte			Cn3, v056
	.byte	W03
	.byte			As2
	.byte	W03
	.byte			Gs2, v052
	.byte	W03
	.byte			Gn2, v048
	.byte	W03
	.byte			Fn2
	.byte	W03
	.byte			Ds2, v044
	.byte	W03
	.byte			Cs2
	.byte	W03
	.byte			Cn2, v040
	.byte	W03
	.byte			As1, v036
	.byte	W03
	.byte			Gs1
	.byte	W03
	.byte			Gn1, v032
	.byte	W03
	.byte			Fn1
	.byte	W03
	.byte			Ds1, v028
	.byte	W03
	.byte			Cs1, v024
	.byte	W03
	.byte			Cn1
	.byte	W84
	.byte	W96
song029_4_1:
	.byte	W48
	.byte		N03	, Bn1, v096
	.byte	W03
	.byte			Cn2, v104
	.byte	W03
	.byte			Ds2, v100
	.byte	W03
	.byte			Gn2, v112
	.byte	W03
	.byte			Bn2, v096
	.byte	W03
	.byte			Cn3, v100
	.byte	W03
	.byte			Ds3
	.byte	W03
	.byte			Gn3, v096
	.byte	W03
	.byte			Bn3
	.byte	W03
	.byte			Cn4, v104
	.byte	W03
	.byte			Ds4, v096
	.byte	W03
	.byte			Gn4, v104
	.byte	W03
	.byte			Bn4, v100
	.byte	W03
	.byte			Gn4, v108
	.byte	W03
	.byte			Ds4, v100
	.byte	W03
	.byte			Cn4, v096
	.byte	W03
	.byte	PEND
song029_4_2:
	.byte		N03	, Bn3, v084
	.byte	W03
	.byte			Gn3, v100
	.byte	W03
	.byte			Ds3, v108
	.byte	W03
	.byte			Cn3, v092
	.byte	W03
	.byte			Ds3, v104
	.byte	W03
	.byte			Gn3
	.byte	W03
	.byte			Bn3, v096
	.byte	W03
	.byte			Gn3
	.byte	W03
	.byte			Ds3, v088
	.byte	W03
	.byte			Cn3
	.byte	W03
	.byte			Bn2, v096
	.byte	W03
	.byte			Gn2
	.byte	W03
	.byte			Ds2, v092
	.byte	W03
	.byte			Cn2, v096
	.byte	W56
	.byte	W01
	.byte	PEND
	.byte	W48
	.byte		N04	, Gn3, v100
	.byte	W04
	.byte			Cn4, v108
	.byte	W04
	.byte			Ds4
	.byte	W04
	.byte			Cn4, v096
	.byte	W04
	.byte			Gn3
	.byte	W04
	.byte			Ds3, v084
	.byte	W04
	.byte			Gn3, v096
	.byte	W04
	.byte			Ds3, v088
	.byte	W04
	.byte			Cn3, v084
	.byte	W04
	.byte			Gn2, v096
	.byte	W04
	.byte			Cn3, v100
	.byte	W04
	.byte			Gn2, v092
	.byte	W04
	.byte			Ds2, v108
	.byte	W04
	.byte			Cn2, v088
	.byte	W04
	.byte			Ds2, v084
	.byte	W04
	.byte			Cn2, v096
	.byte	W04
	.byte			Gn1, v112
	.byte	W04
	.byte			Cn1, v108
	.byte	W76
	.byte	PATT	
		.word	song029_4_1
	.byte	PATT	
		.word	song029_4_2
	.byte	W36
	.byte		N04	, Gs3, v108
	.byte	W04
	.byte			Cn4, v088
	.byte	W04
	.byte			Gs3, v092
	.byte	W04
	.byte			En3, v088
	.byte	W04
	.byte			Gs3, v112
	.byte	W04
	.byte			En3, v100
	.byte	W04
	.byte			Cn3, v084
	.byte	W04
	.byte			En3, v092
	.byte	W04
	.byte			Cn3, v080
	.byte	W04
	.byte			Gs2, v100
	.byte	W04
	.byte			Cn3, v092
	.byte	W04
	.byte			Gs2, v096
	.byte	W04
	.byte		N03	, En2
	.byte	W03
	.byte			Fs2, v100
	.byte	W03
	.byte			Gs2, v108
	.byte	W03
	.byte			As2, v100
	.byte	W03
	.byte			Cn3, v096
	.byte	W03
	.byte			Dn3, v100
	.byte	W03
	.byte			En3, v088
	.byte	W03
	.byte			Fs3, v096
	.byte	W03
	.byte			Gs3, v104
	.byte	W03
	.byte			As3, v120
	.byte	W03
	.byte			Cn4, v112
	.byte	W03
	.byte			Dn4, v116
	.byte	W03
	.byte		N06	, Ds4
	.byte	W72
song029_4_3:
	.byte	W48
	.byte		N03	, Ds2, v096
	.byte	W03
	.byte			En2, v104
	.byte	W03
	.byte			Gn2, v100
	.byte	W03
	.byte			Bn2, v112
	.byte	W03
	.byte			Ds3, v096
	.byte	W03
	.byte			En3, v100
	.byte	W03
	.byte			Gn3
	.byte	W03
	.byte			Bn3, v096
	.byte	W03
	.byte			Ds4
	.byte	W03
	.byte			En4, v104
	.byte	W03
	.byte			Gn4, v096
	.byte	W03
	.byte			Bn4, v104
	.byte	W03
	.byte			Ds5, v100
	.byte	W03
	.byte			Bn4, v108
	.byte	W03
	.byte			Gn4, v100
	.byte	W03
	.byte			En4, v096
	.byte	W03
	.byte	PEND
song029_4_4:
	.byte		N03	, Ds4, v084
	.byte	W03
	.byte			Bn3, v100
	.byte	W03
	.byte			Gn3, v108
	.byte	W03
	.byte			En3, v092
	.byte	W03
	.byte			Gn3, v104
	.byte	W03
	.byte			Bn3
	.byte	W03
	.byte			Ds4, v096
	.byte	W03
	.byte			Bn3
	.byte	W03
	.byte			Gn3, v088
	.byte	W03
	.byte			En3
	.byte	W03
	.byte			Ds3, v096
	.byte	W03
	.byte			Bn2
	.byte	W03
	.byte			Gn2, v092
	.byte	W03
	.byte			En2, v096
	.byte	W56
	.byte	W01
	.byte	PEND
	.byte	W48
	.byte		N04	, Bn3, v100
	.byte	W04
	.byte			En4, v108
	.byte	W04
	.byte			Gn4
	.byte	W04
	.byte			En4, v096
	.byte	W04
	.byte			Bn3
	.byte	W04
	.byte			Gn3, v084
	.byte	W04
	.byte			Bn3, v096
	.byte	W04
	.byte			Gn3, v088
	.byte	W04
	.byte			En3, v084
	.byte	W04
	.byte			Bn2, v096
	.byte	W04
	.byte			En3, v100
	.byte	W04
	.byte			Bn2, v092
	.byte	W04
	.byte			Gn2, v108
	.byte	W04
	.byte			En2, v088
	.byte	W04
	.byte			Gn2, v084
	.byte	W04
	.byte			En2, v096
	.byte	W04
	.byte			Bn1, v112
	.byte	W04
	.byte			En1, v108
	.byte	W76
	.byte	PATT	
		.word	song029_4_3
	.byte	PATT	
		.word	song029_4_4
	.byte	W36
	.byte		N04	, Cn4, v108
	.byte	W04
	.byte			En4, v088
	.byte	W04
	.byte			Cn4, v092
	.byte	W04
	.byte			Gs3, v088
	.byte	W04
	.byte			Cn4, v112
	.byte	W04
	.byte			Gs3, v100
	.byte	W04
	.byte			En3, v084
	.byte	W04
	.byte			Gs3, v092
	.byte	W04
	.byte			En3, v080
	.byte	W04
	.byte			Cn3, v100
	.byte	W04
	.byte			En3, v092
	.byte	W04
	.byte			Cn3, v096
	.byte	W04
	.byte			Gs2, v100
	.byte	W06
	.byte		N03	, Gs2, v096
	.byte	W03
	.byte			As2, v100
	.byte	W03
	.byte			Cn3, v108
	.byte	W03
	.byte			Dn3, v100
	.byte	W03
	.byte			En3, v096
	.byte	W03
	.byte			Fs3, v100
	.byte	W03
	.byte			Gs3, v088
	.byte	W03
	.byte			As3, v096
	.byte	W03
	.byte			Cn4, v104
	.byte	W03
	.byte			Dn4, v120
	.byte	W03
	.byte		N04	, Fn4, v088
	.byte	W04
	.byte			Gs4, v084
	.byte	W04
	.byte			Bn4
	.byte	W04
	.byte			An4
	.byte	W04
	.byte			Gs4, v080
	.byte	W04
	.byte			Bn4
	.byte	W04
	.byte			As4
	.byte	W04
	.byte			Gn4, v076
	.byte	W04
	.byte			Fs4
	.byte	W04
	.byte			An4
	.byte	W04
	.byte			Gs4, v072
	.byte	W04
	.byte			Fn4
	.byte	W04
	.byte			En4, v068
	.byte	W04
	.byte			Gn4
	.byte	W04
	.byte			Fs4
	.byte	W04
	.byte			Ds4, v064
	.byte	W04
	.byte			Dn4
	.byte	W04
	.byte			Fn4
	.byte	W04
	.byte			En4, v060
	.byte	W04
	.byte			Cs4
	.byte	W04
	.byte			Cn4
	.byte	W04
	.byte			Ds4, v056
	.byte	W04
	.byte			Dn4
	.byte	W04
	.byte			Bn3
	.byte	W04
	.byte			As3, v052
	.byte	W04
	.byte			Cs4
	.byte	W04
	.byte			Cn4
	.byte	W04
	.byte			An3, v048
	.byte	W04
	.byte			Gs3
	.byte	W04
	.byte			Bn3, v044
	.byte	W04
	.byte			As3
	.byte	W04
	.byte			Gn3
	.byte	W04
	.byte			Fs3, v040
	.byte	W04
	.byte			An3
	.byte	W04
	.byte			Gs3
	.byte	W04
	.byte			Fn3, v036
	.byte	W04
	.byte			En3
	.byte	W04
	.byte			Gn3
	.byte	W04
	.byte			Fs3, v032
	.byte	W04
	.byte			Ds3
	.byte	W04
	.byte			Dn3
	.byte	W04
	.byte			Fn3, v028
	.byte	W04
	.byte			En3
	.byte	W04
	.byte			Cs3
	.byte	W04
	.byte			Cn3, v024
	.byte	W04
	.byte			Ds3
	.byte	W04
	.byte			Dn3, v020
	.byte	W04
	.byte			Bn2
	.byte	W76
	.byte	W68
	.byte	W01
	.byte		N03	, As2, v040
	.byte	W03
	.byte			Cn3, v044
	.byte	W03
	.byte			Cs3, v048
	.byte	W03
	.byte			Ds3, v052
	.byte	W03
	.byte			En3, v056
	.byte	W03
	.byte			Fs3, v060
	.byte	W03
	.byte			Gn3
	.byte	W03
	.byte			An3, v064
	.byte	W03
	.byte			As3, v068
	.byte	W03
	.byte			Cn4, v072
	.byte	W03
	.byte			Cs4, v076
	.byte	W03
	.byte			Ds4, v080
	.byte	W03
	.byte			En4, v084
	.byte	W03
	.byte			Fs4
	.byte	W03
	.byte			Gn4, v088
	.byte	W03
	.byte			An4, v092
	.byte	W03
	.byte			As4, v096
	.byte	W03
	.byte		N04	, Fs4, v088
	.byte	W04
	.byte			An4, v084
	.byte	W04
	.byte			Cn5
	.byte	W04
	.byte			As4
	.byte	W04
	.byte			An4, v080
	.byte	W04
	.byte			Cn5
	.byte	W04
	.byte			Bn4
	.byte	W04
	.byte			Gs4, v076
	.byte	W04
	.byte			Gn4
	.byte	W04
	.byte			As4
	.byte	W04
	.byte			An4, v072
	.byte	W04
	.byte			Fs4
	.byte	W04
	.byte			Fn4, v068
	.byte	W04
	.byte			Gs4
	.byte	W04
	.byte			Gn4
	.byte	W04
	.byte			En4, v064
	.byte	W04
	.byte			Ds4
	.byte	W04
	.byte			Fs4
	.byte	W04
	.byte			Fn4, v060
	.byte	W04
	.byte			Dn4
	.byte	W04
	.byte			Cs4
	.byte	W04
	.byte			En4, v056
	.byte	W04
	.byte			Ds4
	.byte	W04
	.byte			Cn4
	.byte	W04
	.byte			Bn3, v052
	.byte	W04
	.byte			Dn4
	.byte	W04
	.byte			Cs4
	.byte	W04
	.byte			As3, v048
	.byte	W04
	.byte			An3
	.byte	W04
	.byte			Cn4, v044
	.byte	W04
	.byte			Bn3
	.byte	W04
	.byte			Gs3
	.byte	W04
	.byte			Gn3, v040
	.byte	W04
	.byte			As3
	.byte	W04
	.byte			An3
	.byte	W04
	.byte			Fs3, v036
	.byte	W04
	.byte			Fn3
	.byte	W04
	.byte			Gs3
	.byte	W04
	.byte			Gn3, v032
	.byte	W04
	.byte			En3
	.byte	W04
	.byte			Ds3
	.byte	W04
	.byte			Fs3, v028
	.byte	W04
	.byte			Fn3
	.byte	W04
	.byte			Dn3
	.byte	W04
	.byte			Cs3, v024
	.byte	W04
	.byte			En3
	.byte	W04
	.byte			Ds3, v020
	.byte	W04
	.byte			Cn3
	.byte	W76
	.byte	W68
	.byte	W01
	.byte		N03	, Bn2, v040
	.byte	W03
	.byte			Cs3, v044
	.byte	W03
	.byte			Dn3, v048
	.byte	W03
	.byte			En3, v052
	.byte	W03
	.byte			Fn3, v056
	.byte	W03
	.byte			Gn3, v060
	.byte	W03
	.byte			Gs3
	.byte	W03
	.byte			As3, v064
	.byte	W03
	.byte			Bn3, v068
	.byte	W03
	.byte			Cs4, v072
	.byte	W03
	.byte			Dn4, v076
	.byte	W03
	.byte			En4, v080
	.byte	W03
	.byte			Fn4, v084
	.byte	W03
	.byte			Gn4
	.byte	W03
	.byte			Gs4, v088
	.byte	W03
	.byte			As4, v092
	.byte	W03
	.byte			Bn4, v096
	.byte	W03
	.byte	GOTO	
		.word	song029_4_5
	.byte	FINE

	@********************** Track  5 **********************@

	.global song029_5
song029_5:	@ 0x087AFCCA
	.byte	KEYSH	, 0
	.byte	VOICE	, 127
	.byte	VOL	, v115
	.byte	PAN	, c_v
	.byte	BENDR	, 3
	.byte	LFOS	, 23
	.byte	LFODL	, 22
	.byte	MOD	, 4
	.byte	MODT	, 0
	.byte	W24
	.byte		N96	, Cn2, v127
	.byte	W72
	.byte	W96
	.byte	W24
song029_5_1:
	.byte		N96	, Cn2, v127
	.byte	W72
	.byte	W96
	.byte	W96
	.byte	W96
	.byte	W96
	.byte	W96
	.byte	W96
	.byte	W96
	.byte	W96
	.byte	W96
	.byte	W24
	.byte		N96	
	.byte	W72
	.byte	W96
	.byte	W96
	.byte	W96
	.byte	W96
	.byte	W96
	.byte	W96
	.byte	W96
	.byte	W24
	.byte		N96	
	.byte	W72
	.byte	W96
	.byte	W24
	.byte		N96	
	.byte	W72
	.byte	W96
	.byte	W24
	.byte		N96	
	.byte	W72
	.byte	W96
	.byte	W24
	.byte		N96	
	.byte	W72
	.byte	W96
	.byte	W24
	.byte	GOTO	
		.word	song029_5_1
	.byte	FINE

	@********************** Track  6 **********************@

	.global song029_6
song029_6:	@ 0x087AFD11
	.byte	KEYSH	, 0
	.byte	VOICE	, 99
	.byte	VOL	, v099
	.byte	PAN	, c_v
	.byte	BENDR	, 3
	.byte	LFOS	, 23
	.byte	LFODL	, 22
	.byte	MOD	, 4
	.byte	MODT	, 0
	.byte	W96
	.byte	W96
	.byte	W24
song029_6_3:
	.byte		N07	, Cn3, v088
	.byte	W12
	.byte			Cs3, v127
	.byte	W12
	.byte			Dn3
	.byte	W12
	.byte			Ds3
	.byte	W12
	.byte			Cn3
	.byte	W12
	.byte			Cs3
	.byte	W12
song029_6_1:
	.byte		N07	, Dn3, v127
	.byte	W12
	.byte			Ds3
	.byte	W12
	.byte			Cn3
	.byte	W12
	.byte			Cs3
	.byte	W12
	.byte			Dn3
	.byte	W12
	.byte			Ds3
	.byte	W12
	.byte			Cn3
	.byte	W12
	.byte			Cs3
	.byte	W12
	.byte	PEND
	.byte	PATT	
		.word	song029_6_1
	.byte	PATT	
		.word	song029_6_1
	.byte	PATT	
		.word	song029_6_1
	.byte	PATT	
		.word	song029_6_1
	.byte	PATT	
		.word	song029_6_1
	.byte	PATT	
		.word	song029_6_1
	.byte	PATT	
		.word	song029_6_1
	.byte	PATT	
		.word	song029_6_1
	.byte		N07	, Dn3, v127
	.byte	W12
	.byte			Ds3
	.byte	W12
	.byte			En3
	.byte	W12
	.byte			Fn3
	.byte	W12
	.byte			Fs3
	.byte	W12
	.byte			Gn3
	.byte	W12
	.byte			En3
	.byte	W12
	.byte			Fn3
	.byte	W12
song029_6_2:
	.byte		N07	, Fs3, v127
	.byte	W12
	.byte			Gn3
	.byte	W12
	.byte			En3
	.byte	W12
	.byte			Fn3
	.byte	W12
	.byte			Fs3
	.byte	W12
	.byte			Gn3
	.byte	W12
	.byte			En3
	.byte	W12
	.byte			Fn3
	.byte	W12
	.byte	PEND
	.byte	PATT	
		.word	song029_6_2
	.byte	PATT	
		.word	song029_6_2
	.byte	PATT	
		.word	song029_6_2
	.byte	PATT	
		.word	song029_6_2
	.byte	PATT	
		.word	song029_6_2
	.byte	PATT	
		.word	song029_6_2
	.byte		N07	, Fs3, v127
	.byte	W12
	.byte			Gn3
	.byte	W84
	.byte	W96
	.byte	W96
	.byte	W96
	.byte	W96
	.byte	W96
	.byte	W96
	.byte	W96
	.byte	W24
	.byte	GOTO	
		.word	song029_6_3
	.byte	FINE

	@********************** Track  7 **********************@

	.global song029_7
song029_7:	@ 0x087AFDC7
	.byte	KEYSH	, 0
	.byte	VOICE	, 96
	.byte	VOL	, v099
	.byte	PAN	, c_v
	.byte	BENDR	, 3
	.byte	LFOS	, 23
	.byte	LFODL	, 22
	.byte	MOD	, 4
	.byte	MODT	, 0
	.byte	W96
	.byte	W96
	.byte	W24
song029_7_1:
	.byte		N48	, Cn1, v112
	.byte		N48	, Cn2
	.byte	W72
	.byte	W96
	.byte	W96
	.byte	W96
	.byte	W96
	.byte	W96
	.byte	W96
	.byte	W96
	.byte	W96
	.byte	W96
	.byte	W96
	.byte	W96
	.byte	W96
	.byte	W96
	.byte	W96
	.byte	W96
	.byte	W96
	.byte	W96
	.byte	W96
	.byte	W96
	.byte	W96
	.byte	W96
	.byte	W96
	.byte	W96
	.byte	W96
	.byte	W96
	.byte	W24
	.byte	GOTO	
		.word	song029_7_1
	.byte	FINE

	@********************** Track  8 **********************@

	.global song029_8
song029_8:	@ 0x087AFE02
	.byte	KEYSH	, 0
	.byte	VOICE	, 98
	.byte	VOL	, v115
	.byte	PAN	, c_v
	.byte	BENDR	, 3
	.byte	LFOS	, 23
	.byte	LFODL	, 22
	.byte	MOD	, 4
	.byte	MODT	, 0
	.byte	PRIO	, 30
	.byte	W96
	.byte	W96
	.byte	W24
song029_8_4:
	.byte	W72
	.byte	W96
	.byte	W24
	.byte		N48	, Bn2, v127
	.byte	W02
	.byte	VOL	, v067
	.byte	W02
	.byte		v069
	.byte	W01
	.byte		v070
	.byte	W01
	.byte		v071
	.byte	W01
	.byte		v073
	.byte	W01
	.byte		v074
	.byte	W01
	.byte		v075
	.byte	W01
	.byte		v076
	.byte	W01
	.byte		v077
	.byte	W01
	.byte		v078
	.byte	W01
	.byte		v080
	.byte	W01
	.byte		v081
	.byte	W01
	.byte		v082
	.byte	W01
	.byte		v084
	.byte	W01
	.byte		v085
	.byte	W01
	.byte		v086
	.byte	W01
	.byte		v087
	.byte	W01
	.byte		v088
	.byte	W01
	.byte		v089
	.byte	W01
	.byte		v091
	.byte	W01
	.byte		v092
	.byte	W01
	.byte		v093
	.byte	W01
	.byte		v095
	.byte	W01
	.byte		v095
	.byte	W01
	.byte		v096
	.byte	W01
	.byte		v098
	.byte	W01
	.byte		v099
	.byte	W01
	.byte		v100
	.byte	W01
	.byte		v102
	.byte	W01
	.byte		v103
	.byte	W01
	.byte		v104
	.byte	W01
	.byte		v105
	.byte	W01
	.byte		v106
	.byte	W01
	.byte		v107
	.byte	W01
	.byte		v109
	.byte	W01
	.byte		v110
	.byte	W01
	.byte		v111
	.byte	W01
	.byte		v113
	.byte	W01
	.byte		v114
	.byte	W01
	.byte		v107
	.byte	W01
	.byte		v086
	.byte	W01
	.byte		v067
	.byte	W02
	.byte		v068
	.byte	W01
	.byte		v070
	.byte	W01
	.byte		v071
	.byte		TIE	, As2
	.byte	W01
	.byte	VOL	, v072
	.byte	W01
	.byte		v073
	.byte	W01
	.byte		v074
	.byte	W01
	.byte		v076
	.byte	W01
	.byte		v076
	.byte	W01
	.byte		v077
	.byte	W01
	.byte		v078
	.byte	W01
	.byte		v079
	.byte	W01
	.byte		v081
	.byte	W01
	.byte		v082
	.byte	W01
	.byte		v083
	.byte	W01
	.byte		v084
	.byte	W01
	.byte		v086
	.byte	W01
	.byte		v086
	.byte	W01
	.byte		v087
	.byte	W01
	.byte		v088
	.byte	W01
	.byte		v089
	.byte	W01
	.byte		v091
	.byte	W01
	.byte		v092
	.byte	W01
	.byte		v093
	.byte	W01
	.byte		v094
	.byte	W01
	.byte		v095
	.byte	W01
	.byte		v096
	.byte	W01
song029_8_1:
	.byte	VOL	, v097
	.byte	W01
	.byte		v098
	.byte	W01
	.byte		v099
	.byte	W01
	.byte		v100
	.byte	W01
	.byte		v102
	.byte	W01
	.byte		v103
	.byte	W01
	.byte		v104
	.byte	W01
	.byte		v105
	.byte	W01
	.byte		v106
	.byte	W01
	.byte		v107
	.byte	W01
	.byte		v108
	.byte	W01
	.byte		v109
	.byte	W01
	.byte		v110
	.byte	W01
	.byte		v112
	.byte	W01
	.byte		v113
	.byte	W01
	.byte		v115
	.byte	W02
	.byte		v114
	.byte	W01
	.byte		v113
	.byte	W01
	.byte		v112
	.byte	W01
	.byte		v111
	.byte	W01
	.byte		v110
	.byte	W01
	.byte		v109
	.byte	W01
	.byte		v108
	.byte	W01
	.byte		v107
	.byte	W01
	.byte		v106
	.byte	W01
	.byte		v105
	.byte	W01
	.byte		v105
	.byte	W01
	.byte		v104
	.byte	W01
	.byte		v103
	.byte	W01
	.byte		v102
	.byte	W01
	.byte		v101
	.byte	W01
	.byte		v100
	.byte	W01
	.byte		v099
	.byte	W01
	.byte		v098
	.byte	W01
	.byte		v097
	.byte	W01
	.byte		v096
	.byte	W01
	.byte		v095
	.byte	W01
	.byte		v095
	.byte	W01
	.byte		v094
	.byte	W01
	.byte		v093
	.byte	W01
	.byte		v092
	.byte	W01
	.byte		v091
	.byte	W01
	.byte		v090
	.byte	W01
	.byte		v089
	.byte	W01
	.byte		v088
	.byte	W01
	.byte		v087
	.byte	W01
	.byte		v086
	.byte	W01
	.byte		v086
	.byte	W01
	.byte		v084
	.byte	W01
	.byte		v083
	.byte	W01
	.byte		v082
	.byte	W01
	.byte		v081
	.byte	W01
	.byte		v080
	.byte	W01
	.byte		v079
	.byte	W01
	.byte		v078
	.byte	W01
	.byte		v077
	.byte	W01
	.byte		v076
	.byte	W01
	.byte		v076
	.byte	W01
	.byte		v075
	.byte	W01
	.byte		v074
	.byte	W01
	.byte		v073
	.byte	W02
	.byte		v072
	.byte	W01
	.byte		v071
	.byte	W01
	.byte		v070
	.byte	W01
	.byte		v069
	.byte	W01
	.byte		v068
	.byte	W01
	.byte		v067
	.byte	W01
	.byte		v067
	.byte	W01
	.byte		v066
	.byte	W01
	.byte		v065
	.byte	W01
	.byte		v064
	.byte	W01
	.byte		v063
	.byte	W01
	.byte		v062
	.byte	W01
	.byte		v061
	.byte	W01
	.byte		v060
	.byte	W01
	.byte		v059
	.byte	W01
	.byte		v058
	.byte	W01
	.byte		v057
	.byte	W01
	.byte		v057
	.byte	W01
	.byte		v056
	.byte	W01
	.byte		v055
	.byte	W01
	.byte		v054
	.byte	W01
	.byte	PEND
	.byte		EOT	, As2
	.byte	VOL	, v053
	.byte	W01
	.byte		v052
	.byte	W01
	.byte		v051
	.byte	W01
	.byte		v050
	.byte	W01
	.byte		v048
	.byte	W01
	.byte		v047
	.byte	W01
	.byte		v047
	.byte	W01
	.byte		v046
	.byte	W01
	.byte		v045
	.byte	W01
	.byte		v044
	.byte	W01
	.byte		v043
	.byte	W01
	.byte		v042
	.byte	W01
	.byte		v041
	.byte	W01
	.byte		v040
	.byte	W01
	.byte		v039
	.byte	W01
	.byte		v038
	.byte	W01
	.byte		v038
	.byte	W01
	.byte		v037
	.byte	W01
	.byte		v036
	.byte	W01
	.byte		v035
	.byte	W01
	.byte		v034
	.byte	W01
	.byte		v033
	.byte	W01
	.byte		v032
	.byte	W01
	.byte		v031
	.byte	W02
	.byte		v030
	.byte	W01
	.byte		v029
	.byte	W01
	.byte		v028
	.byte	W01
	.byte		v028
	.byte	W01
	.byte		v027
	.byte	W01
	.byte		v026
	.byte	W01
	.byte		v026
	.byte	W01
	.byte		v033
	.byte	W01
	.byte		v038
	.byte	W01
	.byte		v044
	.byte	W01
	.byte		v051
	.byte	W01
	.byte		v056
	.byte		N48	, Gs2, v127
	.byte	W01
	.byte	VOL	, v062
	.byte	W01
	.byte		v067
	.byte	W02
	.byte		v069
	.byte	W01
	.byte		v070
	.byte	W01
	.byte		v071
	.byte	W01
	.byte		v073
	.byte	W01
	.byte		v074
	.byte	W01
	.byte		v075
	.byte	W01
	.byte		v076
	.byte	W01
	.byte		v077
	.byte	W01
	.byte		v078
	.byte	W01
	.byte		v080
	.byte	W01
	.byte		v081
	.byte	W01
	.byte		v082
	.byte	W01
	.byte		v084
	.byte	W01
	.byte		v085
	.byte	W01
	.byte		v086
	.byte	W01
	.byte		v087
	.byte	W01
	.byte		v088
	.byte	W01
	.byte		v089
	.byte	W01
	.byte		v091
	.byte	W01
	.byte		v092
	.byte	W01
	.byte		v093
	.byte	W01
	.byte		v095
	.byte	W01
	.byte		v095
	.byte	W01
	.byte		v096
	.byte	W01
	.byte		v098
	.byte	W01
	.byte		v099
	.byte	W01
	.byte		v100
	.byte	W01
	.byte		v102
	.byte	W01
	.byte		v103
	.byte	W01
	.byte		v104
	.byte	W01
	.byte		v105
	.byte	W01
	.byte		v106
	.byte	W01
	.byte		v107
	.byte	W01
	.byte		v109
	.byte	W01
	.byte		v110
	.byte	W01
	.byte		v111
	.byte	W01
	.byte		v113
	.byte	W01
	.byte		v114
	.byte	W01
	.byte		v107
	.byte	W01
	.byte		v086
	.byte	W01
	.byte		v067
	.byte	W02
	.byte		v068
	.byte	W01
	.byte		v070
	.byte	W01
	.byte		v071
	.byte		TIE	, Gn2
	.byte	W01
	.byte	VOL	, v072
	.byte	W01
	.byte		v073
	.byte	W01
	.byte		v074
	.byte	W01
	.byte		v076
	.byte	W01
	.byte		v076
	.byte	W01
	.byte		v077
	.byte	W01
	.byte		v078
	.byte	W01
	.byte		v079
	.byte	W01
	.byte		v081
	.byte	W01
	.byte		v082
	.byte	W01
	.byte		v083
	.byte	W01
	.byte		v084
	.byte	W01
	.byte		v086
	.byte	W01
	.byte		v086
	.byte	W01
	.byte		v087
	.byte	W01
	.byte		v088
	.byte	W01
	.byte		v089
	.byte	W01
	.byte		v091
	.byte	W01
	.byte		v092
	.byte	W01
	.byte		v093
	.byte	W01
	.byte		v094
	.byte	W01
	.byte		v095
	.byte	W01
	.byte		v096
	.byte	W01
	.byte	PATT	
		.word	song029_8_1
	.byte		EOT	, Gn2
	.byte	VOL	, v053
	.byte	W01
	.byte		v052
	.byte	W01
	.byte		v051
	.byte	W01
	.byte		v050
	.byte	W01
	.byte		v048
	.byte	W01
	.byte		v047
	.byte	W01
	.byte		v047
	.byte	W01
	.byte		v046
	.byte	W01
	.byte		v045
	.byte	W01
	.byte		v044
	.byte	W01
	.byte		v043
	.byte	W01
	.byte		v042
	.byte	W01
	.byte		v041
	.byte	W01
	.byte		v040
	.byte	W01
	.byte		v039
	.byte	W01
	.byte		v038
	.byte	W01
	.byte		v038
	.byte	W01
	.byte		v037
	.byte	W01
	.byte		v036
	.byte	W01
	.byte		v035
	.byte	W01
	.byte		v034
	.byte	W01
	.byte		v033
	.byte	W01
	.byte		v032
	.byte	W01
	.byte		v031
	.byte	W02
	.byte		v030
	.byte	W01
	.byte		v029
	.byte	W01
	.byte		v028
	.byte	W01
	.byte		v028
	.byte	W01
	.byte		v027
	.byte	W01
	.byte		v026
	.byte	W01
	.byte		v026
	.byte	W01
	.byte		v033
	.byte	W01
	.byte		v038
	.byte	W01
	.byte		v044
	.byte	W01
	.byte		v051
	.byte	W01
	.byte		v056
	.byte		N48	, Bn2, v127
	.byte	W01
	.byte	VOL	, v062
	.byte	W01
	.byte		v067
	.byte	W02
	.byte		v069
	.byte	W01
	.byte		v070
	.byte	W01
	.byte		v071
	.byte	W01
	.byte		v073
	.byte	W01
	.byte		v074
	.byte	W01
	.byte		v075
	.byte	W01
	.byte		v076
	.byte	W01
	.byte		v077
	.byte	W01
	.byte		v078
	.byte	W01
	.byte		v080
	.byte	W01
	.byte		v081
	.byte	W01
	.byte		v082
	.byte	W01
	.byte		v084
	.byte	W01
	.byte		v085
	.byte	W01
	.byte		v086
	.byte	W01
	.byte		v087
	.byte	W01
	.byte		v088
	.byte	W01
	.byte		v089
	.byte	W01
	.byte		v091
	.byte	W01
	.byte		v092
	.byte	W01
	.byte		v093
	.byte	W01
	.byte		v095
	.byte	W01
	.byte		v095
	.byte	W01
	.byte		v096
	.byte	W01
	.byte		v098
	.byte	W01
	.byte		v099
	.byte	W01
	.byte		v100
	.byte	W01
	.byte		v102
	.byte	W01
	.byte		v103
	.byte	W01
	.byte		v104
	.byte	W01
	.byte		v105
	.byte	W01
	.byte		v106
	.byte	W01
	.byte		v107
	.byte	W01
	.byte		v109
	.byte	W01
	.byte		v110
	.byte	W01
	.byte		v111
	.byte	W01
	.byte		v113
	.byte	W01
	.byte		v114
	.byte	W01
	.byte		v107
	.byte	W01
	.byte		v086
	.byte	W01
	.byte		v067
	.byte	W02
	.byte		v068
	.byte	W01
	.byte		v070
	.byte	W01
	.byte		v071
	.byte		TIE	, As2
	.byte	W01
	.byte	VOL	, v072
	.byte	W01
	.byte		v073
	.byte	W01
	.byte		v074
	.byte	W01
	.byte		v076
	.byte	W01
	.byte		v076
	.byte	W01
	.byte		v077
	.byte	W01
	.byte		v078
	.byte	W01
	.byte		v079
	.byte	W01
	.byte		v081
	.byte	W01
	.byte		v082
	.byte	W01
	.byte		v083
	.byte	W01
	.byte		v084
	.byte	W01
	.byte		v086
	.byte	W01
	.byte		v086
	.byte	W01
	.byte		v087
	.byte	W01
	.byte		v088
	.byte	W01
	.byte		v089
	.byte	W01
	.byte		v091
	.byte	W01
	.byte		v092
	.byte	W01
	.byte		v093
	.byte	W01
	.byte		v094
	.byte	W01
	.byte		v095
	.byte	W01
	.byte		v096
	.byte	W01
	.byte	PATT	
		.word	song029_8_1
	.byte		EOT	, As2
	.byte	VOL	, v053
	.byte	W01
	.byte		v052
	.byte	W01
	.byte		v051
	.byte	W01
	.byte		v050
	.byte	W01
	.byte		v048
	.byte	W01
	.byte		v047
	.byte	W01
	.byte		v047
	.byte	W01
	.byte		v046
	.byte	W01
	.byte		v045
	.byte	W01
	.byte		v044
	.byte	W01
	.byte		v043
	.byte	W01
	.byte		v042
	.byte	W01
	.byte		v041
	.byte	W01
	.byte		v040
	.byte	W01
	.byte		v039
	.byte	W01
	.byte		v038
	.byte	W01
	.byte		v038
	.byte	W01
	.byte		v037
	.byte	W01
	.byte		v036
	.byte	W01
	.byte		v035
	.byte	W01
	.byte		v034
	.byte	W01
	.byte		v033
	.byte	W01
	.byte		v032
	.byte	W01
	.byte		v031
	.byte	W02
	.byte		v030
	.byte	W01
	.byte		v029
	.byte	W01
	.byte		v028
	.byte	W01
	.byte		v028
	.byte	W01
	.byte		v027
	.byte	W01
	.byte		v026
	.byte	W01
	.byte		v026
	.byte	W01
	.byte		v033
	.byte	W01
	.byte		v038
	.byte	W01
	.byte		v044
	.byte	W01
	.byte		v051
	.byte	W01
	.byte		v056
	.byte		N48	, Bn2, v127
	.byte	W01
	.byte	VOL	, v062
	.byte	W01
	.byte		v067
	.byte	W02
	.byte		v069
	.byte	W01
	.byte		v070
	.byte	W01
	.byte		v071
	.byte	W01
	.byte		v073
	.byte	W01
	.byte		v074
	.byte	W01
	.byte		v075
	.byte	W01
	.byte		v076
	.byte	W01
	.byte		v077
	.byte	W01
	.byte		v078
	.byte	W01
	.byte		v080
	.byte	W01
	.byte		v081
	.byte	W01
	.byte		v082
	.byte	W01
	.byte		v084
	.byte	W01
	.byte		v085
	.byte	W01
	.byte		v086
	.byte	W01
	.byte		v087
	.byte	W01
	.byte		v088
	.byte	W01
	.byte		v089
	.byte	W01
	.byte		v091
	.byte	W01
	.byte		v092
	.byte	W01
	.byte		v093
	.byte	W01
	.byte		v095
	.byte	W01
	.byte		v095
	.byte	W01
	.byte		v096
	.byte	W01
	.byte		v098
	.byte	W01
	.byte		v099
	.byte	W01
	.byte		v100
	.byte	W01
	.byte		v102
	.byte	W01
	.byte		v103
	.byte	W01
	.byte		v104
	.byte	W01
	.byte		v105
	.byte	W01
	.byte		v106
	.byte	W01
	.byte		v107
	.byte	W01
	.byte		v109
	.byte	W01
	.byte		v110
	.byte	W01
	.byte		v111
	.byte	W01
	.byte		v113
	.byte	W01
	.byte		v114
	.byte	W01
	.byte		v107
	.byte	W01
	.byte		v086
	.byte	W01
	.byte		v067
	.byte	W02
	.byte		v068
	.byte	W01
	.byte		v070
	.byte	W01
	.byte		v071
	.byte		TIE	, Cn3
	.byte	W01
	.byte	VOL	, v072
	.byte	W01
	.byte		v073
	.byte	W01
	.byte		v074
	.byte	W01
	.byte		v076
	.byte	W01
	.byte		v076
	.byte	W01
	.byte		v077
	.byte	W01
	.byte		v078
	.byte	W01
	.byte		v079
	.byte	W01
	.byte		v081
	.byte	W01
	.byte		v082
	.byte	W01
	.byte		v083
	.byte	W01
	.byte		v084
	.byte	W01
	.byte		v086
	.byte	W01
	.byte		v086
	.byte	W01
	.byte		v087
	.byte	W01
	.byte		v088
	.byte	W01
	.byte		v089
	.byte	W01
	.byte		v091
	.byte	W01
	.byte		v092
	.byte	W01
	.byte		v093
	.byte	W01
	.byte		v094
	.byte	W01
	.byte		v095
	.byte	W01
	.byte		v096
	.byte	W01
song029_8_2:
	.byte	VOL	, v097
	.byte	W01
	.byte		v098
	.byte	W01
	.byte		v099
	.byte	W01
	.byte		v100
	.byte	W01
	.byte		v102
	.byte	W01
	.byte		v103
	.byte	W01
	.byte		v104
	.byte	W01
	.byte		v105
	.byte	W01
	.byte		v106
	.byte	W01
	.byte		v107
	.byte	W01
	.byte		v108
	.byte	W01
	.byte		v109
	.byte	W01
	.byte		v110
	.byte	W01
	.byte		v112
	.byte	W01
	.byte		v113
	.byte	W01
	.byte		v115
	.byte	W02
	.byte		v114
	.byte	W01
	.byte		v113
	.byte	W01
	.byte		v112
	.byte	W01
	.byte		v111
	.byte	W01
	.byte		v110
	.byte	W01
	.byte		v109
	.byte	W01
	.byte		v107
	.byte	W01
	.byte		v106
	.byte	W01
	.byte		v105
	.byte	W01
	.byte		v105
	.byte	W01
	.byte		v104
	.byte	W01
	.byte		v103
	.byte	W01
	.byte		v102
	.byte	W01
	.byte		v101
	.byte	W01
	.byte		v100
	.byte	W01
	.byte		v098
	.byte	W01
	.byte		v097
	.byte	W01
	.byte		v096
	.byte	W01
	.byte		v095
	.byte	W01
	.byte		v095
	.byte	W01
	.byte		v094
	.byte	W01
	.byte		v093
	.byte	W01
	.byte		v092
	.byte	W01
	.byte		v091
	.byte	W01
	.byte		v089
	.byte	W01
	.byte		v088
	.byte	W01
	.byte		v087
	.byte	W01
	.byte		v086
	.byte	W01
	.byte		v086
	.byte	W01
	.byte		v085
	.byte	W01
	.byte		v084
	.byte	W01
	.byte		v083
	.byte	W01
	.byte		v082
	.byte	W01
	.byte		v080
	.byte	W01
	.byte		v079
	.byte	W01
	.byte		v078
	.byte	W01
	.byte		v077
	.byte	W01
	.byte		v076
	.byte	W01
	.byte		v076
	.byte	W01
	.byte		v075
	.byte	W01
	.byte		v074
	.byte	W01
	.byte		v072
	.byte	W03
	.byte		v073
	.byte	W01
	.byte		v074
	.byte	W01
	.byte		v075
	.byte	W01
	.byte		v076
	.byte	W01
	.byte		v076
	.byte	W02
	.byte		v077
	.byte	W01
	.byte		v078
	.byte	W01
	.byte		v079
	.byte	W01
	.byte		v080
	.byte	W01
	.byte		v081
	.byte	W02
	.byte		v082
	.byte	W01
	.byte		v083
	.byte	W01
	.byte		v084
	.byte	W01
	.byte		v085
	.byte	W01
	.byte		v086
	.byte	W02
	.byte		v086
	.byte	W01
	.byte		v087
	.byte	W01
	.byte		v088
	.byte	W01
	.byte		v089
	.byte	W01
	.byte		v090
	.byte	W02
	.byte		v091
	.byte	W01
	.byte		v092
	.byte	W01
	.byte		v093
	.byte	W01
	.byte		v094
	.byte	W01
	.byte		v095
	.byte	W02
	.byte		v095
	.byte	W01
	.byte		v096
	.byte	W01
	.byte		v097
	.byte	W01
	.byte		v098
	.byte	W01
	.byte		v099
	.byte	W01
	.byte	PEND
song029_8_3:
	.byte	W01
	.byte	VOL	, v100
	.byte	W01
	.byte		v101
	.byte	W01
	.byte		v102
	.byte	W01
	.byte		v103
	.byte	W01
	.byte		v104
	.byte	W02
	.byte		v105
	.byte	W01
	.byte		v105
	.byte	W01
	.byte		v106
	.byte	W01
	.byte		v107
	.byte	W01
	.byte		v108
	.byte	W02
	.byte		v109
	.byte	W01
	.byte		v110
	.byte	W01
	.byte		v111
	.byte	W01
	.byte		v112
	.byte	W01
	.byte		v113
	.byte	W02
	.byte		v115
	.byte	W05
	.byte	PEND
	.byte		EOT	, Cn3
	.byte		N48	, Ds3, v127
	.byte	W02
	.byte	VOL	, v067
	.byte	W02
	.byte		v069
	.byte	W01
	.byte		v070
	.byte	W01
	.byte		v071
	.byte	W01
	.byte		v073
	.byte	W01
	.byte		v074
	.byte	W01
	.byte		v075
	.byte	W01
	.byte		v076
	.byte	W01
	.byte		v077
	.byte	W01
	.byte		v078
	.byte	W01
	.byte		v080
	.byte	W01
	.byte		v081
	.byte	W01
	.byte		v082
	.byte	W01
	.byte		v084
	.byte	W01
	.byte		v085
	.byte	W01
	.byte		v086
	.byte	W01
	.byte		v087
	.byte	W01
	.byte		v088
	.byte	W01
	.byte		v089
	.byte	W01
	.byte		v091
	.byte	W01
	.byte		v092
	.byte	W01
	.byte		v093
	.byte	W01
	.byte		v095
	.byte	W01
	.byte		v095
	.byte	W01
	.byte		v096
	.byte	W01
	.byte		v098
	.byte	W01
	.byte		v099
	.byte	W01
	.byte		v100
	.byte	W01
	.byte		v102
	.byte	W01
	.byte		v103
	.byte	W01
	.byte		v104
	.byte	W01
	.byte		v105
	.byte	W01
	.byte		v106
	.byte	W01
	.byte		v107
	.byte	W01
	.byte		v109
	.byte	W01
	.byte		v110
	.byte	W01
	.byte		v111
	.byte	W01
	.byte		v113
	.byte	W01
	.byte		v114
	.byte	W01
	.byte		v107
	.byte	W01
	.byte		v086
	.byte	W01
	.byte		v067
	.byte	W02
	.byte		v068
	.byte	W01
	.byte		v070
	.byte	W01
	.byte		v071
	.byte		TIE	, Dn3
	.byte	W01
	.byte	VOL	, v072
	.byte	W01
	.byte		v073
	.byte	W01
	.byte		v074
	.byte	W01
	.byte		v076
	.byte	W01
	.byte		v076
	.byte	W01
	.byte		v077
	.byte	W01
	.byte		v078
	.byte	W01
	.byte		v079
	.byte	W01
	.byte		v081
	.byte	W01
	.byte		v082
	.byte	W01
	.byte		v083
	.byte	W01
	.byte		v084
	.byte	W01
	.byte		v086
	.byte	W01
	.byte		v086
	.byte	W01
	.byte		v087
	.byte	W01
	.byte		v088
	.byte	W01
	.byte		v089
	.byte	W01
	.byte		v091
	.byte	W01
	.byte		v092
	.byte	W01
	.byte		v093
	.byte	W01
	.byte		v094
	.byte	W01
	.byte		v095
	.byte	W01
	.byte		v096
	.byte	W01
	.byte	PATT	
		.word	song029_8_1
	.byte		EOT	, Dn3
	.byte	VOL	, v053
	.byte	W01
	.byte		v052
	.byte	W01
	.byte		v051
	.byte	W01
	.byte		v050
	.byte	W01
	.byte		v048
	.byte	W01
	.byte		v047
	.byte	W01
	.byte		v047
	.byte	W01
	.byte		v046
	.byte	W01
	.byte		v045
	.byte	W01
	.byte		v044
	.byte	W01
	.byte		v043
	.byte	W01
	.byte		v042
	.byte	W01
	.byte		v041
	.byte	W01
	.byte		v040
	.byte	W01
	.byte		v039
	.byte	W01
	.byte		v038
	.byte	W01
	.byte		v038
	.byte	W01
	.byte		v037
	.byte	W01
	.byte		v036
	.byte	W01
	.byte		v035
	.byte	W01
	.byte		v034
	.byte	W01
	.byte		v033
	.byte	W01
	.byte		v032
	.byte	W01
	.byte		v031
	.byte	W02
	.byte		v030
	.byte	W01
	.byte		v029
	.byte	W01
	.byte		v028
	.byte	W01
	.byte		v028
	.byte	W01
	.byte		v027
	.byte	W01
	.byte		v026
	.byte	W01
	.byte		v026
	.byte	W01
	.byte		v033
	.byte	W01
	.byte		v038
	.byte	W01
	.byte		v044
	.byte	W01
	.byte		v051
	.byte	W01
	.byte		v056
	.byte		N48	, Cn3, v127
	.byte	W01
	.byte	VOL	, v062
	.byte	W01
	.byte		v067
	.byte	W02
	.byte		v069
	.byte	W01
	.byte		v070
	.byte	W01
	.byte		v071
	.byte	W01
	.byte		v073
	.byte	W01
	.byte		v074
	.byte	W01
	.byte		v075
	.byte	W01
	.byte		v076
	.byte	W01
	.byte		v077
	.byte	W01
	.byte		v078
	.byte	W01
	.byte		v080
	.byte	W01
	.byte		v081
	.byte	W01
	.byte		v082
	.byte	W01
	.byte		v084
	.byte	W01
	.byte		v085
	.byte	W01
	.byte		v086
	.byte	W01
	.byte		v087
	.byte	W01
	.byte		v088
	.byte	W01
	.byte		v089
	.byte	W01
	.byte		v091
	.byte	W01
	.byte		v092
	.byte	W01
	.byte		v093
	.byte	W01
	.byte		v095
	.byte	W01
	.byte		v095
	.byte	W01
	.byte		v096
	.byte	W01
	.byte		v098
	.byte	W01
	.byte		v099
	.byte	W01
	.byte		v100
	.byte	W01
	.byte		v102
	.byte	W01
	.byte		v103
	.byte	W01
	.byte		v104
	.byte	W01
	.byte		v105
	.byte	W01
	.byte		v106
	.byte	W01
	.byte		v107
	.byte	W01
	.byte		v109
	.byte	W01
	.byte		v110
	.byte	W01
	.byte		v111
	.byte	W01
	.byte		v113
	.byte	W01
	.byte		v114
	.byte	W01
	.byte		v107
	.byte	W01
	.byte		v086
	.byte	W01
	.byte		v067
	.byte	W02
	.byte		v068
	.byte	W01
	.byte		v070
	.byte	W01
	.byte		v071
	.byte		TIE	, Bn2
	.byte	W01
	.byte	VOL	, v072
	.byte	W01
	.byte		v073
	.byte	W01
	.byte		v074
	.byte	W01
	.byte		v076
	.byte	W01
	.byte		v076
	.byte	W01
	.byte		v077
	.byte	W01
	.byte		v078
	.byte	W01
	.byte		v079
	.byte	W01
	.byte		v081
	.byte	W01
	.byte		v082
	.byte	W01
	.byte		v083
	.byte	W01
	.byte		v084
	.byte	W01
	.byte		v086
	.byte	W01
	.byte		v086
	.byte	W01
	.byte		v087
	.byte	W01
	.byte		v088
	.byte	W01
	.byte		v089
	.byte	W01
	.byte		v091
	.byte	W01
	.byte		v092
	.byte	W01
	.byte		v093
	.byte	W01
	.byte		v094
	.byte	W01
	.byte		v095
	.byte	W01
	.byte		v096
	.byte	W01
	.byte	PATT	
		.word	song029_8_1
	.byte		EOT	, Bn2
	.byte	VOL	, v053
	.byte	W01
	.byte		v052
	.byte	W01
	.byte		v051
	.byte	W01
	.byte		v050
	.byte	W01
	.byte		v048
	.byte	W01
	.byte		v047
	.byte	W01
	.byte		v047
	.byte	W01
	.byte		v046
	.byte	W01
	.byte		v045
	.byte	W01
	.byte		v044
	.byte	W01
	.byte		v043
	.byte	W01
	.byte		v042
	.byte	W01
	.byte		v041
	.byte	W01
	.byte		v040
	.byte	W01
	.byte		v039
	.byte	W01
	.byte		v038
	.byte	W01
	.byte		v038
	.byte	W01
	.byte		v037
	.byte	W01
	.byte		v036
	.byte	W01
	.byte		v035
	.byte	W01
	.byte		v034
	.byte	W01
	.byte		v033
	.byte	W01
	.byte		v032
	.byte	W01
	.byte		v031
	.byte	W02
	.byte		v030
	.byte	W01
	.byte		v029
	.byte	W01
	.byte		v028
	.byte	W01
	.byte		v028
	.byte	W01
	.byte		v027
	.byte	W01
	.byte		v026
	.byte	W01
	.byte		v026
	.byte	W01
	.byte		v033
	.byte	W01
	.byte		v038
	.byte	W01
	.byte		v044
	.byte	W01
	.byte		v051
	.byte	W01
	.byte		v056
	.byte		N48	, Ds3, v127
	.byte	W01
	.byte	VOL	, v062
	.byte	W01
	.byte		v067
	.byte	W02
	.byte		v069
	.byte	W01
	.byte		v070
	.byte	W01
	.byte		v071
	.byte	W01
	.byte		v073
	.byte	W01
	.byte		v074
	.byte	W01
	.byte		v075
	.byte	W01
	.byte		v076
	.byte	W01
	.byte		v077
	.byte	W01
	.byte		v078
	.byte	W01
	.byte		v080
	.byte	W01
	.byte		v081
	.byte	W01
	.byte		v082
	.byte	W01
	.byte		v084
	.byte	W01
	.byte		v085
	.byte	W01
	.byte		v086
	.byte	W01
	.byte		v087
	.byte	W01
	.byte		v088
	.byte	W01
	.byte		v089
	.byte	W01
	.byte		v091
	.byte	W01
	.byte		v092
	.byte	W01
	.byte		v093
	.byte	W01
	.byte		v095
	.byte	W01
	.byte		v095
	.byte	W01
	.byte		v096
	.byte	W01
	.byte		v098
	.byte	W01
	.byte		v099
	.byte	W01
	.byte		v100
	.byte	W01
	.byte		v102
	.byte	W01
	.byte		v103
	.byte	W01
	.byte		v104
	.byte	W01
	.byte		v105
	.byte	W01
	.byte		v106
	.byte	W01
	.byte		v107
	.byte	W01
	.byte		v109
	.byte	W01
	.byte		v110
	.byte	W01
	.byte		v111
	.byte	W01
	.byte		v113
	.byte	W01
	.byte		v114
	.byte	W01
	.byte		v107
	.byte	W01
	.byte		v086
	.byte	W01
	.byte		v067
	.byte	W02
	.byte		v068
	.byte	W01
	.byte		v070
	.byte	W01
	.byte		v071
	.byte		TIE	, Dn3
	.byte	W01
	.byte	VOL	, v072
	.byte	W01
	.byte		v073
	.byte	W01
	.byte		v074
	.byte	W01
	.byte		v076
	.byte	W01
	.byte		v076
	.byte	W01
	.byte		v077
	.byte	W01
	.byte		v078
	.byte	W01
	.byte		v079
	.byte	W01
	.byte		v081
	.byte	W01
	.byte		v082
	.byte	W01
	.byte		v083
	.byte	W01
	.byte		v084
	.byte	W01
	.byte		v086
	.byte	W01
	.byte		v086
	.byte	W01
	.byte		v087
	.byte	W01
	.byte		v088
	.byte	W01
	.byte		v089
	.byte	W01
	.byte		v091
	.byte	W01
	.byte		v092
	.byte	W01
	.byte		v093
	.byte	W01
	.byte		v094
	.byte	W01
	.byte		v095
	.byte	W01
	.byte		v096
	.byte	W01
	.byte	PATT	
		.word	song029_8_1
	.byte		EOT	, Dn3
	.byte	VOL	, v053
	.byte	W01
	.byte		v052
	.byte	W01
	.byte		v051
	.byte	W01
	.byte		v050
	.byte	W01
	.byte		v048
	.byte	W01
	.byte		v047
	.byte	W01
	.byte		v047
	.byte	W01
	.byte		v046
	.byte	W01
	.byte		v045
	.byte	W01
	.byte		v044
	.byte	W01
	.byte		v043
	.byte	W01
	.byte		v042
	.byte	W01
	.byte		v041
	.byte	W01
	.byte		v040
	.byte	W01
	.byte		v039
	.byte	W01
	.byte		v038
	.byte	W01
	.byte		v038
	.byte	W01
	.byte		v037
	.byte	W01
	.byte		v036
	.byte	W01
	.byte		v035
	.byte	W01
	.byte		v034
	.byte	W01
	.byte		v033
	.byte	W01
	.byte		v032
	.byte	W01
	.byte		v031
	.byte	W02
	.byte		v030
	.byte	W01
	.byte		v029
	.byte	W01
	.byte		v028
	.byte	W01
	.byte		v028
	.byte	W01
	.byte		v027
	.byte	W01
	.byte		v026
	.byte	W01
	.byte		v026
	.byte	W01
	.byte		v033
	.byte	W01
	.byte		v038
	.byte	W01
	.byte		v044
	.byte	W01
	.byte		v051
	.byte	W01
	.byte		v056
	.byte		N48	, Ds3, v127
	.byte	W01
	.byte	VOL	, v062
	.byte	W01
	.byte		v067
	.byte	W02
	.byte		v069
	.byte	W01
	.byte		v070
	.byte	W01
	.byte		v071
	.byte	W01
	.byte		v073
	.byte	W01
	.byte		v074
	.byte	W01
	.byte		v075
	.byte	W01
	.byte		v076
	.byte	W01
	.byte		v077
	.byte	W01
	.byte		v078
	.byte	W01
	.byte		v080
	.byte	W01
	.byte		v081
	.byte	W01
	.byte		v082
	.byte	W01
	.byte		v084
	.byte	W01
	.byte		v085
	.byte	W01
	.byte		v086
	.byte	W01
	.byte		v087
	.byte	W01
	.byte		v088
	.byte	W01
	.byte		v089
	.byte	W01
	.byte		v091
	.byte	W01
	.byte		v092
	.byte	W01
	.byte		v093
	.byte	W01
	.byte		v095
	.byte	W01
	.byte		v095
	.byte	W01
	.byte		v096
	.byte	W01
	.byte		v098
	.byte	W01
	.byte		v099
	.byte	W01
	.byte		v100
	.byte	W01
	.byte		v102
	.byte	W01
	.byte		v103
	.byte	W01
	.byte		v104
	.byte	W01
	.byte		v105
	.byte	W01
	.byte		v106
	.byte	W01
	.byte		v107
	.byte	W01
	.byte		v109
	.byte	W01
	.byte		v110
	.byte	W01
	.byte		v111
	.byte	W01
	.byte		v113
	.byte	W01
	.byte		v114
	.byte	W01
	.byte		v107
	.byte	W01
	.byte		v086
	.byte	W01
	.byte		v067
	.byte	W02
	.byte		v068
	.byte	W01
	.byte		v070
	.byte	W01
	.byte		v071
	.byte		TIE	, En3
	.byte	W01
	.byte	VOL	, v072
	.byte	W01
	.byte		v073
	.byte	W01
	.byte		v074
	.byte	W01
	.byte		v076
	.byte	W01
	.byte		v076
	.byte	W01
	.byte		v077
	.byte	W01
	.byte		v078
	.byte	W01
	.byte		v079
	.byte	W01
	.byte		v081
	.byte	W01
	.byte		v082
	.byte	W01
	.byte		v083
	.byte	W01
	.byte		v084
	.byte	W01
	.byte		v086
	.byte	W01
	.byte		v086
	.byte	W01
	.byte		v087
	.byte	W01
	.byte		v088
	.byte	W01
	.byte		v089
	.byte	W01
	.byte		v091
	.byte	W01
	.byte		v092
	.byte	W01
	.byte		v093
	.byte	W01
	.byte		v094
	.byte	W01
	.byte		v095
	.byte	W01
	.byte		v096
	.byte	W01
	.byte	PATT	
		.word	song029_8_2
	.byte	PATT	
		.word	song029_8_3
	.byte		EOT	, En3
	.byte	W72
	.byte	W96
	.byte	W96
	.byte	W96
	.byte	W96
	.byte	W96
	.byte	W96
	.byte	W96
	.byte	W24
	.byte	GOTO	
		.word	song029_8_4
	.byte	FINE

	@********************** Track  9 **********************@

	.global song029_9
song029_9:	@ 0x087B0615
	.byte	KEYSH	, 0
	.byte	VOICE	, 91
	.byte	VOL	, v063
	.byte	PAN	, c_v
	.byte	BENDR	, 3
	.byte	LFOS	, 23
	.byte	LFODL	, 22
	.byte	MOD	, 4
	.byte	MODT	, 0
	.byte	W96
	.byte	W96
	.byte	W24
song029_9_1:
	.byte	W72
	.byte	W96
	.byte	W96
	.byte	W96
	.byte	W96
	.byte	W96
	.byte	W96
	.byte	W96
	.byte	W96
	.byte	W96
	.byte	W96
	.byte	W96
	.byte	W96
	.byte	W96
	.byte	W96
	.byte	W96
	.byte	W96
	.byte	W96
	.byte	W24
	.byte		N04	, Gs3, v096
	.byte	W04
	.byte			Bn3
	.byte	W04
	.byte			Dn4
	.byte	W04
	.byte			Cn4, v092
	.byte	W04
	.byte			Bn3
	.byte	W04
	.byte			Dn4, v088
	.byte	W04
	.byte			Cs4
	.byte	W04
	.byte			As3
	.byte	W04
	.byte			An3, v084
	.byte	W04
	.byte			Cn4
	.byte	W04
	.byte			Bn3
	.byte	W04
	.byte			Gs3, v080
	.byte	W04
	.byte			Gn3
	.byte	W04
	.byte			As3
	.byte	W04
	.byte			An3, v076
	.byte	W04
	.byte			Fs3
	.byte	W04
	.byte			Fn3
	.byte	W04
	.byte			Gs3, v072
	.byte	W04
	.byte			Gn3
	.byte	W04
	.byte			En3
	.byte	W04
	.byte			Ds3, v068
	.byte	W04
	.byte			Fs3
	.byte	W04
	.byte			Fn3, v064
	.byte	W04
	.byte			Dn3
	.byte	W04
	.byte			Cs3
	.byte	W04
	.byte			En3, v060
	.byte	W04
	.byte			Ds3
	.byte	W04
	.byte			Cn3
	.byte	W04
	.byte			Bn2, v056
	.byte	W04
	.byte			Dn3
	.byte	W04
	.byte			Cs3
	.byte	W04
	.byte			As2, v052
	.byte	W04
	.byte			An2
	.byte	W04
	.byte			Cn3
	.byte	W04
	.byte			Bn2, v048
	.byte	W04
	.byte			Gs2
	.byte	W04
	.byte			Gn2, v044
	.byte	W04
	.byte			As2
	.byte	W04
	.byte			An2
	.byte	W04
	.byte			Fs2, v040
	.byte	W04
	.byte			Fn2
	.byte	W04
	.byte			Gs2
	.byte	W04
	.byte			Gn2, v036
	.byte	W04
	.byte			En2
	.byte	W04
	.byte			Ds2
	.byte	W04
	.byte			Fs2, v032
	.byte	W04
	.byte			Fn2
	.byte	W04
	.byte			Dn2
	.byte	W76
	.byte	W66
	.byte		N03	, Fs2, v048
	.byte	W03
	.byte			Gn2, v052
	.byte	W03
	.byte			An2, v056
	.byte	W03
	.byte			As2, v060
	.byte	W03
	.byte			Cn3
	.byte	W03
	.byte			Cs3, v064
	.byte	W03
	.byte			Ds3, v068
	.byte	W03
	.byte			En3, v072
	.byte	W03
	.byte			Fs3, v076
	.byte	W03
	.byte			Gn3, v080
	.byte	W03
	.byte			An3
	.byte	W03
	.byte			As3, v084
	.byte	W03
	.byte			Cn4, v088
	.byte	W03
	.byte			Cs4, v092
	.byte	W03
	.byte			Ds4, v096
	.byte	W03
	.byte			En4, v100
	.byte	W03
	.byte			Fs4, v104
	.byte	W03
	.byte			Gn4
	.byte	W03
	.byte		N04	, An3, v096
	.byte	W04
	.byte			Cn4
	.byte	W04
	.byte			Ds4
	.byte	W04
	.byte			Cs4, v092
	.byte	W04
	.byte			Cn4
	.byte	W04
	.byte			Ds4, v088
	.byte	W04
	.byte			Dn4
	.byte	W04
	.byte			Bn3
	.byte	W04
	.byte			As3, v084
	.byte	W04
	.byte			Cs4
	.byte	W04
	.byte			Cn4
	.byte	W04
	.byte			An3, v080
	.byte	W04
	.byte			Gs3
	.byte	W04
	.byte			Bn3
	.byte	W04
	.byte			As3, v076
	.byte	W04
	.byte			Gn3
	.byte	W04
	.byte			Fs3
	.byte	W04
	.byte			An3, v072
	.byte	W04
	.byte			Gs3
	.byte	W04
	.byte			Fn3
	.byte	W04
	.byte			En3, v068
	.byte	W04
	.byte			Gn3
	.byte	W04
	.byte			Fs3, v064
	.byte	W04
	.byte			Ds3
	.byte	W04
	.byte			Dn3
	.byte	W04
	.byte			Fn3, v060
	.byte	W04
	.byte			En3
	.byte	W04
	.byte			Cs3
	.byte	W04
	.byte			Cn3, v056
	.byte	W04
	.byte			Ds3
	.byte	W04
	.byte			Dn3
	.byte	W04
	.byte			Bn2, v052
	.byte	W04
	.byte			As2
	.byte	W04
	.byte			Cs3
	.byte	W04
	.byte			Cn3, v048
	.byte	W04
	.byte			An2
	.byte	W04
	.byte			Gs2, v044
	.byte	W04
	.byte			Bn2
	.byte	W04
	.byte			As2
	.byte	W04
	.byte			Gn2, v040
	.byte	W04
	.byte			Fs2
	.byte	W04
	.byte			An2
	.byte	W04
	.byte			Gs2, v036
	.byte	W04
	.byte			Fn2
	.byte	W04
	.byte			En2
	.byte	W04
	.byte			Gn2, v032
	.byte	W04
	.byte			Fs2
	.byte	W04
	.byte			Ds2
	.byte	W76
	.byte	W66
	.byte		N03	, Gn2, v048
	.byte	W03
	.byte			Gs2, v052
	.byte	W03
	.byte			As2, v056
	.byte	W03
	.byte			Bn2, v060
	.byte	W03
	.byte			Cs3
	.byte	W03
	.byte			Dn3, v064
	.byte	W03
	.byte			En3, v068
	.byte	W03
	.byte			Fn3, v072
	.byte	W03
	.byte			Gn3, v076
	.byte	W03
	.byte			Gs3, v080
	.byte	W03
	.byte			As3
	.byte	W03
	.byte			Bn3, v084
	.byte	W03
	.byte			Cs4, v088
	.byte	W03
	.byte			Dn4, v092
	.byte	W03
	.byte			En4, v096
	.byte	W03
	.byte			Fn4, v100
	.byte	W03
	.byte			Gn4, v104
	.byte	W03
	.byte			Gs4
	.byte	W03
	.byte	GOTO	
		.word	song029_9_1
	.byte	FINE

	@********************** Track  10 **********************@

	.global song029_10
song029_10:	@ 0x087B0791
	.byte	KEYSH	, 0
	.byte	VOICE	, 78
	.byte	VOL	, v048
	.byte	PAN	, c_v
	.byte	BENDR	, 3
	.byte	LFOS	, 23
	.byte	LFODL	, 22
	.byte	MOD	, 0
	.byte	MODT	, 0
	.byte	W96
	.byte	W96
	.byte	W24
song029_10_1:
	.byte	W72
	.byte	W96
	.byte	W96
	.byte	W96
	.byte	W96
	.byte	W96
	.byte	W96
	.byte	W96
	.byte	W96
	.byte	W96
	.byte	W96
	.byte	W96
	.byte	W96
	.byte	W96
	.byte	W96
	.byte	W96
	.byte	W96
	.byte	W96
	.byte	W96
	.byte	W96
	.byte	W48
	.byte		N04	, Cs3, v127
	.byte	W08
	.byte		N04	
	.byte	W08
	.byte		N06	
	.byte	W08
	.byte		N22	, Cn3
	.byte	W24
	.byte		N05	, Gs2
	.byte	W08
	.byte		N05	
	.byte	W08
	.byte		N05	
	.byte	W08
	.byte		N23	, Gn2
	.byte	W24
	.byte		N04	, Ds2
	.byte	W08
	.byte		N04	
	.byte	W08
	.byte		N06	
	.byte	W08
	.byte		N48	, Dn2
	.byte	W24
	.byte	W96
	.byte	W96
	.byte	W48
	.byte		N04	, Dn3
	.byte	W08
	.byte		N04	
	.byte	W08
	.byte		N06	
	.byte	W08
	.byte		N22	, Cs3
	.byte	W24
	.byte		N05	, An2
	.byte	W08
	.byte		N05	
	.byte	W08
	.byte		N05	
	.byte	W08
	.byte		N23	, Gs2
	.byte	W24
	.byte		N04	, En2
	.byte	W08
	.byte		N04	
	.byte	W08
	.byte		N06	
	.byte	W08
	.byte		N48	, Ds2
	.byte	W24
	.byte	W24
	.byte	GOTO	
		.word	song029_10_1
	.byte	FINE

	.align 2
	.global song029
song029:	@ 0x087B0804
	.byte	10		@ trackCount
	.byte	0		@ blockCount
	.byte	0		@ priority
	.byte	128		@ reverb

	.word	voicegroup000		@ voicegroup/tone

	.word	song029_1		@ track
	.word	song029_2		@ track
	.word	song029_3		@ track
	.word	song029_4		@ track
	.word	song029_5		@ track
	.word	song029_6		@ track
	.word	song029_7		@ track
	.word	song029_8		@ track
	.word	song029_9		@ track
	.word	song029_10		@ track
