	.include "MPlayDef.s"

	.section .rodata

	@********************** Track  1 **********************@

	.align 2
	.global song045_1
song045_1:	@ 0x087B90F8
	.byte	KEYSH	, 0
	.byte	TEMPO	, 57
	.byte	VOICE	, 77
	.byte	MOD	, 1
	.byte	BENDR	, 0
	.byte	VOL	, v085
	.byte	PAN	, c_v
	.byte		N04	, En4, v116
	.byte	W06
	.byte			Gn4
	.byte	W06
	.byte			Cn5
	.byte	W06
	.byte		N12	, En5
	.byte	W12
	.byte			Cn5
	.byte	W12
	.byte		N52	, Gn5
	.byte	W54
	.byte	FINE

	@********************** Track  2 **********************@

	.global song045_2
song045_2:	@ 0x087B9117
	.byte	KEYSH	, 0
	.byte	VOICE	, 34
	.byte	MOD	, 0
	.byte	BENDR	, 0
	.byte	VOL	, v085
	.byte	PAN	, c_v
	.byte		N04	, En3, v080
	.byte	W06
	.byte			Gn3
	.byte	W06
	.byte			Cn4
	.byte	W06
	.byte		N12	, En4
	.byte	W12
	.byte			Cn4
	.byte	W12
	.byte		N52	, Gn4
	.byte	W54
	.byte	FINE

	@********************** Track  3 **********************@

	.global song045_3
song045_3:	@ 0x087B9134
	.byte	KEYSH	, 0
	.byte	VOICE	, 35
	.byte	MOD	, 1
	.byte	BENDR	, 0
	.byte	VOL	, v085
	.byte	PAN	, c_v
	.byte		N05	, Cn3, v116
	.byte	W06
	.byte			En3
	.byte	W06
	.byte			Gn3
	.byte	W06
	.byte		N11	, Cn4
	.byte	W12
	.byte			An3
	.byte	W12
	.byte		N52	, Dn4
	.byte	W54
	.byte	FINE

	@********************** Track  4 **********************@

	.global song045_4
song045_4:	@ 0x087B9151
	.byte	KEYSH	, 0
	.byte	VOICE	, 48
	.byte	MOD	, 1
	.byte	BENDR	, 0
	.byte	VOL	, v085
	.byte	PAN	, c_v
	.byte		N05	, En3, v116
	.byte	W06
	.byte		N11	
	.byte	W12
	.byte		N05	, Gn3
	.byte	W12
	.byte		N05	
	.byte	W12
	.byte		N52	, Cn4
	.byte	W54
	.byte	FINE

	@********************** Track  5 **********************@

	.global song045_5
song045_5:	@ 0x087B916C
	.byte	KEYSH	, 0
	.byte	VOICE	, 61
	.byte	MOD	, 1
	.byte	BENDR	, 0
	.byte	VOL	, v085
	.byte	PAN	, c_v
	.byte		N05	, Cn3, v116
	.byte	W06
	.byte		N11	
	.byte	W12
	.byte		N05	, En3
	.byte	W12
	.byte		N05	
	.byte	W12
	.byte		N52	, Gn3
	.byte	W54
	.byte	FINE

	@********************** Track  6 **********************@

	.global song045_6
song045_6:	@ 0x087B9187
	.byte	KEYSH	, 0
	.byte	VOICE	, 62
	.byte	MOD	, 1
	.byte	BENDR	, 0
	.byte	VOL	, v085
	.byte	PAN	, c_v
	.byte		N05	, Gn2, v116
	.byte	W06
	.byte		N11	
	.byte	W12
	.byte		N05	, Cn3
	.byte	W12
	.byte		N05	
	.byte	W12
	.byte		N52	, En3
	.byte	W54
	.byte	FINE

	@********************** Track  7 **********************@

	.global song045_7
song045_7:	@ 0x087B91A2
	.byte	KEYSH	, 0
	.byte	VOICE	, 63
	.byte	MOD	, 1
	.byte	BENDR	, 0
	.byte	VOL	, v075
	.byte	PAN	, c_v
	.byte	W42
	.byte		N05	, Gn4, v108
	.byte	W06
	.byte			Fn4, v104
	.byte	W06
	.byte			En4, v100
	.byte	W06
	.byte			Dn4, v096
	.byte	W06
	.byte			Gn4, v092
	.byte	W06
	.byte			Fn4, v084
	.byte	W06
	.byte			En4, v080
	.byte	W06
	.byte			Dn4, v076
	.byte	W06
	.byte			Gn4, v072
	.byte	W06
	.byte			Fn4, v068
	.byte	W06
	.byte			En4, v060
	.byte	W06
	.byte			Dn4, v056
	.byte	W06
	.byte			Gn4, v052
	.byte	W06
	.byte			Fn4, v048
	.byte	W06
	.byte			En4, v040
	.byte	W06
	.byte			Dn4, v036
	.byte	W06
	.byte			Gn4, v032
	.byte	W06
	.byte			Fn4, v028
	.byte	W06
	.byte			En4, v024
	.byte	W06
	.byte			Dn4, v016
	.byte	W05
	.byte	FINE

	@********************** Track  8 **********************@

	.global song045_8
song045_8:	@ 0x087B91ED
	.byte	KEYSH	, 0
	.byte	VOICE	, 64
	.byte	MOD	, 1
	.byte	BENDR	, 0
	.byte	VOL	, v074
	.byte	PAN	, c_v
	.byte	W44
	.byte		N05	, Gn4, v108
	.byte	W06
	.byte			Fn4, v104
	.byte	W06
	.byte			En4, v100
	.byte	W06
	.byte			Dn4, v096
	.byte	W06
	.byte			Gn4, v088
	.byte	W06
	.byte			Fn4, v084
	.byte	W06
	.byte			En4, v080
	.byte	W06
	.byte			Dn4, v076
	.byte	W06
	.byte			Gn4, v072
	.byte	W04
	.byte	W02
	.byte			Fn4, v064
	.byte	W06
	.byte			En4, v060
	.byte	W06
	.byte			Dn4, v056
	.byte	W06
	.byte			Gn4, v052
	.byte	W06
	.byte			Fn4, v048
	.byte	W06
	.byte			En4, v044
	.byte	W06
	.byte			Dn4, v036
	.byte	W06
	.byte			Gn4, v032
	.byte	W06
	.byte			Fn4, v028
	.byte	W06
	.byte			En4, v024
	.byte	W06
	.byte			Dn4, v020
	.byte	W05
	.byte	FINE

	.align 2
	.global song045
song045:	@ 0x087B923C
	.byte	8		@ trackCount
	.byte	0		@ blockCount
	.byte	0		@ priority
	.byte	128		@ reverb

	.word	voicegroup006		@ voicegroup/tone

	.word	song045_1		@ track
	.word	song045_2		@ track
	.word	song045_3		@ track
	.word	song045_4		@ track
	.word	song045_5		@ track
	.word	song045_6		@ track
	.word	song045_7		@ track
	.word	song045_8		@ track
