	.include "sound/MPlayDef.s"

	.section .rodata

	@********************** Track  1 **********************@

	.align 2
	.global song053_1
song053_1:	@ 0x087BB970
	.byte	KEYSH	, 0
song053_1_1:
	.byte	TEMPO	, 95
	.byte	VOICE	, 123
	.byte	VOL	, v105
	.byte	PAN	, c_v
	.byte	BENDR	, 3
	.byte	W96
	.byte	W92
	.byte	W03
	.byte		N08	, Fn3, v127
	.byte	W01
	.byte	W08
	.byte		N14	, En3
	.byte	W15
	.byte		N23	, Cn3
	.byte	W24
	.byte		N08	, An2, v120
	.byte	W09
	.byte		N14	, Fn2
	.byte	W15
	.byte		N48	, Ds2, v127
	.byte	W24
	.byte	W01
	.byte	W32
	.byte		N20	
	.byte	W24
	.byte		N14	
	.byte	W15
	.byte		N40	, Fn2
	.byte	W24
	.byte	W01
	.byte	W23
	.byte		N32	
	.byte	W32
	.byte	W01
	.byte		N22	, Cn2
	.byte	W24
	.byte		N18	, Ds2
	.byte	W16
	.byte	W08
	.byte		N20	, Ds2, v120
	.byte	W24
	.byte		N17	, Ds2, v127
	.byte	W24
	.byte		N14	, Ds2, v112
	.byte	W15
	.byte		N08	, Cn2, v096
	.byte	W09
	.byte		N17	, Fn2, v120
	.byte	W16
	.byte	W08
	.byte		N15	, Fn2, v124
	.byte	W24
	.byte			Fn2, v116
	.byte	W24
	.byte		N14	, Fn2, v112
	.byte	W15
	.byte		N08	, Cn2, v104
	.byte	W09
	.byte		N18	, Gn2, v124
	.byte	W16
	.byte	W08
	.byte		N16	, Gn2, v127
	.byte	W24
	.byte		N15	, Gn2, v124
	.byte	W24
	.byte		N14	, Gn2, v120
	.byte	W15
	.byte		N08	, Dn2, v104
	.byte	W09
	.byte		N16	, An2, v120
	.byte	W16
	.byte	W08
	.byte		N17	, An2, v116
	.byte	W24
	.byte		N14	, An2, v120
	.byte	W24
	.byte			An2, v127
	.byte	W15
	.byte		N19	, Dn2
	.byte	W24
	.byte	W01
	.byte	W96
	.byte	W92
	.byte	W03
	.byte		N08	, Dn3
	.byte	W01
	.byte	W08
	.byte		N14	, Cn3
	.byte	W15
	.byte		N23	, An2, v124
	.byte	W24
	.byte		N08	, Fs2, v127
	.byte	W09
	.byte		N14	, Dn2, v116
	.byte	W15
	.byte		N32	, Cn2, v124
	.byte	W24
	.byte	W01
	.byte	W08
	.byte		N20	, Cn2, v116
	.byte	W24
	.byte			Cn2, v127
	.byte	W24
	.byte		N14	
	.byte	W15
	.byte		N22	, As1
	.byte	W24
	.byte	W01
	.byte	W08
	.byte		N20	
	.byte	W24
	.byte		N20	
	.byte	W24
	.byte		N20	
	.byte	W24
	.byte		N18	, Cn2
	.byte	W16
	.byte	W08
	.byte		N18	
	.byte	W24
	.byte		N19	, Cn2, v124
	.byte	W24
	.byte			Cn2, v127
	.byte	W24
	.byte		N18	, Dn2
	.byte	W16
	.byte	W08
	.byte		N17	
	.byte	W24
	.byte			Dn2, v124
	.byte	W24
	.byte		N14	
	.byte	W15
	.byte		N08	, An1, v112
	.byte	W09
	.byte		N18	, Dn2, v120
	.byte	W16
	.byte	W08
	.byte			Dn2, v124
	.byte	W24
	.byte		N14	
	.byte	W15
	.byte		N08	, An2, v127
	.byte	W09
	.byte		N14	, Dn2
	.byte	W15
	.byte		N24	, Ds2
	.byte	W24
	.byte	W01
	.byte	W08
	.byte		N20	
	.byte	W24
	.byte		N14	
	.byte	W15
	.byte		N08	, As2, v112
	.byte	W09
	.byte		N21	, Ds2, v108
	.byte	W24
	.byte		N19	, Ds2, v127
	.byte	W16
	.byte	W08
	.byte		N18	, Ds2, v116
	.byte	W24
	.byte		N14	, Ds2, v120
	.byte	W15
	.byte		N08	, As2, v112
	.byte	W09
	.byte		N21	, Ds2, v127
	.byte	W24
	.byte		N16	, Fn2, v120
	.byte	W16
	.byte	W08
	.byte		N18	
	.byte	W24
	.byte		N14	
	.byte	W15
	.byte		N08	, Cn3, v127
	.byte	W09
	.byte		N19	, Fn2, v120
	.byte	W24
	.byte		N17	, Fn2, v124
	.byte	W16
	.byte	W08
	.byte		N15	, Fn2, v120
	.byte	W24
	.byte		N14	
	.byte	W15
	.byte		N08	, Cn3, v112
	.byte	W09
	.byte		N14	, Fn2, v116
	.byte	W15
	.byte		N24	, Ds2, v127
	.byte	W24
	.byte	W01
	.byte	W08
	.byte		N19	
	.byte	W24
	.byte		N17	
	.byte	W24
	.byte		N14	, Ds2, v116
	.byte	W15
	.byte		N08	, As2
	.byte	W09
	.byte		N20	, Ds2, v108
	.byte	W16
	.byte	W08
	.byte		N19	, Ds2, v127
	.byte	W24
	.byte		N16	, Ds2, v100
	.byte	W24
	.byte		N21	, Ds2, v112
	.byte	W24
	.byte		N17	, Fn2, v124
	.byte	W16
	.byte	W08
	.byte		N18	, Fn2, v120
	.byte	W24
	.byte		N14	
	.byte	W15
	.byte		N08	, Cn3
	.byte	W09
	.byte		N14	, Fn2, v127
	.byte	W15
	.byte		N22	, Gn2
	.byte	W24
	.byte	W01
	.byte	W08
	.byte		N18	
	.byte	W24
	.byte		N14	
	.byte	W15
	.byte		N08	, Dn3, v120
	.byte	W09
	.byte		N14	, Gn2, v127
	.byte	W15
	.byte		N22	, An2
	.byte	W24
	.byte	W01
	.byte	W08
	.byte		N20	
	.byte	W24
	.byte		N17	
	.byte	W24
	.byte		N14	
	.byte	W15
	.byte		N08	, En2, v116
	.byte	W09
	.byte		N18	, An2, v127
	.byte	W16
	.byte	W08
	.byte		N16	
	.byte	W24
	.byte		N14	
	.byte	W15
	.byte		N07	, Gn2
	.byte	W09
	.byte		N14	, Fs2
	.byte	W15
	.byte		N16	, Fn2
	.byte	W24
	.byte	W01
	.byte	GOTO	
		.int	song053_1_1
	.byte	FINE

	@********************** Track  2 **********************@

	.global song053_2
song053_2:	@ 0x087BBB0B
	.byte	KEYSH	, 0
song053_2_6:
	.byte	VOICE	, 127
	.byte	VOL	, v105
	.byte	PAN	, c_v
	.byte	BENDR	, 3
	.byte	W96
	.byte	W80
	.byte		N12	, Cs1, v127
	.byte	W16
song053_2_2:
	.byte		N07	, Cn1, v127
	.byte	W08
	.byte		N12	, Cs1
	.byte	W16
	.byte			Cn1
	.byte		N24	, Ds1, v072
	.byte	W24
	.byte		N07	, Cs1, v127
	.byte	W08
	.byte		N12	, Cn1
	.byte	W16
	.byte		N12	
	.byte		N24	, Ds1, v068
	.byte	W24
	.byte	PEND
song053_2_3:
	.byte	W24
	.byte		N07	, Cn1, v127
	.byte	W08
	.byte		N12	, Cs1
	.byte	W16
	.byte		N07	, Cn1
	.byte	W08
	.byte		N12	, Cs1
	.byte	W16
	.byte			Cn1
	.byte		N24	, Ds1, v060
	.byte	W24
	.byte	PEND
	.byte	W08
	.byte		N12	, Cn1, v127
	.byte		N24	, Ds1, v060
	.byte	W48
	.byte		N12	, Cn1, v127
	.byte		N11	, Ds1, v060
	.byte	W16
	.byte		N12	, Cn1, v127
	.byte		N24	, Ds1, v060
	.byte	W24
song053_2_1:
	.byte	W08
	.byte		N12	, Cs1, v127
	.byte		N11	, Dn1, v056
	.byte	W16
	.byte		N07	
	.byte	W08
	.byte		N12	, Cn1, v127
	.byte		N24	, Ds1, v060
	.byte	W24
	.byte		N12	, Cs1, v127
	.byte		N11	, Dn1, v056
	.byte	W16
	.byte		N07	
	.byte	W08
	.byte		N12	, Cn1, v127
	.byte		N24	, Ds1, v060
	.byte	W16
	.byte	PEND
	.byte	PATT	
		.int	song053_2_1
	.byte	PATT	
		.int	song053_2_1
song053_2_5:
	.byte	W08
	.byte		N12	, Cs1, v127
	.byte		N11	, Dn1, v056
	.byte	W16
	.byte		N07	
	.byte	W08
	.byte		N12	, Cn1, v127
	.byte		N24	, Ds1, v060
	.byte	W24
	.byte		N12	, Cs1, v127
	.byte		N11	, Dn1, v056
	.byte	W16
	.byte		N12	, Cn1, v127
	.byte		N23	, Ds1, v080
	.byte	W24
	.byte	PEND
	.byte	W96
	.byte	W80
	.byte		N12	, Cs1, v127
	.byte	W16
	.byte	PATT	
		.int	song053_2_2
	.byte	PATT	
		.int	song053_2_3
	.byte	PATT	
		.int	song053_2_1
	.byte	PATT	
		.int	song053_2_1
	.byte	PATT	
		.int	song053_2_1
song053_2_4:
	.byte	W08
	.byte		N12	, Cs1, v127
	.byte		N11	, Dn1, v056
	.byte	W16
	.byte		N07	
	.byte	W08
	.byte		N12	, Cn1, v127
	.byte		N24	, Ds1, v060
	.byte	W16
	.byte		N07	, Cs1, v127
	.byte	W08
	.byte		N12	
	.byte		N11	, Dn1, v056
	.byte	W16
	.byte		N12	, Cn1, v127
	.byte		N24	, Ds1, v060
	.byte	W24
	.byte	PEND
	.byte	PATT	
		.int	song053_2_1
	.byte	PATT	
		.int	song053_2_1
	.byte	PATT	
		.int	song053_2_1
	.byte	PATT	
		.int	song053_2_4
	.byte	PATT	
		.int	song053_2_1
	.byte	PATT	
		.int	song053_2_1
	.byte	PATT	
		.int	song053_2_4
	.byte	W08
	.byte		N12	, Cs1, v127
	.byte		N11	, Dn1, v056
	.byte	W16
	.byte		N07	
	.byte	W08
	.byte		N12	, Cn1, v127
	.byte		N24	, Ds1, v060
	.byte	W16
	.byte		N07	, Cs1, v127
	.byte	W08
	.byte		N12	, Cn1
	.byte		N11	, Dn1, v056
	.byte	W16
	.byte		N12	, Cn1, v127
	.byte		N24	, Ds1, v060
	.byte	W24
	.byte	PATT	
		.int	song053_2_1
	.byte	PATT	
		.int	song053_2_5
	.byte	GOTO	
		.int	song053_2_6
	.byte	FINE

	@********************** Track  3 **********************@

	.global song053_3
song053_3:	@ 0x087BBC40
	.byte	KEYSH	, 0
song053_3_1:
	.byte	VOICE	, 87
	.byte	VOL	, v062
	.byte	PAN	, c_v
	.byte	BENDR	, 3
	.byte	LFOS	, 56
	.byte	LFODL	, 0
	.byte	MOD	, 34
	.byte	MODT	, 2
	.byte		N07	, An3, v108
	.byte	W08
	.byte		N11	, Gn3
	.byte	W24
	.byte		N13	, An3, v116
	.byte	W24
	.byte		N12	, Fn3, v108
	.byte	W24
	.byte		N10	, An3
	.byte	W16
	.byte		N07	, An3, v092
	.byte	W08
	.byte		N10	, Fn3, v104
	.byte	W24
	.byte		N15	, Fn3, v096
	.byte	W16
	.byte		N08	, Fn3, v108
	.byte	W24
	.byte		N36	, Fn3, v112
	.byte	W24
	.byte	W24
	.byte		N44	, Cn3, v104
	.byte	W44
	.byte	W03
	.byte			Ds3, v116
	.byte		N48	, Gn3, v112
	.byte	W24
	.byte	W01
	.byte	W32
	.byte		N14	, Ds3, v108
	.byte		N14	, Gn3, v104
	.byte	W15
	.byte		N05	, Cn3, v056
	.byte	W09
	.byte		N13	, Ds3, v104
	.byte		N13	, Gn3, v084
	.byte	W15
	.byte		N30	, Fn3, v100
	.byte		N30	, An3, v096
	.byte	W24
	.byte	W01
	.byte	W08
	.byte		N40	, Fn3, v120
	.byte		N40	, An3, v112
	.byte	W48
	.byte		N14	, Fn3, v120
	.byte		N14	, An3, v124
	.byte	W15
	.byte		N32	, Ds3
	.byte		N32	, Gn3, v108
	.byte	W24
	.byte	W01
	.byte	W08
	.byte		N19	, Ds3, v096
	.byte		N01	, Gn3, v088
	.byte	W24
	.byte		N17	, Ds3, v104
	.byte		N16	, Gn3, v116
	.byte	W24
	.byte		N14	, Ds3, v080
	.byte		N14	, Gn3, v096
	.byte	W15
	.byte		N03	, As2, v084
	.byte	W09
	.byte		N18	, Fn3
	.byte		N20	, An3, v088
	.byte	W16
	.byte	W08
	.byte		N18	, Fn3, v076
	.byte		N17	, An3, v096
	.byte	W24
	.byte		N16	, Fn3, v088
	.byte		N14	, An3, v112
	.byte	W24
	.byte			Fn3, v076
	.byte		N14	, An3, v084
	.byte	W15
	.byte		N08	, Cn3, v072
	.byte	W09
	.byte		N15	, Gn3, v056
	.byte		N20	, Bn3, v076
	.byte	W16
	.byte	W08
	.byte		N18	, Gn3, v096
	.byte		N20	, Bn3
	.byte	W24
	.byte		N18	, Gn3
	.byte		N16	, Bn3, v100
	.byte	W24
	.byte		N15	, Gn3, v096
	.byte		N17	, Bn3, v088
	.byte	W15
	.byte		N09	, Dn3, v080
	.byte	W09
	.byte		N17	, An3, v100
	.byte		N19	, Cs4, v108
	.byte	W16
	.byte	W08
	.byte			An3, v096
	.byte		N19	, Cs4, v116
	.byte	W24
	.byte		N15	, An3, v100
	.byte		N16	, Cs4, v108
	.byte	W24
	.byte		N14	, En3, v104
	.byte		N14	, Cs4, v116
	.byte	W15
	.byte		N18	, Fs3, v108
	.byte		N18	, Dn4, v112
	.byte	W24
	.byte	W01
	.byte		N07	, Fs3, v108
	.byte	W08
	.byte		N11	, En3
	.byte	W24
	.byte		N13	, Fs3, v116
	.byte	W24
	.byte		N12	, Dn3, v108
	.byte	W24
	.byte		N10	, Fs3
	.byte	W16
	.byte		N07	, Fs3, v092
	.byte	W08
	.byte		N10	, Dn3, v104
	.byte	W24
	.byte		N15	, Dn3, v096
	.byte	W16
	.byte		N08	, Dn3, v108
	.byte	W24
	.byte		N36	, Dn3, v112
	.byte	W24
	.byte	W24
	.byte		N44	, An2, v104
	.byte	W44
	.byte	W03
	.byte			En3, v116
	.byte		N44	, Gn3
	.byte	W24
	.byte	W01
	.byte	W32
	.byte		N17	, En3, v100
	.byte		N18	, Gn3, v108
	.byte	W24
	.byte		N14	, En3, v076
	.byte		N14	, Gn3, v100
	.byte	W15
	.byte		N48	, Dn3, v104
	.byte		N52	, Fn3, v100
	.byte	W24
	.byte	W01
	.byte	W32
	.byte		N04	, Cs3, v112
	.byte		N21	, Fn3, v108
	.byte	W05
	.byte		N15	, Dn3, v060
	.byte	W19
	.byte		N10	, Dn3, v096
	.byte		N11	, Fn3
	.byte	W15
	.byte		N52	, En3, v100
	.byte		N52	, Gn3, v092
	.byte	W24
	.byte	W01
	.byte	W32
	.byte		N12	, En3, v084
	.byte		N15	, Gn3, v108
	.byte	W15
	.byte		N07	, Cn3, v076
	.byte	W09
	.byte		N09	, En3, v092
	.byte		N11	, Gn3, v080
	.byte	W15
	.byte		N54	, Fs3, v096
	.byte		N54	, An3
	.byte	W24
	.byte	W01
	.byte	W32
	.byte		N03	, Fs3, v068
	.byte		N16	, An3, v084
	.byte	W15
	.byte		N23	, Fs3, v092
	.byte	W09
	.byte		N19	, An3, v108
	.byte	W24
	.byte		N30	, Fs3
	.byte		N30	, Dn4, v116
	.byte	W16
	.byte	W23
	.byte		N07	, Fs3, v096
	.byte		N08	, Dn4, v104
	.byte	W24
	.byte			Fs3, v100
	.byte		N10	, Dn4, v104
	.byte	W24
	.byte		N96	, Gn3, v100
	.byte		TIE	, As3, v108
	.byte	W24
	.byte	W01
	.byte	W72
	.byte		EOT	
	.byte	W08
	.byte		N14	, Fs3, v112
	.byte		N24	, As3, v100
	.byte	W15
	.byte		N07	, Gn3, v096
	.byte	W01
	.byte	W23
	.byte		N03	
	.byte		N08	, As3, v112
	.byte	W24
	.byte		N23	, Gn3, v096
	.byte		N23	, As3, v100
	.byte	W24
	.byte		N96	, An3, v096
	.byte		N96	, Cn4
	.byte	W24
	.byte	W01
	.byte	W80
	.byte		N05	, Gs3, v112
	.byte		N22	, Cn4, v096
	.byte	W06
	.byte		N18	, An3, v100
	.byte	W10
	.byte	W08
	.byte		N16	, Fn3
	.byte		N15	, Cn4, v068
	.byte	W24
	.byte		N13	, Fn3, v096
	.byte		N15	, Cn4
	.byte	W15
	.byte		N06	, Cn3, v068
	.byte	W09
	.byte		N11	, Fn3, v108
	.byte		N14	, Cn4, v088
	.byte	W15
	.byte		N60	, Gn3, v112
	.byte		N60	, As3
	.byte	W24
	.byte	W01
	.byte	W44
	.byte	W03
	.byte		N05	, Gn3, v096
	.byte		N07	, As3, v127
	.byte	W32
	.byte	W01
	.byte		N28	, Gn3, v092
	.byte		N32	, As3, v116
	.byte	W16
	.byte	W23
	.byte		N08	, Ds3, v112
	.byte		N06	, Gn3, v092
	.byte	W24
	.byte		N24	, Ds3, v112
	.byte		N24	, Gn3, v104
	.byte	W24
	.byte	W01
	.byte		N40	, Fn3, v112
	.byte		N40	, An3
	.byte	W24
	.byte	W32
	.byte		N15	
	.byte		N17	, Cn4
	.byte	W15
	.byte		N08	, Fn3, v080
	.byte	W09
	.byte		N13	, An3, v096
	.byte		N12	, Cn4, v084
	.byte	W15
	.byte		N48	, Bn3, v096
	.byte		N48	, Dn4, v088
	.byte	W24
	.byte	W01
	.byte	W32
	.byte		N21	, Gn3, v104
	.byte		N22	, Bn3, v116
	.byte	W24
	.byte		N09	, Gn3, v104
	.byte		N14	, Bn3, v112
	.byte	W15
	.byte		N64	, An3, v104
	.byte		N66	, Cs4, v112
	.byte	W24
	.byte	W01
	.byte	W44
	.byte	W03
	.byte		N08	, Cs3, v092
	.byte		N08	, En3
	.byte	W09
	.byte		N13	, En3, v112
	.byte		N13	, An3
	.byte	W15
	.byte		N07	
	.byte		N07	, Cs4
	.byte	W09
	.byte		N36	, An3, v100
	.byte		N15	, Cs4, v127
	.byte	W16
	.byte		N07	, Dn4, v068
	.byte	W08
	.byte		N13	, Cs4, v120
	.byte	W15
	.byte		N08	, En3, v088
	.byte		N08	, An3
	.byte	W09
	.byte		N14	, Cs3, v100
	.byte		N14	, Gn3
	.byte	W15
	.byte		N08	, Cn3, v104
	.byte		N08	, Fs3
	.byte	W09
	.byte		N14	, Cs3, v096
	.byte		N14	, Gn3
	.byte	W15
	.byte		N08	, Cn3, v100
	.byte		N08	, Fn3
	.byte	W24
	.byte	W01
	.byte	GOTO	
		.int	song053_3_1
	.byte	FINE

	@********************** Track  4 **********************@

	.global song053_4
song053_4:	@ 0x087BBEC4
	.byte	KEYSH	, 0
song053_4_1:
	.byte	VOICE	, 82
	.byte	VOL	, v099
	.byte	PAN	, c_v
	.byte	BENDR	, 3
	.byte	LFOS	, 21
	.byte	LFODL	, 22
	.byte	MOD	, 4
	.byte	MODT	, 0
	.byte		N07	, Fn3, v108
	.byte	W08
	.byte		N11	, En3
	.byte	W24
	.byte		N13	, Fn3, v116
	.byte	W24
	.byte		N12	, Cn3, v108
	.byte	W24
	.byte		N10	, Ds3
	.byte	W16
	.byte		N07	, Ds3, v092
	.byte	W08
	.byte		N10	, Dn3, v104
	.byte	W24
	.byte		N15	, Cn3, v096
	.byte	W16
	.byte		N08	, Dn3, v108
	.byte	W24
	.byte		N36	, Cn3, v112
	.byte	W24
	.byte	W24
	.byte		N44	, An2, v104
	.byte	W44
	.byte	W03
	.byte		N21	, As2, v108
	.byte	W24
	.byte	W01
	.byte		N07	, As2, v084
	.byte	W08
	.byte		N11	, An2, v096
	.byte	W24
	.byte		N13	, Gn2, v104
	.byte	W16
	.byte		N07	, An2, v096
	.byte	W08
	.byte		N15	, As2, v116
	.byte	W16
	.byte		N42	, An2, v100
	.byte	W24
	.byte	W24
	.byte		N44	, Fn2, v096
	.byte	W56
	.byte		N36	, Gn2, v100
	.byte	W16
	.byte	W24
	.byte		N30	, An2, v096
	.byte	W32
	.byte		N24	, As2, v108
	.byte	W24
	.byte		N36	, An2, v104
	.byte	W16
	.byte	W24
	.byte		N30	, As2, v100
	.byte	W32
	.byte		N18	, Cn3, v088
	.byte	W24
	.byte		N15	, Bn2, v096
	.byte	W16
	.byte		N09	, Cn3
	.byte	W24
	.byte		N48	, Dn3, v100
	.byte	W56
	.byte		N15	, Cs3, v108
	.byte	W16
	.byte		N10	, Dn3, v104
	.byte	W24
	.byte		N56	, En3, v108
	.byte	W72
	.byte		N07	, Dn3, v112
	.byte	W08
	.byte		N09	, Cs3, v104
	.byte	W24
	.byte		N11	, Dn3
	.byte	W24
	.byte		N12	, An2, v096
	.byte	W24
	.byte		N10	, Cn3
	.byte	W16
	.byte		N07	
	.byte	W08
	.byte		N10	, Bn2, v092
	.byte	W24
	.byte		N15	, An2, v096
	.byte	W16
	.byte		N09	, Bn2, v084
	.byte	W24
	.byte		N44	, An2, v108
	.byte	W24
	.byte	W24
	.byte			Fs2, v104
	.byte	W48
	.byte		N14	, Gn2, v096
	.byte	W24
	.byte		N07	, Gn2, v092
	.byte	W08
	.byte		N15	, Fs2, v104
	.byte	W24
	.byte			En2, v088
	.byte	W16
	.byte		N07	, Fs2, v080
	.byte	W08
	.byte		N15	, Gn2, v108
	.byte	W16
	.byte		N42	, Fn2, v100
	.byte	W24
	.byte	W24
	.byte		N30	, Dn2, v104
	.byte	W32
	.byte		N20	, Fn2, v096
	.byte	W24
	.byte		N36	, Gn2, v112
	.byte	W16
	.byte	W24
	.byte		N30	, En2, v092
	.byte	W32
	.byte		N11	, Gn2, v104
	.byte	W24
	.byte		N15	, Fs2, v112
	.byte	W16
	.byte		N10	, Gn2, v108
	.byte	W24
	.byte		N92	, An2, v124
	.byte	W72
	.byte	W24
	.byte		N07	, An2, v092
	.byte	W08
	.byte		N14	, Dn2, v104
	.byte	W16
	.byte		N07	, Fs2
	.byte	W08
	.byte		N15	, An2, v112
	.byte	W16
	.byte		N44	, As2, v124
	.byte	W24
	.byte	W24
	.byte		N48	, Gn2, v108
	.byte	W56
	.byte		N10	, Ds3
	.byte	W16
	.byte		N07	, Ds3, v104
	.byte	W08
	.byte		N11	, Dn3, v116
	.byte	W24
	.byte		N15	, Cn3, v092
	.byte	W16
	.byte		N07	, Dn3, v112
	.byte	W24
	.byte		N44	, Cn3, v104
	.byte	W24
	.byte	W24
	.byte		N84	, An2, v096
	.byte	W72
	.byte	W24
	.byte		N07	
	.byte	W08
	.byte		N14	, Fn2
	.byte	W16
	.byte		N07	, Gn2, v100
	.byte	W08
	.byte		N15	, An2, v112
	.byte	W16
	.byte		N44	, As2
	.byte	W24
	.byte	W24
	.byte			Gn2, v100
	.byte	W56
	.byte		N10	, Ds3, v112
	.byte	W16
	.byte		N07	, Ds3, v096
	.byte	W08
	.byte		N10	, Dn3, v100
	.byte	W24
	.byte		N14	, Cn3, v092
	.byte	W16
	.byte		N09	, Dn3, v096
	.byte	W24
	.byte		N42	, Cn3
	.byte	W24
	.byte	W24
	.byte		N23	, An2, v084
	.byte	W24
	.byte		N07	, Bn2, v096
	.byte	W08
	.byte		N15	, Cn3
	.byte	W16
	.byte		N56	, Dn3, v108
	.byte	W24
	.byte	W48
	.byte		N07	, Cs3, v084
	.byte	W08
	.byte		N15	, Dn3, v104
	.byte	W16
	.byte		TIE	, En3, v108
	.byte	W24
	.byte	W96
	.byte	W28
	.byte		EOT	
	.byte	W68
	.byte	GOTO	
		.int	song053_4_1
	.byte	FINE

	@********************** Track  5 **********************@

	.global song053_5
song053_5:	@ 0x087BC042
	.byte	KEYSH	, 0
song053_5_1:
	.byte	VOICE	, 12
	.byte	VOL	, v066
	.byte	PAN	, c_v
	.byte	BENDR	, 3
	.byte	LFOS	, 13
	.byte	LFODL	, 22
	.byte	MOD	, 4
	.byte	MODT	, 0
	.byte		N07	, Cn4, v108
	.byte	W08
	.byte		N11	
	.byte	W24
	.byte		N13	, Cn4, v116
	.byte	W24
	.byte		N12	, An3, v108
	.byte	W24
	.byte		N10	, Cn4
	.byte	W16
	.byte		N07	, Cn4, v092
	.byte	W08
	.byte		N10	, As3, v104
	.byte	W24
	.byte		N15	, An3, v096
	.byte	W16
	.byte		N08	, As3, v108
	.byte	W24
	.byte		N36	, An3, v112
	.byte	W24
	.byte	W24
	.byte		N44	, Fn3, v104
	.byte	W44
	.byte	W03
	.byte		N21	, Gn3, v108
	.byte	W24
	.byte	W01
	.byte		N07	, Gn3, v084
	.byte	W08
	.byte		N11	, Fn3, v096
	.byte	W24
	.byte		N13	, Ds3, v104
	.byte	W16
	.byte		N07	, Fn3, v096
	.byte	W08
	.byte		N15	, Gn3, v116
	.byte	W16
	.byte		N42	, Fn3, v100
	.byte	W24
	.byte	W24
	.byte		N44	, Cn3, v096
	.byte	W56
	.byte		N36	, Ds3, v100
	.byte	W16
	.byte	W24
	.byte		N30	, Fn3, v096
	.byte	W32
	.byte		N24	, Gn3, v108
	.byte	W24
	.byte		N36	, Fn3, v104
	.byte	W16
	.byte	W24
	.byte		N30	, Gn3, v100
	.byte	W32
	.byte		N18	, An3, v088
	.byte	W24
	.byte		N15	, Gn3, v096
	.byte	W16
	.byte		N09	, An3
	.byte	W24
	.byte		N48	, Bn3, v100
	.byte	W56
	.byte		N15	, An3, v108
	.byte	W16
	.byte		N10	, Bn3, v104
	.byte	W24
	.byte		N56	, Cs4, v108
	.byte	W72
	.byte		N07	, An3
	.byte	W08
	.byte		N11	
	.byte	W24
	.byte		N13	, An3, v116
	.byte	W24
	.byte		N12	, Fs3, v108
	.byte	W24
	.byte		N10	, An3
	.byte	W16
	.byte		N07	, An3, v092
	.byte	W08
	.byte		N10	, Gn3, v104
	.byte	W24
	.byte		N15	, Fs3, v096
	.byte	W16
	.byte		N08	, Gn3, v108
	.byte	W24
	.byte		N36	, Fs3, v112
	.byte	W24
	.byte	W24
	.byte		N44	, Dn3, v104
	.byte	W44
	.byte	W03
	.byte		N21	, En3, v108
	.byte	W24
	.byte	W01
	.byte		N07	, En3, v084
	.byte	W08
	.byte		N11	, Dn3, v096
	.byte	W24
	.byte		N13	, Cn3, v104
	.byte	W16
	.byte		N07	, Dn3, v096
	.byte	W08
	.byte		N15	, En3, v116
	.byte	W16
	.byte		N42	, Dn3, v100
	.byte	W24
	.byte	W24
	.byte		N30	, As2, v104
	.byte	W32
	.byte		N20	, Dn3, v096
	.byte	W24
	.byte		N36	, En3, v112
	.byte	W16
	.byte	W24
	.byte		N30	, Cn3, v092
	.byte	W32
	.byte		N11	, En3, v104
	.byte	W24
	.byte		N15	, Dn3, v112
	.byte	W16
	.byte		N10	, En3, v108
	.byte	W24
	.byte		N92	, Fs3, v124
	.byte	W72
	.byte	W24
	.byte		N07	, Fs3, v092
	.byte	W08
	.byte		N14	, An2, v104
	.byte	W16
	.byte		N07	, Dn3
	.byte	W08
	.byte		N15	, Fs3, v112
	.byte	W16
	.byte		N44	, Gn3, v124
	.byte	W24
	.byte	W24
	.byte		N48	, Ds3, v108
	.byte	W56
	.byte		N10	, Gn3
	.byte	W16
	.byte		N07	, Gn3, v104
	.byte	W08
	.byte		N11	, Fn3, v116
	.byte	W24
	.byte		N15	, Ds3, v092
	.byte	W16
	.byte		N07	, Fn3, v112
	.byte	W24
	.byte		N44	, An3, v104
	.byte	W24
	.byte	W24
	.byte		N84	, Fn3, v096
	.byte	W72
	.byte	W24
	.byte		N07	
	.byte	W08
	.byte		N14	, Cn3
	.byte	W16
	.byte		N07	, En3, v100
	.byte	W08
	.byte		N15	, Fn3, v112
	.byte	W16
	.byte		N44	, Gn3
	.byte	W24
	.byte	W24
	.byte			Ds3, v100
	.byte	W56
	.byte		N10	, Gn3, v112
	.byte	W16
	.byte		N07	, Gn3, v096
	.byte	W08
	.byte		N10	, Fn3, v100
	.byte	W24
	.byte		N14	, Ds3, v092
	.byte	W16
	.byte		N09	, Fn3, v096
	.byte	W24
	.byte		N42	, An3
	.byte	W24
	.byte	W24
	.byte		N23	, Fn3, v084
	.byte	W24
	.byte		N07	, Gn3, v096
	.byte	W08
	.byte		N15	, An3
	.byte	W16
	.byte		N56	, Bn3, v108
	.byte	W24
	.byte	W48
	.byte		N07	, An3, v084
	.byte	W08
	.byte		N15	, Bn3, v104
	.byte	W16
	.byte		TIE	, Cs4, v108
	.byte	W24
	.byte	W96
	.byte	W28
	.byte		EOT	
	.byte	W68
	.byte	GOTO	
		.int	song053_5_1
	.byte	FINE

	.align 2
	.global song053
song053:	@ 0x087BC1C4
	.byte	5		@ trackCount
	.byte	0		@ blockCount
	.byte	0		@ priority
	.byte	128		@ reverb

	.int	voicegroup000		@ voicegroup/tone

	.int	song053_1		@ track
	.int	song053_2		@ track
	.int	song053_3		@ track
	.int	song053_4		@ track
	.int	song053_5		@ track
