	.include "MPlayDef.s"

	.section .rodata

	@********************** Track  1 **********************@

	.align 2
	.global song008_1
song008_1:	@ 0x0879EF40
	.byte	KEYSH	, 0
song008_1_1:
	.byte	TEMPO	, 55
	.byte	VOICE	, 64
	.byte	VOL	, v094
	.byte	PAN	, c_v-24
	.byte	W24
	.byte		N08	, Gn4, v127
	.byte	W16
	.byte		N08	
	.byte	W08
	.byte		N24	, Fs4
	.byte	W24
	.byte		N24	
	.byte	W24
	.byte		N08	, Gn4
	.byte	W96
	.byte	W24
	.byte		N08	
	.byte	W08
	.byte		N08	
	.byte	W08
	.byte		N08	
	.byte	W08
	.byte		N16	, Fs4
	.byte	W24
	.byte		N08	, An4
	.byte	W24
	.byte			Gn4
	.byte	W96
	.byte			An4
	.byte	W08
	.byte			Fn4
	.byte	W08
	.byte			Gn4
	.byte	W08
	.byte			An4
	.byte	W16
	.byte			Bn4
	.byte	W08
	.byte		N24	
	.byte	W24
	.byte		N08	, Gn4
	.byte	W24
	.byte			An4
	.byte	W08
	.byte			Fn4
	.byte	W08
	.byte			Gn4
	.byte	W08
	.byte			Fn4
	.byte	W16
	.byte			An4
	.byte	W08
	.byte		N16	, Bn4
	.byte	W24
	.byte		N08	, Gn4
	.byte	W24
	.byte			An4
	.byte	W24
	.byte			Bn4
	.byte	W24
	.byte			Cn5
	.byte	W48
	.byte	GOTO	
		.word	song008_1_1
	.byte	FINE

	@********************** Track  2 **********************@

	.global song008_2
song008_2:	@ 0x0879EF93
	.byte	KEYSH	, 0
song008_2_1:
	.byte	VOICE	, 64
	.byte	VOL	, v094
	.byte	PAN	, c_v
	.byte	W24
	.byte		N08	, En3, v127
	.byte	W16
	.byte		N08	
	.byte	W08
	.byte		N24	, Ds3
	.byte	W24
	.byte		N24	
	.byte	W24
	.byte		N08	, En3
	.byte	W96
	.byte	W24
	.byte		N08	
	.byte	W08
	.byte		N08	
	.byte	W08
	.byte		N08	
	.byte	W08
	.byte		N16	, Ds3
	.byte	W24
	.byte		N08	
	.byte	W24
	.byte			En3
	.byte	W96
	.byte			Fn2
	.byte	W08
	.byte			Cn2
	.byte	W08
	.byte		N08	
	.byte	W08
	.byte			Fn2
	.byte	W16
	.byte			Gn2
	.byte	W08
	.byte		N24	
	.byte	W24
	.byte		N08	, Dn2
	.byte	W24
	.byte			Fn2
	.byte	W08
	.byte			Cn2
	.byte	W08
	.byte		N08	
	.byte	W08
	.byte		N08	
	.byte	W16
	.byte			Fn2
	.byte	W08
	.byte		N16	, Gn2
	.byte	W24
	.byte		N08	, Dn2
	.byte	W24
	.byte			Fn2
	.byte	W24
	.byte			Gn2
	.byte	W24
	.byte		N08	
	.byte	W48
	.byte	GOTO	
		.word	song008_2_1
	.byte	FINE

	@********************** Track  3 **********************@

	.global song008_3
song008_3:	@ 0x0879EFE3
	.byte	KEYSH	, 0
song008_3_1:
	.byte	VOICE	, 55
	.byte	VOL	, v069
	.byte	PAN	, c_v
	.byte	W24
	.byte		N08	, Cn3, v127
	.byte	W16
	.byte		N08	
	.byte	W08
	.byte		N24	
	.byte	W24
	.byte		N24	
	.byte	W24
	.byte		N08	
	.byte	W96
	.byte	W24
	.byte		N08	
	.byte	W08
	.byte		N08	
	.byte	W08
	.byte		N08	
	.byte	W08
	.byte		N16	
	.byte	W24
	.byte		N08	
	.byte	W24
	.byte		N08	
	.byte	W96
	.byte		N08	
	.byte	W08
	.byte			An2
	.byte	W08
	.byte		N08	
	.byte	W08
	.byte			Cn3
	.byte	W16
	.byte			Dn3
	.byte	W08
	.byte		N16	
	.byte	W24
	.byte		N08	, Bn2
	.byte	W24
	.byte			Cn3
	.byte	W08
	.byte			An2
	.byte	W08
	.byte		N08	
	.byte	W08
	.byte		N08	
	.byte	W16
	.byte			Cn3
	.byte	W08
	.byte		N16	, Dn3
	.byte	W24
	.byte		N08	, Bn2
	.byte	W24
	.byte			Cn3
	.byte	W24
	.byte			Dn3
	.byte	W24
	.byte			En3
	.byte	W48
	.byte	GOTO	
		.word	song008_3_1
	.byte	FINE

	@********************** Track  4 **********************@

	.global song008_4
song008_4:	@ 0x0879F030
	.byte	KEYSH	, 0
song008_4_1:
	.byte	VOICE	, 56
	.byte	VOL	, v074
	.byte	PAN	, c_v
	.byte	W24
	.byte		N08	, Gn4, v127
	.byte	W16
	.byte		N08	
	.byte	W08
	.byte		N24	, Fs4
	.byte	W24
	.byte		N24	
	.byte	W24
	.byte		N08	, Gn4
	.byte	W96
	.byte	W24
	.byte		N08	
	.byte	W08
	.byte		N08	
	.byte	W08
	.byte		N08	
	.byte	W08
	.byte		N16	, Fs4
	.byte	W24
	.byte		N08	, An4
	.byte	W24
	.byte			Gn4
	.byte	W96
	.byte			An4
	.byte	W08
	.byte			Fn4
	.byte	W08
	.byte			Gn4
	.byte	W08
	.byte			An4
	.byte	W16
	.byte			Bn4
	.byte	W08
	.byte		N24	
	.byte	W24
	.byte		N08	, Gn4
	.byte	W24
	.byte			An4
	.byte	W08
	.byte			Fn4
	.byte	W08
	.byte			Gn4
	.byte	W08
	.byte			Fn4
	.byte	W16
	.byte			An4
	.byte	W08
	.byte		N16	, Bn4
	.byte	W24
	.byte		N08	, Gn4
	.byte	W24
	.byte			An4
	.byte	W24
	.byte			Bn4
	.byte	W24
	.byte			Cn5
	.byte	W48
	.byte	GOTO	
		.word	song008_4_1
	.byte	FINE

	@********************** Track  5 **********************@

	.global song008_5
song008_5:	@ 0x0879F081
	.byte	KEYSH	, 0
song008_5_2:
	.byte	VOICE	, 33
	.byte	VOL	, v074
	.byte	PAN	, c_v
	.byte		N24	, Cn3, v127
	.byte	W24
	.byte			Cn4
	.byte	W24
	.byte			Cn3
	.byte	W24
	.byte			Cn4
	.byte	W24
	.byte			Cn3
	.byte	W24
	.byte		N08	, Cn4
	.byte	W16
	.byte			Ds3
	.byte	W08
	.byte			Cn3
	.byte	W16
	.byte		N08	
	.byte	W08
	.byte			Cn4
	.byte	W08
	.byte		N09	, Gn3, v112
	.byte	W08
	.byte			En3
	.byte	W08
	.byte		N08	, Cn3, v127
	.byte	W16
	.byte		N08	
	.byte	W08
	.byte		N24	, Cn4
	.byte	W24
	.byte			Cn3
	.byte	W24
	.byte			Cn4
	.byte	W24
	.byte			Cn3
	.byte	W24
	.byte		N08	, Cn4
	.byte	W16
	.byte		N08	
	.byte	W08
	.byte		N24	, Cn3
	.byte	W24
	.byte		N08	, Cn4
	.byte	W08
	.byte			Gn3
	.byte	W08
	.byte			Cn3
	.byte	W08
song008_5_1:
	.byte		N40	, Fn3, v127
	.byte	W48
	.byte		N32	, Gn3
	.byte	W48
	.byte	PEND
	.byte	PATT	
		.word	song008_5_1
	.byte		N08	, Fn3, v127
	.byte	W24
	.byte		N16	, Gn3
	.byte	W24
	.byte		N08	, Cn3
	.byte	W48
	.byte	GOTO	
		.word	song008_5_2
	.byte	FINE

	@********************** Track  6 **********************@

	.global song008_6
song008_6:	@ 0x0879F0E1
	.byte	KEYSH	, 0
song008_6_2:
	.byte	VOICE	, 127
	.byte	VOL	, v108
	.byte		N24	, Cn1, v116
	.byte		N02	, Dn1, v056
	.byte	W24
	.byte		N24	, Cs1, v108
	.byte		N02	, Dn1, v048
	.byte	W24
	.byte		N24	, Cn1, v116
	.byte		N02	, Dn1, v048
	.byte	W24
	.byte		N24	, Cs1, v108
	.byte		N02	, Dn1, v048
	.byte	W24
	.byte		N24	, Cn1, v116
	.byte		N02	, Dn1, v056
	.byte	W24
	.byte		N24	, Cs1, v104
	.byte		N02	, Dn1, v048
	.byte	W24
	.byte		N24	, Cn1, v116
	.byte		N02	, Dn1, v048
	.byte	W24
	.byte		N24	, Cs1, v108
	.byte		N02	, Dn1, v048
	.byte	W24
	.byte		N24	, Cn1, v116
	.byte		N02	, Dn1, v056
	.byte	W24
	.byte		N24	, Cs1, v108
	.byte		N02	, Dn1, v048
	.byte	W24
	.byte		N24	, Cn1, v116
	.byte		N02	, Dn1, v048
	.byte	W24
	.byte		N24	, Cs1, v108
	.byte		N02	, Dn1, v048
	.byte	W24
	.byte		N24	, Cn1, v116
	.byte		N02	, Dn1, v056
	.byte	W24
	.byte		N23	, Cs1, v104
	.byte		N02	, Dn1, v048
	.byte	W24
	.byte		N24	, Cn1, v116
	.byte		N02	, Dn1, v048
	.byte	W24
	.byte		N24	, Cs1, v108
	.byte		N02	, Dn1, v048
	.byte	W24
song008_6_1:
	.byte		N24	, Cn1, v116
	.byte		N01	, Dn1, v048
	.byte	W48
	.byte		N24	, Cn1, v116
	.byte		N01	, Dn1, v048
	.byte	W48
	.byte	PEND
	.byte	PATT	
		.word	song008_6_1
	.byte		N23	, Cn1, v116
	.byte		N23	, Dn1, v048
	.byte	W24
	.byte			Cn1, v116
	.byte		N23	, Dn1, v048
	.byte	W24
	.byte		N24	, Cn1, v116
	.byte		N24	, Dn1, v048
	.byte	W48
	.byte	GOTO	
		.word	song008_6_2
	.byte		N24	, Dn1, v048
	.byte	W24
	.byte	FINE

	.align 2
	.global song008
song008:	@ 0x0879F18C
	.byte	6		@ trackCount
	.byte	0		@ blockCount
	.byte	0		@ priority
	.byte	128		@ reverb

	.word	voicegroup007		@ voicegroup/tone

	.word	song008_1		@ track
	.word	song008_2		@ track
	.word	song008_3		@ track
	.word	song008_4		@ track
	.word	song008_5		@ track
	.word	song008_6		@ track
