	.include "sound/MPlayDef.s"

	.section .rodata

	@********************** Track  1 **********************@

	.align 2
	.global song009_1
song009_1:	@ 0x0879F1AC
	.byte	KEYSH	, 0
song009_1_1:
	.byte	TEMPO	, 65
	.byte	VOICE	, 4
	.byte	VOL	, v061
	.byte	PAN	, c_v
	.byte		N08	, Gn3, v096
	.byte	W08
	.byte			Gn3, v092
	.byte	W08
	.byte			Gn3, v096
	.byte	W08
	.byte			Cn4, v080
	.byte	W16
	.byte			Cn4, v088
	.byte	W08
	.byte			En4
	.byte	W16
	.byte		N08	
	.byte	W08
	.byte			Gn4, v104
	.byte	W16
	.byte			Gn4, v092
	.byte	W08
	.byte			Fn4, v096
	.byte	W16
	.byte			Fn4, v080
	.byte	W08
	.byte			En4
	.byte	W08
	.byte			Fn4
	.byte	W08
	.byte			Gn4
	.byte	W08
	.byte			Fn4
	.byte	W48
	.byte			Gn3
	.byte	W08
	.byte		N08	
	.byte	W08
	.byte		N08	
	.byte	W08
	.byte			Bn3
	.byte	W16
	.byte		N08	
	.byte	W08
	.byte			Dn4
	.byte	W16
	.byte		N08	
	.byte	W08
	.byte			Gn4
	.byte	W16
	.byte			Gn4, v092
	.byte	W08
	.byte			Fn4, v080
	.byte	W16
	.byte			En4, v088
	.byte	W08
	.byte		N16	, Dn4, v080
	.byte	W08
	.byte		N08	, En4
	.byte	W08
	.byte			Fn4, v100
	.byte	W08
	.byte			En4, v096
	.byte	W48
	.byte			Gn3, v080
	.byte	W08
	.byte		N08	
	.byte	W08
	.byte		N08	
	.byte	W08
	.byte			Cn4
	.byte	W16
	.byte		N08	
	.byte	W08
	.byte			En4
	.byte	W08
	.byte			Cn4
	.byte	W08
	.byte			En4
	.byte	W08
	.byte			Gn4, v096
	.byte	W16
	.byte			Gn4, v092
	.byte	W08
	.byte			Fn4, v080
	.byte	W16
	.byte		N08	
	.byte	W08
	.byte			En4
	.byte	W08
	.byte			Fn4
	.byte	W08
	.byte			Gn4
	.byte	W08
	.byte			Fn4
	.byte	W24
	.byte		N08	
	.byte	W16
	.byte		N08	
	.byte	W08
	.byte			An4, v092
	.byte	W08
	.byte			An4, v088
	.byte	W08
	.byte			An4, v080
	.byte	W08
	.byte			Gn4
	.byte	W08
	.byte			Fn4
	.byte	W08
	.byte			En4
	.byte	W08
	.byte			Dn4
	.byte	W16
	.byte		N08	
	.byte	W08
	.byte			Cn4
	.byte	W16
	.byte			Bn3
	.byte	W08
	.byte			Cn4
	.byte	W96
	.byte	GOTO	
		.int	song009_1_1
	.byte	FINE

	@********************** Track  2 **********************@

	.global song009_2
song009_2:	@ 0x0879F24B
	.byte	KEYSH	, 0
song009_2_1:
	.byte	VOICE	, 63
	.byte	VOL	, v055
	.byte	PAN	, c_v
	.byte		N08	, Gn3, v096
	.byte	W08
	.byte			Gn3, v092
	.byte	W08
	.byte			Gn3, v096
	.byte	W08
	.byte			Cn4, v080
	.byte	W16
	.byte			Cn4, v088
	.byte	W08
	.byte			En4
	.byte	W16
	.byte		N08	
	.byte	W08
	.byte			Gn4, v104
	.byte	W16
	.byte			Gn4, v092
	.byte	W08
	.byte			Fn4, v096
	.byte	W16
	.byte			Fn4, v080
	.byte	W08
	.byte			En4
	.byte	W08
	.byte			Fn4
	.byte	W08
	.byte			Gn4
	.byte	W08
	.byte			Fn4
	.byte	W48
	.byte			Gn3
	.byte	W08
	.byte		N08	
	.byte	W08
	.byte		N08	
	.byte	W08
	.byte			Bn3
	.byte	W16
	.byte		N08	
	.byte	W08
	.byte			Dn4
	.byte	W16
	.byte		N08	
	.byte	W08
	.byte			Gn4
	.byte	W16
	.byte			Gn4, v092
	.byte	W08
	.byte			Fn4, v080
	.byte	W16
	.byte			En4, v088
	.byte	W08
	.byte		N16	, Dn4, v080
	.byte	W08
	.byte		N08	, En4
	.byte	W08
	.byte			Fn4, v100
	.byte	W08
	.byte			En4, v096
	.byte	W48
	.byte			Gn3, v080
	.byte	W08
	.byte		N08	
	.byte	W08
	.byte		N08	
	.byte	W08
	.byte			Cn4
	.byte	W16
	.byte		N08	
	.byte	W08
	.byte			En4
	.byte	W08
	.byte			Cn4
	.byte	W08
	.byte			En4
	.byte	W08
	.byte			Gn4, v096
	.byte	W16
	.byte			Gn4, v092
	.byte	W08
	.byte			Fn4, v080
	.byte	W16
	.byte		N08	
	.byte	W08
	.byte			En4
	.byte	W08
	.byte			Fn4
	.byte	W08
	.byte			Gn4
	.byte	W08
	.byte			Fn4
	.byte	W24
	.byte		N08	
	.byte	W16
	.byte		N08	
	.byte	W08
	.byte			An4, v092
	.byte	W08
	.byte			An4, v088
	.byte	W08
	.byte			An4, v080
	.byte	W08
	.byte			Gn4
	.byte	W08
	.byte			Fn4
	.byte	W08
	.byte			En4
	.byte	W08
	.byte			Dn4
	.byte	W16
	.byte		N08	
	.byte	W08
	.byte			Cn4
	.byte	W16
	.byte			Bn3
	.byte	W08
	.byte			Cn4
	.byte	W96
	.byte	GOTO	
		.int	song009_2_1
	.byte	FINE

	@********************** Track  3 **********************@

	.global song009_3
song009_3:	@ 0x0879F2E8
	.byte	KEYSH	, 0
song009_3_2:
	.byte	VOICE	, 64
	.byte	VOL	, v051
	.byte	PAN	, c_v-64
	.byte		N44	, En3, v100
	.byte	W48
	.byte		N44	
	.byte	W48
song009_3_1:
	.byte		N44	, Fn3, v100
	.byte	W48
	.byte		N44	
	.byte	W48
	.byte	PEND
	.byte	PATT	
		.int	song009_3_1
	.byte		N44	, En3, v100
	.byte	W48
	.byte		N44	
	.byte	W48
	.byte		N44	
	.byte	W48
	.byte		N44	
	.byte	W48
	.byte	PATT	
		.int	song009_3_1
	.byte		N44	, Cn3, v100
	.byte	W48
	.byte			Dn3
	.byte	W48
	.byte		N92	, En3
	.byte	W96
	.byte	GOTO	
		.int	song009_3_2
	.byte	FINE

	@********************** Track  4 **********************@

	.global song009_4
song009_4:	@ 0x0879F320
	.byte	KEYSH	, 0
song009_4_3:
	.byte	VOICE	, 64
	.byte	VOL	, v051
	.byte	PAN	, c_v+63
	.byte		N44	, Cn3, v100
	.byte	W48
	.byte		N44	
	.byte	W48
song009_4_2:
	.byte		N44	, Dn3, v100
	.byte	W48
	.byte		N44	
	.byte	W48
	.byte	PEND
song009_4_1:
	.byte		N44	, Cn3, v100
	.byte	W48
	.byte		N44	
	.byte	W48
	.byte	PEND
	.byte	PATT	
		.int	song009_4_1
	.byte	PATT	
		.int	song009_4_1
	.byte	PATT	
		.int	song009_4_2
	.byte		N44	, An2, v100
	.byte	W48
	.byte			Bn2
	.byte	W48
	.byte		N92	, Gn2
	.byte	W96
	.byte	GOTO	
		.int	song009_4_3
	.byte	FINE

	@********************** Track  5 **********************@

	.global song009_5
song009_5:	@ 0x0879F35A
	.byte	KEYSH	, 0
song009_5_2:
	.byte	VOICE	, 64
	.byte	VOL	, v051
	.byte	PAN	, c_v
	.byte	W24
	.byte		N44	, Gn2, v100
	.byte	W48
	.byte		N44	
	.byte	W24
song009_5_1:
	.byte	W24
	.byte		N44	, Gn2, v100
	.byte	W48
	.byte		N44	
	.byte	W24
	.byte	PEND
	.byte	PATT	
		.int	song009_5_1
	.byte	PATT	
		.int	song009_5_1
	.byte	PATT	
		.int	song009_5_1
	.byte	PATT	
		.int	song009_5_1
	.byte	W96
	.byte	W96
	.byte	GOTO	
		.int	song009_5_2
	.byte	FINE

	@********************** Track  6 **********************@

	.global song009_6
song009_6:	@ 0x0879F38D
	.byte	KEYSH	, 0
song009_6_1:
	.byte	VOICE	, 3
	.byte	VOL	, v056
	.byte	PAN	, c_v
	.byte		N08	, Cn3, v112
	.byte	W16
	.byte		N08	
	.byte	W08
	.byte		N24	, Gn3
	.byte	W24
	.byte		N08	, Cn3
	.byte	W24
	.byte		N24	, Gn3
	.byte	W24
	.byte		N08	, Bn2
	.byte	W16
	.byte		N08	
	.byte	W08
	.byte		N24	, Gn3
	.byte	W24
	.byte		N08	, Bn2
	.byte	W24
	.byte		N15	, Gn3
	.byte	W16
	.byte		N08	
	.byte	W08
	.byte			Gn2
	.byte	W24
	.byte		N24	, Gn3
	.byte	W24
	.byte		N08	, Gn2
	.byte	W16
	.byte		N08	
	.byte	W08
	.byte		N15	, Gn3
	.byte	W16
	.byte		N07	
	.byte	W08
	.byte			Cn3
	.byte	W24
	.byte		N23	, Gn3
	.byte	W24
	.byte		N07	, Cn3
	.byte	W24
	.byte		N15	, Gn3
	.byte	W16
	.byte		N07	, En3
	.byte	W08
	.byte			Cn3
	.byte	W16
	.byte		N07	
	.byte	W08
	.byte		N23	, Gn3
	.byte	W24
	.byte		N07	, Cn3
	.byte	W24
	.byte		N23	, Gn3
	.byte	W24
	.byte		N07	, Gn2
	.byte	W24
	.byte		N23	, Dn3
	.byte	W24
	.byte		N07	, Gn2
	.byte	W24
	.byte		N23	, Dn3
	.byte	W24
	.byte		N07	, Fn2
	.byte	W48
	.byte			Gn2
	.byte	W48
	.byte			Cn3
	.byte	W96
	.byte	GOTO	
		.int	song009_6_1
	.byte	FINE

	.align 2
	.global song009
song009:	@ 0x0879F3F8
	.byte	6		@ trackCount
	.byte	0		@ blockCount
	.byte	0		@ priority
	.byte	128		@ reverb

	.int	voicegroup007		@ voicegroup/tone

	.int	song009_1		@ track
	.int	song009_2		@ track
	.int	song009_3		@ track
	.int	song009_4		@ track
	.int	song009_5		@ track
	.int	song009_6		@ track
