	.include "sound/MPlayDef.s"

	.section .rodata

	@********************** Track  1 **********************@

	.align 2
	.global song013_1
song013_1:	@ 0x087A1310
	.byte	KEYSH	, 0
song013_1_4:
	.byte	TEMPO	, 70
	.byte	VOICE	, 127
	.byte	VOL	, v127
	.byte	PAN	, c_v
	.byte	BENDR	, 127
	.byte		N06	, Cn1, v127
	.byte	W06
	.byte			Dn1, v020
	.byte	W06
	.byte		N06	
	.byte	W06
	.byte			Cn1, v127
	.byte	W06
	.byte			Dn1, v020
	.byte	W06
	.byte		N06	
	.byte	W06
	.byte			Cn1, v127
	.byte	W06
	.byte			Dn1, v020
	.byte	W06
	.byte			Cn1, v127
	.byte	W06
	.byte			Dn1, v020
	.byte	W06
	.byte		N12	, En1, v024
	.byte	W11
	.byte			Cs1, v127
	.byte	W13
	.byte		N06	, Dn1, v020
	.byte	W06
	.byte		N06	
	.byte	W06
song013_1_1:
	.byte		N06	, Cn1, v127
	.byte	W06
	.byte			Dn1, v020
	.byte	W06
	.byte		N06	
	.byte	W06
	.byte			Cn1, v127
	.byte	W06
	.byte			Dn1, v020
	.byte	W06
	.byte		N06	
	.byte	W06
	.byte			Cn1, v127
	.byte	W06
	.byte			Dn1, v020
	.byte	W06
	.byte			Cn1, v127
	.byte	W06
	.byte			Dn1, v020
	.byte	W06
	.byte		N06	
	.byte	W06
	.byte		N06	
	.byte	W05
	.byte		N12	, Cs1, v127
	.byte	W13
	.byte		N06	, Dn1, v020
	.byte	W06
	.byte		N06	
	.byte	W06
	.byte	PEND
song013_1_2:
	.byte		N06	, Cn1, v127
	.byte	W06
	.byte			Dn1, v020
	.byte	W06
	.byte		N06	
	.byte	W06
	.byte			Cn1, v127
	.byte	W06
	.byte			Dn1, v020
	.byte	W06
	.byte		N06	
	.byte	W06
	.byte			Cn1, v127
	.byte	W06
	.byte			Dn1, v020
	.byte	W06
	.byte			Cn1, v127
	.byte	W06
	.byte			Dn1, v020
	.byte	W06
	.byte		N12	, En1, v024
	.byte	W11
	.byte			Cs1, v127
	.byte	W13
	.byte		N06	, Dn1, v020
	.byte	W06
	.byte		N06	
	.byte	W06
	.byte	PEND
	.byte	PATT	
		.int	song013_1_1
	.byte	PATT	
		.int	song013_1_2
	.byte	PATT	
		.int	song013_1_1
	.byte	PATT	
		.int	song013_1_2
	.byte	PATT	
		.int	song013_1_1
	.byte	PATT	
		.int	song013_1_2
	.byte	PATT	
		.int	song013_1_1
	.byte	PATT	
		.int	song013_1_2
	.byte	PATT	
		.int	song013_1_1
	.byte	PATT	
		.int	song013_1_2
song013_1_3:
	.byte		N12	, Cs1, v127
	.byte	W72
	.byte		N06	, Dn1, v020
	.byte	W06
	.byte		N06	
	.byte	W06
	.byte		N12	, En1, v024
	.byte	W12
	.byte	PEND
	.byte	VOICE	, 127
	.byte	VOL	, v127
	.byte	PAN	, c_v
	.byte	BENDR	, 127
	.byte		N06	, Cn1, v127
	.byte	W06
	.byte			Dn1, v020
	.byte	W06
	.byte		N06	
	.byte	W06
	.byte			Cn1, v127
	.byte	W06
	.byte			Dn1, v020
	.byte	W06
	.byte		N06	
	.byte	W06
	.byte			Cn1, v127
	.byte	W06
	.byte			Dn1, v020
	.byte	W06
	.byte			Cn1, v127
	.byte	W06
	.byte			Dn1, v020
	.byte	W06
	.byte		N12	, En1, v024
	.byte	W11
	.byte			Cs1, v127
	.byte	W13
	.byte		N06	, Dn1, v020
	.byte	W06
	.byte		N06	
	.byte	W06
	.byte	PATT	
		.int	song013_1_1
	.byte	PATT	
		.int	song013_1_2
	.byte	PATT	
		.int	song013_1_1
	.byte	PATT	
		.int	song013_1_2
	.byte	PATT	
		.int	song013_1_1
	.byte	PATT	
		.int	song013_1_2
	.byte	PATT	
		.int	song013_1_1
	.byte	PATT	
		.int	song013_1_2
	.byte	PATT	
		.int	song013_1_1
	.byte	PATT	
		.int	song013_1_2
	.byte	PATT	
		.int	song013_1_1
	.byte	PATT	
		.int	song013_1_2
	.byte	PATT	
		.int	song013_1_3
	.byte		N06	, Cn1, v127
	.byte	W06
	.byte			Dn1, v020
	.byte	W06
	.byte		N06	
	.byte	W06
	.byte			Cn1, v127
	.byte	W06
	.byte			Dn1, v020
	.byte	W06
	.byte		N06	
	.byte	W06
	.byte			Cn1, v127
	.byte	W06
	.byte			Dn1, v020
	.byte	W06
	.byte			Cn1, v127
	.byte	W06
	.byte			Dn1, v020
	.byte	W17
	.byte		N12	, Cs1, v127
	.byte	W13
	.byte		N06	, Dn1, v020
	.byte	W06
	.byte		N06	
	.byte	W06
	.byte		N05	, Cs1, v127
	.byte	W06
	.byte		N06	
	.byte		N06	, Dn1, v020
	.byte	W06
	.byte		N06	
	.byte	W06
	.byte			Gs1, v127
	.byte	W06
	.byte			Dn1, v020
	.byte	W06
	.byte		N06	
	.byte		N06	, Gn1, v127
	.byte	W12
	.byte			Cn1
	.byte		N06	, Dn1, v020
	.byte	W06
	.byte			Cs1, v127
	.byte		N06	, Dn1, v020
	.byte	W06
	.byte		N06	
	.byte	W06
	.byte		N12	, En1, v024
	.byte	W12
	.byte		N06	, Dn1, v020
	.byte	W06
	.byte		N06	
	.byte	W06
	.byte		N05	, Cs1, v127
	.byte	W06
	.byte		N06	
	.byte	W06
	.byte	PATT	
		.int	song013_1_2
	.byte	PATT	
		.int	song013_1_1
	.byte	PATT	
		.int	song013_1_2
	.byte	PATT	
		.int	song013_1_1
	.byte	PATT	
		.int	song013_1_2
	.byte	PATT	
		.int	song013_1_1
	.byte	PATT	
		.int	song013_1_2
	.byte	PATT	
		.int	song013_1_1
	.byte	PATT	
		.int	song013_1_2
	.byte	PATT	
		.int	song013_1_1
	.byte	PATT	
		.int	song013_1_2
	.byte	PATT	
		.int	song013_1_1
	.byte	PATT	
		.int	song013_1_2
	.byte	PATT	
		.int	song013_1_1
	.byte	PATT	
		.int	song013_1_2
	.byte		N06	, Cn1, v127
	.byte		N12	, En1, v024
	.byte	W06
	.byte		N06	, Dn1, v020
	.byte	W06
	.byte		N06	
	.byte	W06
	.byte			Cn1, v127
	.byte		N12	, En1, v024
	.byte	W06
	.byte		N06	, Dn1, v020
	.byte	W06
	.byte		N06	
	.byte	W06
	.byte			Cn1, v127
	.byte		N12	, En1, v024
	.byte	W06
	.byte		N06	, Dn1, v020
	.byte	W06
	.byte			Cn1, v127
	.byte	W06
	.byte			Dn1, v020
	.byte	W06
	.byte		N05	, Cs1, v127
	.byte		N06	, Dn1, v020
	.byte	W06
	.byte		N05	, Cs1, v127
	.byte		N06	, Dn1, v020
	.byte	W05
	.byte		N05	, Cs1, v127
	.byte	W06
	.byte		N11	, Cn1
	.byte	W07
	.byte		N06	, Dn1, v020
	.byte	W05
	.byte			Cs1, v127
	.byte	W01
	.byte			Dn1, v020
	.byte	W06
	.byte	GOTO	
		.int	song013_1_4
	.byte	FINE

	@********************** Track  2 **********************@

	.global song013_2
song013_2:	@ 0x087A1544
	.byte	KEYSH	, 0
song013_2_2:
	.byte	VOICE	, 62
	.byte	VOL	, v075
	.byte	PAN	, c_v
	.byte	BENDR	, 0
	.byte		N15	, As1, v120
	.byte	W18
	.byte		N05	
	.byte	W18
	.byte		N44	, As1, v124
	.byte	W48
	.byte		N05	, Fn1, v088
	.byte	W06
	.byte			Gn1, v100
	.byte	W06
	.byte	PEND
song013_2_1:
	.byte		N15	, As1, v120
	.byte	W18
	.byte		N05	
	.byte	W18
	.byte		N44	, As1, v124
	.byte	W48
	.byte		N05	, Fn1, v088
	.byte	W06
	.byte			Gn1, v100
	.byte	W06
	.byte	PEND
	.byte	PATT	
		.int	song013_2_1
	.byte	PATT	
		.int	song013_2_1
	.byte	PATT	
		.int	song013_2_1
	.byte	PATT	
		.int	song013_2_1
	.byte	PATT	
		.int	song013_2_1
song013_2_3:
	.byte		N15	, As1, v120
	.byte	W18
	.byte		N05	
	.byte	W18
	.byte		N44	, As1, v124
	.byte	W48
	.byte		N05	, Fn1, v088
	.byte	W06
	.byte			As1, v100
	.byte	W06
	.byte	PEND
song013_2_4:
	.byte		N15	, Ds1, v120
	.byte	W18
	.byte		N05	
	.byte	W18
	.byte		N44	, Ds1, v124
	.byte	W48
	.byte		N05	, Ds1, v088
	.byte	W06
	.byte			As1, v100
	.byte	W06
	.byte	PEND
song013_2_5:
	.byte		N15	, Ds1, v120
	.byte	W18
	.byte		N05	
	.byte	W18
	.byte		N44	, Ds1, v124
	.byte	W48
	.byte		N05	, As1, v088
	.byte	W06
	.byte			Ds1, v100
	.byte	W06
	.byte	PEND
song013_2_6:
	.byte		N15	, Dn1, v120
	.byte	W18
	.byte		N05	
	.byte	W18
	.byte		N44	, Dn1, v124
	.byte	W48
	.byte		N05	, Dn1, v088
	.byte	W06
	.byte			An1, v100
	.byte	W06
	.byte	PEND
song013_2_7:
	.byte		N15	, Gn1, v120
	.byte	W18
	.byte		N05	
	.byte	W18
	.byte		N44	, Gn1, v124
	.byte	W48
	.byte		N11	, Dn1, v120
	.byte	W12
	.byte	PEND
song013_2_8:
	.byte		N15	, Cn1, v120
	.byte	W18
	.byte		N05	
	.byte	W18
	.byte		N44	, Cn1, v124
	.byte	W48
	.byte		N05	, Cn1, v088
	.byte	W06
	.byte			Gn1, v100
	.byte	W06
	.byte	PEND
	.byte		N09	, Fn1, v120
	.byte	W96
	.byte	PATT	
		.int	song013_2_2
	.byte	PATT	
		.int	song013_2_1
	.byte	PATT	
		.int	song013_2_1
	.byte	PATT	
		.int	song013_2_1
	.byte	PATT	
		.int	song013_2_1
	.byte	PATT	
		.int	song013_2_1
	.byte	PATT	
		.int	song013_2_1
	.byte	PATT	
		.int	song013_2_3
	.byte	PATT	
		.int	song013_2_4
	.byte	PATT	
		.int	song013_2_5
	.byte	PATT	
		.int	song013_2_6
	.byte	PATT	
		.int	song013_2_7
	.byte	PATT	
		.int	song013_2_8
	.byte		N09	, Fn1, v120
	.byte	W96
	.byte	PATT	
		.int	song013_2_1
	.byte		N15	, As1, v120
	.byte	W18
	.byte		N05	
	.byte	W18
	.byte		N10	, As1, v124
	.byte	W12
	.byte		N05	, As1, v120
	.byte	W12
	.byte		N32	, Fn1
	.byte	W36
	.byte		N15	, En1
	.byte	W18
	.byte		N05	
	.byte	W18
	.byte		N44	, En1, v124
	.byte	W48
	.byte		N05	, En1, v088
	.byte	W06
	.byte			Bn1, v100
	.byte	W06
	.byte		N15	, An1, v120
	.byte	W18
	.byte		N05	
	.byte	W18
	.byte		N44	, An1, v124
	.byte	W48
	.byte		N05	, An1, v088
	.byte	W06
	.byte			En1, v100
	.byte	W06
	.byte	PATT	
		.int	song013_2_6
	.byte	PATT	
		.int	song013_2_6
	.byte	PATT	
		.int	song013_2_6
song013_2_9:
	.byte		N15	, Gn1, v120
	.byte	W18
	.byte		N05	
	.byte	W18
	.byte		N44	, Gn1, v124
	.byte	W48
	.byte		N05	, Gn1, v088
	.byte	W06
	.byte			Dn1, v100
	.byte	W06
	.byte	PEND
	.byte	PATT	
		.int	song013_2_8
	.byte		N15	, Cn1, v120
	.byte	W18
	.byte		N05	
	.byte	W18
	.byte		N44	, Cn1, v124
	.byte	W48
	.byte		N05	, Gn1, v088
	.byte	W06
	.byte			Dn1, v100
	.byte	W06
	.byte	PATT	
		.int	song013_2_8
	.byte		N15	, Fn1, v120
	.byte	W18
	.byte		N05	
	.byte	W18
	.byte		N44	, Fn1, v124
	.byte	W48
	.byte		N05	, Fn1, v088
	.byte	W06
	.byte			An1, v100
	.byte	W06
	.byte		N15	, As1, v120
	.byte	W18
	.byte		N05	
	.byte	W18
	.byte		N44	, As1, v124
	.byte	W48
	.byte		N05	, As1, v088
	.byte	W06
	.byte			Fn1, v100
	.byte	W06
	.byte	PATT	
		.int	song013_2_9
	.byte	PATT	
		.int	song013_2_8
	.byte		N15	, Dn1, v120
	.byte	W18
	.byte		N05	
	.byte	W18
	.byte		N44	, Dn1, v124
	.byte	W48
	.byte		N05	, An1, v088
	.byte	W06
	.byte			Dn1, v100
	.byte	W06
	.byte	PATT	
		.int	song013_2_4
	.byte		N15	, Fn1, v120
	.byte	W18
	.byte		N05	
	.byte	W18
	.byte		N44	, Fn1, v124
	.byte	W48
	.byte		N05	, Cn2, v088
	.byte	W06
	.byte			Fn1, v100
	.byte	W06
	.byte	GOTO	
		.int	song013_2_2
	.byte	FINE

	@********************** Track  3 **********************@

	.global song013_3
song013_3:	@ 0x087A1709
	.byte	KEYSH	, 0
song013_3_4:
	.byte	VOICE	, 77
	.byte	VOL	, v070
	.byte	PAN	, c_v
	.byte	BENDR	, 0
	.byte		N28	, Fn3, v112
	.byte		N28	, Dn4
	.byte	W60
	.byte		N11	, As2, v088
	.byte		N11	, Fn3
	.byte	W12
	.byte			Dn3, v108
	.byte		N11	, As3
	.byte	W12
	.byte			Fn3, v104
	.byte		N11	, Dn4
	.byte	W12
song013_3_1:
	.byte		N28	, Gn3, v112
	.byte		N28	, Ds4
	.byte	W48
	.byte		N11	, Gn3, v068
	.byte		N11	, Ds4
	.byte	W12
	.byte		N05	, Gs3, v060
	.byte		N05	, Fn4
	.byte	W06
	.byte			An3, v076
	.byte		N05	, Fs4
	.byte	W06
	.byte		N23	, As3, v096
	.byte		N23	, Gn4
	.byte	W24
	.byte	PEND
song013_3_2:
	.byte		N28	, As3, v100
	.byte		N28	, Fn4
	.byte	W72
	.byte		N23	, As3, v096
	.byte		N23	, Dn4
	.byte	W24
	.byte	PEND
song013_3_3:
	.byte		N23	, Cn4, v116
	.byte		N23	, Ds4
	.byte	W24
	.byte			Gs3, v076
	.byte		N23	, Cn4
	.byte	W24
	.byte			Ds3, v080
	.byte		N23	, Gs3
	.byte	W24
	.byte			Cn3, v096
	.byte		N23	, Ds3
	.byte	W24
	.byte	PEND
	.byte		N30	, As2, v108
	.byte		N30	, Dn3
	.byte	W96
	.byte	W96
	.byte	W96
	.byte	W96
	.byte	W96
	.byte	W96
	.byte	W96
	.byte	W96
	.byte	W96
	.byte	W96
	.byte		N28	, Fn3, v112
	.byte		N28	, Dn4
	.byte	W60
	.byte		N11	, As2, v088
	.byte		N11	, Fn3
	.byte	W12
	.byte			Dn3, v108
	.byte		N11	, As3
	.byte	W12
	.byte			Fn3, v104
	.byte		N11	, Dn4
	.byte	W12
	.byte	PATT	
		.int	song013_3_1
	.byte	PATT	
		.int	song013_3_2
	.byte	PATT	
		.int	song013_3_3
	.byte		N30	, As2, v108
	.byte		N30	, Dn3
	.byte	W96
	.byte	W72
	.byte		N21	, Fn3, v096
	.byte	W24
	.byte		N40	, Fn4, v100
	.byte	W96
	.byte	W72
	.byte		N23	, Dn3, v096
	.byte		N23	, Fs3, v092
	.byte	W24
	.byte		N72	, Ds3, v096
	.byte		N68	, Gn3, v104
	.byte	W96
	.byte		N66	, Ds3, v080
	.byte		N66	, Fs3, v092
	.byte	W72
	.byte		N21	, Ds3
	.byte		N18	, Fs3, v088
	.byte	W24
	.byte		N44	, Dn3, v076
	.byte		N48	, Fn3, v084
	.byte	W60
	.byte		N07	, Dn3, v076
	.byte		N08	, Fn3, v084
	.byte	W12
	.byte			Fn3, v096
	.byte		N10	, An3
	.byte	W12
	.byte		N08	, An3, v060
	.byte		N09	, Cn4, v100
	.byte	W12
	.byte		N30	, Cn4, v080
	.byte		N32	, Ds4, v108
	.byte	W36
	.byte		N44	, Bn3, v096
	.byte		N44	, Dn4
	.byte	W60
	.byte		N23	, Gn3
	.byte		N23	, As3, v080
	.byte	W24
	.byte		N64	, Gn3, v096
	.byte		N60	, As3, v080
	.byte	W72
	.byte		N08	, Fn3, v084
	.byte		N07	, An3
	.byte		N04	, Cn4, v088
	.byte	W96
	.byte		N36	, As3, v080
	.byte		N36	, Dn4, v108
	.byte	W72
	.byte		N23	, An3, v080
	.byte		N23	, Cs4, v108
	.byte	W24
	.byte		N36	, As3, v080
	.byte		N36	, Dn4, v108
	.byte	W96
	.byte	W96
	.byte	W96
	.byte	W96
	.byte		N23	, Fs4, v127
	.byte	W24
	.byte			An3
	.byte	W24
	.byte			Cs4
	.byte	W24
	.byte			Fs3
	.byte	W24
	.byte		N44	, Fn3
	.byte	W96
	.byte	W96
	.byte	W96
	.byte		N23	, Gn4
	.byte	W24
	.byte			Bn3
	.byte	W24
	.byte			En4
	.byte	W24
	.byte			Gn3
	.byte	W24
	.byte		N44	, Ds3
	.byte	W96
	.byte	W96
	.byte	W96
	.byte	W96
	.byte	W96
	.byte	W96
	.byte	W96
	.byte	W96
	.byte	GOTO	
		.int	song013_3_4
	.byte	FINE

	@********************** Track  4 **********************@

	.global song013_4
song013_4:	@ 0x087A1846
	.byte	KEYSH	, 0
song013_4_12:
	.byte	VOICE	, 75
	.byte	VOL	, v055
	.byte	PAN	, c_v
	.byte	MODT	, 1
	.byte	LFOS	, 10
	.byte	LFODL	, 0
	.byte	BENDR	, 2
	.byte	PRIO	, 30
	.byte	W96
	.byte	W96
	.byte	W96
	.byte	W96
song013_4_1:
	.byte		N17	, Dn2, v108
	.byte	W18
	.byte			Fn2, v104
	.byte	W18
	.byte		N44	, Cn3, v096
	.byte	W60
	.byte	PEND
song013_4_2:
	.byte		N17	, Cn3, v096
	.byte	W18
	.byte			As2, v112
	.byte	W18
	.byte		N40	, Fn2, v096
	.byte	W48
	.byte		N05	, Fn2, v076
	.byte	W06
	.byte			Ds2, v088
	.byte	W06
	.byte	PEND
song013_4_3:
	.byte		N17	, Dn2, v096
	.byte	W18
	.byte			Fn2
	.byte	W18
	.byte		N44	, Cn3
	.byte	W48
	.byte		N06	, Fn2, v072
	.byte	W12
	.byte	PEND
song013_4_4:
	.byte		N17	, Cn3, v104
	.byte	W18
	.byte		N05	, As2, v100
	.byte	W18
	.byte		N32	, Fn2, v084
	.byte	W36
	.byte		N11	, Fn2, v112
	.byte	W12
	.byte			Fs2, v100
	.byte	W12
	.byte	PEND
song013_4_5:
	.byte		N17	, Gn2, v104
	.byte	W18
	.byte			As2, v112
	.byte	W18
	.byte		N42	, Fn3, v108
	.byte	W48
	.byte		N08	, Fn3, v068
	.byte	W12
	.byte	PEND
song013_4_6:
	.byte		N17	, Fn3, v096
	.byte	W18
	.byte			Ds3, v104
	.byte	W18
	.byte		N32	, As2, v100
	.byte	W36
	.byte		N23	, Cn3, v084
	.byte	W24
	.byte	PEND
song013_4_7:
	.byte		N15	, Dn3, v100
	.byte	W18
	.byte		N92	, Dn3, v108
	.byte	W78
	.byte	PEND
song013_4_8:
	.byte	W24
	.byte		N05	, Dn3, v096
	.byte	W06
	.byte			Cs3, v088
	.byte	W12
	.byte			Dn3, v108
	.byte	W12
	.byte		N17	, Fn3
	.byte	W18
	.byte		N11	, En3
	.byte	W12
	.byte			Ds3, v080
	.byte	W12
	.byte	PEND
song013_4_9:
	.byte		N18	, Dn3, v108
	.byte	W18
	.byte		N06	, As2, v096
	.byte	W12
	.byte			As2, v100
	.byte	W12
	.byte		N05	, Gn2, v092
	.byte	W06
	.byte		N36	, As2, v104
	.byte	W48
	.byte	PEND
song013_4_10:
	.byte	W24
	.byte		N05	, Fn2, v076
	.byte	W06
	.byte			Gn2
	.byte	W06
	.byte			As2, v104
	.byte	W06
	.byte			Cn3, v096
	.byte	W06
	.byte			Cs3, v108
	.byte	W06
	.byte		N11	, Dn3, v112
	.byte	W12
	.byte		N05	, As2, v116
	.byte	W06
	.byte			Fn2, v096
	.byte	W06
	.byte			En2, v108
	.byte	W06
	.byte			Ds2
	.byte	W06
	.byte			Cs2, v096
	.byte	W06
	.byte	PEND
song013_4_11:
	.byte		N17	, Dn2, v104
	.byte	W18
	.byte		TIE	, As1
	.byte	W78
	.byte	PEND
	.byte	W24
	.byte	W02
	.byte		EOT	
	.byte	W68
	.byte	W02
	.byte	W96
	.byte	W96
	.byte	PATT	
		.int	song013_4_1
	.byte	PATT	
		.int	song013_4_2
	.byte	PATT	
		.int	song013_4_3
	.byte	PATT	
		.int	song013_4_4
	.byte	PATT	
		.int	song013_4_5
	.byte	PATT	
		.int	song013_4_6
	.byte	PATT	
		.int	song013_4_7
	.byte	PATT	
		.int	song013_4_8
	.byte	PATT	
		.int	song013_4_9
	.byte	PATT	
		.int	song013_4_10
	.byte	PATT	
		.int	song013_4_11
	.byte	W24
	.byte	W02
	.byte		EOT	, As1
	.byte	W22
	.byte	VOICE	, 40
	.byte	VOL	, v060
	.byte	PAN	, c_v
	.byte	MODT	, 0
	.byte	MOD	, 0
	.byte	LFOS	, 10
	.byte	LFODL	, 0
	.byte	BENDR	, 2
	.byte	W42
	.byte	MOD	, 0
	.byte	W06
	.byte		N54	, Gn5, v112
	.byte	W60
	.byte		N11	, Bn4, v076
	.byte	W12
	.byte			En5, v096
	.byte	W12
	.byte			Gn5, v092
	.byte	W12
	.byte		N23	, Bn5, v084
	.byte	W24
	.byte		N07	, Bn5, v104
	.byte	W08
	.byte		N03	, Cs6, v108
	.byte	W04
	.byte		N23	, Dn6, v104
	.byte	W24
	.byte		N15	, Cs6, v116
	.byte	W16
	.byte		N03	, Dn6, v068
	.byte	W04
	.byte			Ds6, v072
	.byte	W04
	.byte		N11	, En6, v084
	.byte	W12
	.byte		N32	, Cs6, v104
	.byte	W36
	.byte		N05	, Bn5, v060
	.byte	W06
	.byte			Cs6, v068
	.byte	W06
	.byte		N32	, An5, v096
	.byte	W36
	.byte		N05	, Fs5, v080
	.byte	W06
	.byte			An5, v084
	.byte	W06
	.byte		N11	, Fs5, v072
	.byte	W12
	.byte		N05	, Cs5, v080
	.byte	W06
	.byte			Fs5, v068
	.byte	W06
	.byte		N11	, Cs5, v088
	.byte	W12
	.byte		N05	, An4, v072
	.byte	W06
	.byte			Cs5, v068
	.byte	W06
	.byte		N11	, An4, v052
	.byte	W12
	.byte		N05	, Fs4, v048
	.byte	W06
	.byte			Cs5, v068
	.byte	W06
	.byte		N06	, Fs4, v048
	.byte	W24
	.byte		N54	, Fn5, v112
	.byte	W60
	.byte		N11	, An4, v076
	.byte	W12
	.byte			Cn5, v096
	.byte	W12
	.byte			Fn5, v092
	.byte	W12
	.byte		N23	, An5, v084
	.byte	W24
	.byte		N07	, An5, v104
	.byte	W08
	.byte		N03	, Bn5, v108
	.byte	W04
	.byte		N23	, Cn6, v104
	.byte	W24
	.byte		N15	, Bn5, v116
	.byte	W16
	.byte		N03	, Cn6, v068
	.byte	W04
	.byte			Cs6, v072
	.byte	W04
	.byte		N11	, Dn6, v084
	.byte	W12
	.byte		N32	, Bn5, v104
	.byte	W36
	.byte		N05	, An5, v060
	.byte	W06
	.byte			Bn5, v068
	.byte	W06
	.byte		N32	, Gn5, v096
	.byte	W36
	.byte		N05	, En5, v080
	.byte	W06
	.byte			Gn5, v084
	.byte	W06
	.byte		N11	, En5, v072
	.byte	W12
	.byte		N05	, Bn4, v080
	.byte	W06
	.byte			En5, v068
	.byte	W06
	.byte		N11	, Bn4, v088
	.byte	W12
	.byte		N05	, Gn4, v072
	.byte	W06
	.byte			Bn4, v068
	.byte	W06
	.byte		N11	, Gn4, v052
	.byte	W12
	.byte		N05	, En4, v048
	.byte	W06
	.byte			Bn4, v068
	.byte	W06
	.byte		N06	, En4, v048
	.byte	W24
	.byte		N56	, Ds5, v112
	.byte	W60
	.byte		N11	, Gn4, v068
	.byte	W12
	.byte			Cn5, v096
	.byte	W12
	.byte			Ds5, v092
	.byte	W12
	.byte		N23	, Gn5, v104
	.byte	W24
	.byte		N11	, Gn5, v084
	.byte	W12
	.byte		N23	, An5, v096
	.byte	W24
	.byte			As5, v100
	.byte	W24
	.byte		N11	, Cn6, v092
	.byte	W12
	.byte		N56	, Dn6, v108
	.byte	W72
	.byte		N11	
	.byte	W12
	.byte			Cs6
	.byte	W12
	.byte			Dn6, v092
	.byte	W12
	.byte		N23	, Bn5, v104
	.byte	W24
	.byte			Gn5, v076
	.byte	W24
	.byte			Dn5, v068
	.byte	W24
	.byte		N05	, Ds5
	.byte	W06
	.byte			Fn5
	.byte	W06
	.byte		N32	, Gn5, v108
	.byte	W36
	.byte		N23	, Cn5, v092
	.byte	W24
	.byte		N11	, Cn5, v076
	.byte	W12
	.byte			Ds5, v108
	.byte	W12
	.byte			Gn5, v080
	.byte	W12
	.byte		N23	, An5, v112
	.byte	W24
	.byte		N11	, Fn5, v104
	.byte	W12
	.byte		N23	, Fn5, v112
	.byte	W36
	.byte		N11	, Fn5, v104
	.byte	W12
	.byte			An5, v116
	.byte	W12
	.byte		N32	, As5
	.byte	W36
	.byte		N23	, Fs5, v120
	.byte	W24
	.byte		N11	, Ds5, v092
	.byte	W12
	.byte			Fs5, v112
	.byte	W12
	.byte			As5, v116
	.byte	W12
	.byte		N80	, Cn6, v120
	.byte	W96
	.byte	GOTO	
		.int	song013_4_12
	.byte	FINE

	@********************** Track  5 **********************@

	.global song013_5
song013_5:	@ 0x087A1ABD
	.byte	KEYSH	, 0
song013_5_3:
	.byte	VOICE	, 83
	.byte	VOL	, v127
	.byte	PAN	, c_v
	.byte	MOD	, 24
	.byte	LFOS	, 43
	.byte	MODT	, 2
	.byte	LFODL	, 0
	.byte		N11	, Cn1, v127
	.byte	W11
	.byte		N05	, Dn1
	.byte	W06
	.byte		N06	, Cs1
	.byte	W06
	.byte		N05	, Ds1
	.byte	W06
	.byte		N06	, En1
	.byte	W07
	.byte		N11	, Cn1
	.byte	W11
	.byte		N05	, Dn1
	.byte	W07
	.byte			Gn1
	.byte	W06
	.byte			Gs1
	.byte	W05
	.byte		N06	, An1
	.byte	W07
	.byte			As1
	.byte	W06
	.byte		N05	, Bn1
	.byte	W06
	.byte			Cn2
	.byte	W06
	.byte			Bn1
	.byte	W06
	.byte	PEND
	.byte	W96
song013_5_1:
	.byte	BEND	, c_v
	.byte		N11	, Cn1, v127
	.byte	W11
	.byte		N05	, Dn1
	.byte	W06
	.byte		N06	, Cs1
	.byte	W06
	.byte		N05	, Ds1
	.byte	W06
	.byte		N06	, En1
	.byte	W07
	.byte		N11	, Cn1
	.byte	W11
	.byte		N05	, Dn1
	.byte	W07
	.byte			Gn1
	.byte	W06
	.byte			Gs1
	.byte	W05
	.byte		N06	, An1
	.byte	W07
	.byte			As1
	.byte	W06
	.byte		N05	, Bn1
	.byte	W06
	.byte			Cn2
	.byte	W06
	.byte			Bn1
	.byte	W06
	.byte	PEND
song013_5_2:
	.byte		N08	, Cs2, v127
	.byte	W08
	.byte		N04	, Dn2
	.byte	W04
	.byte		N02	, Ds2
	.byte	W02
	.byte		N10	, En2
	.byte	W11
	.byte		N05	, Fn2
	.byte	W05
	.byte			Fs2
	.byte	W06
	.byte		N08	, Cs2
	.byte	W08
	.byte		N04	, Dn2
	.byte	W04
	.byte		N02	, Ds2
	.byte	W02
	.byte		N10	, En2
	.byte	W11
	.byte		N05	, Fn2
	.byte	W05
	.byte			Fs2
	.byte	W06
	.byte			Gs2
	.byte	W05
	.byte		N06	, Gn2
	.byte	W07
	.byte	BEND	, c_v-64
	.byte		N05	, An2
	.byte	W05
	.byte		N06	, As2
	.byte	W07
	.byte	PEND
song013_5_4:
	.byte		N11	, Cn1, v127
	.byte	W11
	.byte		N05	, Dn1
	.byte	W06
	.byte		N06	, Cs1
	.byte	W06
	.byte		N05	, Ds1
	.byte	W06
	.byte		N06	, En1
	.byte	W07
	.byte		N11	, Cn1
	.byte	W11
	.byte		N05	, Dn1
	.byte	W07
	.byte			Gn1
	.byte	W06
	.byte			Gs1
	.byte	W05
	.byte		N06	, An1
	.byte	W07
	.byte			As1
	.byte	W06
	.byte		N05	, Bn1
	.byte	W06
	.byte			Cn2
	.byte	W06
	.byte			Bn1
	.byte	W06
	.byte	PEND
	.byte	W96
	.byte	PATT	
		.int	song013_5_1
	.byte	PATT	
		.int	song013_5_2
	.byte	BEND	, c_v
	.byte	W96
	.byte	W96
	.byte		c_v
	.byte	W96
	.byte	W84
	.byte		c_v-64
	.byte	W12
song013_5_5:
	.byte		N17	, Gs4, v127
	.byte	W12
	.byte		N13	, Gn4
	.byte	W06
	.byte		N10	, Cs5
	.byte	W12
	.byte		N06	, An4
	.byte	W06
	.byte		N14	, Cn5
	.byte	W12
	.byte		N05	, Bn4
	.byte	W06
	.byte		N10	, Cs5
	.byte	W12
	.byte		N06	, Dn5
	.byte	W06
	.byte		N05	, Bn4
	.byte	W06
	.byte		N13	, Gn4
	.byte	W06
	.byte		N06	, Dn5
	.byte	W06
	.byte			Ds5
	.byte	W06
	.byte	PEND
song013_5_6:
	.byte	W60
	.byte	BEND	, c_v+63
	.byte	W12
	.byte		c_v+32
	.byte	W24
	.byte	PEND
	.byte	PATT	
		.int	song013_5_3
	.byte	W96
	.byte	PATT	
		.int	song013_5_1
	.byte	PATT	
		.int	song013_5_2
	.byte	PATT	
		.int	song013_5_4
	.byte	W96
	.byte	PATT	
		.int	song013_5_1
	.byte	PATT	
		.int	song013_5_2
	.byte	BEND	, c_v
	.byte	W96
	.byte	W96
	.byte		c_v
	.byte	W96
	.byte	W84
	.byte		c_v-64
	.byte	W12
	.byte	PATT	
		.int	song013_5_5
	.byte	PATT	
		.int	song013_5_6
song013_5_7:
	.byte		N11	, Cn1, v127
	.byte	W11
	.byte		N05	, Dn1
	.byte	W06
	.byte		N06	, Cs1
	.byte	W06
	.byte		N05	, Ds1
	.byte	W06
	.byte		N06	, En1
	.byte	W07
	.byte		N11	, Cn1
	.byte	W11
	.byte		N05	, Dn1
	.byte	W07
	.byte			Gn1
	.byte	W06
	.byte			Gs1
	.byte	W05
	.byte		N06	, An1
	.byte	W07
	.byte			As1
	.byte	W06
	.byte		N05	, Bn1
	.byte	W06
	.byte			Cn2
	.byte	W06
	.byte			Gs2
	.byte	W06
	.byte	PEND
	.byte		N11	, Cn1
	.byte	W11
	.byte		N05	, Dn1
	.byte	W06
	.byte		N06	, Cs1
	.byte	W06
	.byte		N05	, Ds1
	.byte	W06
	.byte		N06	, En1
	.byte	W07
	.byte		N05	, Ds1
	.byte	W05
	.byte			En1
	.byte	W06
	.byte			Gn1
	.byte	W13
	.byte		N36	, An5, v124
	.byte	W36
	.byte	W96
	.byte	W96
	.byte	W96
	.byte	W96
	.byte	W96
	.byte	W96
	.byte	W96
	.byte	W96
	.byte	W96
	.byte	W96
	.byte	PATT	
		.int	song013_5_7
	.byte	PATT	
		.int	song013_5_7
	.byte	W96
	.byte	W96
	.byte	W96
	.byte		N13	, Fn5, v127
	.byte	W13
	.byte		N04	, Fs5
	.byte	W04
	.byte		N14	, Gn5
	.byte	W14
	.byte		N03	, Gs5
	.byte	W04
	.byte		N24	, An5, v092
	.byte	W24
	.byte		N12	, As5
	.byte	W13
	.byte		N05	, Cn6, v036
	.byte	W05
	.byte		N06	, Cs6, v032
	.byte	W07
	.byte		N11	, Bn5, v092
	.byte	W12
	.byte	GOTO	
		.int	song013_5_3
	.byte	FINE

	@********************** Track  6 **********************@

	.global song013_6
song013_6:	@ 0x087A1C67
	.byte	KEYSH	, 0
song013_6_1:
	.byte	W96
	.byte	VOICE	, 106
	.byte	VOL	, v127
	.byte	PAN	, c_v
	.byte	MOD	, 24
	.byte	LFOS	, 43
	.byte	MODT	, 2
	.byte	LFODL	, 0
	.byte	W18
	.byte		N12	, Cn3, v127
	.byte	W78
	.byte	W96
	.byte	W96
	.byte	W96
	.byte	W18
	.byte		N12	
	.byte	W78
	.byte	W96
	.byte	W96
	.byte	W18
	.byte		N12	
	.byte	W78
	.byte	W96
	.byte	W96
	.byte	W96
	.byte	W96
	.byte	W96
	.byte	VOICE	, 106
	.byte	VOL	, v127
	.byte	PAN	, c_v
	.byte	MOD	, 24
	.byte	LFOS	, 43
	.byte	MODT	, 2
	.byte	LFODL	, 0
	.byte	W96
	.byte	W18
	.byte		N12	
	.byte	W78
	.byte	W96
	.byte	W96
	.byte	W96
	.byte	W18
	.byte		N12	
	.byte	W78
	.byte	W96
	.byte	W96
	.byte	W18
	.byte		N12	
	.byte	W78
	.byte	W96
	.byte	W96
	.byte	W96
	.byte	W96
	.byte	W96
	.byte	W96
	.byte	W96
	.byte	W96
	.byte	W96
	.byte	VOICE	, 106
	.byte	VOL	, v127
	.byte	PAN	, c_v
	.byte	MOD	, 24
	.byte	LFOS	, 43
	.byte	MODT	, 2
	.byte	LFODL	, 0
	.byte	W18
	.byte		N12	, Bn2
	.byte	W78
	.byte	W18
	.byte		N12	
	.byte	W78
	.byte	W96
	.byte	W96
	.byte	VOICE	, 106
	.byte	VOL	, v127
	.byte	PAN	, c_v
	.byte	MOD	, 24
	.byte	LFOS	, 43
	.byte	MODT	, 2
	.byte	LFODL	, 0
	.byte	W18
	.byte		N12	, An2
	.byte	W78
	.byte	W18
	.byte		N12	
	.byte	W78
	.byte	W96
	.byte	W96
	.byte	W96
	.byte	W96
	.byte	W96
	.byte	W96
	.byte	W96
	.byte	W96
	.byte	GOTO	
		.int	song013_6_1
	.byte	FINE

	@********************** Track  7 **********************@

	.global song013_7
song013_7:	@ 0x087A1CED
	.byte	KEYSH	, 0
song013_7_1:
	.byte	W96
	.byte	W24
	.byte	VOICE	, 107
	.byte	VOL	, v127
	.byte	PAN	, c_v
	.byte	MOD	, 24
	.byte	LFOS	, 43
	.byte	MODT	, 2
	.byte	LFODL	, 0
	.byte	W06
	.byte		N05	, Cn3, v127
	.byte	W66
	.byte	W96
	.byte	W96
	.byte	W96
	.byte	W30
	.byte		N05	
	.byte	W66
	.byte	W96
	.byte	W96
	.byte	W30
	.byte		N05	
	.byte	W66
	.byte	W96
	.byte	W96
	.byte	W96
	.byte	W96
	.byte	W96
	.byte	VOICE	, 107
	.byte	VOL	, v127
	.byte	PAN	, c_v
	.byte	MOD	, 24
	.byte	LFOS	, 43
	.byte	MODT	, 2
	.byte	LFODL	, 0
	.byte	W96
	.byte	W30
	.byte		N05	
	.byte	W66
	.byte	W96
	.byte	W96
	.byte	W96
	.byte	W30
	.byte		N05	
	.byte	W66
	.byte	W96
	.byte	W96
	.byte	W30
	.byte		N05	
	.byte	W66
	.byte	W96
	.byte	W96
	.byte	W96
	.byte	W96
	.byte	W96
	.byte	W96
	.byte	W96
	.byte	W96
	.byte	W96
	.byte	VOICE	, 107
	.byte	VOL	, v127
	.byte	PAN	, c_v
	.byte	MOD	, 24
	.byte	LFOS	, 43
	.byte	MODT	, 2
	.byte	LFODL	, 0
	.byte	W30
	.byte		N05	, Bn2
	.byte	W66
	.byte	W30
	.byte		N05	
	.byte	W66
	.byte	W96
	.byte	W96
	.byte	VOICE	, 107
	.byte	VOL	, v127
	.byte	PAN	, c_v
	.byte	MOD	, 24
	.byte	LFOS	, 43
	.byte	MODT	, 2
	.byte	LFODL	, 0
	.byte	W30
	.byte		N05	, An2
	.byte	W66
	.byte	W30
	.byte		N05	
	.byte	W66
	.byte	W96
	.byte	W96
	.byte	W96
	.byte	W96
	.byte	W96
	.byte	W96
	.byte	W96
	.byte	W96
	.byte	GOTO	
		.int	song013_7_1
	.byte	FINE

	@********************** Track  8 **********************@

	.global song013_8
song013_8:	@ 0x087A1D74
	.byte	KEYSH	, 0
song013_8_6:
	.byte	W24
	.byte	VOICE	, 108
	.byte	VOL	, v127
	.byte	PAN	, c_v
	.byte	MOD	, 24
	.byte	LFOS	, 43
	.byte	MODT	, 2
	.byte	LFODL	, 0
	.byte	W72
	.byte	W60
	.byte		N05	, Cn3, v127
	.byte	W36
	.byte	W96
	.byte	W96
	.byte	W96
	.byte	W60
	.byte		N05	
	.byte	W36
	.byte	W96
	.byte	W96
	.byte	W60
	.byte		N05	
	.byte	W36
song013_8_1:
	.byte	VOICE	, 100
	.byte	VOL	, v127
	.byte	PAN	, c_v
	.byte	MOD	, 24
	.byte	LFOS	, 43
	.byte	MODT	, 2
	.byte	LFODL	, 0
	.byte		N17	, Bn2, v127
	.byte	W24
	.byte		N05	
	.byte	W72
	.byte	PEND
song013_8_2:
	.byte		N05	, As2, v127
	.byte	W12
	.byte		N05	
	.byte	W84
	.byte	PEND
song013_8_3:
	.byte		N17	, As2, v127
	.byte	W24
	.byte		N05	
	.byte	W24
	.byte	VOICE	, 108
	.byte	VOL	, v127
	.byte	PAN	, c_v
	.byte	MOD	, 24
	.byte	LFOS	, 43
	.byte	MODT	, 2
	.byte	LFODL	, 0
	.byte	W12
	.byte		N05	, Cn3
	.byte	W36
	.byte	PEND
	.byte	W96
	.byte	W96
	.byte	VOICE	, 108
	.byte	VOL	, v127
	.byte	PAN	, c_v
	.byte	MOD	, 24
	.byte	LFOS	, 43
	.byte	MODT	, 2
	.byte	LFODL	, 0
	.byte	W96
	.byte	W60
	.byte		N05	
	.byte	W36
	.byte	W96
	.byte	W96
	.byte	W96
	.byte	W60
	.byte		N05	
	.byte	W36
	.byte	W96
	.byte	W96
	.byte	W60
	.byte		N05	
	.byte	W36
	.byte	PATT	
		.int	song013_8_1
	.byte	PATT	
		.int	song013_8_2
	.byte	PATT	
		.int	song013_8_3
	.byte	W96
	.byte	W96
	.byte	W96
	.byte	VOICE	, 100
	.byte	VOL	, v127
	.byte	PAN	, c_v
	.byte	MOD	, 24
	.byte	LFOS	, 43
	.byte	MODT	, 2
	.byte	LFODL	, 0
	.byte	W96
	.byte		N17	, Cn3, v127
	.byte	W24
	.byte		N05	
	.byte	W72
	.byte		N05	
	.byte	W12
	.byte		N05	
	.byte	W84
	.byte	VOICE	, 108
	.byte	VOL	, v127
	.byte	PAN	, c_v
	.byte	MOD	, 24
	.byte	LFOS	, 43
	.byte	MODT	, 2
	.byte	LFODL	, 0
	.byte	W60
	.byte		N05	, Bn2
	.byte	W36
song013_8_4:
	.byte	W66
	.byte	VOICE	, 100
	.byte	VOL	, v127
	.byte	PAN	, c_v
	.byte	MOD	, 24
	.byte	LFOS	, 43
	.byte	MODT	, 2
	.byte	LFODL	, 0
	.byte	W30
	.byte	PEND
	.byte		N17	, As2, v127
	.byte	W24
	.byte		N05	
	.byte	W72
	.byte	PATT	
		.int	song013_8_2
	.byte	VOICE	, 108
	.byte	VOL	, v127
	.byte	PAN	, c_v
	.byte	MOD	, 24
	.byte	LFOS	, 43
	.byte	MODT	, 2
	.byte	LFODL	, 0
	.byte	W60
	.byte		N05	, An2, v127
	.byte	W36
	.byte	PATT	
		.int	song013_8_4
song013_8_5:
	.byte		N17	, Gs2, v127
	.byte	W24
	.byte		N05	
	.byte	W72
	.byte	PEND
	.byte		N05	
	.byte	W12
	.byte		N05	
	.byte	W84
	.byte	W96
	.byte	PATT	
		.int	song013_8_4
	.byte	PATT	
		.int	song013_8_5
	.byte	PATT	
		.int	song013_8_2
	.byte		N17	, Bn2, v127
	.byte	W24
	.byte		N05	
	.byte	W72
	.byte	W96
	.byte	GOTO	
		.int	song013_8_6
	.byte	FINE

	@********************** Track  9 **********************@

	.global song013_9
song013_9:	@ 0x087A1E83
	.byte	KEYSH	, 0
song013_9_5:
	.byte	W96
	.byte	W72
	.byte	VOICE	, 109
	.byte	VOL	, v127
	.byte	PAN	, c_v
	.byte	MOD	, 24
	.byte	LFOS	, 43
	.byte	MODT	, 2
	.byte	LFODL	, 0
	.byte	W12
	.byte		N12	, Cn3, v127
	.byte	W12
	.byte	W96
	.byte	W96
	.byte	W96
	.byte	W84
	.byte		N12	
	.byte	W12
	.byte	W96
	.byte	W96
	.byte	W84
	.byte		N12	
	.byte	W12
song013_9_1:
	.byte	VOICE	, 101
	.byte	VOL	, v127
	.byte	PAN	, c_v
	.byte	MOD	, 24
	.byte	LFOS	, 43
	.byte	MODT	, 2
	.byte	LFODL	, 0
	.byte	W18
	.byte		N05	, Bn2, v127
	.byte	W30
	.byte		N05	
	.byte	W18
	.byte		N05	
	.byte	W30
	.byte	PEND
song013_9_2:
	.byte	W06
	.byte		N05	, As2, v127
	.byte	W12
	.byte		N05	
	.byte	W78
	.byte	PEND
song013_9_3:
	.byte	W18
	.byte		N05	, As2, v127
	.byte	W30
	.byte	VOICE	, 109
	.byte	VOL	, v127
	.byte	PAN	, c_v
	.byte	MOD	, 24
	.byte	LFOS	, 43
	.byte	MODT	, 2
	.byte	LFODL	, 0
	.byte	W36
	.byte		N12	, Cn3
	.byte	W12
	.byte	PEND
	.byte	W96
	.byte	W96
	.byte	VOICE	, 109
	.byte	VOL	, v127
	.byte	PAN	, c_v
	.byte	MOD	, 24
	.byte	LFOS	, 43
	.byte	MODT	, 2
	.byte	LFODL	, 0
	.byte	W96
	.byte	W84
	.byte		N12	
	.byte	W12
	.byte	W96
	.byte	W96
	.byte	W96
	.byte	W84
	.byte		N12	
	.byte	W12
	.byte	W96
	.byte	W96
	.byte	W84
	.byte		N12	
	.byte	W12
	.byte	PATT	
		.int	song013_9_1
	.byte	PATT	
		.int	song013_9_2
	.byte	PATT	
		.int	song013_9_3
	.byte	W96
	.byte	W96
	.byte	W96
	.byte	VOICE	, 101
	.byte	VOL	, v127
	.byte	PAN	, c_v
	.byte	MOD	, 24
	.byte	LFOS	, 43
	.byte	MODT	, 2
	.byte	LFODL	, 0
	.byte	W96
	.byte	W18
	.byte		N05	, Cn3, v127
	.byte	W30
	.byte		N05	
	.byte	W18
	.byte		N05	
	.byte	W30
	.byte	W06
	.byte		N05	
	.byte	W12
	.byte		N05	
	.byte	W78
	.byte	VOICE	, 109
	.byte	VOL	, v127
	.byte	PAN	, c_v
	.byte	MOD	, 24
	.byte	LFOS	, 43
	.byte	MODT	, 2
	.byte	LFODL	, 0
	.byte	W84
	.byte		N12	, Bn2
	.byte	W12
	.byte	W60
	.byte		N05	
	.byte	W36
	.byte	VOICE	, 101
	.byte	VOL	, v127
	.byte	PAN	, c_v
	.byte	MOD	, 24
	.byte	LFOS	, 43
	.byte	MODT	, 2
	.byte	LFODL	, 0
	.byte	W18
	.byte		N05	, As2
	.byte	W30
	.byte		N05	
	.byte	W18
	.byte		N05	
	.byte	W30
	.byte	PATT	
		.int	song013_9_2
	.byte	VOICE	, 109
	.byte	VOL	, v127
	.byte	PAN	, c_v
	.byte	MOD	, 24
	.byte	LFOS	, 43
	.byte	MODT	, 2
	.byte	LFODL	, 0
	.byte	W84
	.byte		N12	, An2, v127
	.byte	W12
	.byte	W60
	.byte		N05	
	.byte	W36
song013_9_4:
	.byte	VOICE	, 101
	.byte	VOL	, v127
	.byte	PAN	, c_v
	.byte	MOD	, 24
	.byte	LFOS	, 43
	.byte	MODT	, 2
	.byte	LFODL	, 0
	.byte	W18
	.byte		N05	, Gs2, v127
	.byte	W30
	.byte		N05	
	.byte	W18
	.byte		N05	
	.byte	W30
	.byte	PEND
	.byte	W06
	.byte		N05	
	.byte	W12
	.byte		N05	
	.byte	W78
	.byte	W96
	.byte	W96
	.byte	PATT	
		.int	song013_9_4
	.byte	PATT	
		.int	song013_9_2
	.byte	W18
	.byte		N05	, Bn2, v127
	.byte	W30
	.byte		N05	
	.byte	W18
	.byte		N05	
	.byte	W30
	.byte	W96
	.byte	GOTO	
		.int	song013_9_5
	.byte	FINE

	@********************** Track  10 **********************@

	.global song013_10
song013_10:	@ 0x087A1FAA
	.byte	KEYSH	, 0
song013_10_4:
	.byte	W48
	.byte	VOICE	, 110
	.byte	VOL	, v127
	.byte	PAN	, c_v
	.byte	MOD	, 24
	.byte	LFOS	, 43
	.byte	MODT	, 2
	.byte	LFODL	, 0
	.byte	W48
	.byte	W66
	.byte		N05	, Cn3, v127
	.byte	W30
	.byte	W96
	.byte	W96
	.byte	W96
	.byte	W66
	.byte		N05	
	.byte	W30
	.byte	W96
	.byte	W96
	.byte	W66
	.byte		N05	
	.byte	W30
song013_10_1:
	.byte	VOICE	, 102
	.byte	VOL	, v127
	.byte	PAN	, c_v
	.byte	MOD	, 24
	.byte	LFOS	, 43
	.byte	MODT	, 2
	.byte	LFODL	, 0
	.byte	W36
	.byte		N11	, Bn2, v127
	.byte	W60
	.byte	PEND
	.byte	W36
	.byte			As2
	.byte	W60
song013_10_2:
	.byte	W36
	.byte		N11	, As2, v127
	.byte	W12
	.byte	VOICE	, 110
	.byte	VOL	, v127
	.byte	PAN	, c_v
	.byte	MOD	, 24
	.byte	LFOS	, 43
	.byte	MODT	, 2
	.byte	LFODL	, 0
	.byte	W18
	.byte		N05	, Cn3
	.byte	W30
	.byte	PEND
	.byte	W96
	.byte	W96
	.byte	VOICE	, 110
	.byte	VOL	, v127
	.byte	PAN	, c_v
	.byte	MOD	, 24
	.byte	LFOS	, 43
	.byte	MODT	, 2
	.byte	LFODL	, 0
	.byte	W96
	.byte	W66
	.byte		N05	
	.byte	W30
	.byte	W96
	.byte	W96
	.byte	W96
	.byte	W66
	.byte		N05	
	.byte	W30
	.byte	W96
	.byte	W96
	.byte	W66
	.byte		N05	
	.byte	W30
	.byte	PATT	
		.int	song013_10_1
	.byte	W36
	.byte		N11	, As2, v127
	.byte	W60
	.byte	PATT	
		.int	song013_10_2
	.byte	W96
	.byte	W96
	.byte	W96
	.byte	VOICE	, 102
	.byte	VOL	, v127
	.byte	PAN	, c_v
	.byte	MOD	, 24
	.byte	LFOS	, 43
	.byte	MODT	, 2
	.byte	LFODL	, 0
	.byte	W96
	.byte	W36
	.byte		N11	, Cn3, v127
	.byte	W60
	.byte	W36
	.byte		N11	
	.byte	W60
	.byte	VOICE	, 110
	.byte	VOL	, v127
	.byte	PAN	, c_v
	.byte	MOD	, 24
	.byte	LFOS	, 43
	.byte	MODT	, 2
	.byte	LFODL	, 0
	.byte	W66
	.byte		N05	, Bn2
	.byte	W30
	.byte	W66
	.byte		N12	
	.byte	W30
	.byte	VOICE	, 102
	.byte	VOL	, v127
	.byte	PAN	, c_v
	.byte	MOD	, 24
	.byte	LFOS	, 43
	.byte	MODT	, 2
	.byte	LFODL	, 0
	.byte	W36
	.byte		N11	, As2
	.byte	W60
	.byte		N13	, Bn2
	.byte	W36
	.byte		N11	, As2
	.byte	W60
	.byte	VOICE	, 110
	.byte	VOL	, v127
	.byte	PAN	, c_v
	.byte	MOD	, 24
	.byte	LFOS	, 43
	.byte	MODT	, 2
	.byte	LFODL	, 0
	.byte	W66
	.byte		N05	, An2
	.byte	W30
	.byte	W66
	.byte		N12	
	.byte	W30
song013_10_3:
	.byte	VOICE	, 102
	.byte	VOL	, v127
	.byte	PAN	, c_v
	.byte	MOD	, 24
	.byte	LFOS	, 43
	.byte	MODT	, 2
	.byte	LFODL	, 0
	.byte	W36
	.byte		N11	, Gs2, v127
	.byte	W60
	.byte	PEND
	.byte		N13	, An2
	.byte	W36
	.byte		N11	, Gs2
	.byte	W60
	.byte	W96
	.byte	W96
	.byte	PATT	
		.int	song013_10_3
	.byte	W36
	.byte		N11	, As2, v127
	.byte	W60
	.byte	W36
	.byte			Bn2
	.byte	W60
	.byte	W96
	.byte	GOTO	
		.int	song013_10_4
	.byte	FINE

	@********************** Track  11 **********************@

	.global song013_11
song013_11:	@ 0x087A20B5
	.byte	KEYSH	, 0
song013_11_5:
	.byte	W72
	.byte	VOICE	, 111
	.byte	VOL	, v127
	.byte	PAN	, c_v
	.byte	MOD	, 24
	.byte	LFOS	, 43
	.byte	MODT	, 2
	.byte	LFODL	, 0
	.byte	W24
	.byte	W72
	.byte		N05	, Cn3, v127
	.byte	W24
	.byte	W96
	.byte	W96
	.byte	W96
	.byte	W72
	.byte		N05	
	.byte	W24
	.byte	W96
	.byte	W96
	.byte	W72
	.byte		N05	
	.byte	W24
song013_11_1:
	.byte	VOICE	, 103
	.byte	VOL	, v127
	.byte	PAN	, c_v
	.byte	MOD	, 24
	.byte	LFOS	, 43
	.byte	MODT	, 2
	.byte	LFODL	, 0
	.byte	W54
	.byte		N05	, Bn2, v127
	.byte	W18
	.byte		N05	
	.byte	W12
	.byte		N05	
	.byte	W12
	.byte	PEND
song013_11_2:
	.byte	W54
	.byte		N04	, As2, v127
	.byte	W24
	.byte		N05	
	.byte	W12
	.byte		N05	
	.byte	W06
	.byte	PEND
song013_11_3:
	.byte	W48
	.byte	VOICE	, 111
	.byte	VOL	, v127
	.byte	PAN	, c_v
	.byte	MOD	, 24
	.byte	LFOS	, 43
	.byte	MODT	, 2
	.byte	LFODL	, 0
	.byte	W24
	.byte		N05	, Cn3, v127
	.byte	W24
	.byte	PEND
	.byte	W96
	.byte	W96
	.byte	VOICE	, 111
	.byte	VOL	, v127
	.byte	PAN	, c_v
	.byte	MOD	, 24
	.byte	LFOS	, 43
	.byte	MODT	, 2
	.byte	LFODL	, 0
	.byte	W96
	.byte	W72
	.byte		N05	
	.byte	W24
	.byte	W96
	.byte	W96
	.byte	W96
	.byte	W72
	.byte		N05	
	.byte	W24
	.byte	W96
	.byte	W96
	.byte	W72
	.byte		N05	
	.byte	W24
	.byte	PATT	
		.int	song013_11_1
	.byte	PATT	
		.int	song013_11_2
	.byte	PATT	
		.int	song013_11_3
	.byte	W96
	.byte	W96
	.byte	W96
	.byte	VOICE	, 103
	.byte	VOL	, v127
	.byte	PAN	, c_v
	.byte	MOD	, 24
	.byte	LFOS	, 43
	.byte	MODT	, 2
	.byte	LFODL	, 0
	.byte	W96
	.byte	W54
	.byte		N05	, Cn3, v127
	.byte	W18
	.byte		N05	
	.byte	W12
	.byte		N05	
	.byte	W12
	.byte	W54
	.byte		N04	
	.byte	W24
	.byte		N05	
	.byte	W12
	.byte		N05	
	.byte	W06
	.byte	VOICE	, 111
	.byte	VOL	, v127
	.byte	PAN	, c_v
	.byte	MOD	, 24
	.byte	LFOS	, 43
	.byte	MODT	, 2
	.byte	LFODL	, 0
	.byte	W72
	.byte		N05	, Bn2
	.byte	W24
	.byte	W78
	.byte		N05	
	.byte	W18
	.byte	VOICE	, 103
	.byte	VOL	, v127
	.byte	PAN	, c_v
	.byte	MOD	, 24
	.byte	LFOS	, 43
	.byte	MODT	, 2
	.byte	LFODL	, 0
	.byte	W54
	.byte		N05	, As2
	.byte	W18
	.byte		N05	
	.byte	W12
	.byte		N05	
	.byte	W12
	.byte	PATT	
		.int	song013_11_2
	.byte	VOICE	, 111
	.byte	VOL	, v127
	.byte	PAN	, c_v
	.byte	MOD	, 24
	.byte	LFOS	, 43
	.byte	MODT	, 2
	.byte	LFODL	, 0
	.byte	W72
	.byte		N05	, An2, v127
	.byte	W24
	.byte	W78
	.byte		N05	
	.byte	W18
song013_11_4:
	.byte	VOICE	, 103
	.byte	VOL	, v127
	.byte	PAN	, c_v
	.byte	MOD	, 24
	.byte	LFOS	, 43
	.byte	MODT	, 2
	.byte	LFODL	, 0
	.byte	W54
	.byte		N05	, Gs2, v127
	.byte	W18
	.byte		N05	
	.byte	W12
	.byte		N05	
	.byte	W12
	.byte	PEND
	.byte	W54
	.byte		N04	
	.byte	W24
	.byte		N05	
	.byte	W12
	.byte		N05	
	.byte	W06
	.byte	W96
	.byte	W96
	.byte	PATT	
		.int	song013_11_4
	.byte	PATT	
		.int	song013_11_2
	.byte	W54
	.byte		N05	, Bn2, v127
	.byte	W18
	.byte		N05	
	.byte	W12
	.byte		N05	
	.byte	W12
	.byte	W96
	.byte	GOTO	
		.int	song013_11_5
	.byte	FINE

	@********************** Track  12 **********************@

	.global song013_12
song013_12:	@ 0x087A21DF
	.byte	KEYSH	, 0
song013_12_5:
	.byte	W96
	.byte	W24
	.byte	VOICE	, 112
	.byte	VOL	, v127
	.byte	PAN	, c_v
	.byte	MOD	, 24
	.byte	LFOS	, 43
	.byte	MODT	, 2
	.byte	LFODL	, 0
	.byte	W54
	.byte		N05	, Cn3, v127
	.byte	W18
	.byte	W96
	.byte	W96
	.byte	W96
	.byte	W78
	.byte		N05	
	.byte	W18
	.byte	W96
	.byte	W96
	.byte	W78
	.byte		N05	
	.byte	W18
song013_12_1:
	.byte	VOICE	, 104
	.byte	VOL	, v127
	.byte	PAN	, c_v
	.byte	MOD	, 24
	.byte	LFOS	, 43
	.byte	MODT	, 2
	.byte	LFODL	, 0
	.byte	W60
	.byte		N05	, Bn2, v127
	.byte	W36
	.byte	PEND
song013_12_2:
	.byte	W60
	.byte		N04	, As2, v127
	.byte	W12
	.byte		N05	
	.byte	W12
	.byte		N05	
	.byte	W12
	.byte	PEND
song013_12_3:
	.byte	W48
	.byte	VOICE	, 112
	.byte	VOL	, v127
	.byte	PAN	, c_v
	.byte	MOD	, 24
	.byte	LFOS	, 43
	.byte	MODT	, 2
	.byte	LFODL	, 0
	.byte	W30
	.byte		N05	, Cn3, v127
	.byte	W18
	.byte	PEND
	.byte	W96
	.byte	W96
	.byte	VOICE	, 112
	.byte	VOL	, v127
	.byte	PAN	, c_v
	.byte	MOD	, 24
	.byte	LFOS	, 43
	.byte	MODT	, 2
	.byte	LFODL	, 0
	.byte	W96
	.byte	W78
	.byte		N05	
	.byte	W18
	.byte	W96
	.byte	W96
	.byte	W96
	.byte	W78
	.byte		N05	
	.byte	W18
	.byte	W96
	.byte	W96
	.byte	W78
	.byte		N05	
	.byte	W18
	.byte	PATT	
		.int	song013_12_1
	.byte	PATT	
		.int	song013_12_2
	.byte	PATT	
		.int	song013_12_3
	.byte	W96
	.byte	W96
	.byte	W96
	.byte	VOICE	, 104
	.byte	VOL	, v127
	.byte	PAN	, c_v
	.byte	MOD	, 24
	.byte	LFOS	, 43
	.byte	MODT	, 2
	.byte	LFODL	, 0
	.byte	W96
	.byte	W60
	.byte		N05	, Cn3, v127
	.byte	W36
	.byte	W60
	.byte		N04	
	.byte	W12
	.byte		N05	
	.byte	W12
	.byte		N05	
	.byte	W12
	.byte	VOICE	, 112
	.byte	VOL	, v127
	.byte	PAN	, c_v
	.byte	MOD	, 24
	.byte	LFOS	, 43
	.byte	MODT	, 2
	.byte	LFODL	, 0
	.byte	W78
	.byte		N05	, Bn2
	.byte	W18
	.byte	W84
	.byte		N05	
	.byte	W12
	.byte	VOICE	, 104
	.byte	VOL	, v127
	.byte	PAN	, c_v
	.byte	MOD	, 24
	.byte	LFOS	, 43
	.byte	MODT	, 2
	.byte	LFODL	, 0
	.byte	W60
	.byte		N05	, As2
	.byte	W36
	.byte	PATT	
		.int	song013_12_2
	.byte	VOICE	, 112
	.byte	VOL	, v127
	.byte	PAN	, c_v
	.byte	MOD	, 24
	.byte	LFOS	, 43
	.byte	MODT	, 2
	.byte	LFODL	, 0
	.byte	W78
	.byte		N05	, An2, v127
	.byte	W18
	.byte	W84
	.byte		N05	
	.byte	W12
song013_12_4:
	.byte	VOICE	, 104
	.byte	VOL	, v127
	.byte	PAN	, c_v
	.byte	MOD	, 24
	.byte	LFOS	, 43
	.byte	MODT	, 2
	.byte	LFODL	, 0
	.byte	W60
	.byte		N05	, Gs2, v127
	.byte	W36
	.byte	PEND
	.byte	W60
	.byte		N04	
	.byte	W12
	.byte		N05	
	.byte	W12
	.byte		N05	
	.byte	W12
	.byte	W96
	.byte	W96
	.byte	PATT	
		.int	song013_12_4
	.byte	PATT	
		.int	song013_12_2
	.byte	W60
	.byte		N05	, Bn2, v127
	.byte	W36
	.byte	W96
	.byte	GOTO	
		.int	song013_12_5
	.byte	FINE

	@********************** Track  13 **********************@

	.global song013_13
song013_13:	@ 0x087A22F5
	.byte	KEYSH	, 0
song013_13_6:
	.byte	W24
	.byte	VOICE	, 113
	.byte	VOL	, v127
	.byte	PAN	, c_v
	.byte	MOD	, 24
	.byte	LFOS	, 43
	.byte	MODT	, 2
	.byte	LFODL	, 0
	.byte	W72
song013_13_1:
	.byte		N11	, Cn3, v127
	.byte	W36
	.byte		N11	
	.byte	W60
	.byte	PEND
	.byte	W96
	.byte	W96
	.byte	W96
	.byte	PATT	
		.int	song013_13_1
	.byte	W96
	.byte	W96
	.byte	PATT	
		.int	song013_13_1
song013_13_2:
	.byte	VOICE	, 105
	.byte	VOL	, v127
	.byte	PAN	, c_v
	.byte	MOD	, 24
	.byte	LFOS	, 43
	.byte	MODT	, 2
	.byte	LFODL	, 0
	.byte	W78
	.byte		N05	, Bn2, v127
	.byte	W12
	.byte		N05	
	.byte	W06
	.byte	PEND
song013_13_3:
	.byte	W24
	.byte		N11	, As2, v127
	.byte	W24
	.byte		N05	
	.byte	W18
	.byte		N05	
	.byte	W30
	.byte	PEND
song013_13_4:
	.byte	W48
	.byte	VOICE	, 113
	.byte	VOL	, v127
	.byte	PAN	, c_v
	.byte	MOD	, 24
	.byte	LFOS	, 43
	.byte	MODT	, 2
	.byte	LFODL	, 0
	.byte	W48
	.byte	PEND
	.byte	W96
	.byte		N11	, Cn3, v127
	.byte	W96
	.byte	VOICE	, 113
	.byte	VOL	, v127
	.byte	PAN	, c_v
	.byte	MOD	, 24
	.byte	LFOS	, 43
	.byte	MODT	, 2
	.byte	LFODL	, 0
	.byte	W96
	.byte	PATT	
		.int	song013_13_1
	.byte	W96
	.byte	W96
	.byte	W96
	.byte	PATT	
		.int	song013_13_1
	.byte	W96
	.byte	W96
	.byte	PATT	
		.int	song013_13_1
	.byte	PATT	
		.int	song013_13_2
	.byte	PATT	
		.int	song013_13_3
	.byte	PATT	
		.int	song013_13_4
	.byte	W96
	.byte		N11	, Cn3, v127
	.byte	W96
	.byte	W96
	.byte	VOICE	, 105
	.byte	VOL	, v127
	.byte	PAN	, c_v
	.byte	MOD	, 24
	.byte	LFOS	, 43
	.byte	MODT	, 2
	.byte	LFODL	, 0
	.byte	W96
	.byte	W78
	.byte		N05	
	.byte	W12
	.byte		N05	
	.byte	W06
	.byte	W24
	.byte		N11	
	.byte	W24
	.byte		N05	
	.byte	W18
	.byte		N05	
	.byte	W30
	.byte	VOICE	, 113
	.byte	VOL	, v127
	.byte	PAN	, c_v
	.byte	MOD	, 24
	.byte	LFOS	, 43
	.byte	MODT	, 2
	.byte	LFODL	, 0
	.byte		N11	, Bn2
	.byte	W36
	.byte		N11	
	.byte	W60
	.byte		N11	
	.byte	W36
	.byte		N11	
	.byte	W54
	.byte		N05	
	.byte	W06
	.byte	VOICE	, 105
	.byte	VOL	, v127
	.byte	PAN	, c_v
	.byte	MOD	, 24
	.byte	LFOS	, 43
	.byte	MODT	, 2
	.byte	LFODL	, 0
	.byte	W78
	.byte		N05	, As2
	.byte	W12
	.byte		N05	
	.byte	W06
	.byte	PATT	
		.int	song013_13_3
	.byte	VOICE	, 113
	.byte	VOL	, v127
	.byte	PAN	, c_v
	.byte	MOD	, 24
	.byte	LFOS	, 43
	.byte	MODT	, 2
	.byte	LFODL	, 0
	.byte		N11	, An2, v127
	.byte	W36
	.byte		N11	
	.byte	W60
	.byte		N11	
	.byte	W36
	.byte		N11	
	.byte	W54
	.byte		N05	
	.byte	W06
song013_13_5:
	.byte	VOICE	, 105
	.byte	VOL	, v127
	.byte	PAN	, c_v
	.byte	MOD	, 24
	.byte	LFOS	, 43
	.byte	MODT	, 2
	.byte	LFODL	, 0
	.byte	W78
	.byte		N05	, Gs2, v127
	.byte	W12
	.byte		N05	
	.byte	W06
	.byte	PEND
	.byte	W24
	.byte		N11	
	.byte	W24
	.byte		N05	
	.byte	W18
	.byte		N05	
	.byte	W30
	.byte	W96
	.byte	W96
	.byte	PATT	
		.int	song013_13_5
	.byte	PATT	
		.int	song013_13_3
	.byte	W78
	.byte		N05	, Bn2, v127
	.byte	W12
	.byte		N05	
	.byte	W06
	.byte	W96
	.byte	GOTO	
		.int	song013_13_6
	.byte	FINE

	@********************** Track  14 **********************@

	.global song013_14
song013_14:	@ 0x087A2429
	.byte	KEYSH	, 0
song013_14_3:
	.byte	W48
	.byte	VOICE	, 114
	.byte	VOL	, v127
	.byte	PAN	, c_v
	.byte	MOD	, 24
	.byte	LFOS	, 43
	.byte	MODT	, 2
	.byte	LFODL	, 0
	.byte	W48
song013_14_1:
	.byte	W12
	.byte		N06	, Cn3, v127
	.byte	W36
	.byte		N06	
	.byte	W48
	.byte	PEND
	.byte	W96
	.byte	W96
	.byte	W96
	.byte	PATT	
		.int	song013_14_1
	.byte	W96
	.byte	W96
	.byte	PATT	
		.int	song013_14_1
	.byte	W96
	.byte	W96
song013_14_2:
	.byte	W48
	.byte	VOICE	, 114
	.byte	VOL	, v127
	.byte	PAN	, c_v
	.byte	MOD	, 24
	.byte	LFOS	, 43
	.byte	MODT	, 2
	.byte	LFODL	, 0
	.byte		N06	, Cn3, v127
	.byte	W48
	.byte	PEND
	.byte	W96
	.byte	W96
	.byte	VOICE	, 114
	.byte	VOL	, v127
	.byte	PAN	, c_v
	.byte	MOD	, 24
	.byte	LFOS	, 43
	.byte	MODT	, 2
	.byte	LFODL	, 0
	.byte	W96
	.byte	PATT	
		.int	song013_14_1
	.byte	W96
	.byte	W96
	.byte	W96
	.byte	PATT	
		.int	song013_14_1
	.byte	W96
	.byte	W96
	.byte	PATT	
		.int	song013_14_1
	.byte	W96
	.byte	W96
	.byte	PATT	
		.int	song013_14_2
	.byte	W96
	.byte	W96
	.byte	W96
	.byte	W96
	.byte	W96
	.byte	W96
	.byte	VOICE	, 114
	.byte	VOL	, v127
	.byte	PAN	, c_v
	.byte	MOD	, 24
	.byte	LFOS	, 43
	.byte	MODT	, 2
	.byte	LFODL	, 0
	.byte	W12
	.byte		N06	, Bn2, v127
	.byte	W36
	.byte		N06	
	.byte	W48
	.byte	W12
	.byte		N06	
	.byte	W36
	.byte		N06	
	.byte	W48
	.byte	W96
	.byte	W96
	.byte	VOICE	, 114
	.byte	VOL	, v127
	.byte	PAN	, c_v
	.byte	MOD	, 24
	.byte	LFOS	, 43
	.byte	MODT	, 2
	.byte	LFODL	, 0
	.byte	W12
	.byte		N06	, An2
	.byte	W36
	.byte		N06	
	.byte	W48
	.byte	W12
	.byte		N06	
	.byte	W36
	.byte		N06	
	.byte	W48
	.byte	W96
	.byte	W96
	.byte	W96
	.byte	W96
	.byte	W96
	.byte	W96
	.byte	W96
	.byte	W96
	.byte	GOTO	
		.int	song013_14_3
	.byte	FINE

	@********************** Track  15 **********************@

	.global song013_15
song013_15:	@ 0x087A24DD
	.byte	KEYSH	, 0
song013_15_2:
	.byte	W72
	.byte	VOICE	, 115
	.byte	VOL	, v127
	.byte	PAN	, c_v
	.byte	MOD	, 24
	.byte	LFOS	, 43
	.byte	MODT	, 2
	.byte	LFODL	, 0
	.byte	W24
	.byte	W54
	.byte		N05	, Cn3, v127
	.byte	W42
	.byte	W96
	.byte	W96
	.byte	W96
	.byte	W54
	.byte		N05	
	.byte	W42
	.byte	W96
	.byte	W96
	.byte	W54
	.byte		N05	
	.byte	W42
	.byte	W96
	.byte	W96
song013_15_1:
	.byte	W48
	.byte	VOICE	, 115
	.byte	VOL	, v127
	.byte	PAN	, c_v
	.byte	MOD	, 24
	.byte	LFOS	, 43
	.byte	MODT	, 2
	.byte	LFODL	, 0
	.byte	W06
	.byte		N05	, Cn3, v127
	.byte	W42
	.byte	PEND
	.byte	W96
	.byte	W96
	.byte	VOICE	, 115
	.byte	VOL	, v127
	.byte	PAN	, c_v
	.byte	MOD	, 24
	.byte	LFOS	, 43
	.byte	MODT	, 2
	.byte	LFODL	, 0
	.byte	W96
	.byte	W54
	.byte		N05	
	.byte	W42
	.byte	W96
	.byte	W96
	.byte	W96
	.byte	W54
	.byte		N05	
	.byte	W42
	.byte	W96
	.byte	W96
	.byte	W54
	.byte		N05	
	.byte	W42
	.byte	W96
	.byte	W96
	.byte	PATT	
		.int	song013_15_1
	.byte	W96
	.byte	W96
	.byte	W96
	.byte	W96
	.byte	W96
	.byte	W96
	.byte	VOICE	, 115
	.byte	VOL	, v127
	.byte	PAN	, c_v
	.byte	MOD	, 24
	.byte	LFOS	, 43
	.byte	MODT	, 2
	.byte	LFODL	, 0
	.byte	W54
	.byte		N05	, Bn2, v127
	.byte	W42
	.byte	W54
	.byte		N05	
	.byte	W42
	.byte	W96
	.byte	W96
	.byte	VOICE	, 115
	.byte	VOL	, v127
	.byte	PAN	, c_v
	.byte	MOD	, 24
	.byte	LFOS	, 43
	.byte	MODT	, 2
	.byte	LFODL	, 0
	.byte	W54
	.byte		N05	, An2
	.byte	W42
	.byte	W54
	.byte		N05	
	.byte	W42
	.byte	W96
	.byte	W96
	.byte	W96
	.byte	W96
	.byte	W96
	.byte	W96
	.byte	W96
	.byte	W96
	.byte	GOTO	
		.int	song013_15_2
	.byte	FINE

	.align 2
	.global song013
song013:	@ 0x087A2580
	.byte	15		@ trackCount
	.byte	0		@ blockCount
	.byte	0		@ priority
	.byte	128		@ reverb

	.int	voicegroup000		@ voicegroup/tone

	.int	song013_1		@ track
	.int	song013_2		@ track
	.int	song013_3		@ track
	.int	song013_4		@ track
	.int	song013_5		@ track
	.int	song013_6		@ track
	.int	song013_7		@ track
	.int	song013_8		@ track
	.int	song013_9		@ track
	.int	song013_10		@ track
	.int	song013_11		@ track
	.int	song013_12		@ track
	.int	song013_13		@ track
	.int	song013_14		@ track
	.int	song013_15		@ track
