	.include "MPlayDef.s"

	.section .rodata

	@********************** Track  1 **********************@

	.align 2
	.global song024_1
song024_1:	@ 0x087AC130
	.byte	KEYSH	, 0
	.byte	TEMPO	, 80
	.byte	VOICE	, 97
	.byte	VOL	, v110
	.byte	PAN	, c_v
	.byte	BENDR	, 3
	.byte	PRIO	, 30
	.byte		TIE	, Gs1, v127
	.byte		TIE	, Cn2
	.byte	W05
	.byte	VOL	, v052
	.byte	W03
	.byte		v053
	.byte	W02
	.byte		v054
	.byte	W03
	.byte		v055
	.byte	W03
	.byte		v056
	.byte	W02
	.byte		v057
	.byte	W03
	.byte		v058
	.byte	W03
	.byte		v058
	.byte	W02
	.byte		v059
	.byte	W03
	.byte		v060
	.byte	W03
	.byte		v061
	.byte	W02
	.byte		v062
	.byte	W03
	.byte		v063
	.byte	W03
	.byte		v064
	.byte	W02
	.byte		v064
	.byte	W03
	.byte		v065
	.byte	W03
	.byte		v066
	.byte	W02
	.byte		v067
	.byte	W03
	.byte		v068
	.byte	W03
	.byte		v069
	.byte	W02
	.byte		v070
	.byte	W03
	.byte		v071
	.byte	W03
	.byte		v071
	.byte	W02
	.byte		v072
	.byte	W03
	.byte		v073
	.byte	W03
	.byte		v074
	.byte	W02
	.byte		v075
	.byte	W03
	.byte		v076
	.byte	W03
	.byte		v077
	.byte	W02
	.byte		v077
	.byte	W03
	.byte		v078
	.byte	W03
	.byte		v079
	.byte	W02
	.byte		v080
	.byte	W03
	.byte		v081
	.byte	W03
song024_1_1:
	.byte	VOL	, v082
	.byte	W02
	.byte		v083
	.byte	W03
	.byte		v084
	.byte	W03
	.byte		v084
	.byte	W03
	.byte		v085
	.byte	W02
	.byte		v086
	.byte	W03
	.byte		v087
	.byte	W03
	.byte		v088
	.byte	W02
	.byte		v089
	.byte	W03
	.byte		v090
	.byte	W03
	.byte		v090
	.byte	W02
	.byte		v091
	.byte	W03
	.byte		v092
	.byte	W03
	.byte		v093
	.byte	W02
	.byte		v094
	.byte	W03
	.byte		v095
	.byte	W03
	.byte		v096
	.byte	W02
	.byte		v097
	.byte	W03
	.byte		v097
	.byte	W03
	.byte		v098
	.byte	W02
	.byte		v099
	.byte	W03
	.byte		v100
	.byte	W03
	.byte		v101
	.byte	W02
	.byte		v102
	.byte	W03
	.byte		v103
	.byte	W03
	.byte		v103
	.byte	W02
	.byte		v104
	.byte	W03
	.byte		v105
	.byte	W03
	.byte		v106
	.byte	W02
	.byte		v107
	.byte	W03
	.byte		v108
	.byte	W03
	.byte		v109
	.byte	W01
	.byte		v110
	.byte	W06
	.byte		v109
	.byte	W03
	.byte		v108
	.byte	W03
	.byte	PEND
	.byte		EOT	, Cn2
song024_1_2:
	.byte	VOL	, v107
	.byte		TIE	, Dn2, v127
	.byte	W03
	.byte	VOL	, v106
	.byte	W03
	.byte		v105
	.byte	W03
	.byte		v104
	.byte	W03
	.byte		v103
	.byte	W03
	.byte		v103
	.byte	W03
	.byte		v102
	.byte	W03
	.byte		v101
	.byte	W03
	.byte		v100
	.byte	W03
	.byte		v099
	.byte	W03
	.byte		v098
	.byte	W03
	.byte		v097
	.byte	W03
	.byte		v097
	.byte	W03
	.byte		v096
	.byte	W03
	.byte		v095
	.byte	W03
	.byte		v094
	.byte	W03
	.byte		v093
	.byte	W03
	.byte		v092
	.byte	W03
	.byte		v091
	.byte	W03
	.byte		v090
	.byte	W03
	.byte		v090
	.byte	W03
	.byte		v089
	.byte	W03
	.byte		v088
	.byte	W03
	.byte		v087
	.byte	W03
	.byte		v086
	.byte	W03
	.byte		v085
	.byte	W03
	.byte		v084
	.byte	W03
	.byte		v084
	.byte	W03
	.byte		v083
	.byte	W03
	.byte		v082
	.byte	W03
	.byte		v081
	.byte	W03
	.byte		v080
	.byte	W03
	.byte	PEND
song024_1_3:
	.byte	VOL	, v079
	.byte	W03
	.byte		v078
	.byte	W03
	.byte		v077
	.byte	W03
	.byte		v077
	.byte	W04
	.byte		v076
	.byte	W03
	.byte		v075
	.byte	W03
	.byte		v074
	.byte	W03
	.byte		v073
	.byte	W03
	.byte		v072
	.byte	W03
	.byte		v071
	.byte	W03
	.byte		v071
	.byte	W03
	.byte		v070
	.byte	W03
	.byte		v069
	.byte	W03
	.byte		v068
	.byte	W03
	.byte		v067
	.byte	W03
	.byte		v066
	.byte	W03
	.byte		v065
	.byte	W03
	.byte		v064
	.byte	W03
	.byte		v064
	.byte	W03
	.byte		v063
	.byte	W03
	.byte		v062
	.byte	W03
	.byte		v061
	.byte	W03
	.byte		v060
	.byte	W03
	.byte		v059
	.byte	W03
	.byte		v058
	.byte	W03
	.byte		v058
	.byte	W03
	.byte		v057
	.byte	W03
	.byte		v056
	.byte	W03
	.byte		v055
	.byte	W03
	.byte		v054
	.byte	W03
	.byte		v053
	.byte	W03
	.byte		v052
	.byte	W02
	.byte	PEND
	.byte		EOT	, Dn2
song024_1_4:
	.byte	VOL	, v051
	.byte		TIE	, Ds2, v127
	.byte	W05
	.byte	VOL	, v052
	.byte	W03
	.byte		v053
	.byte	W02
	.byte		v054
	.byte	W03
	.byte		v055
	.byte	W03
	.byte		v056
	.byte	W02
	.byte		v057
	.byte	W03
	.byte		v058
	.byte	W03
	.byte		v058
	.byte	W02
	.byte		v059
	.byte	W03
	.byte		v060
	.byte	W03
	.byte		v061
	.byte	W02
	.byte		v062
	.byte	W03
	.byte		v063
	.byte	W03
	.byte		v064
	.byte	W02
	.byte		v064
	.byte	W03
	.byte		v065
	.byte	W03
	.byte		v066
	.byte	W02
	.byte		v067
	.byte	W03
	.byte		v068
	.byte	W03
	.byte		v069
	.byte	W02
	.byte		v070
	.byte	W03
	.byte		v071
	.byte	W03
	.byte		v071
	.byte	W02
	.byte		v072
	.byte	W03
	.byte		v073
	.byte	W03
	.byte		v074
	.byte	W02
	.byte		v075
	.byte	W03
	.byte		v076
	.byte	W03
	.byte		v077
	.byte	W02
	.byte		v077
	.byte	W03
	.byte		v078
	.byte	W03
	.byte		v079
	.byte	W02
	.byte		v080
	.byte	W03
	.byte		v081
	.byte	W03
	.byte	PEND
	.byte	PATT	
		.word	song024_1_1
	.byte		EOT	, Ds2
	.byte	PATT	
		.word	song024_1_2
	.byte	VOL	, v079
	.byte	W03
	.byte		v078
	.byte	W03
	.byte		v077
	.byte	W03
	.byte		v077
	.byte	W04
	.byte		v076
	.byte	W03
	.byte		v075
	.byte	W03
	.byte		v074
	.byte	W03
	.byte		v073
	.byte	W03
	.byte		v072
	.byte	W03
	.byte		v071
	.byte	W03
	.byte		v071
	.byte	W03
	.byte		v070
	.byte	W03
	.byte		v069
	.byte	W03
	.byte		v068
	.byte	W03
	.byte		v067
	.byte	W03
	.byte		v066
	.byte	W03
	.byte		v065
	.byte	W03
	.byte		v064
	.byte	W03
	.byte		v064
	.byte	W03
	.byte		v063
	.byte	W03
	.byte		v062
	.byte	W03
	.byte		v061
	.byte	W03
	.byte		v060
	.byte	W03
	.byte		v059
	.byte	W03
	.byte		v058
	.byte	W03
	.byte		v058
	.byte	W03
	.byte		v057
	.byte	W03
	.byte		v056
	.byte	W03
	.byte		v055
	.byte	W03
	.byte		v054
	.byte	W03
	.byte		v053
	.byte	W03
	.byte		v052
	.byte	W01
	.byte		EOT	, Gs1
	.byte	W01
	.byte			Dn2
song024_1_9:
	.byte	VOL	, v051
	.byte		TIE	, Gs1, v127
	.byte		TIE	, Cn2
	.byte	W05
	.byte	VOL	, v052
	.byte	W03
	.byte		v053
	.byte	W02
	.byte		v054
	.byte	W03
	.byte		v055
	.byte	W03
	.byte		v056
	.byte	W02
	.byte		v057
	.byte	W03
	.byte		v058
	.byte	W03
	.byte		v058
	.byte	W02
	.byte		v059
	.byte	W03
	.byte		v060
	.byte	W03
	.byte		v061
	.byte	W02
	.byte		v062
	.byte	W03
	.byte		v063
	.byte	W03
	.byte		v064
	.byte	W02
	.byte		v064
	.byte	W03
	.byte		v065
	.byte	W03
	.byte		v066
	.byte	W02
	.byte		v067
	.byte	W03
	.byte		v068
	.byte	W03
	.byte		v069
	.byte	W02
	.byte		v070
	.byte	W03
	.byte		v071
	.byte	W03
	.byte		v071
	.byte	W02
	.byte		v072
	.byte	W03
	.byte		v073
	.byte	W03
	.byte		v074
	.byte	W02
	.byte		v075
	.byte	W03
	.byte		v076
	.byte	W03
	.byte		v077
	.byte	W02
	.byte		v077
	.byte	W03
	.byte		v078
	.byte	W03
	.byte		v079
	.byte	W02
	.byte		v080
	.byte	W03
	.byte		v081
	.byte	W03
	.byte	PEND
	.byte	PATT	
		.word	song024_1_1
	.byte		EOT	, Cn2
	.byte	PATT	
		.word	song024_1_2
	.byte	PATT	
		.word	song024_1_3
	.byte		EOT	, Dn2
	.byte	PATT	
		.word	song024_1_4
	.byte	PATT	
		.word	song024_1_1
	.byte		EOT	, Ds2
	.byte	PATT	
		.word	song024_1_2
	.byte	PATT	
		.word	song024_1_3
	.byte		EOT	, Gs1
	.byte			Dn2
song024_1_5:
	.byte	VOL	, v051
	.byte	W05
	.byte		v052
	.byte	W03
	.byte		v053
	.byte	W02
	.byte		v054
	.byte	W03
	.byte		v055
	.byte	W03
	.byte		v056
	.byte	W02
	.byte		v057
	.byte	W03
	.byte		v058
	.byte	W03
	.byte		v058
	.byte	W02
	.byte		v059
	.byte	W03
	.byte		v060
	.byte	W03
	.byte		v061
	.byte	W02
	.byte		v062
	.byte	W03
	.byte		v063
	.byte	W03
	.byte		v064
	.byte	W02
	.byte		v064
	.byte	W03
	.byte		v065
	.byte	W03
	.byte		v066
	.byte	W02
	.byte		v067
	.byte	W03
	.byte		v068
	.byte	W03
	.byte		v069
	.byte	W02
	.byte		v070
	.byte	W03
	.byte		v071
	.byte	W03
	.byte		v071
	.byte	W02
	.byte		v072
	.byte	W03
	.byte		v073
	.byte	W03
	.byte		v074
	.byte	W02
	.byte		v075
	.byte	W03
	.byte		v076
	.byte	W03
	.byte		v077
	.byte	W02
	.byte		v077
	.byte	W03
	.byte		v078
	.byte	W03
	.byte		v079
	.byte	W02
	.byte		v080
	.byte	W03
	.byte		v081
	.byte	W03
	.byte	PEND
	.byte	PATT	
		.word	song024_1_1
song024_1_6:
	.byte	VOL	, v107
	.byte	W03
	.byte		v106
	.byte	W03
	.byte		v105
	.byte	W03
	.byte		v104
	.byte	W03
	.byte		v103
	.byte	W03
	.byte		v103
	.byte	W03
	.byte		v102
	.byte	W03
	.byte		v101
	.byte	W03
	.byte		v100
	.byte	W03
	.byte		v099
	.byte	W03
	.byte		v098
	.byte	W03
	.byte		v097
	.byte	W03
	.byte		v097
	.byte	W03
	.byte		v096
	.byte	W03
	.byte		v095
	.byte	W03
	.byte		v094
	.byte	W03
	.byte		v093
	.byte	W03
	.byte		v092
	.byte	W03
	.byte		v091
	.byte	W03
	.byte		v090
	.byte	W03
	.byte		v090
	.byte	W03
	.byte		v089
	.byte	W03
	.byte		v088
	.byte	W03
	.byte		v087
	.byte	W03
	.byte		v086
	.byte	W03
	.byte		v085
	.byte	W03
	.byte		v084
	.byte	W03
	.byte		v084
	.byte	W03
	.byte		v083
	.byte	W03
	.byte		v082
	.byte	W03
	.byte		v081
	.byte	W03
	.byte		v080
	.byte	W03
	.byte	PEND
	.byte	PATT	
		.word	song024_1_3
	.byte	PATT	
		.word	song024_1_5
	.byte	PATT	
		.word	song024_1_1
	.byte	PATT	
		.word	song024_1_6
	.byte	PATT	
		.word	song024_1_3
song024_1_8:
	.byte	VOL	, v051
	.byte		TIE	, Gs1, v127
	.byte		TIE	, Fn2
	.byte		TIE	, Cn3
	.byte	W05
	.byte	VOL	, v052
	.byte	W03
	.byte		v053
	.byte	W02
	.byte		v054
	.byte	W03
	.byte		v055
	.byte	W03
	.byte		v056
	.byte	W02
	.byte		v057
	.byte	W03
	.byte		v058
	.byte	W03
	.byte		v058
	.byte	W02
	.byte		v059
	.byte	W03
	.byte		v060
	.byte	W03
	.byte		v061
	.byte	W02
	.byte		v062
	.byte	W03
	.byte		v063
	.byte	W03
	.byte		v064
	.byte	W02
	.byte		v064
	.byte	W03
	.byte		v065
	.byte	W03
	.byte		v066
	.byte	W02
	.byte		v067
	.byte	W03
	.byte		v068
	.byte	W03
	.byte		v069
	.byte	W02
	.byte		v070
	.byte	W03
	.byte		v071
	.byte	W03
	.byte		v071
	.byte	W02
	.byte		v072
	.byte	W03
	.byte		v073
	.byte	W03
	.byte		v074
	.byte	W02
	.byte		v075
	.byte	W03
	.byte		v076
	.byte	W03
	.byte		v077
	.byte	W02
	.byte		v077
	.byte	W03
	.byte		v078
	.byte	W03
	.byte		v079
	.byte	W02
	.byte		v080
	.byte	W03
	.byte		v081
	.byte	W03
	.byte	PEND
	.byte	PATT	
		.word	song024_1_1
	.byte		EOT	, Gs1
	.byte			Cn3
song024_1_7:
	.byte	VOL	, v107
	.byte		TIE	, As1, v127
	.byte		TIE	, Dn3
	.byte	W03
	.byte	VOL	, v106
	.byte	W03
	.byte		v105
	.byte	W03
	.byte		v104
	.byte	W03
	.byte		v103
	.byte	W03
	.byte		v103
	.byte	W03
	.byte		v102
	.byte	W03
	.byte		v101
	.byte	W03
	.byte		v100
	.byte	W03
	.byte		v099
	.byte	W03
	.byte		v098
	.byte	W03
	.byte		v097
	.byte	W03
	.byte		v097
	.byte	W03
	.byte		v096
	.byte	W03
	.byte		v095
	.byte	W03
	.byte		v094
	.byte	W03
	.byte		v093
	.byte	W03
	.byte		v092
	.byte	W03
	.byte		v091
	.byte	W03
	.byte		v090
	.byte	W03
	.byte		v090
	.byte	W03
	.byte		v089
	.byte	W03
	.byte		v088
	.byte	W03
	.byte		v087
	.byte	W03
	.byte		v086
	.byte	W03
	.byte		v085
	.byte	W03
	.byte		v084
	.byte	W03
	.byte		v084
	.byte	W03
	.byte		v083
	.byte	W03
	.byte		v082
	.byte	W03
	.byte		v081
	.byte	W03
	.byte		v080
	.byte	W03
	.byte	PEND
	.byte	PATT	
		.word	song024_1_3
	.byte		EOT	, As1
	.byte			Dn3
	.byte	VOL	, v051
	.byte		TIE	, Cn2, v127
	.byte		TIE	, Ds3
	.byte	W05
	.byte	VOL	, v052
	.byte	W03
	.byte		v053
	.byte	W02
	.byte		v054
	.byte	W03
	.byte		v055
	.byte	W03
	.byte		v056
	.byte	W02
	.byte		v057
	.byte	W03
	.byte		v058
	.byte	W03
	.byte		v058
	.byte	W02
	.byte		v059
	.byte	W03
	.byte		v060
	.byte	W03
	.byte		v061
	.byte	W02
	.byte		v062
	.byte	W03
	.byte		v063
	.byte	W03
	.byte		v064
	.byte	W02
	.byte		v064
	.byte	W03
	.byte		v065
	.byte	W03
	.byte		v066
	.byte	W02
	.byte		v067
	.byte	W03
	.byte		v068
	.byte	W03
	.byte		v069
	.byte	W02
	.byte		v070
	.byte	W03
	.byte		v071
	.byte	W03
	.byte		v071
	.byte	W02
	.byte		v072
	.byte	W03
	.byte		v073
	.byte	W03
	.byte		v074
	.byte	W02
	.byte		v075
	.byte	W03
	.byte		v076
	.byte	W03
	.byte		v077
	.byte	W02
	.byte		v077
	.byte	W03
	.byte		v078
	.byte	W03
	.byte		v079
	.byte	W02
	.byte		v080
	.byte	W03
	.byte		v081
	.byte	W03
	.byte	PATT	
		.word	song024_1_1
	.byte		EOT	, Cn2
	.byte			Ds3
	.byte	PATT	
		.word	song024_1_7
	.byte	PATT	
		.word	song024_1_3
	.byte		EOT	, As1
	.byte			Fn2
	.byte			Dn3
	.byte	PATT	
		.word	song024_1_8
	.byte	PATT	
		.word	song024_1_1
	.byte		EOT	, Gs1
	.byte			Cn3
	.byte	PATT	
		.word	song024_1_7
	.byte	PATT	
		.word	song024_1_3
	.byte		EOT	, As1
	.byte			Fn2
	.byte			Dn3
	.byte	VOL	, v051
	.byte		TIE	, Cn2, v127
	.byte		TIE	, Gs2
	.byte		TIE	, En3
	.byte	W05
	.byte	VOL	, v052
	.byte	W03
	.byte		v053
	.byte	W02
	.byte		v054
	.byte	W03
	.byte		v055
	.byte	W03
	.byte		v056
	.byte	W02
	.byte		v057
	.byte	W03
	.byte		v058
	.byte	W03
	.byte		v058
	.byte	W02
	.byte		v059
	.byte	W03
	.byte		v060
	.byte	W03
	.byte		v061
	.byte	W02
	.byte		v062
	.byte	W03
	.byte		v063
	.byte	W03
	.byte		v064
	.byte	W02
	.byte		v064
	.byte	W03
	.byte		v065
	.byte	W03
	.byte		v066
	.byte	W02
	.byte		v067
	.byte	W03
	.byte		v068
	.byte	W03
	.byte		v069
	.byte	W02
	.byte		v070
	.byte	W03
	.byte		v071
	.byte	W03
	.byte		v071
	.byte	W02
	.byte		v072
	.byte	W03
	.byte		v073
	.byte	W03
	.byte		v074
	.byte	W02
	.byte		v075
	.byte	W03
	.byte		v076
	.byte	W03
	.byte		v077
	.byte	W02
	.byte		v077
	.byte	W03
	.byte		v078
	.byte	W03
	.byte		v079
	.byte	W02
	.byte		v080
	.byte	W03
	.byte		v081
	.byte	W03
	.byte	PATT	
		.word	song024_1_1
	.byte		EOT	, Cn2
	.byte			Gs2
	.byte			En3
	.byte	VOL	, v095
	.byte		TIE	, Ds2, v127
	.byte		TIE	, Cn3
	.byte		N96	, Fn3
	.byte	W96
	.byte			Gn3
	.byte	W96
	.byte		EOT	, Ds2
	.byte			Cn3
	.byte		TIE	, En2
	.byte		TIE	, Gs3
	.byte	W96
	.byte	W96
	.byte		EOT	, En2
	.byte			Gs3
	.byte		N92	, Cs2
	.byte		N96	, En2
	.byte	W96
	.byte		N96	
	.byte		N48	, Gs2
	.byte	W48
	.byte		TIE	, Cs2
	.byte	W48
	.byte			Gs2
	.byte	W96
	.byte	W96
	.byte	W96
	.byte		EOT	, Cs2
	.byte			Gs2
	.byte		N96	, En2
	.byte		N96	, Gs2
	.byte	W96
	.byte		TIE	, Dn2
	.byte		TIE	, As2
	.byte	W96
	.byte	W96
	.byte	W24
	.byte		EOT	, Dn2
	.byte			As2
	.byte	W72
	.byte	W96
	.byte	W96
	.byte	W96
	.byte	W96
	.byte	W96
	.byte	W96
	.byte	W96
	.byte	W96
	.byte	PATT	
		.word	song024_1_9
	.byte	PATT	
		.word	song024_1_1
	.byte		EOT	, Cn2
	.byte	PATT	
		.word	song024_1_2
	.byte	PATT	
		.word	song024_1_3
	.byte		EOT	, Dn2
	.byte	PATT	
		.word	song024_1_4
	.byte	PATT	
		.word	song024_1_1
	.byte		EOT	, Ds2
	.byte	PATT	
		.word	song024_1_2
	.byte	PATT	
		.word	song024_1_3
	.byte		EOT	, Gs1
	.byte			Dn2
	.byte	GOTO	
		.word	song024_1_9
	.byte	FINE

	@********************** Track  2 **********************@

	.global song024_2
song024_2:	@ 0x087AC614
	.byte	KEYSH	, 0
	.byte	VOICE	, 45
	.byte	VOL	, v110
	.byte	PAN	, c_v
	.byte	BENDR	, 3
	.byte		N06	, Fn1, v120
	.byte	W18
	.byte		N18	, Fn1, v124
	.byte	W18
	.byte		N06	, Fn2, v120
	.byte	W12
	.byte			Fn1, v112
	.byte	W18
	.byte		N18	, Fn1, v124
	.byte	W18
	.byte		N06	, Ds2, v120
	.byte	W12
song024_2_1:
	.byte		N06	, Fn1, v120
	.byte	W18
	.byte		N18	, Fn1, v124
	.byte	W18
	.byte		N06	, Fn2, v120
	.byte	W12
	.byte			Fn1, v112
	.byte	W18
	.byte		N18	, Fn1, v124
	.byte	W18
	.byte		N06	, Ds2, v120
	.byte	W12
	.byte	PEND
	.byte	PATT	
		.word	song024_2_1
	.byte	PATT	
		.word	song024_2_1
	.byte	PATT	
		.word	song024_2_1
	.byte	PATT	
		.word	song024_2_1
	.byte	PATT	
		.word	song024_2_1
	.byte	PATT	
		.word	song024_2_1
song024_2_4:
	.byte	PATT	
		.word	song024_2_1
	.byte	PATT	
		.word	song024_2_1
	.byte	PATT	
		.word	song024_2_1
	.byte	PATT	
		.word	song024_2_1
	.byte	PATT	
		.word	song024_2_1
	.byte	PATT	
		.word	song024_2_1
	.byte	PATT	
		.word	song024_2_1
	.byte	PATT	
		.word	song024_2_1
	.byte	PATT	
		.word	song024_2_1
	.byte	PATT	
		.word	song024_2_1
	.byte	PATT	
		.word	song024_2_1
	.byte	PATT	
		.word	song024_2_1
	.byte	PATT	
		.word	song024_2_1
	.byte	PATT	
		.word	song024_2_1
	.byte	PATT	
		.word	song024_2_1
	.byte	PATT	
		.word	song024_2_1
	.byte	PATT	
		.word	song024_2_1
	.byte	PATT	
		.word	song024_2_1
	.byte	PATT	
		.word	song024_2_1
	.byte	PATT	
		.word	song024_2_1
	.byte	PATT	
		.word	song024_2_1
	.byte	PATT	
		.word	song024_2_1
	.byte	PATT	
		.word	song024_2_1
	.byte	PATT	
		.word	song024_2_1
	.byte	PATT	
		.word	song024_2_1
	.byte	PATT	
		.word	song024_2_1
	.byte	PATT	
		.word	song024_2_1
	.byte	PATT	
		.word	song024_2_1
	.byte	PATT	
		.word	song024_2_1
	.byte	PATT	
		.word	song024_2_1
	.byte	PATT	
		.word	song024_2_1
	.byte	PATT	
		.word	song024_2_1
song024_2_2:
	.byte		N06	, Fs1, v120
	.byte	W18
	.byte		N18	, Fs1, v124
	.byte	W18
	.byte		N06	, Fs2, v120
	.byte	W12
	.byte			Fs1, v112
	.byte	W18
	.byte		N18	, Fs1, v124
	.byte	W18
	.byte		N06	, En2, v120
	.byte	W12
	.byte	PEND
	.byte	PATT	
		.word	song024_2_2
	.byte	PATT	
		.word	song024_2_2
	.byte	PATT	
		.word	song024_2_2
	.byte	PATT	
		.word	song024_2_2
	.byte	PATT	
		.word	song024_2_2
	.byte	PATT	
		.word	song024_2_2
	.byte	PATT	
		.word	song024_2_2
song024_2_3:
	.byte		N06	, Gn1, v120
	.byte	W18
	.byte		N18	, Gn1, v124
	.byte	W18
	.byte		N06	, Gn2, v120
	.byte	W12
	.byte			Gn1, v112
	.byte	W18
	.byte		N18	, Gn1, v124
	.byte	W18
	.byte		N06	, Fn2, v120
	.byte	W12
	.byte	PEND
	.byte	PATT	
		.word	song024_2_3
	.byte	PATT	
		.word	song024_2_3
	.byte	PATT	
		.word	song024_2_3
	.byte	PATT	
		.word	song024_2_3
	.byte	PATT	
		.word	song024_2_3
	.byte	PATT	
		.word	song024_2_3
	.byte	PATT	
		.word	song024_2_3
	.byte		N12	, Gs1, v127
	.byte	W96
	.byte	W24
	.byte		N06	, Gs4, v072
	.byte	W06
	.byte			Gn4, v060
	.byte	W06
	.byte			Ds4
	.byte	W06
	.byte			Bn3, v044
	.byte	W06
	.byte			En4, v068
	.byte	W06
	.byte			Ds4, v064
	.byte	W06
	.byte			Bn3
	.byte	W06
	.byte			Gn3, v036
	.byte	W06
	.byte			Bn3, v052
	.byte	W06
	.byte			As3, v060
	.byte	W06
	.byte			Gn3, v056
	.byte	W06
	.byte			Ds3, v048
	.byte	W06
	.byte			Gn3, v064
	.byte	W06
	.byte			Fs3, v052
	.byte	W06
	.byte			Ds3, v060
	.byte	W06
	.byte			Cs3
	.byte	W06
	.byte		N24	, Cn3, v072
	.byte	W24
	.byte		N48	, Cn2, v120
	.byte	W48
	.byte	PATT	
		.word	song024_2_1
	.byte	PATT	
		.word	song024_2_1
	.byte	PATT	
		.word	song024_2_1
	.byte	PATT	
		.word	song024_2_1
	.byte	PATT	
		.word	song024_2_1
	.byte	PATT	
		.word	song024_2_1
	.byte	PATT	
		.word	song024_2_1
	.byte	PATT	
		.word	song024_2_1
	.byte	GOTO	
		.word	song024_2_4
	.byte	FINE

	@********************** Track  3 **********************@

	.global song024_3
song024_3:	@ 0x087AC7EA
	.byte	KEYSH	, 0
	.byte	VOICE	, 127
	.byte	VOL	, v103
	.byte	PAN	, c_v
	.byte	BENDR	, 3
	.byte	LFOS	, 31
	.byte	LFODL	, 22
	.byte	MOD	, 4
	.byte	MODT	, 0
	.byte		N05	, Dn1, v048
	.byte	W06
	.byte		N06	
	.byte	W06
	.byte		N12	, En1
	.byte	W12
	.byte		N06	, Dn1
	.byte	W06
	.byte		N06	
	.byte	W06
	.byte		N12	, En1
	.byte	W12
	.byte		N06	, Dn1
	.byte	W06
	.byte		N06	
	.byte	W06
	.byte		N12	, En1
	.byte	W12
	.byte		N06	, Dn1
	.byte	W06
	.byte		N06	
	.byte	W06
	.byte		N12	, En1
	.byte	W12
song024_3_1:
	.byte		N06	, Dn1, v048
	.byte	W06
	.byte		N06	
	.byte	W06
	.byte		N12	, En1
	.byte	W12
	.byte		N06	, Dn1
	.byte	W06
	.byte		N06	
	.byte	W06
	.byte		N12	, En1
	.byte	W12
	.byte		N06	, Dn1
	.byte	W06
	.byte		N06	
	.byte	W06
	.byte		N12	, En1
	.byte	W12
	.byte		N06	, Dn1
	.byte	W06
	.byte		N06	
	.byte	W06
	.byte		N12	, En1
	.byte	W12
	.byte	PEND
	.byte	PATT	
		.word	song024_3_1
	.byte	PATT	
		.word	song024_3_1
	.byte	PATT	
		.word	song024_3_1
	.byte	PATT	
		.word	song024_3_1
	.byte	PATT	
		.word	song024_3_1
	.byte	PATT	
		.word	song024_3_1
song024_3_5:
	.byte	PATT	
		.word	song024_3_1
	.byte	PATT	
		.word	song024_3_1
	.byte	PATT	
		.word	song024_3_1
	.byte	PATT	
		.word	song024_3_1
	.byte	PATT	
		.word	song024_3_1
	.byte	PATT	
		.word	song024_3_1
	.byte	PATT	
		.word	song024_3_1
	.byte	PATT	
		.word	song024_3_1
song024_3_2:
	.byte		N06	, Dn1, v048
	.byte		N12	, Ds2, v127
	.byte	W06
	.byte		N06	, Dn1, v048
	.byte	W06
	.byte		N12	, En1
	.byte	W12
	.byte		N06	, Dn1
	.byte		N12	, Ds2, v127
	.byte	W06
	.byte		N06	, Dn1, v048
	.byte	W06
	.byte		N12	, En1
	.byte	W12
	.byte		N06	, Dn1
	.byte		N12	, Ds2, v127
	.byte	W06
	.byte		N06	, Dn1, v048
	.byte	W06
	.byte		N12	, En1
	.byte	W12
	.byte		N06	, Dn1
	.byte		N12	, Ds2, v127
	.byte	W06
	.byte		N06	, Dn1, v048
	.byte	W06
	.byte		N12	, En1
	.byte	W12
	.byte	PEND
	.byte	PATT	
		.word	song024_3_2
	.byte	PATT	
		.word	song024_3_2
	.byte	PATT	
		.word	song024_3_2
	.byte	PATT	
		.word	song024_3_2
	.byte	PATT	
		.word	song024_3_2
	.byte		N12	, Ds2, v127
	.byte	W24
	.byte		N12	
	.byte	W24
	.byte		N12	
	.byte	W24
	.byte		N12	
	.byte	W24
	.byte		N12	
	.byte	W24
	.byte		N12	
	.byte	W24
	.byte		N12	
	.byte		N06	, En2, v048
	.byte	W06
	.byte			En2, v060
	.byte	W06
	.byte			En2, v068
	.byte	W06
	.byte			En2, v080
	.byte	W06
	.byte		N12	, Ds2, v127
	.byte		N06	, En2, v092
	.byte	W06
	.byte			En2, v104
	.byte	W06
	.byte			En2, v116
	.byte	W06
	.byte			En2, v127
	.byte	W06
song024_3_3:
	.byte		N06	, Dn1, v048
	.byte		N12	, Ds2, v127
	.byte	W06
	.byte		N06	, Dn1, v048
	.byte	W06
	.byte		N12	, En1
	.byte	W12
	.byte		N06	, Dn1
	.byte		N12	, Ds2, v127
	.byte		N24	, En2
	.byte	W06
	.byte		N06	, Dn1, v048
	.byte	W06
	.byte		N12	, En1
	.byte	W12
	.byte		N06	, Dn1
	.byte		N12	, Ds2, v127
	.byte	W06
	.byte		N06	, Dn1, v048
	.byte	W06
	.byte		N12	, En1
	.byte	W12
	.byte		N06	, Dn1
	.byte		N12	, Ds2, v127
	.byte		N15	, En2
	.byte	W06
	.byte		N06	, Dn1, v048
	.byte	W06
	.byte		N12	, En1
	.byte	W06
	.byte		N06	, En2, v068
	.byte	W06
	.byte	PEND
	.byte	PATT	
		.word	song024_3_3
	.byte	PATT	
		.word	song024_3_3
	.byte	PATT	
		.word	song024_3_3
	.byte	PATT	
		.word	song024_3_3
	.byte	PATT	
		.word	song024_3_3
	.byte	PATT	
		.word	song024_3_3
	.byte	PATT	
		.word	song024_3_3
	.byte	PATT	
		.word	song024_3_3
	.byte	PATT	
		.word	song024_3_3
	.byte	PATT	
		.word	song024_3_3
	.byte	PATT	
		.word	song024_3_3
	.byte	PATT	
		.word	song024_3_3
	.byte	PATT	
		.word	song024_3_3
	.byte	PATT	
		.word	song024_3_3
	.byte		N06	, Dn1, v048
	.byte		N12	, Ds2, v127
	.byte	W06
	.byte		N06	, Dn1, v048
	.byte	W06
	.byte		N12	, En1
	.byte	W12
	.byte		N06	, Dn1
	.byte		N12	, Ds2, v127
	.byte		N24	, En2
	.byte	W06
	.byte		N06	, Dn1, v048
	.byte	W06
	.byte		N12	, En1
	.byte	W12
	.byte		N06	, Dn1
	.byte		N12	, Ds2, v127
	.byte	W06
	.byte		N06	, Dn1, v048
	.byte	W06
	.byte		N12	, En1
	.byte	W12
	.byte		N06	, Dn1
	.byte		N12	, Ds2, v127
	.byte		N05	, En2
	.byte	W06
	.byte		N06	, Dn1, v048
	.byte		N06	, En2, v127
	.byte	W06
	.byte		N12	, En1, v048
	.byte	W06
	.byte		N06	, En2, v127
	.byte	W06
song024_3_4:
	.byte		N06	, Dn1, v048
	.byte		N12	, Ds2, v127
	.byte	W06
	.byte		N06	, Dn1, v048
	.byte	W06
	.byte		N12	, En1
	.byte	W12
	.byte		N06	, Dn1
	.byte		N12	, Ds2, v127
	.byte		N24	, En2
	.byte	W06
	.byte		N06	, Dn1, v048
	.byte	W06
	.byte		N12	, En1
	.byte	W12
	.byte		N06	, Dn1
	.byte		N12	, Ds2, v127
	.byte	W06
	.byte		N06	, Dn1, v048
	.byte	W06
	.byte		N12	, En1
	.byte	W12
	.byte		N06	, Dn1
	.byte		N12	, Ds2, v127
	.byte		N18	, En2
	.byte	W06
	.byte		N06	, Dn1, v048
	.byte	W06
	.byte		N12	, En1
	.byte	W06
	.byte		N06	, En2, v068
	.byte	W06
	.byte	PEND
	.byte	PATT	
		.word	song024_3_4
	.byte	PATT	
		.word	song024_3_4
	.byte	PATT	
		.word	song024_3_4
	.byte	PATT	
		.word	song024_3_4
	.byte	PATT	
		.word	song024_3_4
	.byte	PATT	
		.word	song024_3_4
	.byte	PATT	
		.word	song024_3_4
	.byte	PATT	
		.word	song024_3_4
	.byte	PATT	
		.word	song024_3_4
	.byte	PATT	
		.word	song024_3_4
	.byte	PATT	
		.word	song024_3_4
	.byte	PATT	
		.word	song024_3_4
	.byte	PATT	
		.word	song024_3_4
	.byte	PATT	
		.word	song024_3_4
	.byte	PATT	
		.word	song024_3_4
	.byte		N12	, En1, v127
	.byte		N96	, Cs2
	.byte		N12	, Ds2
	.byte	W96
	.byte	W96
	.byte	W96
	.byte	PATT	
		.word	song024_3_1
	.byte	PATT	
		.word	song024_3_1
	.byte	PATT	
		.word	song024_3_1
	.byte	PATT	
		.word	song024_3_1
	.byte	PATT	
		.word	song024_3_1
	.byte	PATT	
		.word	song024_3_1
	.byte	PATT	
		.word	song024_3_1
	.byte	PATT	
		.word	song024_3_1
	.byte	GOTO	
		.word	song024_3_5
	.byte	FINE

	@********************** Track  4 **********************@

	.global song024_4
song024_4:	@ 0x087ACA86
	.byte	KEYSH	, 0
	.byte	VOICE	, 13
	.byte	VOL	, v043
	.byte	PAN	, c_v
	.byte	BENDR	, 3
	.byte	LFOS	, 23
	.byte	LFODL	, 22
	.byte	MOD	, 4
	.byte	MODT	, 0
	.byte		N04	, Fn5, v127
	.byte	W04
	.byte			Ds5
	.byte	W04
	.byte			Cn5
	.byte	W04
	.byte			Gs4
	.byte	W04
	.byte			Gn4, v124
	.byte	W04
	.byte			Fn4
	.byte	W04
	.byte			Ds4
	.byte	W04
	.byte			Cn4
	.byte	W04
	.byte			Gs3, v120
	.byte	W04
	.byte			Gn3
	.byte	W04
	.byte			Fn3
	.byte	W04
	.byte			Gn3
	.byte	W04
	.byte			Gs3, v116
	.byte	W04
	.byte			Cn4
	.byte	W04
	.byte			Ds4
	.byte	W04
	.byte			Fn4
	.byte	W04
	.byte			Ds4, v112
	.byte	W04
	.byte			Cn4
	.byte	W04
	.byte			Gs3
	.byte	W04
	.byte			Gn3
	.byte	W04
	.byte			Fn3, v108
	.byte	W04
	.byte			Ds3
	.byte	W04
	.byte			Cn3
	.byte	W04
	.byte			Gs2
	.byte	W04
song024_4_1:
	.byte		N04	, Gn2, v104
	.byte	W04
	.byte			Fn2
	.byte	W04
	.byte			Gn2
	.byte	W04
	.byte			Gs2
	.byte	W04
	.byte			Cn3
	.byte	W04
	.byte			Ds3, v100
	.byte	W04
	.byte			Fn3
	.byte	W04
	.byte			Ds3
	.byte	W04
	.byte			Cn3
	.byte	W04
	.byte			Gs2, v096
	.byte	W04
	.byte			Gn2
	.byte	W04
	.byte			Fn2
	.byte	W04
	.byte			Ds2
	.byte	W04
	.byte			Cn2, v092
	.byte	W04
	.byte			Gs1
	.byte	W04
	.byte			Gn1
	.byte	W04
	.byte			Fn1
	.byte	W04
	.byte			Gn1, v088
	.byte	W04
	.byte			Gs1
	.byte	W04
	.byte			Cn2
	.byte	W04
	.byte			Ds2
	.byte	W04
	.byte			Fn2, v084
	.byte	W04
	.byte			Ds2
	.byte	W04
	.byte			Cn2
	.byte	W04
	.byte	PEND
song024_4_2:
	.byte		N04	, Gs1, v080
	.byte	W04
	.byte			Gn1
	.byte	W04
	.byte			Fn1
	.byte	W04
	.byte			Gn1
	.byte	W04
	.byte			Gs1, v084
	.byte	W04
	.byte			Cn2
	.byte	W04
	.byte			Gs1
	.byte	W04
	.byte			Gn1
	.byte	W04
	.byte			Fn1, v088
	.byte	W04
	.byte			Gn1
	.byte	W04
	.byte			Gs1
	.byte	W04
	.byte			Cn2
	.byte	W04
	.byte			Ds2, v092
	.byte	W04
	.byte			Fn2
	.byte	W04
	.byte			Gn2
	.byte	W04
	.byte			Gs2
	.byte	W04
	.byte			Cn3, v096
	.byte	W04
	.byte			Ds3
	.byte	W04
	.byte			Fn3
	.byte	W04
	.byte			Ds3
	.byte	W04
	.byte			Cn3, v100
	.byte	W04
	.byte			Gs2
	.byte	W04
	.byte			Gn2
	.byte	W04
	.byte			Fn2
	.byte	W04
	.byte	PEND
song024_4_3:
	.byte		N04	, Gn2, v104
	.byte	W04
	.byte			Gs2
	.byte	W04
	.byte			Cn3
	.byte	W04
	.byte			Ds3, v108
	.byte	W04
	.byte			Fn3
	.byte	W04
	.byte			Gn3
	.byte	W04
	.byte			Gs3
	.byte	W04
	.byte			Cn4, v112
	.byte	W04
	.byte			Ds4
	.byte	W04
	.byte			Fn4
	.byte	W04
	.byte			Ds4
	.byte	W04
	.byte			Cn4, v116
	.byte	W04
	.byte			Gs3
	.byte	W04
	.byte			Gn3
	.byte	W04
	.byte			Fn3
	.byte	W04
	.byte			Gn3, v120
	.byte	W04
	.byte			Gs3
	.byte	W04
	.byte			Cn4
	.byte	W04
	.byte			Ds4
	.byte	W04
	.byte			Fn4, v124
	.byte	W04
	.byte			Gn4
	.byte	W04
	.byte			Gs4
	.byte	W04
	.byte			Cn5
	.byte	W04
	.byte			Ds5, v127
	.byte	W04
	.byte	PEND
song024_4_4:
	.byte		N04	, Fn5, v127
	.byte	W04
	.byte			Ds5
	.byte	W04
	.byte			Cn5
	.byte	W04
	.byte			Gs4
	.byte	W04
	.byte			Gn4, v124
	.byte	W04
	.byte			Fn4
	.byte	W04
	.byte			Ds4
	.byte	W04
	.byte			Cn4
	.byte	W04
	.byte			Gs3, v120
	.byte	W04
	.byte			Gn3
	.byte	W04
	.byte			Fn3
	.byte	W04
	.byte			Gn3
	.byte	W04
	.byte			Gs3, v116
	.byte	W04
	.byte			Cn4
	.byte	W04
	.byte			Ds4
	.byte	W04
	.byte			Fn4
	.byte	W04
	.byte			Ds4, v112
	.byte	W04
	.byte			Cn4
	.byte	W04
	.byte			Gs3
	.byte	W04
	.byte			Gn3
	.byte	W04
	.byte			Fn3, v108
	.byte	W04
	.byte			Ds3
	.byte	W04
	.byte			Cn3
	.byte	W04
	.byte			Gs2
	.byte	W04
	.byte	PEND
	.byte	PATT	
		.word	song024_4_1
	.byte	PATT	
		.word	song024_4_2
	.byte	PATT	
		.word	song024_4_3
song024_4_12:
	.byte	PATT	
		.word	song024_4_4
	.byte	PATT	
		.word	song024_4_1
	.byte	PATT	
		.word	song024_4_2
	.byte	PATT	
		.word	song024_4_3
	.byte	PATT	
		.word	song024_4_4
	.byte	PATT	
		.word	song024_4_1
	.byte	PATT	
		.word	song024_4_2
	.byte	PATT	
		.word	song024_4_3
	.byte		N04	, Fn5, v127
	.byte	W04
	.byte			Ds5, v124
	.byte	W04
	.byte			Cn5
	.byte	W04
	.byte			Gs4, v120
	.byte	W04
	.byte			Gn4
	.byte	W04
	.byte			Fn4, v116
	.byte	W04
	.byte			Ds4
	.byte	W04
	.byte			Cn4, v112
	.byte	W04
	.byte			Gs3
	.byte	W04
	.byte			Gn3, v108
	.byte	W04
	.byte			Fn3
	.byte	W04
	.byte			Gn3, v104
	.byte	W04
	.byte			Gs3
	.byte	W04
	.byte			Cn4, v100
	.byte	W04
	.byte			Ds4
	.byte	W04
	.byte			Fn4, v096
	.byte	W04
	.byte			Ds4
	.byte	W04
	.byte			Cn4, v092
	.byte	W04
	.byte			Gs3
	.byte	W04
	.byte			Gn3, v088
	.byte	W04
	.byte			Fn3
	.byte	W04
	.byte			Ds3
	.byte	W04
	.byte			Cn3, v084
	.byte	W04
	.byte			Gs2
	.byte	W04
	.byte			Gn2, v080
	.byte	W04
	.byte			Fn2
	.byte	W04
	.byte			Gn2, v076
	.byte	W04
	.byte			Gs2
	.byte	W04
	.byte			Cn3, v072
	.byte	W04
	.byte			Ds3
	.byte	W04
	.byte			Fn3, v068
	.byte	W04
	.byte			Ds3
	.byte	W04
	.byte			Cn3, v064
	.byte	W04
	.byte			Gs2
	.byte	W04
	.byte			Gn2, v060
	.byte	W04
	.byte			Fn2
	.byte	W04
	.byte			Ds2, v056
	.byte	W04
	.byte			Cn2
	.byte	W04
	.byte			Gs1, v052
	.byte	W04
	.byte			Gn1
	.byte	W04
	.byte			Fn1, v048
	.byte	W04
	.byte			Gn1
	.byte	W04
	.byte			Gs1
	.byte	W04
	.byte			Cn2, v044
	.byte	W04
	.byte			Ds2
	.byte	W04
	.byte			Fn2, v040
	.byte	W04
	.byte			Ds2
	.byte	W04
	.byte			Cn2, v036
	.byte	W04
	.byte	W96
	.byte	W96
	.byte	W96
	.byte	W96
	.byte	W96
	.byte	W96
	.byte	W24
	.byte			Fn5, v127
	.byte	W04
	.byte			Ds5
	.byte	W04
	.byte			Cn5
	.byte	W04
	.byte			Gs4
	.byte	W04
	.byte			Gn4, v124
	.byte	W04
	.byte			Fn4
	.byte	W04
	.byte			Ds4
	.byte	W04
	.byte			Cn4
	.byte	W04
	.byte			Gs3, v120
	.byte	W04
	.byte			Gn3
	.byte	W04
	.byte			Fn3
	.byte	W04
	.byte			Gn3
	.byte	W04
	.byte			Gs3, v116
	.byte	W04
	.byte			Cn4
	.byte	W04
	.byte			Ds4
	.byte	W04
	.byte			Fn4
	.byte	W04
	.byte			Ds4, v112
	.byte	W04
	.byte			Cn4
	.byte	W04
song024_4_5:
	.byte		N04	, Gs3, v112
	.byte	W04
	.byte			Gn3
	.byte	W04
	.byte			Fn3, v108
	.byte	W04
	.byte			Ds3
	.byte	W04
	.byte			Cn3
	.byte	W04
	.byte			Gs2
	.byte	W04
	.byte			Gn2, v104
	.byte	W04
	.byte			Fn2
	.byte	W04
	.byte			Gn2
	.byte	W04
	.byte			Gs2
	.byte	W04
	.byte			Cn3
	.byte	W04
	.byte			Ds3, v100
	.byte	W04
	.byte			Fn3
	.byte	W04
	.byte			Ds3
	.byte	W04
	.byte			Cn3
	.byte	W04
	.byte			Gs2, v096
	.byte	W04
	.byte			Gn2
	.byte	W04
	.byte			Fn2
	.byte	W04
	.byte			Ds2
	.byte	W04
	.byte			Cn2, v092
	.byte	W04
	.byte			Gs1
	.byte	W04
	.byte			Gn1
	.byte	W04
	.byte			Fn1
	.byte	W04
	.byte			Gn1, v088
	.byte	W04
	.byte	PEND
song024_4_6:
	.byte		N04	, Gs1, v088
	.byte	W04
	.byte			Cn2
	.byte	W04
	.byte			Ds2
	.byte	W04
	.byte			Fn2, v084
	.byte	W04
	.byte			Ds2
	.byte	W04
	.byte			Cn2
	.byte	W04
	.byte			Gs1, v080
	.byte	W04
	.byte			Gn1
	.byte	W04
	.byte			Fn1
	.byte	W04
	.byte			Gn1
	.byte	W04
	.byte			Gs1, v084
	.byte	W04
	.byte			Cn2
	.byte	W04
	.byte			Gs1
	.byte	W04
	.byte			Gn1
	.byte	W04
	.byte			Fn1, v088
	.byte	W04
	.byte			Gn1
	.byte	W04
	.byte			Gs1
	.byte	W04
	.byte			Cn2
	.byte	W04
	.byte			Ds2, v092
	.byte	W04
	.byte			Fn2
	.byte	W04
	.byte			Gn2
	.byte	W04
	.byte			Gs2
	.byte	W04
	.byte			Cn3, v096
	.byte	W04
	.byte			Ds3
	.byte	W04
	.byte	PEND
song024_4_7:
	.byte		N04	, Fn3, v096
	.byte	W04
	.byte			Ds3
	.byte	W04
	.byte			Cn3, v100
	.byte	W04
	.byte			Gs2
	.byte	W04
	.byte			Gn2
	.byte	W04
	.byte			Fn2
	.byte	W04
	.byte			Gn2, v104
	.byte	W04
	.byte			Gs2
	.byte	W04
	.byte			Cn3
	.byte	W04
	.byte			Ds3, v108
	.byte	W04
	.byte			Fn3
	.byte	W04
	.byte			Gn3
	.byte	W04
	.byte			Gs3
	.byte	W04
	.byte			Cn4, v112
	.byte	W04
	.byte			Ds4
	.byte	W04
	.byte			Fn4
	.byte	W04
	.byte			Ds4
	.byte	W04
	.byte			Cn4, v116
	.byte	W04
	.byte			Gs3
	.byte	W04
	.byte			Gn3
	.byte	W04
	.byte			Fn3
	.byte	W04
	.byte			Gn3, v120
	.byte	W04
	.byte			Gs3
	.byte	W04
	.byte			Cn4
	.byte	W04
	.byte	PEND
song024_4_8:
	.byte		N04	, Ds4, v120
	.byte	W04
	.byte			Fn4, v124
	.byte	W04
	.byte			Gn4
	.byte	W04
	.byte			Gs4
	.byte	W04
	.byte			Cn5
	.byte	W04
	.byte			Ds5, v127
	.byte	W04
	.byte			Fn5
	.byte	W04
	.byte			Ds5
	.byte	W04
	.byte			Cn5
	.byte	W04
	.byte			Gs4
	.byte	W04
	.byte			Gn4, v124
	.byte	W04
	.byte			Fn4
	.byte	W04
	.byte			Ds4
	.byte	W04
	.byte			Cn4
	.byte	W04
	.byte			Gs3, v120
	.byte	W04
	.byte			Gn3
	.byte	W04
	.byte			Fn3
	.byte	W04
	.byte			Gn3
	.byte	W04
	.byte			Gs3, v116
	.byte	W04
	.byte			Cn4
	.byte	W04
	.byte			Ds4
	.byte	W04
	.byte			Fn4
	.byte	W04
	.byte			Ds4, v112
	.byte	W04
	.byte			Cn4
	.byte	W04
	.byte	PEND
	.byte	PATT	
		.word	song024_4_5
	.byte	PATT	
		.word	song024_4_6
	.byte	PATT	
		.word	song024_4_7
	.byte	PATT	
		.word	song024_4_8
	.byte	PATT	
		.word	song024_4_5
	.byte	PATT	
		.word	song024_4_6
	.byte	PATT	
		.word	song024_4_7
	.byte	PATT	
		.word	song024_4_8
	.byte	PATT	
		.word	song024_4_5
	.byte	PATT	
		.word	song024_4_6
	.byte	PATT	
		.word	song024_4_7
	.byte		N04	, Ds4, v120
	.byte	W04
	.byte			Fn4, v124
	.byte	W04
	.byte			Gn4
	.byte	W04
	.byte			Gs4
	.byte	W04
	.byte			Cn5
	.byte	W04
	.byte			Ds5, v127
	.byte	W04
	.byte			Fs5
	.byte	W04
	.byte			En5
	.byte	W04
	.byte			Cs5
	.byte	W04
	.byte			An4
	.byte	W04
	.byte			Gs4, v124
	.byte	W04
	.byte			Fs4
	.byte	W04
	.byte			En4
	.byte	W04
	.byte			Cs4
	.byte	W04
	.byte			An3, v120
	.byte	W04
	.byte			Gs3
	.byte	W04
	.byte			Fs3
	.byte	W04
	.byte			Gs3
	.byte	W04
	.byte			An3, v116
	.byte	W04
	.byte			Cs4
	.byte	W04
	.byte			En4
	.byte	W04
	.byte			Fs4
	.byte	W04
	.byte			En4, v112
	.byte	W04
	.byte			Cs4
	.byte	W04
	.byte			An3
	.byte	W04
	.byte			Gs3
	.byte	W04
	.byte			Fs3, v108
	.byte	W04
	.byte			En3
	.byte	W04
	.byte			Cs3
	.byte	W04
	.byte			An2
	.byte	W04
	.byte			Gs2, v104
	.byte	W04
	.byte			Fs2
	.byte	W04
	.byte			Gs2
	.byte	W04
	.byte			An2
	.byte	W04
	.byte			Cs3
	.byte	W04
	.byte			En3, v100
	.byte	W04
	.byte			Fs3
	.byte	W04
	.byte			En3
	.byte	W04
	.byte			Cs3
	.byte	W04
	.byte			An2, v096
	.byte	W04
	.byte			Gs2
	.byte	W04
	.byte			Fs2
	.byte	W04
	.byte			En2
	.byte	W04
	.byte			Cs2, v092
	.byte	W04
	.byte			An1
	.byte	W04
	.byte			Gs1
	.byte	W04
	.byte			Fs1
	.byte	W04
	.byte			Gs1, v088
	.byte	W04
	.byte			An1
	.byte	W04
	.byte			Cs2
	.byte	W04
	.byte			En2
	.byte	W04
	.byte			Fs2, v084
	.byte	W04
	.byte			En2
	.byte	W04
	.byte			Cs2
	.byte	W04
	.byte			An1, v080
	.byte	W04
	.byte			Gs1
	.byte	W04
	.byte			Fs1
	.byte	W04
	.byte			Gs1
	.byte	W04
	.byte			An1, v084
	.byte	W04
	.byte			Cs2
	.byte	W04
	.byte			An1
	.byte	W04
	.byte			Gs1
	.byte	W04
	.byte			Fs1, v088
	.byte	W04
	.byte			Gs1
	.byte	W04
	.byte			An1
	.byte	W04
	.byte			Cs2
	.byte	W04
	.byte			En2, v092
	.byte	W04
	.byte			Fs2
	.byte	W04
	.byte			Gs2
	.byte	W04
	.byte			An2
	.byte	W04
	.byte			Cs3, v096
	.byte	W04
	.byte			En3
	.byte	W04
	.byte			Fs3
	.byte	W04
	.byte			En3
	.byte	W04
	.byte			Cs3, v100
	.byte	W04
	.byte			An2
	.byte	W04
	.byte			Gs2
	.byte	W04
	.byte			Fs2
	.byte	W04
	.byte			Gs2, v104
	.byte	W04
	.byte			An2
	.byte	W04
	.byte			Cs3
	.byte	W04
	.byte			En3, v108
	.byte	W04
	.byte			Fs3
	.byte	W04
	.byte			Gs3
	.byte	W04
	.byte			An3
	.byte	W04
	.byte			Cs4, v112
	.byte	W04
	.byte			En4
	.byte	W04
	.byte			Fs4
	.byte	W04
	.byte			En4
	.byte	W04
	.byte			Cs4, v116
	.byte	W04
	.byte			Fs5, v127
	.byte	W04
	.byte			En5
	.byte	W04
	.byte			Cs5
	.byte	W04
	.byte			An4
	.byte	W04
	.byte			Gs4, v124
	.byte	W04
	.byte			Fs4
	.byte	W04
	.byte			En4
	.byte	W04
	.byte			Cs4
	.byte	W04
	.byte			An3, v120
	.byte	W04
	.byte			Gs3
	.byte	W04
	.byte			Fs3
	.byte	W04
	.byte			Gs3
	.byte	W04
	.byte			An3, v116
	.byte	W04
	.byte			Cs4
	.byte	W04
	.byte			En4
	.byte	W04
	.byte			Fs4
	.byte	W04
	.byte			En4, v112
	.byte	W04
	.byte			Cs4
	.byte	W04
	.byte			An3
	.byte	W04
	.byte			Gs3
	.byte	W04
	.byte			Fs3, v108
	.byte	W04
	.byte			En3
	.byte	W04
	.byte			Cs3
	.byte	W04
	.byte			An2
	.byte	W04
	.byte			Gs2, v104
	.byte	W04
	.byte			Fs2
	.byte	W04
	.byte			Gs2
	.byte	W04
	.byte			An2
	.byte	W04
	.byte			Cs3
	.byte	W04
	.byte			En3, v100
	.byte	W04
	.byte			Fs3
	.byte	W04
	.byte			En3
	.byte	W04
	.byte			Cs3
	.byte	W04
	.byte			An2, v096
	.byte	W04
	.byte			Gs2
	.byte	W04
	.byte			Fs2
	.byte	W04
	.byte			En2
	.byte	W04
	.byte			Cs2, v092
	.byte	W04
	.byte			An1
	.byte	W04
	.byte			Gs1
	.byte	W04
	.byte			Fs1
	.byte	W04
	.byte			Gs1, v088
	.byte	W04
	.byte			An1
	.byte	W04
	.byte			Cs2
	.byte	W04
	.byte			En2
	.byte	W04
	.byte			Fs2, v084
	.byte	W04
	.byte			En2
	.byte	W04
	.byte			Cs2
	.byte	W04
	.byte			An1, v080
	.byte	W04
	.byte			Gs1
	.byte	W04
	.byte			Fs1
	.byte	W04
	.byte			Gs1
	.byte	W04
	.byte			An1, v084
	.byte	W04
	.byte			Cs2
	.byte	W04
	.byte			An1
	.byte	W04
	.byte			Gs1
	.byte	W04
	.byte			Fs1, v088
	.byte	W04
	.byte			Gs1
	.byte	W04
	.byte			An1
	.byte	W04
	.byte			Cs2
	.byte	W04
	.byte			En2, v092
	.byte	W04
	.byte			Fs2
	.byte	W04
	.byte			Gs2
	.byte	W04
	.byte			An2
	.byte	W04
	.byte			Cs3, v096
	.byte	W04
	.byte			En3
	.byte	W04
	.byte			Fs3
	.byte	W04
	.byte			En3
	.byte	W04
	.byte			Cs3, v100
	.byte	W04
	.byte			An2
	.byte	W04
	.byte			Gs2
	.byte	W04
	.byte			Fs2
	.byte	W04
	.byte			Gs2, v104
	.byte	W04
	.byte			An2
	.byte	W04
	.byte			Cs3
	.byte	W04
	.byte			En3, v108
	.byte	W04
	.byte			Fs3
	.byte	W04
	.byte			Gs3
	.byte	W04
	.byte			An3
	.byte	W04
	.byte			Cs4, v112
	.byte	W04
	.byte			En4
	.byte	W04
	.byte			Fs4
	.byte	W04
	.byte			En4
	.byte	W04
	.byte			Cs4, v116
	.byte	W04
	.byte			Fs5, v127
	.byte	W04
	.byte			En5
	.byte	W04
	.byte			Cs5
	.byte	W04
	.byte			An4
	.byte	W04
	.byte			Gs4, v124
	.byte	W04
	.byte			Fs4
	.byte	W04
	.byte			En4
	.byte	W04
	.byte			Cs4
	.byte	W04
	.byte			An3, v120
	.byte	W04
	.byte			Gs3
	.byte	W04
	.byte			Fs3
	.byte	W04
	.byte			Gs3
	.byte	W04
	.byte			An3, v116
	.byte	W04
	.byte			Cs4
	.byte	W04
	.byte			En4
	.byte	W04
	.byte			Fs4
	.byte	W04
	.byte			En4, v112
	.byte	W04
	.byte			Cs4
	.byte	W04
	.byte			An3
	.byte	W04
	.byte			Gs3
	.byte	W04
	.byte			Fs3, v108
	.byte	W04
	.byte			En3
	.byte	W04
	.byte			Cs3
	.byte	W04
	.byte			An2
	.byte	W04
	.byte			Gn5, v127
	.byte	W04
	.byte			Fn5
	.byte	W04
	.byte			Dn5
	.byte	W04
	.byte			As4
	.byte	W04
	.byte			An4, v124
	.byte	W04
	.byte			Gn4
	.byte	W04
	.byte			Fn4
	.byte	W04
	.byte			Dn4
	.byte	W04
	.byte			As3, v120
	.byte	W04
	.byte			An3
	.byte	W04
	.byte			Gn3
	.byte	W04
	.byte			An3
	.byte	W04
	.byte			As3, v116
	.byte	W04
	.byte			Dn4
	.byte	W04
	.byte			Fn4
	.byte	W04
	.byte			Gn4
	.byte	W04
	.byte			Fn4, v112
	.byte	W04
	.byte			Dn4
	.byte	W04
song024_4_9:
	.byte		N04	, As3, v112
	.byte	W04
	.byte			An3
	.byte	W04
	.byte			Gn3, v108
	.byte	W04
	.byte			Fn3
	.byte	W04
	.byte			Dn3
	.byte	W04
	.byte			As2
	.byte	W04
	.byte			An2, v104
	.byte	W04
	.byte			Gn2
	.byte	W04
	.byte			An2
	.byte	W04
	.byte			As2
	.byte	W04
	.byte			Dn3
	.byte	W04
	.byte			Fn3, v100
	.byte	W04
	.byte			Gn3
	.byte	W04
	.byte			Fn3
	.byte	W04
	.byte			Dn3
	.byte	W04
	.byte			As2, v096
	.byte	W04
	.byte			An2
	.byte	W04
	.byte			Gn2
	.byte	W04
	.byte			Fn2
	.byte	W04
	.byte			Dn2, v092
	.byte	W04
	.byte			As1
	.byte	W04
	.byte			An1
	.byte	W04
	.byte			Gn1
	.byte	W04
	.byte			An1, v088
	.byte	W04
	.byte	PEND
song024_4_10:
	.byte		N04	, As1, v088
	.byte	W04
	.byte			Dn2
	.byte	W04
	.byte			Fn2
	.byte	W04
	.byte			Gn2, v084
	.byte	W04
	.byte			Fn2
	.byte	W04
	.byte			Dn2
	.byte	W04
	.byte			As1, v080
	.byte	W04
	.byte			An1
	.byte	W04
	.byte			Gn1
	.byte	W04
	.byte			An1
	.byte	W04
	.byte			As1, v084
	.byte	W04
	.byte			Dn2
	.byte	W04
	.byte			As1
	.byte	W04
	.byte			An1
	.byte	W04
	.byte			Gn1, v088
	.byte	W04
	.byte			An1
	.byte	W04
	.byte			As1
	.byte	W04
	.byte			Dn2
	.byte	W04
	.byte			Fn2, v092
	.byte	W04
	.byte			Gn2
	.byte	W04
	.byte			An2
	.byte	W04
	.byte			As2
	.byte	W04
	.byte			Dn3, v096
	.byte	W04
	.byte			Fn3
	.byte	W04
	.byte	PEND
song024_4_11:
	.byte		N04	, Gn3, v096
	.byte	W04
	.byte			Fn3
	.byte	W04
	.byte			Dn3, v100
	.byte	W04
	.byte			As2
	.byte	W04
	.byte			An2
	.byte	W04
	.byte			Gn2
	.byte	W04
	.byte			An2, v104
	.byte	W04
	.byte			As2
	.byte	W04
	.byte			Dn3
	.byte	W04
	.byte			Fn3, v108
	.byte	W04
	.byte			Gn3
	.byte	W04
	.byte			An3
	.byte	W04
	.byte			As3
	.byte	W04
	.byte			Dn4, v112
	.byte	W04
	.byte			Fn4
	.byte	W04
	.byte			Gn4
	.byte	W04
	.byte			Fn4
	.byte	W04
	.byte			Dn4, v116
	.byte	W04
	.byte			As3
	.byte	W04
	.byte			An3
	.byte	W04
	.byte			Gn3
	.byte	W04
	.byte			An3, v120
	.byte	W04
	.byte			As3
	.byte	W04
	.byte			Dn4
	.byte	W04
	.byte	PEND
	.byte			Fn4
	.byte	W04
	.byte			Gn4, v124
	.byte	W04
	.byte			An4
	.byte	W04
	.byte			As4
	.byte	W04
	.byte			Dn5
	.byte	W04
	.byte			Fn5, v127
	.byte	W04
	.byte			Gn5
	.byte	W04
	.byte			Fn5
	.byte	W04
	.byte			Dn5
	.byte	W04
	.byte			As4
	.byte	W04
	.byte			An4, v124
	.byte	W04
	.byte			Gn4
	.byte	W04
	.byte			Fn4
	.byte	W04
	.byte			Dn4
	.byte	W04
	.byte			As3, v120
	.byte	W04
	.byte			An3
	.byte	W04
	.byte			Gn3
	.byte	W04
	.byte			An3
	.byte	W04
	.byte			As3, v116
	.byte	W04
	.byte			Dn4
	.byte	W04
	.byte			Fn4
	.byte	W04
	.byte			Gn4
	.byte	W04
	.byte			Fn4, v112
	.byte	W04
	.byte			Dn4
	.byte	W04
	.byte	PATT	
		.word	song024_4_9
	.byte	PATT	
		.word	song024_4_10
	.byte	PATT	
		.word	song024_4_11
	.byte		N06	, Gs5, v124
	.byte	W96
	.byte	W96
	.byte	W96
	.byte	PATT	
		.word	song024_4_4
	.byte	PATT	
		.word	song024_4_1
	.byte	PATT	
		.word	song024_4_2
	.byte	PATT	
		.word	song024_4_3
	.byte	PATT	
		.word	song024_4_4
	.byte	PATT	
		.word	song024_4_1
	.byte	PATT	
		.word	song024_4_2
	.byte	PATT	
		.word	song024_4_3
	.byte	GOTO	
		.word	song024_4_12
	.byte	FINE

	@********************** Track  5 **********************@

	.global song024_5
song024_5:	@ 0x087AD0B9
	.byte	KEYSH	, 0
	.byte	VOICE	, 96
	.byte	VOL	, v110
	.byte	PAN	, c_v-64
	.byte	BENDR	, 3
	.byte	LFOS	, 23
	.byte	LFODL	, 22
	.byte	MOD	, 4
	.byte	MODT	, 0
	.byte		N48	, Fn3, v127
	.byte	W96
	.byte	W96
	.byte	W96
	.byte	W96
	.byte	W96
	.byte	W96
	.byte	W96
	.byte	W96
song024_5_1:
	.byte		N48	, Fn3, v127
	.byte	W96
	.byte	W96
	.byte	W96
	.byte	W96
	.byte	W96
	.byte	W96
	.byte	W96
	.byte	W96
	.byte			Fn3, v112
	.byte	W96
	.byte	W96
	.byte	W96
	.byte	W96
	.byte	W96
	.byte	W96
	.byte	W96
	.byte	W96
	.byte	W96
	.byte	W96
	.byte	W96
	.byte	W96
	.byte	W96
	.byte	W96
	.byte	W96
	.byte	W96
	.byte	W96
	.byte	W96
	.byte	W96
	.byte	W96
	.byte	W96
	.byte	W96
	.byte	W96
	.byte	W96
	.byte	W96
	.byte	W96
	.byte	W96
	.byte	W96
	.byte	W96
	.byte	W96
	.byte	W96
	.byte	W96
	.byte	W96
	.byte	W96
	.byte	W96
	.byte	W96
	.byte	W96
	.byte	W96
	.byte	W96
	.byte	W96
	.byte	W96
	.byte	W96
	.byte	W96
	.byte			Fn3, v127
	.byte	W96
	.byte	W96
	.byte	W96
	.byte	W96
	.byte	W96
	.byte	W96
	.byte	W96
	.byte	W96
	.byte	GOTO	
		.word	song024_5_1
	.byte	FINE

	@********************** Track  6 **********************@

	.global song024_6
song024_6:	@ 0x087AD11E
	.byte	KEYSH	, 0
	.byte	VOICE	, 96
	.byte	VOL	, v110
	.byte	PAN	, c_v+63
	.byte	BENDR	, 3
	.byte	LFOS	, 23
	.byte	LFODL	, 22
	.byte	MOD	, 4
	.byte	MODT	, 0
	.byte		N48	, Fn3, v127
	.byte	W96
	.byte	W96
	.byte	W96
	.byte	W96
	.byte	W96
	.byte	W96
	.byte	W96
	.byte	W96
song024_6_1:
	.byte		N48	, Fn3, v127
	.byte	W96
	.byte	W96
	.byte	W96
	.byte	W96
	.byte	W96
	.byte	W96
	.byte	W96
	.byte	W96
	.byte			Fn3, v112
	.byte	W96
	.byte	W96
	.byte	W96
	.byte	W96
	.byte	W96
	.byte	W96
	.byte	W96
	.byte	W96
	.byte	W96
	.byte	W96
	.byte	W96
	.byte	W96
	.byte	W96
	.byte	W96
	.byte	W96
	.byte	W96
	.byte	W96
	.byte	W96
	.byte	W96
	.byte	W96
	.byte	W96
	.byte	W96
	.byte	W96
	.byte	W96
	.byte	W96
	.byte	W96
	.byte	W96
	.byte	W96
	.byte	W96
	.byte	W96
	.byte	W96
	.byte	W96
	.byte	W96
	.byte	W96
	.byte	W96
	.byte	W96
	.byte	W96
	.byte	W96
	.byte	W96
	.byte	W96
	.byte	W96
	.byte	W96
	.byte	W96
	.byte			Fn3, v127
	.byte	W96
	.byte	W96
	.byte	W96
	.byte	W96
	.byte	W96
	.byte	W96
	.byte	W96
	.byte	W96
	.byte	GOTO	
		.word	song024_6_1
	.byte	FINE

	@********************** Track  7 **********************@

	.global song024_7
song024_7:	@ 0x087AD183
	.byte	KEYSH	, 0
	.byte	VOICE	, 51
	.byte	VOL	, v043
	.byte	PAN	, c_v
	.byte	BENDR	, 3
	.byte	LFOS	, 23
	.byte	LFODL	, 22
	.byte	BENDR	, 15
	.byte	W96
	.byte	W96
	.byte	W96
	.byte	W96
	.byte	W96
	.byte	W96
	.byte	W96
	.byte	W96
song024_7_1:
	.byte	W96
	.byte	W96
	.byte	W96
	.byte	W96
	.byte	W96
	.byte	W96
	.byte	W96
	.byte	W96
	.byte	W96
	.byte	W96
	.byte	W96
	.byte	W96
	.byte	W96
	.byte	W96
	.byte	W96
	.byte		N06	, An3, v116
	.byte	W06
	.byte			An3, v096
	.byte	W06
	.byte			An3, v104
	.byte	W06
	.byte		N06	
	.byte	W06
	.byte			Gs2
	.byte	W06
	.byte			Gs2, v100
	.byte	W06
	.byte			Gs2, v096
	.byte	W06
	.byte			Gs2, v100
	.byte	W54
	.byte	W96
	.byte	W96
	.byte	W96
	.byte	W96
	.byte	W96
	.byte	W96
	.byte	W96
	.byte	W96
	.byte	W96
	.byte	W96
	.byte	W96
	.byte	W96
	.byte	W96
	.byte	W96
	.byte	W96
	.byte	W96
	.byte	W96
	.byte	W96
	.byte	W96
	.byte	W96
	.byte	W96
	.byte	W96
	.byte	W96
	.byte	W96
	.byte	W96
	.byte	W96
	.byte	W96
	.byte	W96
	.byte	W96
	.byte	W96
	.byte	W96
	.byte	W96
	.byte	W96
	.byte	W96
	.byte	W96
	.byte	W96
	.byte	W96
	.byte	W96
	.byte	W96
	.byte	W96
	.byte	W96
	.byte	W96
	.byte	W96
	.byte	GOTO	
		.word	song024_7_1
	.byte	FINE

	@********************** Track  8 **********************@

	.global song024_8
song024_8:	@ 0x087AD1F2
	.byte	KEYSH	, 0
	.byte	VOICE	, 95
	.byte	VOL	, v110
	.byte	PAN	, c_v
	.byte	BENDR	, 3
	.byte	LFOS	, 23
	.byte	LFODL	, 22
	.byte	PRIO	, 30
	.byte	BENDR	, 15
	.byte	W96
	.byte	W96
	.byte	W96
	.byte	W96
	.byte	W96
	.byte	W96
	.byte	W96
	.byte	W96
song024_8_1:
	.byte	W96
	.byte	W96
	.byte	W96
	.byte	W96
	.byte	W96
	.byte	W96
	.byte	W96
	.byte	W96
	.byte	W96
	.byte	W96
	.byte	W96
	.byte	W96
	.byte	W96
	.byte	W96
	.byte	W96
	.byte	W96
	.byte	W96
	.byte	W96
	.byte	W96
	.byte	W96
	.byte	W96
	.byte	W96
	.byte	W96
	.byte	W96
	.byte	W96
	.byte	W96
	.byte	W96
	.byte	W96
	.byte	W96
	.byte	W96
	.byte	W96
	.byte	W96
	.byte	VOL	, v095
	.byte		TIE	, Cs4, v120
	.byte	W96
	.byte	W44
	.byte	W03
	.byte		EOT	
	.byte	W01
	.byte		N23	, Bn3, v096
	.byte	W24
	.byte			An3, v104
	.byte	W24
	.byte		N92	, Gs3, v124
	.byte	W96
	.byte		N72	, Cs3, v108
	.byte	W72
	.byte		N23	, Gs3, v127
	.byte	W24
	.byte		N92	, En4, v120
	.byte	W96
	.byte			Ds4, v116
	.byte	W96
	.byte	W48
	.byte		N44	, Ds4, v124
	.byte	W48
	.byte		N32	, Cs4
	.byte	W36
	.byte			Ds4, v116
	.byte	W36
	.byte		N23	, En4, v120
	.byte	W24
	.byte		TIE	, Fn4
	.byte	W32
	.byte	VOL	, v095
	.byte	W03
	.byte		v094
	.byte	W01
	.byte		v093
	.byte	W02
	.byte		v092
	.byte	W01
	.byte		v091
	.byte	W02
	.byte		v090
	.byte	W01
	.byte		v090
	.byte	W02
	.byte		v089
	.byte	W01
	.byte		v088
	.byte	W02
	.byte		v087
	.byte	W01
	.byte		v086
	.byte	W02
	.byte		v085
	.byte	W01
	.byte		v084
	.byte	W02
	.byte		v084
	.byte	W01
	.byte		v083
	.byte	W02
	.byte		v082
	.byte	W01
	.byte		v081
	.byte	W02
	.byte		v080
	.byte	W01
	.byte		v079
	.byte	W02
	.byte		v078
	.byte	W02
	.byte		v077
	.byte	W01
	.byte		v077
	.byte	W02
	.byte		v076
	.byte	W01
	.byte		v075
	.byte	W02
	.byte		v074
	.byte	W01
	.byte		v073
	.byte	W02
	.byte		v072
	.byte	W01
	.byte		v071
	.byte	W02
	.byte		v071
	.byte	W01
	.byte		v070
	.byte	W02
	.byte		v069
	.byte	W01
	.byte		v068
	.byte	W02
	.byte		v067
	.byte	W01
	.byte		v066
	.byte	W02
	.byte		v065
	.byte	W01
	.byte		v064
	.byte	W02
	.byte		v064
	.byte	W01
	.byte		v063
	.byte	W02
	.byte		v062
	.byte	W02
	.byte		v061
	.byte	W01
	.byte		v060
	.byte	W02
	.byte		v059
	.byte	W01
	.byte		v058
	.byte	W02
	.byte		v058
	.byte	W01
	.byte		v057
	.byte	W02
	.byte		v056
	.byte	W01
	.byte		v055
	.byte	W02
	.byte		v054
	.byte	W01
	.byte		v053
	.byte	W02
	.byte		v052
	.byte	W01
	.byte		v051
	.byte	W02
	.byte		v051
	.byte	W01
	.byte		v050
	.byte	W02
	.byte		v049
	.byte	W01
	.byte		v048
	.byte	W02
	.byte		v047
	.byte	W01
	.byte		v046
	.byte	W02
	.byte		v045
	.byte	W01
	.byte		v045
	.byte	W02
	.byte		v044
	.byte	W02
	.byte		v043
	.byte	W01
	.byte		v042
	.byte	W02
	.byte		v041
	.byte	W01
	.byte		v040
	.byte	W02
	.byte		v039
	.byte	W01
	.byte		v038
	.byte	W02
	.byte		v038
	.byte	W01
	.byte		v037
	.byte	W02
	.byte		v036
	.byte	W01
	.byte		v035
	.byte	W02
	.byte		v034
	.byte	W01
	.byte		v033
	.byte	W02
	.byte		v032
	.byte	W01
	.byte		v032
	.byte	W02
	.byte		v031
	.byte	W01
	.byte		v030
	.byte	W02
	.byte		v029
	.byte	W01
	.byte		v028
	.byte	W01
	.byte		v027
	.byte	W06
	.byte		EOT	
	.byte	W32
	.byte	W03
	.byte	W96
	.byte	W96
	.byte	W96
	.byte	W96
	.byte	W96
	.byte	W96
	.byte	W96
	.byte	W96
	.byte	W96
	.byte	W96
	.byte	W96
	.byte	W96
	.byte	W96
	.byte	W96
	.byte	W96
	.byte	W96
	.byte	W96
	.byte	GOTO	
		.word	song024_8_1
	.byte	FINE

	@********************** Track  9 **********************@

	.global song024_9
song024_9:	@ 0x087AD31B
	.byte	KEYSH	, 0
	.byte	VOICE	, 74
	.byte	VOL	, v086
	.byte	PAN	, c_v
	.byte	BENDR	, 3
	.byte	LFOS	, 23
	.byte	LFODL	, 22
	.byte	PRIO	, 30
	.byte	BENDR	, 15
	.byte	W96
	.byte	W96
	.byte	W96
	.byte	W96
	.byte	W96
	.byte	W96
	.byte	W96
	.byte	W96
song024_9_1:
	.byte	W96
	.byte	W96
	.byte	W96
	.byte	W96
	.byte	W96
	.byte	W96
	.byte	W96
	.byte	W96
	.byte	W96
	.byte	W96
	.byte	W96
	.byte	W96
	.byte	W96
	.byte	W96
	.byte	W96
	.byte	W96
	.byte	W96
	.byte	W96
	.byte	W96
	.byte	W96
	.byte	W96
	.byte	W96
	.byte	W96
	.byte	W96
	.byte	W96
	.byte	W96
	.byte	W96
	.byte	W96
	.byte	W96
	.byte	W96
	.byte	W96
	.byte	W96
	.byte	W96
	.byte	W96
	.byte	W96
	.byte	W96
	.byte	W96
	.byte	W96
	.byte	W96
	.byte	W96
	.byte	W96
	.byte	W24
	.byte		N04	, Gn2, v127
	.byte		N04	, As2
	.byte	W12
	.byte			Gn2, v124
	.byte		N04	, As2
	.byte	W04
	.byte			Gn2, v116
	.byte		N04	, As2
	.byte	W04
	.byte			Gn2, v124
	.byte		N04	, As2
	.byte	W04
	.byte			As2, v127
	.byte		N04	, Dn3
	.byte	W08
	.byte			As2
	.byte		N04	, Dn3
	.byte	W08
	.byte			As2
	.byte		N04	, Dn3
	.byte	W08
	.byte		N04	
	.byte		N04	, Fn3
	.byte	W08
	.byte			Dn3
	.byte		N04	, Fn3
	.byte	W08
	.byte			Dn3
	.byte		N04	, Fn3
	.byte	W08
	.byte		N08	
	.byte		N08	, An3
	.byte	W16
	.byte		N06	, Gn3
	.byte		N06	, As3
	.byte	W08
	.byte		N60	, Fn3
	.byte		N56	, An3
	.byte	W60
	.byte		N05	
	.byte	W06
	.byte			As3
	.byte	W06
	.byte		N68	, Cn4
	.byte	W72
	.byte		N11	, As3
	.byte	W12
	.byte		N08	, An3
	.byte	W12
	.byte		N07	, As3
	.byte	W18
	.byte		N05	
	.byte	W06
	.byte		TIE	, Dn3
	.byte	W72
	.byte	W36
	.byte	W02
	.byte		EOT	
	.byte	W32
	.byte	W02
	.byte		N07	
	.byte	W24
	.byte		N32	, As3
	.byte	W36
	.byte		N05	, An3
	.byte	W06
	.byte			As3
	.byte	W06
	.byte		N32	, Cn4
	.byte	W36
	.byte		N05	, As3
	.byte	W06
	.byte			Cn4
	.byte	W06
	.byte		N32	, Dn4
	.byte	W36
	.byte		N05	, Cn4
	.byte	W06
	.byte			Dn4
	.byte	W06
	.byte		N17	, Ds4
	.byte	W18
	.byte			Fn4
	.byte	W18
	.byte		N11	, Gn4
	.byte	W12
	.byte			Gs4
	.byte	W24
	.byte		N06	, Bn3, v100
	.byte	W06
	.byte			As3, v112
	.byte	W06
	.byte			Gn3, v104
	.byte	W06
	.byte			Ds3, v100
	.byte	W06
	.byte			Gs3, v120
	.byte	W06
	.byte			Gn3, v108
	.byte	W06
	.byte			Ds3, v112
	.byte	W06
	.byte			Bn2, v092
	.byte	W06
	.byte			En3, v116
	.byte	W06
	.byte			Ds3
	.byte	W06
	.byte			Bn2, v112
	.byte	W06
	.byte			Gn2, v084
	.byte	W06
	.byte			Bn2, v100
	.byte	W06
	.byte			As2, v112
	.byte	W06
	.byte			Gn2, v104
	.byte	W06
	.byte			Ds2, v100
	.byte	W06
	.byte			Gs3, v112
	.byte	W06
	.byte			Gn3, v096
	.byte	W06
	.byte			Ds3, v108
	.byte	W06
	.byte			Bn2, v096
	.byte	W06
	.byte			En3, v108
	.byte	W06
	.byte			Ds3, v104
	.byte	W06
	.byte			Bn2, v076
	.byte	W06
	.byte			Gn2, v096
	.byte	W06
	.byte			Bn2, v108
	.byte	W06
	.byte			As2
	.byte	W06
	.byte			Gn2, v104
	.byte	W06
	.byte			Ds2, v108
	.byte	W06
	.byte			Gn2, v112
	.byte	W06
	.byte			Fs2, v104
	.byte	W06
	.byte			Ds2, v100
	.byte	W06
	.byte			Bn1, v112
	.byte	W06
	.byte		N56	, Cn2, v108
	.byte	W60
	.byte		N03	, Cs2, v104
	.byte	W03
	.byte			Dn2, v116
	.byte	W03
	.byte			Ds2, v120
	.byte	W03
	.byte			En2
	.byte	W03
	.byte	W96
	.byte	W96
	.byte	W96
	.byte	W96
	.byte	W96
	.byte	W96
	.byte	W96
	.byte	W96
	.byte	GOTO	
		.word	song024_9_1
	.byte	FINE

	@********************** Track  10 **********************@

	.global song024_10
song024_10:	@ 0x087AD456
	.byte	KEYSH	, 0
	.byte	VOICE	, 98
	.byte	VOL	, v110
	.byte	PAN	, c_v
	.byte	BENDR	, 3
	.byte	LFOS	, 23
	.byte	LFODL	, 22
	.byte	PRIO	, 30
	.byte	BENDR	, 15
	.byte	W96
	.byte	W96
	.byte	W96
	.byte	W96
	.byte	W96
	.byte	W96
	.byte	W96
	.byte	W96
song024_10_1:
	.byte	W96
	.byte	W96
	.byte	W96
	.byte	W96
	.byte	W96
	.byte	W96
	.byte	W96
	.byte	W96
	.byte	W96
	.byte	W96
	.byte	W96
	.byte	W96
	.byte	W96
	.byte	W96
	.byte	W96
	.byte	W96
	.byte	W96
	.byte	W96
	.byte	W96
	.byte	W96
	.byte	W96
	.byte	W96
	.byte	W96
	.byte	W96
	.byte	W96
	.byte	W96
	.byte	W96
	.byte	W96
	.byte	W96
	.byte	W96
	.byte	W96
	.byte	W96
	.byte	W96
	.byte	W96
	.byte	W96
	.byte	W96
	.byte	W96
	.byte	W96
	.byte	W96
	.byte	W96
	.byte	W96
	.byte	W96
	.byte	W04
	.byte		N04	, Gn1, v108
	.byte	W04
	.byte			An1
	.byte	W04
	.byte			As1, v112
	.byte	W04
	.byte			Cn2, v096
	.byte	W04
	.byte			Dn2, v116
	.byte	W04
	.byte			En2, v112
	.byte	W04
	.byte			Fn2
	.byte	W04
	.byte			Gn2, v104
	.byte	W04
	.byte			An2, v108
	.byte	W04
	.byte			As2, v112
	.byte	W04
	.byte			Cn3, v104
	.byte	W04
	.byte		TIE	, Dn3, v124
	.byte	W48
	.byte			Fn2
	.byte	W96
	.byte		EOT	, Dn3
	.byte		N48	, As2
	.byte	W48
	.byte		EOT	, Fn2
	.byte		TIE	
	.byte		N48	, An2
	.byte	W48
	.byte			As2
	.byte	W48
	.byte			Cn3
	.byte	W48
	.byte		EOT	, Fn2
	.byte		N96	
	.byte		N96	, Dn3
	.byte	W96
	.byte		N48	, As2
	.byte		N48	, Fn3
	.byte	W48
	.byte			Dn3
	.byte		N48	, As3
	.byte	W48
	.byte		N12	, Ds3
	.byte		N12	, Bn3
	.byte	W24
	.byte		N06	, Bn3, v108
	.byte		N06	, Bn4, v100
	.byte	W06
	.byte			As3, v108
	.byte		N06	, As4, v112
	.byte	W06
	.byte			Gn3, v104
	.byte		N06	, Gn4
	.byte	W06
	.byte			Ds3, v108
	.byte		N06	, Ds4, v100
	.byte	W06
	.byte			Gs3, v112
	.byte		N06	, Gs4, v120
	.byte	W06
	.byte			Gn3, v096
	.byte		N06	, Gn4, v108
	.byte	W06
	.byte			Ds3
	.byte		N06	, Ds4, v112
	.byte	W06
	.byte			Bn2, v096
	.byte		N06	, Bn3, v092
	.byte	W06
	.byte			En3, v108
	.byte		N06	, En4, v116
	.byte	W06
	.byte			Ds3, v104
	.byte		N06	, Ds4, v116
	.byte	W06
	.byte			Bn2, v076
	.byte		N06	, Bn3, v112
	.byte	W06
	.byte			Gn2, v096
	.byte		N06	, Gn3, v084
	.byte	W06
	.byte			Bn2, v108
	.byte		N06	, Bn3, v100
	.byte	W06
	.byte			As2, v108
	.byte		N06	, As3, v112
	.byte	W06
	.byte			Gn2, v104
	.byte		N06	, Gn3
	.byte	W06
	.byte			Ds2, v108
	.byte		N06	, Ds3, v100
	.byte	W06
	.byte			Gs2, v112
	.byte		N06	, Gs3
	.byte	W06
	.byte			Gn2, v096
	.byte		N06	, Gn3
	.byte	W06
	.byte			Ds2, v108
	.byte		N06	, Ds3
	.byte	W06
	.byte			Bn1, v096
	.byte		N06	, Bn2
	.byte	W06
	.byte			En2, v108
	.byte		N06	, En3
	.byte	W06
	.byte			Ds2, v104
	.byte		N06	, Ds3
	.byte	W06
	.byte			Bn1, v076
	.byte		N06	, Bn2
	.byte	W06
	.byte			Gn1, v096
	.byte		N06	, Gn2
	.byte	W06
	.byte			Bn1, v108
	.byte		N06	, Bn2
	.byte	W06
	.byte			As1
	.byte		N06	, As2
	.byte	W06
	.byte			Gn1, v104
	.byte		N06	, Gn2
	.byte	W06
	.byte			Ds1, v108
	.byte		N06	, Ds2
	.byte	W06
	.byte			Gn1, v112
	.byte		N06	, Gn2
	.byte	W06
	.byte			Fs1, v104
	.byte		N06	, Fs2
	.byte	W06
	.byte			Ds1, v100
	.byte		N06	, Ds2
	.byte	W06
	.byte			Bn0, v112
	.byte		N06	, Bn1
	.byte	W06
	.byte		N56	, Cn2
	.byte		N56	, Cn3, v108
	.byte	W60
	.byte		N03	, Cs2, v104
	.byte		N03	, Cs3
	.byte	W03
	.byte			Dn2, v108
	.byte		N03	, Dn3, v116
	.byte	W03
	.byte			Ds2
	.byte		N03	, Ds3, v120
	.byte	W03
	.byte			En2
	.byte		N03	, En3
	.byte	W03
	.byte	W96
	.byte	W96
	.byte	W96
	.byte	W96
	.byte	W96
	.byte	W96
	.byte	W96
	.byte	W96
	.byte	GOTO	
		.word	song024_10_1
	.byte	FINE

	.align 2
	.global song024
song024:	@ 0x087AD5BC
	.byte	10		@ trackCount
	.byte	0		@ blockCount
	.byte	0		@ priority
	.byte	128		@ reverb

	.word	voicegroup000		@ voicegroup/tone

	.word	song024_1		@ track
	.word	song024_2		@ track
	.word	song024_3		@ track
	.word	song024_4		@ track
	.word	song024_5		@ track
	.word	song024_6		@ track
	.word	song024_7		@ track
	.word	song024_8		@ track
	.word	song024_9		@ track
	.word	song024_10		@ track
